<?xml version="1.0" standalone="no"?>
<!DOCTYPE svg PUBLIC "-//W3C//DTD SVG 1.1//EN" "http://www.w3.org/Graphics/SVG/1.1/DTD/svg11.dtd" >
<svg xmlns="http://www.w3.org/2000/svg">
<metadata>
Created by FontPrep 20130207 at Thu Jul 13 16:52:21 2017
 By Lizzy Knight
Copyright (c) 2017 by Salvador Rodri'guez. All rights reserved.
</metadata>
<defs>
<font id="b8d3283ac00d9ca70ebcb3b240ccafe6" horiz-adv-x='1024' >
  <font-face 
    font-family="SonnyGothic-Bold"
    font-weight="600"
    font-stretch="normal"
    units-per-em="2048"
    panose-1="0 0 7 0 0 0 0 0 0 0"
    ascent="1638"
    descent="-410"
    x-height="993"
    cap-height="1434"
    bbox="-461 -596 3218 2048"
    underline-thickness="102"
    underline-position="-102"
    unicode-range="U+0020-FB02"
  />
<missing-glyph horiz-adv-x="1447" 
d="M326 121h688l-688 1227v-1227zM1124 1393h-690l690 -1231v1231zM205 1513h1038v-1513h-1038v1513z" />
    <glyph glyph-name="fi" unicode="fi" horiz-adv-x="1433" 
d="M997 0v993h308v-993h-308zM993 1300v281h316v-281h-316zM244 0v745h-234v248h234v178q0 203 129 324t344 121q84 0 147 -19v-251q-47 10 -84 10q-106 0 -166 -50t-61 -139v-174h311v-248h-311v-745h-309z" />
    <glyph glyph-name="fl" unicode="fl" horiz-adv-x="1433" 
d="M997 0v1581h308v-1581h-308zM244 0v745h-234v248h234v178q0 203 129 324t344 121q84 0 147 -19v-251q-47 10 -84 10q-106 0 -166 -50t-61 -139v-174h311v-248h-311v-745h-309z" />
    <glyph glyph-name="f_f" unicode="ff" horiz-adv-x="1736" 
d="M1112 0v745h-233v248h233v178q0 203 129 324t344 121q84 0 148 -19v-251q-47 10 -84 10q-107 0 -167 -50t-61 -139v-174h312v-248h-312v-745h-309zM244 0v745h-234v248h234v178q0 203 129 324t344 121q84 0 147 -19v-251q-47 10 -84 10q-106 0 -166 -50t-61 -139v-174
h311v-248h-311v-745h-309z" />
    <glyph glyph-name="f_f_i" unicode="ffi" horiz-adv-x="2301" 
d="M1866 0v993h307v-993h-307zM1862 1300v281h315v-281h-315zM1112 0v745h-233v248h233v178q0 203 129 324t344 121q84 0 148 -19v-251q-47 10 -84 10q-107 0 -167 -50t-61 -139v-174h312v-248h-312v-745h-309zM244 0v745h-234v248h234v178q0 203 129 324t344 121
q84 0 147 -19v-251q-47 10 -84 10q-106 0 -166 -50t-61 -139v-174h311v-248h-311v-745h-309z" />
    <glyph glyph-name="f_f_l" unicode="ffl" horiz-adv-x="2301" 
d="M1866 0v1581h307v-1581h-307zM1112 0v745h-233v248h233v178q0 203 129 324t344 121q84 0 148 -19v-251q-47 10 -84 10q-107 0 -167 -50t-61 -139v-174h312v-248h-312v-745h-309zM244 0v745h-234v248h234v178q0 203 129 324t344 121q84 0 147 -19v-251q-47 10 -84 10
q-106 0 -166 -50t-61 -139v-174h311v-248h-311v-745h-309z" />
    <glyph glyph-name=".notdef" horiz-adv-x="1447" 
d="M326 121h688l-688 1227v-1227zM1124 1393h-690l690 -1231v1231zM205 1513h1038v-1513h-1038v1513z" />
    <glyph glyph-name=".null" horiz-adv-x="0" 
 />
    <glyph glyph-name="nonmarkingreturn" horiz-adv-x="681" 
 />
    <glyph glyph-name="space" unicode=" " horiz-adv-x="522" 
 />
    <glyph glyph-name="exclam" unicode="!" horiz-adv-x="600" 
d="M129 322h342v-322h-342v322zM141 1434h320v-392l-25 -575h-272l-23 575v392z" />
    <glyph glyph-name="quotedbl" unicode="&#x22;" horiz-adv-x="759" 
d="M436 1581h250v-186l-14 -414h-221l-15 414v186zM74 1581h250v-186l-15 -414h-221l-14 414v186z" />
    <glyph glyph-name="numbersign" unicode="#" horiz-adv-x="1689" 
d="M649 604h316l75 225h-317zM63 360v244h285l76 225h-238v246h318l119 359h301l-119 -359h315l119 359h301l-119 -359h205v-246h-287l-73 -225h239v-244h-319l-119 -360h-301l119 360h-318l-118 -360h-299l118 360h-205z" />
    <glyph glyph-name="dollar" unicode="$" horiz-adv-x="1443" 
d="M494 1043q0 -143 224 -180t400 -102q94 -36 156 -124t63 -223q0 -174 -125 -291t-335 -146v-217h-254v215q-231 29 -376 156q-144 127 -165 326h321q19 -100 109 -165t220 -65t198 44q68 43 68 111q-1 122 -170 165q-74 19 -164 33q-209 34 -348 109q-75 42 -121 127
q-47 85 -48 206q0 180 129 299t347 141v215h254v-225q195 -37 321 -153t139 -283h-323q-18 88 -87 142t-184 54t-182 -46t-67 -123z" />
    <glyph glyph-name="percent" unicode="%" horiz-adv-x="2357" 
d="M1775 162q101 0 163 58t62 154t-62 155t-163 59t-163 -58t-64 -155q0 -97 63 -155t164 -58zM2214 375q0 -184 -120 -296t-319 -112q-198 0 -319 112t-121 296t121 296q121 111 319 111q199 0 319 -112t120 -295zM584 846q100 0 162 58t62 154t-62 155t-162 59t-162 -58
t-64 -155q0 -97 63 -155t163 -58zM573 0l1002 1434h211l-1002 -1434h-211zM584 651q-199 0 -320 112t-121 296t121 296q121 111 320 111q200 0 320 -112t120 -295q0 -184 -120 -296t-320 -112z" />
    <glyph glyph-name="ampersand" unicode="&#x26;" horiz-adv-x="1476" 
d="M563 217q133 0 225 74l-303 299q-117 -86 -116 -191q0 -82 53 -132t141 -50zM160 1080q0 169 130 278q130 108 346 108t350 -116t134 -306h-289q0 78 -51 125t-130 47t-124 -41t-45 -97t27 -101t47 -65t76 -74l297 -293q14 66 14 153h293q0 -217 -76 -381l324 -317h-398
l-100 98q-167 -131 -411 -131t-379 116t-136 308q0 109 65 211t175 170q-139 139 -139 308z" />
    <glyph glyph-name="quotesingle" unicode="'" horiz-adv-x="399" 
d="M74 1581h250v-186l-15 -414h-221l-14 414v186z" />
    <glyph glyph-name="parenleft" unicode="(" horiz-adv-x="821" 
d="M428 603q0 -202 81 -369t263 -345l-207 -196q-461 397 -461 910t461 910l207 -196q-182 -178 -263 -345t-81 -369z" />
    <glyph glyph-name="parenright" unicode=")" horiz-adv-x="821" 
d="M393 602q0 203 -81 370t-263 345l207 196q461 -397 461 -910t-461 -910l-207 196q182 178 263 344t81 369z" />
    <glyph glyph-name="asterisk" unicode="*" horiz-adv-x="886" 
d="M360 793v200l-206 -108l-74 145l188 100l-188 101l74 145l206 -110v200h166v-200l207 110l74 -145l-189 -101l189 -100l-74 -145l-207 108v-200h-166z" />
    <glyph glyph-name="plus" unicode="+" horiz-adv-x="1445" 
d="M594 205v348h-387v235h387v349h258v-349h385v-235h-385v-348h-258z" />
    <glyph glyph-name="comma" unicode="," horiz-adv-x="479" 
d="M70 322h342v-246q0 -178 -87 -272t-268 -115l-24 129q96 28 137 64t47 118h-147v322z" />
    <glyph glyph-name="hyphen" unicode="-" horiz-adv-x="1153" 
d="M193 395v279h770v-279h-770z" />
    <glyph glyph-name="period" unicode="." horiz-adv-x="479" 
d="M70 322h342v-322h-342v322z" />
    <glyph glyph-name="slash" unicode="/" horiz-adv-x="899" 
d="M354 -344h-282l551 1843h282z" />
    <glyph glyph-name="zero" unicode="0" horiz-adv-x="1419" 
d="M1016 543v348q0 139 -84 225t-221 86t-223 -86t-85 -225v-348q0 -139 85 -225q84 -86 222 -87q138 1 222 87t84 225zM710 1466q275 0 444 -158t169 -417v-348q0 -260 -169 -418t-444 -158t-444 158q-168 158 -168 418v348q0 260 168 418q169 157 444 157z" />
    <glyph glyph-name="one" unicode="1" horiz-adv-x="843" 
d="M367 0v1174h-357v260h670v-1434h-313z" />
    <glyph glyph-name="two" unicode="2" horiz-adv-x="1224" 
d="M104 0v147l594 674q94 115 94 203t-52 133q-54 45 -146 45t-150 -52t-67 -140h-307q12 208 152 332t376 124t378 -115q142 -116 142 -296t-160 -365l-385 -444h562v-246h-1031z" />
    <glyph glyph-name="three" unicode="3" horiz-adv-x="1232" 
d="M636 -33q-238 0 -391 113t-173 311h301q20 -78 86 -128q65 -50 173 -50t174 52t64 141q0 89 -70 147q-71 57 -188 57h-188v228l303 336h-604v260h985v-217l-350 -390q190 -31 300 -145t109 -279q0 -197 -147 -317q-146 -120 -384 -119z" />
    <glyph glyph-name="four" unicode="4" horiz-adv-x="1402" 
d="M827 516v694l-413 -694h413zM827 0v262h-755v193l577 979h481v-918h201v-254h-201v-262h-303z" />
    <glyph glyph-name="five" unicode="5" horiz-adv-x="1308" 
d="M698 903q218 0 364 -126q146 -125 146 -331t-156 -343q-157 -136 -398 -136q-240 0 -396 117t-180 313h303q25 -84 95 -134t182 -50q114 0 186 63q72 64 72 164t-74 160q-74 59 -198 59t-218 -69l-240 108l123 736h813v-260h-577l-51 -302q93 31 204 31z" />
    <glyph glyph-name="six" unicode="6" horiz-adv-x="1345" 
d="M389 464q0 -114 79 -184t205 -71q126 0 204 72q77 71 77 185t-78 186t-203 71q-126 0 -205 -72q-79 -73 -79 -187zM90 473q0 147 125 334l430 627h363l-318 -465h6q254 -7 408 -141t154 -357t-162 -363q-160 -140 -422 -140t-423 138q-161 139 -161 367z" />
    <glyph glyph-name="seven" unicode="7" horiz-adv-x="1120" 
d="M20 1434h1061v-172l-606 -1262h-350l563 1161h-668v273z" />
    <glyph glyph-name="eight" unicode="8" horiz-adv-x="1353" 
d="M677 207q117 0 187 59q70 60 70 158t-71 158t-187 61q-116 0 -186 -60q-70 -61 -70 -159t70 -158q71 -59 187 -59zM678 1243q-106 0 -170 -53t-64 -143q0 -89 64 -147t169 -58t169 57q63 57 63 147t-63 144q-62 53 -168 53zM1266 395q0 -193 -162 -311t-427 -117
q-265 0 -427 118t-162 310q0 121 65 215t183 150q-186 102 -186 311q0 178 144 287q144 108 381 108t382 -110t145 -287q0 -209 -186 -309q118 -56 184 -150t66 -215z" />
    <glyph glyph-name="nine" unicode="9" horiz-adv-x="1345" 
d="M391 968q0 -114 78 -186t204 -71q126 -1 205 71q78 72 78 186t-78 186t-205 71q-126 0 -204 -72q-78 -71 -78 -185zM672 1466q262 0 423 -139t160 -366q0 -150 -127 -334l-428 -627h-364l319 465h-2q-249 0 -407 135t-158 360q0 226 161 366t423 140z" />
    <glyph glyph-name="colon" unicode=":" horiz-adv-x="479" 
d="M70 322h342v-322h-342v322zM70 993h342v-321h-342v321z" />
    <glyph glyph-name="semicolon" unicode=";" horiz-adv-x="479" 
d="M70 322h342v-246q0 -178 -87 -272t-268 -115l-24 129q96 28 137 64t47 118h-147v322zM70 993h342v-321h-342v321z" />
    <glyph glyph-name="less" unicode="&#x3c;" horiz-adv-x="1142" 
d="M1010 100l-918 394v266l918 393v-268l-600 -258l600 -258v-269z" />
    <glyph glyph-name="equal" unicode="=" horiz-adv-x="1462" 
d="M207 334v235h1046v-235h-1046zM207 752v235h1046v-235h-1046z" />
    <glyph glyph-name="greater" unicode="&#x3e;" horiz-adv-x="1142" 
d="M133 100v269l600 258l-600 258v268l918 -393v-266z" />
    <glyph glyph-name="question" unicode="?" horiz-adv-x="1177" 
d="M358 322h342v-322h-342v322zM801 1033q-1 79 -61 133t-157 54t-157 -48t-72 -125h-303q19 193 161 307t366 112q224 0 367 -120q142 -121 142 -316q0 -106 -45 -185q-46 -79 -110 -124t-127 -82t-107 -79t-43 -93h-252q-4 106 35 179q38 73 98 111q60 37 119 69t103 80
q43 48 43 127z" />
    <glyph glyph-name="at" unicode="@" horiz-adv-x="2138" 
d="M836 492q0 -96 62 -158t157 -62q96 0 152 60q57 60 57 160q0 98 -56 157t-153 59q-95 0 -157 -60t-62 -156zM1077 -381q-408 0 -682 251t-274 624q-1 374 277 624t694 250t672 -227t255 -600q0 -217 -106 -349t-279 -133q-98 0 -182 43t-123 113q-49 -70 -138 -112
t-185 -42q-193 0 -314 121q-121 122 -121 310t121 309t314 121q74 0 146 -28t112 -71h4v70h258v-490q0 -154 119 -153q75 0 121 79t46 208q0 291 -198 468q-200 177 -524 177t-541 -198t-217 -492t213 -490q213 -197 530 -197q254 0 479 154l107 -166q-265 -174 -584 -174z
" />
    <glyph glyph-name="A" unicode="A" horiz-adv-x="1640" 
d="M606 557h430l-211 510h-6zM31 0l639 1434h305l635 -1434h-342l-123 293h-645l-125 -293h-344z" />
    <glyph glyph-name="B" unicode="B" horiz-adv-x="1497" 
d="M457 254h389q115 0 182.5 47t67.5 125t-61.5 125t-164.5 47h-413v-344zM457 838h327q113 0 181.5 52t68.5 129t-60.5 120t-170.5 43h-346v-344zM135 0v1434h717q223 0 357 -101.5t134 -269.5q0 -111 -56 -196t-161 -122v-8q133 -27 210 -122t77 -230
q0 -174 -145.5 -279.5t-388.5 -105.5h-744z" />
    <glyph glyph-name="C" unicode="C" horiz-adv-x="1708" 
d="M874 254q156 0 260.5 82t143.5 225h332q-43 -272 -244 -432t-494 -160q-348 0 -561 207t-213 543t213 541.5t561 205.5q293 0 494 -159.5t244 -432.5h-332q-39 143 -142.5 225.5t-261.5 82.5q-203 0 -326.5 -128t-123.5 -336t123.5 -336t326.5 -128z" />
    <glyph glyph-name="D" unicode="D" horiz-adv-x="1603" 
d="M680 274q225 0 361.5 122t136.5 320.5t-136.5 320.5t-361.5 122h-223v-885h223zM702 1434q367 0 585 -196t218 -521.5t-218 -521t-585 -195.5h-567v1434h567z" />
    <glyph glyph-name="E" unicode="E" horiz-adv-x="1314" 
d="M1233 1167h-776v-325h680v-264h-680v-312h776v-266h-1098v1434h1098v-267z" />
    <glyph glyph-name="F" unicode="F" horiz-adv-x="1259" 
d="M135 0v1434h1084v-267h-762v-368h659v-264h-659v-535h-322z" />
    <glyph glyph-name="G" unicode="G" horiz-adv-x="1724" 
d="M878 -31q-354 0 -567 207t-213 543t212 541.5t560 205.5q299 0 491.5 -147.5t252.5 -382.5h-336q-47 119 -154.5 182.5t-249.5 63.5q-203 0 -326.5 -128t-123.5 -337t125 -337t325 -128q150 0 255.5 72.5t138.5 197.5h-416v252h774q2 -383 -196 -594t-552 -211z" />
    <glyph glyph-name="H" unicode="H" horiz-adv-x="1576" 
d="M135 0v1434h322v-588h663v588h322v-1434h-322v573h-663v-573h-322z" />
    <glyph glyph-name="I" unicode="I" horiz-adv-x="591" 
d="M135 0v1434h322v-1434h-322z" />
    <glyph glyph-name="J" unicode="J" horiz-adv-x="1325" 
d="M629.5 -33q-265.5 0 -420 132t-174.5 372h317q37 -227 275 -227q115 0 186.5 79.5t71.5 211.5v626h-639v273h964v-895q0 -272 -157.5 -422t-423 -150z" />
    <glyph glyph-name="K" unicode="K" horiz-adv-x="1562" 
d="M457 0h-322v1434h322v-691l630 691h388l-654 -717l717 -717h-405l-676 670v-670z" />
    <glyph glyph-name="L" unicode="L" horiz-adv-x="1253" 
d="M457 266h749v-266h-1071v1434h322v-1168z" />
    <glyph glyph-name="M" unicode="M" horiz-adv-x="2207" 
d="M31 0l393 1434h350l324 -979h8l330 979h348l393 -1434h-340l-262 946h-8l-314 -946h-301l-313 944h-8l-260 -944h-340z" />
    <glyph glyph-name="N" unicode="N" horiz-adv-x="1605" 
d="M1149 1434h321v-1434h-258l-755 879v-879h-322v1434h252l762 -899v899z" />
    <glyph glyph-name="O" unicode="O" horiz-adv-x="1755" 
d="M878.5 248q200.5 0 327.5 131t127 338t-127 338t-327.5 131t-327.5 -131t-127 -338t127 -338t327.5 -131zM878 -31q-345 0 -562.5 209t-217.5 539t217 538.5t562.5 208.5t563.5 -208.5t218 -538.5t-218 -539t-563 -209z" />
    <glyph glyph-name="P" unicode="P" horiz-adv-x="1370" 
d="M457 676h250q131 0 215 70t84 180q0 108 -83 174t-216 65h-250v-489zM135 0v1434h602q264 0 427 -140t163 -368t-167 -372t-437 -144h-266v-410h-322z" />
    <glyph glyph-name="Q" unicode="Q" horiz-adv-x="1755" 
d="M424 717q0 -207 127 -338t328 -131t327 131t127 338q0 207 -127 338q-128 131 -328 131t-327 -131t-127 -338zM1659 717q0 -201 -85 -363t-239 -260l307 -264l-229 -195l-407 342q-55 -8 -127 -8q-346 0 -564 209q-217 209 -217 539q0 331 217 539t563 208t563 -208
q218 -208 218 -539z" />
    <glyph glyph-name="R" unicode="R" horiz-adv-x="1511" 
d="M457 1165v-395h272q143 0 225 52t82 145.5t-76.5 145.5t-214.5 52h-288zM457 502v-502h-322v1434h639q266 0 424 -127t158 -340q0 -141 -77 -248t-218 -162l405 -557h-385l-356 502h-268z" />
    <glyph glyph-name="S" unicode="S" horiz-adv-x="1449" 
d="M746.5 -31q-277.5 0 -454.5 130t-204 358h320q23 -100 113.5 -165t220 -65t197 44t66.5 111.5t-49.5 106.5t-123 57.5t-166 33t-182.5 41t-166.5 68.5t-124 127t-50.5 206q-2 201 155 322.5t415 121.5t430 -122.5t192 -327.5h-323q-20 88 -90 142t-185 54t-181.5 -46
t-65 -123t64.5 -120.5t157.5 -59t204 -41t203.5 -61.5t157.5 -124t65.5 -223q2 -201 -158.5 -323t-438 -122z" />
    <glyph glyph-name="T" unicode="T" horiz-adv-x="1404" 
d="M1350 1434v-273h-488v-1161h-321v1161h-488v273h1297z" />
    <glyph glyph-name="U" unicode="U" horiz-adv-x="1579" 
d="M789 -33q-310 0 -492 178.5t-182 483.5v805h323v-809q0 -170 96.5 -272.5t255 -102.5t255 102.5t96.5 272.5v809h323v-805q0 -305 -182.5 -483.5t-492.5 -178.5z" />
    <glyph glyph-name="V" unicode="V" horiz-adv-x="1671" 
d="M676 0l-649 1434h354l450 -1028h9l452 1028h355l-650 -1434h-321z" />
    <glyph glyph-name="W" unicode="W" horiz-adv-x="2234" 
d="M487 0l-440 1434h340l283 -959h8l285 959h313l278 -961h9l284 961h340l-442 -1434h-334l-291 973h-8l-289 -973h-336z" />
    <glyph glyph-name="X" unicode="X" horiz-adv-x="1497" 
d="M23 0l512 711l-502 723h389l326 -482l325 482h391l-501 -725l512 -709h-371l-354 481l-357 -481h-370z" />
    <glyph glyph-name="Y" unicode="Y" horiz-adv-x="1531" 
d="M604 0v446l-588 988h357l391 -668l395 668h357l-588 -985v-449h-324z" />
    <glyph glyph-name="Z" unicode="Z" horiz-adv-x="1417" 
d="M80 0v145l772 1020h-739v269h1206v-144l-746 -1022h756v-268h-1249z" />
    <glyph glyph-name="bracketleft" unicode="[" horiz-adv-x="792" 
d="M113 -295v1794h616v-272h-313v-1250h313v-272h-616z" />
    <glyph glyph-name="backslash" unicode="\" horiz-adv-x="899" 
d="M545 -344l-551 1843h282l551 -1843h-282z" />
    <glyph glyph-name="bracketright" unicode="]" horiz-adv-x="792" 
d="M63 -295v272h314v1250h-314v272h617v-1794h-617z" />
    <glyph glyph-name="asciicircum" unicode="^" horiz-adv-x="929" 
d="M588 1434l297 -529h-271l-149 307l-150 -307h-272l299 529h246z" />
    <glyph glyph-name="underscore" unicode="_" horiz-adv-x="1232" 
d="M0 -449v248h1233v-248h-1233z" />
    <glyph glyph-name="grave" unicode="`" horiz-adv-x="700" 
d="M592 1157h-268l-222 326h326l170 -318z" />
    <glyph glyph-name="a" unicode="a" horiz-adv-x="1339" 
d="M644 207q116 0 187.5 81t71.5 209t-71.5 208.5t-187.5 80.5t-189.5 -80.5t-73.5 -208.5t73.5 -209t189.5 -81zM575 -33q-208 0 -351.5 148.5t-143.5 381t142.5 381t352.5 148.5t330 -129h4v96h303v-993h-303v96h-4q-122 -129 -330 -129z" />
    <glyph glyph-name="b" unicode="b" horiz-adv-x="1339" 
d="M696 207q115 0 189 81q73 81 73 209t-73 209q-74 80 -189 80q-116 0 -188 -80t-72 -209q0 -128 72 -209t188 -81zM767 1026q210 0 352 -148q143 -148 143 -380t-144 -382q-144 -148 -366 -149q-188 0 -316 129h-4v-96h-303v1581h307v-684h4q117 129 327 129z" />
    <glyph glyph-name="c" unicode="c" horiz-adv-x="1245" 
d="M623.5 -33q-234.5 0 -389 145.5t-154.5 384.5t154.5 384t389 145t378 -112.5t163.5 -299.5h-291q-16 72 -75.5 118t-168 46t-182 -77.5t-73.5 -204.5t73.5 -204t182 -77t168 46t75.5 118h291q-20 -188 -163.5 -300t-378 -112z" />
    <glyph glyph-name="d" unicode="d" horiz-adv-x="1339" 
d="M644 207q116 0 187.5 81t71.5 209t-71.5 208.5t-187.5 80.5t-189.5 -80.5t-73.5 -208.5t73.5 -209t189.5 -81zM573 1026q210 0 326 -129h4v684h309v-1581h-303v96h-4q-127 -129 -332.5 -129t-349 148.5t-143.5 381t141.5 381t351.5 148.5z" />
    <glyph glyph-name="e" unicode="e" horiz-adv-x="1243" 
d="M636 799q-101 0 -172 -60.5t-85 -156.5h489q-4 96 -67.5 156.5t-164.5 60.5zM639 -33q-250 0 -403.5 145.5t-153.5 384.5t150.5 384t394 145t389 -144.5t145.5 -394.5v-88h-780q25 -92 96.5 -145t167.5 -53q137 0 195 82h305q-41 -141 -181.5 -228.5t-324.5 -87.5z" />
    <glyph glyph-name="f" unicode="f" horiz-adv-x="868" 
d="M244 0v745h-234v248h234v178q0 203 129 324t344 121q84 0 147 -19v-251q-47 10 -84 10q-106 0 -166 -50t-61 -139v-174h311v-248h-311v-745h-309z" />
    <glyph glyph-name="g" unicode="g" horiz-adv-x="1347" 
d="M652 213q116 0 187.5 80t71.5 207t-72.5 206.5t-186.5 79.5t-188.5 -80.5t-74.5 -206.5t73.5 -206t189.5 -80zM918 993h303v-1018q0 -217 -151.5 -351t-393.5 -134t-390.5 112.5t-170.5 301.5h309q16 -76 79.5 -120t169.5 -44t172 63.5t66 169.5v127h-4
q-125 -129 -330.5 -129t-347 148.5t-141.5 380t142.5 379t348 147.5t332.5 -127h7v94z" />
    <glyph glyph-name="h" unicode="h" horiz-adv-x="1298" 
d="M129 0v1581h307v-684h4q123 129 314 129t312.5 -127t121.5 -326v-573h-309v532q0 104 -58.5 168t-158.5 64t-163 -60.5t-63 -160.5v-543h-307z" />
    <glyph glyph-name="i" unicode="i" horiz-adv-x="565" 
d="M129 0v993h307v-993h-307zM125 1300v281h315v-281h-315z" />
    <glyph glyph-name="j" unicode="j" horiz-adv-x="571" 
d="M-63 -510v248l24 4q94 12 134 49t40 133v1069h309v-1036q0 -243 -110 -355t-344 -112h-53zM131 1300v281h315v-281h-315z" />
    <glyph glyph-name="k" unicode="k" horiz-adv-x="1286" 
d="M129 0v1581h307v-1085l422 497h350l-420 -497l482 -496h-385l-449 461v-461h-307z" />
    <glyph glyph-name="l" unicode="l" horiz-adv-x="565" 
d="M129 0v1581h307v-1581h-307z" />
    <glyph glyph-name="m" unicode="m" horiz-adv-x="1961" 
d="M129 0v993h303v-96h4q123 129 308 129t307 -131q139 131 341 131t332 -127t129 -326v-573h-309v532q0 104 -57 168t-147 64t-142 -60q-51 -60 -51 -161v-543h-309v532q0 104 -54 168t-144 64q-91 0 -147 -60t-57 -161v-543h-307z" />
    <glyph glyph-name="n" unicode="n" horiz-adv-x="1298" 
d="M129 0v993h303v-96h4q118 129 310 129t317 -127t125 -326v-573h-309v532q0 104 -58.5 168t-158.5 64t-163 -60.5t-63 -160.5v-543h-307z" />
    <glyph glyph-name="o" unicode="o" horiz-adv-x="1286" 
d="M643 221q121 0 195.5 75t74.5 200t-74.5 200.5t-195.5 75.5t-195.5 -75.5t-74.5 -200.5t74.5 -200t195.5 -75zM643 -33q-254 0 -408.5 145.5t-154.5 384.5t154.5 384t408.5 145q255 0 409 -146t154 -384t-154.5 -383.5t-408.5 -145.5z" />
    <glyph glyph-name="p" unicode="p" horiz-adv-x="1339" 
d="M696 786q-116 0 -188 -80t-72 -210q0 -129 73 -209t187 -80t189 80q73 80 73 208t-73 210q-74 81 -189 81zM752 1026q223 0 366 -150q144 -150 144 -381q0 -232 -142 -380t-354 -148q-211 0 -326 127h-4v-569h-307v1466h303v-96h4q129 131 316 131z" />
    <glyph glyph-name="q" unicode="q" horiz-adv-x="1339" 
d="M903 496q1 130 -71 210t-188 80t-190 -82t-73 -209q0 -128 74 -208q73 -80 189 -80t188 80t71 209zM574 -33q-210 -1 -352 147t-142 380t143 383q143 150 367 149q186 0 315 -131h4v98h303v-1468h-309v569h-4q-114 -127 -325 -127z" />
    <glyph glyph-name="r" unicode="r" horiz-adv-x="858" 
d="M129 0v993h303v-119h4q88 152 269 152q66 0 106 -12v-279q-55 12 -102 13q-127 0 -200 -76t-73 -213v-459h-307z" />
    <glyph glyph-name="s" unicode="s" horiz-adv-x="1120" 
d="M564 -33q-224 0 -361 98.5t-146 264.5h275q25 -141 241 -142q76 0 121 25t45 72t-65.5 70.5t-159.5 34.5t-188.5 33.5t-160 92.5t-65.5 202t125 220t328 88t334 -87t147 -249h-278q-10 59 -69.5 92t-131.5 33t-115 -23.5t-43 -67.5t48.5 -70.5t120 -35t154.5 -26
t154.5 -43t119.5 -91t48 -165.5q0 -154 -127 -240t-351 -86z" />
    <glyph glyph-name="t" unicode="t" horiz-adv-x="960" 
d="M674 -33q-197 0 -316.5 109.5t-119.5 290.5v378h-228v248h228v316h307v-316h323v-248h-323v-344q0 -82 47 -125t137 -43q16 0 139 11v-252q-85 -25 -194 -25z" />
    <glyph glyph-name="u" unicode="u" horiz-adv-x="1277" 
d="M639 -33q-238 0 -383 128t-145 337v561h307v-532q0 -104 60.5 -168t160.5 -64t160.5 63.5t60.5 168.5v532h307v-561q0 -209 -145 -337t-383 -128z" />
    <glyph glyph-name="v" unicode="v" horiz-adv-x="1273" 
d="M492 0l-461 993h327l277 -622h4l281 622h323l-461 -993h-290z" />
    <glyph glyph-name="w" unicode="w" horiz-adv-x="1736" 
d="M403 0l-366 993h323l191 -557h4l193 557h245l193 -559h4l190 559h322l-365 -993h-278l-187 549h-4l-186 -549h-279z" />
    <glyph glyph-name="x" unicode="x" horiz-adv-x="1216" 
d="M29 0l377 498l-373 495h356l219 -291l223 291h355l-375 -497l377 -496h-344l-232 309l-239 -309h-344z" />
    <glyph glyph-name="y" unicode="y" horiz-adv-x="1359" 
d="M997 993h326l-659 -1468h-330l211 455l-506 1013h328l329 -667h4z" />
    <glyph glyph-name="z" unicode="z" horiz-adv-x="1091" 
d="M68 0v141l528 611h-516v241h946v-153l-518 -598h516v-242h-956z" />
    <glyph glyph-name="braceleft" unicode="{" horiz-adv-x="780" 
d="M238 360q0 72 -29 99t-115 35l-37 2v225l37 4q86 6 115 34t29 99v279q0 174 124 278q125 104 355 113v-275q-172 -10 -172 -133v-248q0 -119 -34 -177t-124 -87q90 -27 124 -85t34 -179v-248q0 -123 172 -133v-272q-229 6 -355 111q-125 105 -124 280v278z" />
    <glyph glyph-name="bar" unicode="|" horiz-adv-x="679" 
d="M203 -328v1823h274v-1823h-274z" />
    <glyph glyph-name="braceright" unicode="}" horiz-adv-x="780" 
d="M236 344q0 121 33 179q34 58 124 85q-90 29 -124 87t-33 177v248q0 123 -173 133l3 275q229 -8 353 -112t124 -279v-279q1 -72 29 -100t114 -33l39 -4v-225l-39 -2q-86 -8 -115 -35t-28 -99v-278q0 -174 -125 -280t-352 -111l-3 272q172 10 173 133v248z" />
    <glyph glyph-name="asciitilde" unicode="~" horiz-adv-x="1013" 
d="M666 520q-80 0 -182 58t-122 57q-57 0 -57 -78h-262q2 145 80 235t211 91q90 1 191 -57t124 -58q59 0 60 78h262q0 -146 -84 -236t-221 -90z" />
    <glyph glyph-name="exclamdown" unicode="&#xa1;" horiz-adv-x="600" 
d="M461 -440h-320v391l23 575h272l25 -575v-391zM129 672v321h342v-321h-342z" />
    <glyph glyph-name="cent" unicode="&#xa2;" horiz-adv-x="1245" 
d="M631 778q-109 0 -183 -78t-73 -204q-1 -126 73 -204q74 -77 182 -77t169 46q59 46 75 118h291q-17 -156 -121 -261t-268 -138v-218h-254v215q-202 33 -322 171t-120 348t120 348q120 139 322 172v235h254v-237q162 -33 266 -138t123 -262h-291q-16 72 -75 118t-168 46z
" />
    <glyph glyph-name="sterling" unicode="&#xa3;" horiz-adv-x="1355" 
d="M80 0v252h129v305h-129v231h129v187q0 223 152 357q153 134 387 134t385 -118q152 -118 159 -316h-305q-53 182 -235 182q-104 0 -171 -66t-67 -173v-187h420v-231h-420v-305h752v-252h-1186z" />
    <glyph glyph-name="currency" unicode="&#xa4;" horiz-adv-x="1118" 
d="M559 406q100 0 163 58q62 58 62 154t-62 154t-162 59q-100 0 -164 -58q-62 -59 -62 -155t62 -154t163 -58zM119 619q0 122 57 219l-92 92l166 166l108 -109q84 39 201 39t203 -39l106 109l166 -166l-92 -92q57 -96 57 -218t-57 -219l92 -92l-166 -166l-106 107
q-86 -39 -203 -39t-201 39l-108 -107l-166 166l92 92q-57 96 -57 218z" />
    <glyph glyph-name="yen" unicode="&#xa5;" horiz-adv-x="1531" 
d="M1317 627v-193h-389v-96h389v-193h-389v-145h-324v145h-389v193h389v96h-389v193h283l-482 807h357l391 -668l395 668h357l-482 -807h283z" />
    <glyph glyph-name="brokenbar" unicode="&#xa6;" horiz-adv-x="679" 
d="M203 -328v807h274v-807h-274zM203 688v807h274v-807h-274z" />
    <glyph glyph-name="section" unicode="&#xa7;" horiz-adv-x="1206" 
d="M850 520q0 51 -55 87t-181 84t-182 75q-76 -25 -76 -98q0 -43 40 -80q40 -38 87 -58t137 -54t140 -56q90 27 90 100zM600 -276q-207 0 -339 102t-157 293h310q25 -150 180 -150q66 0 104 30t37 78q0 48 -50 87q-50 40 -124 64q-190 63 -323 137q-74 41 -124 115t-51 173
q0 178 160 265q-68 84 -67 202q0 154 127 250t329 96t335 -101q132 -101 153 -292h-314q-23 150 -176 150q-61 0 -100 -31t-39 -83t70 -97t168 -81t196 -80t168 -124t70 -188q0 -174 -166 -265q74 -84 74 -202q0 -162 -122 -255t-329 -93z" />
    <glyph glyph-name="dieresis" unicode="&#xa8;" horiz-adv-x="1007" 
d="M567 1485h338v-316h-338v316zM102 1485h336v-316h-336v316z" />
    <glyph glyph-name="copyright" unicode="&#xa9;" horiz-adv-x="1777" 
d="M882 377q-152 0 -255 95q-104 95 -105 245q0 150 104 245t256 95t247 -73t126 -200h-208q-47 94 -154 95q-74 0 -121 -45t-47 -117t47 -117t121 -45q106 0 154 94h208q-31 -127 -126 -199t-247 -73zM890 133q265 0 434 164t169 420t-169 420q-169 163 -434 163t-435 -164
t-170 -419q0 -256 170 -420t435 -164zM889 -33q-348 0 -570 210q-221 210 -221 540q0 329 221 539t569 210t571 -210q222 -210 222 -540t-222 -539q-222 -210 -570 -210z" />
    <glyph glyph-name="ordfeminine" unicode="&#xaa;" horiz-adv-x="794" 
d="M362 930q60 0 104 37t44 92h-197q-31 0 -55 -13t-22 -40q0 -76 126 -76zM317 778q-127 0 -203 60t-77 150q0 91 73 141t201 51h199v8q0 53 -30 87t-91 34q-98 0 -125 -84h-198q10 111 100 177t232 64q142 0 230 -76q87 -76 87 -210v-387h-191v59h-4q-76 -74 -203 -74z
" />
    <glyph glyph-name="guillemotleft" unicode="&#xab;" horiz-adv-x="1005" 
d="M952 840l-211 -324l211 -323h-276l-199 303v41l199 303h276zM530 840l-211 -324l211 -323h-276l-201 303v41l201 303h276z" />
    <glyph glyph-name="registered" unicode="&#xae;" horiz-adv-x="1212" 
d="M547 932h82q68 0 67 57q0 25 -19 40t-48 15h-82v-112zM430 717v424h201q82 0 133 -42t51 -123t-86 -116l105 -143h-140l-84 123h-63v-123h-117zM606 545q166 1 282 109t116 264t-116 262t-282 106t-282 -106t-115 -262q-1 -156 115 -264t282 -109zM606 416
q-231 0 -389 144t-158 356t158 357q158 144 389 144t389 -144t158 -356q0 -213 -158 -357t-389 -144z" />
    <glyph glyph-name="macron" unicode="&#xaf;" horiz-adv-x="823" 
d="M102 1186v225h619v-225h-619z" />
    <glyph glyph-name="degree" unicode="&#xb0;" horiz-adv-x="997" 
d="M498 954q78 0 126 44t48 116t-48 116t-126 44t-125 -44t-47 -116t47 -116t125 -44zM498 762q-174 0 -280 97q-105 97 -105 255t105 255q106 97 280 97t279 -97t105 -255t-104 -255q-106 -97 -280 -97z" />
    <glyph glyph-name="plusminus" unicode="&#xb1;" horiz-adv-x="1443" 
d="M207 0v238h1028v-238h-1028zM594 365v303h-387v237h387v303h258v-303h383v-237h-383v-303h-258z" />
    <glyph glyph-name="uni00B2" unicode="&#xb2;" horiz-adv-x="792" 
d="M78 985v107q319 331 335 347l18 18q47 47 50 63q4 16 7 26q14 47 -17 74t-76 27q-100 0 -114 -101h-207q8 129 99 208t233 79t230 -70t89 -178q0 -108 -129 -246l-166 -176h303v-178h-655z" />
    <glyph glyph-name="uni00B3" unicode="&#xb3;" horiz-adv-x="823" 
d="M537 1239q0 41 -34 68t-95 26h-105v144l150 157h-340v183h622v-150l-188 -199q96 -29 150 -90t55 -145q0 -117 -94 -191t-241 -74q-148 0 -243 73q-94 73 -111 194h220q8 -37 43 -64t90 -27t88 28q33 26 33 67z" />
    <glyph glyph-name="acute" unicode="&#xb4;" horiz-adv-x="700" 
d="M109 1157l-7 8l170 318h326l-221 -326h-268z" />
    <glyph glyph-name="paragraph" unicode="&#xb6;" horiz-adv-x="1478" 
d="M1059 -291v1725h284v-1725h-284zM590 -291v946h-86q-205 0 -330 108q-125 107 -125 281t125 282t330 108h368v-1725h-282z" />
    <glyph glyph-name="periodcentered" unicode="&#xb7;" horiz-adv-x="479" 
d="M70 666h342v-324h-342v324z" />
    <glyph glyph-name="cedilla" unicode="&#xb8;" horiz-adv-x="595" 
d="M102 -356l103 403h289l-138 -403h-254z" />
    <glyph glyph-name="uni00B9" unicode="&#xb9;" horiz-adv-x="538" 
d="M250 989v645h-213v183h428v-828h-215z" />
    <glyph glyph-name="ordmasculine" unicode="&#xba;" horiz-adv-x="837" 
d="M419 952q77 0 125 47t48 123t-49 124t-125 48t-124 -48t-48 -124t48 -123t125 -47zM419 778q-165 0 -271 96q-105 96 -105 248t105 248q104 96 270 96t271 -96t105 -248t-104 -248q-106 -96 -271 -96z" />
    <glyph glyph-name="guillemotright" unicode="&#xbb;" horiz-adv-x="1005" 
d="M477 840h275l200 -303v-41l-200 -303h-275l209 323zM53 840h277l200 -303v-41l-200 -303h-277l211 323z" />
    <glyph glyph-name="onequarter" unicode="&#xbc;" horiz-adv-x="1808" 
d="M1425 328v297l-219 -297h219zM1753 328v-183h-111v-145h-217v145h-456v144l389 538h284v-499h111zM219 0l1000 1434h211l-1000 -1434h-211zM250 614v646h-213v182h428v-828h-215z" />
    <glyph glyph-name="onehalf" unicode="&#xbd;" horiz-adv-x="1755" 
d="M1042 2v104l320 334q2 2 15 16t27 27q14 14 20 22q5 9 14 20q8 11 10 19t5 17q3 10 3 34q0 23 -26 45t-73 22q-46 0 -77 -28t-37 -73h-205q6 129 98 209t233 80q142 0 230 -70q89 -70 89 -178t-129 -246l-166 -178h305v-176h-656zM219 0l1000 1434h211l-1000 -1434h-211z
M250 614v646h-213v182h428v-828h-215z" />
    <glyph glyph-name="threequarters" unicode="&#xbe;" horiz-adv-x="1986" 
d="M1602 328v297l-220 -297h220zM1821 328h108v-183h-108v-145h-219v145h-457v144l389 538h287v-499zM1397 1434h211l-1002 -1434h-211zM752 858q0 -118 -94 -190t-241 -72q-148 0 -243 72q-94 72 -111 192h220q8 -38 43 -64t90 -26t88 27t33 67t-34 68q-34 27 -95 26h-105
v144l150 158h-340v182h622v-150l-186 -198q95 -30 149 -92t54 -144z" />
    <glyph glyph-name="questiondown" unicode="&#xbf;" horiz-adv-x="1177" 
d="M379 -40q0 -79 60 -133q61 -54 157 -54t157 48q60 48 70 126h303q-16 -193 -159 -307t-367 -113q-224 0 -368 120q-142 120 -142 316q0 106 45 185t110 124t129 82q151 87 148 172h252q4 -106 -35 -179t-97 -111t-118 -69q-60 -32 -103 -80q-42 -48 -42 -127zM819 672
h-342v321h342v-321z" />
    <glyph glyph-name="Agrave" unicode="&#xc0;" horiz-adv-x="1640" 
d="M606 557h430l-211 510h-6zM31 0l639 1434h305l635 -1434h-342l-123 293h-645l-125 -293h-344zM967 1575h-269l-221 326h326l170 -318z" />
    <glyph glyph-name="Aacute" unicode="&#xc1;" horiz-adv-x="1640" 
d="M606 557h430l-211 510h-6zM31 0l639 1434h305l635 -1434h-342l-123 293h-645l-125 -293h-344zM676 1575l-6 8l170 318h325l-221 -326h-268z" />
    <glyph glyph-name="Acircumflex" unicode="&#xc2;" horiz-adv-x="1640" 
d="M606 557h430l-211 510h-6zM31 0l639 1434h305l635 -1434h-342l-123 293h-645l-125 -293h-344zM422 1573l256 319h285l256 -319h-269l-129 147l-131 -147h-268z" />
    <glyph glyph-name="Atilde" unicode="&#xc3;" horiz-adv-x="1640" 
d="M606 557h430l-211 510h-6zM31 0l639 1434h305l635 -1434h-342l-123 293h-645l-125 -293h-344zM967 1597q-78 0 -163 48.5t-106 48.5q-45 0 -59 -66h-223q6 127 72.5 205t174.5 78q108 1 219 -71q38 -24 62 -25q43 0 55 67h222q4 -123 -66.5 -204t-187.5 -81z" />
    <glyph glyph-name="Adieresis" unicode="&#xc4;" horiz-adv-x="1640" 
d="M606 557h430l-211 510h-6zM31 0l639 1434h305l635 -1434h-342l-123 293h-645l-125 -293h-344zM885 1585v313h338v-313h-338zM420 1585v313h336v-313h-336z" />
    <glyph glyph-name="Aring" unicode="&#xc5;" horiz-adv-x="1640" 
d="M606 557h430l-211 510h-6zM31 0l639 1434h305l635 -1434h-342l-123 293h-645l-125 -293h-344zM822 1722q44 0 72 27t28 69t-28 67.5t-72 25.5t-72.5 -25.5t-28.5 -67.5t28.5 -69t72.5 -27zM822 1589q-114 0 -185.5 62.5t-71.5 165t72 165t186.5 62.5t184 -62.5t69.5 -165
t-70.5 -165t-184.5 -62.5z" />
    <glyph glyph-name="AE" unicode="&#xc6;" horiz-adv-x="2422" 
d="M1245 557v510l-387 -510h387zM2341 1434v-269h-776v-323h688v-264h-688v-312h776v-266h-1096v291h-579l-224 -291h-389l1110 1434h1178z" />
    <glyph glyph-name="Ccedilla" unicode="&#xc7;" horiz-adv-x="1708" 
d="M874 254q156 0 260.5 82t143.5 225h332q-39 -246 -208 -401.5t-421 -184.5l-113 -331h-254l86 340q-276 49 -439 246.5t-163 488.5q0 336 213 541.5t561 205.5q293 0 494 -159.5t244 -432.5h-332q-39 143 -142.5 225.5t-261.5 82.5q-203 0 -326.5 -128t-123.5 -336
t123.5 -336t326.5 -128z" />
    <glyph glyph-name="Egrave" unicode="&#xc8;" horiz-adv-x="1314" 
d="M1233 1167h-776v-325h680v-264h-680v-312h776v-266h-1098v1434h1098v-267zM854 1575h-268l-221 326h325l170 -318z" />
    <glyph glyph-name="Eacute" unicode="&#xc9;" horiz-adv-x="1314" 
d="M1233 1167h-776v-325h680v-264h-680v-312h776v-266h-1098v1434h1098v-267zM563 1575l-6 8l170 318h326l-222 -326h-268z" />
    <glyph glyph-name="Ecircumflex" unicode="&#xca;" horiz-adv-x="1314" 
d="M1233 1167h-776v-325h680v-264h-680v-312h776v-266h-1098v1434h1098v-267zM309 1573l256 319h285l256 -319h-268l-129 147l-131 -147h-269z" />
    <glyph glyph-name="Edieresis" unicode="&#xcb;" horiz-adv-x="1314" 
d="M1233 1167h-776v-325h680v-264h-680v-312h776v-266h-1098v1434h1098v-267zM772 1585v313h338v-313h-338zM307 1585v313h336v-313h-336z" />
    <glyph glyph-name="Igrave" unicode="&#xcc;" horiz-adv-x="591" 
d="M135 0v1434h322v-1434h-322zM442 1575h-268l-221 326h326l170 -318z" />
    <glyph glyph-name="Iacute" unicode="&#xcd;" horiz-adv-x="591" 
d="M135 0v1434h322v-1434h-322zM152 1575l-7 8l170 318h326l-221 -326h-268z" />
    <glyph glyph-name="Icircumflex" unicode="&#xce;" horiz-adv-x="591" 
d="M135 0v1434h322v-1434h-322zM-102 1573l256 319h284l256 -319h-268l-129 147l-131 -147h-268z" />
    <glyph glyph-name="Idieresis" unicode="&#xcf;" horiz-adv-x="591" 
d="M135 0v1434h322v-1434h-322zM360 1585v313h338v-313h-338zM-104 1585v313h335v-313h-335z" />
    <glyph glyph-name="Eth" unicode="&#xd0;" horiz-adv-x="1603" 
d="M680 274q225 0 361.5 122t136.5 320.5t-136.5 320.5t-361.5 122h-223v-309h276v-264h-276v-312h223zM702 1434q367 0 585 -196t218 -521.5t-218 -521t-585 -195.5h-567v586h-121v264h121v584h567z" />
    <glyph glyph-name="Ntilde" unicode="&#xd1;" horiz-adv-x="1605" 
d="M1149 1434h321v-1434h-258l-755 879v-879h-322v1434h252l762 -899v899zM948 1597q-78 0 -163 48.5t-105 48.5q-45 0 -59 -66h-224q6 127 73 205t185 78q82 0 165 -48t106 -48q43 0 55 67h221q4 -123 -66.5 -204t-187.5 -81z" />
    <glyph glyph-name="Ograve" unicode="&#xd2;" horiz-adv-x="1755" 
d="M878.5 248q200.5 0 327.5 131t127 338t-127 338t-327.5 131t-327.5 -131t-127 -338t127 -338t327.5 -131zM878 -31q-345 0 -562.5 209t-217.5 539t217 538.5t562.5 208.5t563.5 -208.5t218 -538.5t-218 -539t-563 -209zM1024 1575h-268l-221 326h325l170 -318z" />
    <glyph glyph-name="Oacute" unicode="&#xd3;" horiz-adv-x="1755" 
d="M878.5 248q200.5 0 327.5 131t127 338t-127 338t-327.5 131t-327.5 -131t-127 -338t127 -338t327.5 -131zM878 -31q-345 0 -562.5 209t-217.5 539t217 538.5t562.5 208.5t563.5 -208.5t218 -538.5t-218 -539t-563 -209zM733 1575l-6 8l170 318h326l-222 -326h-268z" />
    <glyph glyph-name="Ocircumflex" unicode="&#xd4;" horiz-adv-x="1755" 
d="M878.5 248q200.5 0 327.5 131t127 338t-127 338t-327.5 131t-327.5 -131t-127 -338t127 -338t327.5 -131zM878 -31q-345 0 -562.5 209t-217.5 539t217 538.5t562.5 208.5t563.5 -208.5t218 -538.5t-218 -539t-563 -209zM479 1573l256 319h285l256 -319h-268l-129 147
l-131 -147h-269z" />
    <glyph glyph-name="Otilde" unicode="&#xd5;" horiz-adv-x="1755" 
d="M878.5 248q200.5 0 327.5 131t127 338t-127 338t-327.5 131t-327.5 -131t-127 -338t127 -338t327.5 -131zM878 -31q-345 0 -562.5 209t-217.5 539t217 538.5t562.5 208.5t563.5 -208.5t218 -538.5t-218 -539t-563 -209zM1024 1597q-78 0 -163 48.5t-105 48.5
q-45 0 -60 -66h-223q6 127 72.5 205t185.5 78q84 0 166 -48t104 -48q43 0 56 67h221q4 -123 -66.5 -204t-187.5 -81z" />
    <glyph glyph-name="Odieresis" unicode="&#xd6;" horiz-adv-x="1755" 
d="M878.5 248q200.5 0 327.5 131t127 338t-127 338t-327.5 131t-327.5 -131t-127 -338t127 -338t327.5 -131zM878 -31q-345 0 -562.5 209t-217.5 539t217 538.5t562.5 208.5t563.5 -208.5t218 -538.5t-218 -539t-563 -209zM942 1585v313h338v-313h-338zM477 1585v313h336
v-313h-336z" />
    <glyph glyph-name="multiply" unicode="&#xd7;" horiz-adv-x="1402" 
d="M387 182l-168 164l309 309l-297 291l177 174l299 -291l309 304l170 -164l-307 -307l292 -293l-176 -174l-297 292z" />
    <glyph glyph-name="Oslash" unicode="&#xd8;" horiz-adv-x="1755" 
d="M879 248q201 0 327.5 131t126.5 338q0 158 -78 274l-610 -686q105 -57 234 -57zM424 717q0 -158 76 -275l612 686q-104 57 -233 58q-201 0 -328 -131t-127 -338zM1659 706.5q0 -319.5 -218 -528.5t-562 -209q-248 0 -435 111l-104 -117l-156 125l105 117
q-190 207 -190.5 524.5t216.5 526t564 208.5q248 0 434 -110l104 116l156 -122l-107 -119q193 -203 193 -522.5z" />
    <glyph glyph-name="Ugrave" unicode="&#xd9;" horiz-adv-x="1579" 
d="M789 -33q-310 0 -492 178.5t-182 483.5v805h323v-809q0 -170 96.5 -272.5t255 -102.5t255 102.5t96.5 272.5v809h323v-805q0 -305 -182.5 -483.5t-492.5 -178.5zM936 1575h-268l-222 326h326l170 -318z" />
    <glyph glyph-name="Uacute" unicode="&#xda;" horiz-adv-x="1579" 
d="M789 -33q-310 0 -492 178.5t-182 483.5v805h323v-809q0 -170 96.5 -272.5t255 -102.5t255 102.5t96.5 272.5v809h323v-805q0 -305 -182.5 -483.5t-492.5 -178.5zM645 1575l-6 8l170 318h326l-222 -326h-268z" />
    <glyph glyph-name="Ucircumflex" unicode="&#xdb;" horiz-adv-x="1579" 
d="M789 -33q-310 0 -492 178.5t-182 483.5v805h323v-809q0 -170 96.5 -272.5t255 -102.5t255 102.5t96.5 272.5v809h323v-805q0 -305 -182.5 -483.5t-492.5 -178.5zM391 1573l256 319h285l256 -319h-268l-129 147l-132 -147h-268z" />
    <glyph glyph-name="Udieresis" unicode="&#xdc;" horiz-adv-x="1579" 
d="M789 -33q-310 0 -492 178.5t-182 483.5v805h323v-809q0 -170 96.5 -272.5t255 -102.5t255 102.5t96.5 272.5v809h323v-805q0 -305 -182.5 -483.5t-492.5 -178.5zM854 1585v313h338v-313h-338zM389 1585v313h336v-313h-336z" />
    <glyph glyph-name="Yacute" unicode="&#xdd;" horiz-adv-x="1531" 
d="M604 0v446l-588 988h357l391 -668l395 668h357l-588 -985v-449h-324zM621 1575l-7 8l170 318h326l-221 -326h-268z" />
    <glyph glyph-name="Thorn" unicode="&#xde;" horiz-adv-x="1370" 
d="M457 473h250q133 0 216 71t83 178t-84 173t-215 66h-250v-488zM135 0v1434h322v-203h280q264 0 427 -139q163 -138 163 -368t-167 -374t-437 -145h-266v-205h-322z" />
    <glyph glyph-name="germandbls" unicode="&#xdf;" horiz-adv-x="1331" 
d="M1253 412q0 -203 -134 -324t-359 -121q-111 0 -215 39v262q76 -35 170 -35q94 -1 157 59q64 60 64 156t-65 157q-65 60 -171 61h-86v192l131 164q76 96 76 176t-52 120t-139 40q-86 0 -140 -45t-54 -121v-1192h-307v1194q0 190 136 306q135 116 359 116t361 -104
t137 -262t-110 -308l-82 -100q150 -41 236 -156t87 -274z" />
    <glyph glyph-name="agrave" unicode="&#xe0;" horiz-adv-x="1339" 
d="M644 207q116 0 187.5 81t71.5 209t-71.5 208.5t-187.5 80.5t-189.5 -80.5t-73.5 -208.5t73.5 -209t189.5 -81zM575 -33q-208 0 -351.5 148.5t-143.5 381t142.5 381t352.5 148.5t330 -129h4v96h303v-993h-303v96h-4q-122 -129 -330 -129zM807 1157h-268l-222 326h326
l170 -318z" />
    <glyph glyph-name="aacute" unicode="&#xe1;" horiz-adv-x="1339" 
d="M644 207q116 0 187.5 81t71.5 209t-71.5 208.5t-187.5 80.5t-189.5 -80.5t-73.5 -208.5t73.5 -209t189.5 -81zM575 -33q-208 0 -351.5 148.5t-143.5 381t142.5 381t352.5 148.5t330 -129h4v96h303v-993h-303v96h-4q-122 -129 -330 -129zM516 1157l-6 8l170 318h326
l-222 -326h-268z" />
    <glyph glyph-name="acircumflex" unicode="&#xe2;" horiz-adv-x="1339" 
d="M644 207q116 0 187.5 81t71.5 209t-71.5 208.5t-187.5 80.5t-189.5 -80.5t-73.5 -208.5t73.5 -209t189.5 -81zM575 -33q-208 0 -351.5 148.5t-143.5 381t142.5 381t352.5 148.5t330 -129h4v96h303v-993h-303v96h-4q-122 -129 -330 -129zM262 1145l256 321h285l256 -321
h-268l-129 149l-132 -149h-268z" />
    <glyph glyph-name="atilde" unicode="&#xe3;" horiz-adv-x="1339" 
d="M644 207q116 0 187.5 81t71.5 209t-71.5 208.5t-187.5 80.5t-189.5 -80.5t-73.5 -208.5t73.5 -209t189.5 -81zM575 -33q-208 0 -351.5 148.5t-143.5 381t142.5 381t352.5 148.5t330 -129h4v96h303v-993h-303v96h-4q-122 -129 -330 -129zM807 1157q-78 0 -163 49t-105 49
q-45 0 -60 -67h-223q6 129 72.5 207t185.5 78q84 0 166 -49.5t104 -49.5q43 0 56 68h221q4 -123 -66.5 -204t-187.5 -81z" />
    <glyph glyph-name="adieresis" unicode="&#xe4;" horiz-adv-x="1339" 
d="M644 207q116 0 187.5 81t71.5 209t-71.5 208.5t-187.5 80.5t-189.5 -80.5t-73.5 -208.5t73.5 -209t189.5 -81zM575 -33q-208 0 -351.5 148.5t-143.5 381t142.5 381t352.5 148.5t330 -129h4v96h303v-993h-303v96h-4q-122 -129 -330 -129zM725 1485h338v-316h-338v316z
M260 1485h336v-316h-336v316z" />
    <glyph glyph-name="aring" unicode="&#xe5;" horiz-adv-x="1339" 
d="M644 207q116 0 187.5 81t71.5 209t-71.5 208.5t-187.5 80.5t-189.5 -80.5t-73.5 -208.5t73.5 -209t189.5 -81zM575 -33q-208 0 -351.5 148.5t-143.5 381t142.5 381t352.5 148.5t330 -129h4v96h303v-993h-303v96h-4q-122 -129 -330 -129zM663 1262q44 0 71.5 25.5
t27.5 67.5t-27.5 68.5t-71.5 26.5t-73 -26.5t-29 -68.5t29 -67.5t73 -25.5zM663.5 1128q-114.5 0 -186 62.5t-71.5 164t71.5 164t186 62.5t184.5 -62.5t70 -163.5t-70 -164t-184.5 -63z" />
    <glyph glyph-name="ae" unicode="&#xe6;" horiz-adv-x="1957" 
d="M545.5 193q95.5 0 161 57t65.5 147h-289q-57 0 -93 -26.5t-36 -72.5t48 -75.5t143.5 -29.5zM1351 799q-101 0 -172 -60.5t-87 -156.5h491q-4 96 -67.5 156.5t-164.5 60.5zM1876 487v-88h-780q25 -92 96.5 -145t167.5 -53q137 0 194 82h306q-41 -141 -181.5 -228.5
t-324.5 -87.5q-279 0 -434 176q-147 -176 -449 -176q-178 0 -293 89t-115 227.5t108 215t298 76.5h301v35q0 184 -184 185q-147 0 -176 -125h-297q14 162 142 259t354.5 97t355.5 -129q147 129 383.5 129t382 -144.5t145.5 -394.5z" />
    <glyph glyph-name="ccedilla" unicode="&#xe7;" horiz-adv-x="1245" 
d="M630.5 215q108.5 0 168 46t75.5 118h291q-18 -164 -129.5 -270.5t-285.5 -133.5l-113 -331h-254l88 344q-180 45 -285.5 179t-105.5 329q0 240 154.5 385t389 145t378 -112.5t163.5 -299.5h-291q-16 72 -75.5 118t-168 46t-182 -77.5t-73.5 -204.5t73.5 -204t182 -77z
" />
    <glyph glyph-name="egrave" unicode="&#xe8;" horiz-adv-x="1243" 
d="M636 799q-101 0 -172 -60.5t-85 -156.5h489q-4 96 -67.5 156.5t-164.5 60.5zM639 -33q-250 0 -403.5 145.5t-153.5 384.5t150.5 384t394 145t389 -144.5t145.5 -394.5v-88h-780q25 -92 96.5 -145t167.5 -53q137 0 195 82h305q-41 -141 -181.5 -228.5t-324.5 -87.5z
M768 1157h-268l-221 326h325l170 -318z" />
    <glyph glyph-name="eacute" unicode="&#xe9;" horiz-adv-x="1243" 
d="M636 799q-101 0 -172 -60.5t-85 -156.5h489q-4 96 -67.5 156.5t-164.5 60.5zM639 -33q-250 0 -403.5 145.5t-153.5 384.5t150.5 384t394 145t389 -144.5t145.5 -394.5v-88h-780q25 -92 96.5 -145t167.5 -53q137 0 195 82h305q-41 -141 -181.5 -228.5t-324.5 -87.5z
M477 1157l-6 8l170 318h326l-222 -326h-268z" />
    <glyph glyph-name="ecircumflex" unicode="&#xea;" horiz-adv-x="1243" 
d="M636 799q-101 0 -172 -60.5t-85 -156.5h489q-4 96 -67.5 156.5t-164.5 60.5zM639 -33q-250 0 -403.5 145.5t-153.5 384.5t150.5 384t394 145t389 -144.5t145.5 -394.5v-88h-780q25 -92 96.5 -145t167.5 -53q137 0 195 82h305q-41 -141 -181.5 -228.5t-324.5 -87.5z
M223 1145l256 321h285l256 -321h-268l-129 149l-131 -149h-269z" />
    <glyph glyph-name="edieresis" unicode="&#xeb;" horiz-adv-x="1243" 
d="M636 799q-101 0 -172 -60.5t-85 -156.5h489q-4 96 -67.5 156.5t-164.5 60.5zM639 -33q-250 0 -403.5 145.5t-153.5 384.5t150.5 384t394 145t389 -144.5t145.5 -394.5v-88h-780q25 -92 96.5 -145t167.5 -53q137 0 195 82h305q-41 -141 -181.5 -228.5t-324.5 -87.5z
M686 1485h338v-316h-338v316zM221 1485h336v-316h-336v316z" />
    <glyph glyph-name="igrave" unicode="&#xec;" horiz-adv-x="565" 
d="M129 0v993h307v-993h-307zM428 1157h-268l-221 326h325l170 -318z" />
    <glyph glyph-name="iacute" unicode="&#xed;" horiz-adv-x="565" 
d="M129 0v993h307v-993h-307zM137 1157l-6 8l170 318h326l-221 -326h-269z" />
    <glyph glyph-name="icircumflex" unicode="&#xee;" horiz-adv-x="565" 
d="M129 0v993h307v-993h-307zM-117 1145l256 321h285l256 -321h-268l-129 149l-131 -149h-269z" />
    <glyph glyph-name="idieresis" unicode="&#xef;" horiz-adv-x="565" 
d="M129 0v993h307v-993h-307zM346 1485h338v-316h-338v316zM-119 1485h336v-316h-336v316z" />
    <glyph glyph-name="eth" unicode="&#xf0;" horiz-adv-x="1275" 
d="M642 752q-120 0 -194 -73t-73 -193q-1 -120 73 -192t194 -73q120 0 194 74q74 75 74 193t-74 191t-194 73zM1204 516q0 -248 -154 -398t-407 -151q-254 1 -409 143q-154 142 -154 375t156 377t407 144q63 0 125 -19q-61 82 -152 154l-325 -113l-66 166l205 70
q-78 43 -203 100l271 113q109 -45 217 -115l215 74l65 -164l-116 -41q157 -150 241 -336t84 -379z" />
    <glyph glyph-name="ntilde" unicode="&#xf1;" horiz-adv-x="1298" 
d="M129 0v993h303v-96h4q118 129 310 129t317 -127t125 -326v-573h-309v532q0 104 -58.5 168t-158.5 64t-163 -60.5t-63 -160.5v-543h-307zM811 1157q-78 0 -163 49t-105 49q-45 0 -60 -67h-223q6 129 72.5 207t185.5 78q84 0 166 -49.5t104 -49.5q43 0 56 68h221
q4 -123 -66.5 -204t-187.5 -81z" />
    <glyph glyph-name="ograve" unicode="&#xf2;" horiz-adv-x="1286" 
d="M643 221q121 0 195.5 75t74.5 200t-74.5 200.5t-195.5 75.5t-195.5 -75.5t-74.5 -200.5t74.5 -200t195.5 -75zM643 -33q-254 0 -408.5 145.5t-154.5 384.5t154.5 384t408.5 145q255 0 409 -146t154 -384t-154.5 -383.5t-408.5 -145.5zM788 1157h-268l-221 326h326
l170 -318z" />
    <glyph glyph-name="oacute" unicode="&#xf3;" horiz-adv-x="1286" 
d="M643 221q121 0 195.5 75t74.5 200t-74.5 200.5t-195.5 75.5t-195.5 -75.5t-74.5 -200.5t74.5 -200t195.5 -75zM643 -33q-254 0 -408.5 145.5t-154.5 384.5t154.5 384t408.5 145q255 0 409 -146t154 -384t-154.5 -383.5t-408.5 -145.5zM498 1157l-6 8l170 318h325
l-221 -326h-268z" />
    <glyph glyph-name="ocircumflex" unicode="&#xf4;" horiz-adv-x="1286" 
d="M643 221q121 0 195.5 75t74.5 200t-74.5 200.5t-195.5 75.5t-195.5 -75.5t-74.5 -200.5t74.5 -200t195.5 -75zM643 -33q-254 0 -408.5 145.5t-154.5 384.5t154.5 384t408.5 145q255 0 409 -146t154 -384t-154.5 -383.5t-408.5 -145.5zM244 1145l256 321h284l256 -321
h-268l-129 149l-131 -149h-268z" />
    <glyph glyph-name="otilde" unicode="&#xf5;" horiz-adv-x="1286" 
d="M643 221q121 0 195.5 75t74.5 200t-74.5 200.5t-195.5 75.5t-195.5 -75.5t-74.5 -200.5t74.5 -200t195.5 -75zM643 -33q-254 0 -408.5 145.5t-154.5 384.5t154.5 384t408.5 145t408.5 -145.5t154.5 -384t-154.5 -384t-408.5 -145.5zM788 1157q-78 0 -162.5 49t-105.5 49
q-45 0 -59 -67h-223q6 129 72.5 207t172.5 78q107 -1 221 -75q38 -24 62 -24q43 0 55 68h221q4 -123 -66.5 -204t-187.5 -81z" />
    <glyph glyph-name="odieresis" unicode="&#xf6;" horiz-adv-x="1286" 
d="M643 221q121 0 195.5 75t74.5 200t-74.5 200.5t-195.5 75.5t-195.5 -75.5t-74.5 -200.5t74.5 -200t195.5 -75zM643 -33q-254 0 -408.5 145.5t-154.5 384.5t154.5 384t408.5 145q255 0 409 -146t154 -384t-154.5 -383.5t-408.5 -145.5zM707 1485h337v-316h-337v316z
M242 1485h336v-316h-336v316z" />
    <glyph glyph-name="divide" unicode="&#xf7;" horiz-adv-x="1464" 
d="M569 426h328v-305h-328v305zM207 553v235h1050v-235h-1050zM569 1231h328v-307h-328v307z" />
    <glyph glyph-name="oslash" unicode="&#xf8;" horiz-adv-x="1286" 
d="M643 221q121 0 195.5 75t74.5 200q0 82 -34 145l-355 -397q56 -23 119 -23zM373 496q0 -82 35 -146l356 398q-55 25 -121 24q-121 0 -195.5 -75.5t-74.5 -200.5zM1206 486.5q0 -228.5 -154.5 -374t-408.5 -145.5q-174 0 -303 70l-78 -86l-125 98l76 84q-133 145 -133 374
t154.5 374t408.5 145q174 0 305 -72l78 88l125 -98l-78 -86q133 -143 133 -371.5z" />
    <glyph glyph-name="ugrave" unicode="&#xf9;" horiz-adv-x="1277" 
d="M639 -33q-238 0 -383 128t-145 337v561h307v-532q0 -104 60.5 -168t160.5 -64t160.5 63.5t60.5 168.5v532h307v-561q0 -209 -145 -337t-383 -128zM786 1157h-268l-221 326h326l170 -318z" />
    <glyph glyph-name="uacute" unicode="&#xfa;" horiz-adv-x="1277" 
d="M639 -33q-238 0 -383 128t-145 337v561h307v-532q0 -104 60.5 -168t160.5 -64t160.5 63.5t60.5 168.5v532h307v-561q0 -209 -145 -337t-383 -128zM496 1157l-7 8l170 318h326l-221 -326h-268z" />
    <glyph glyph-name="ucircumflex" unicode="&#xfb;" horiz-adv-x="1277" 
d="M639 -33q-238 0 -383 128t-145 337v561h307v-532q0 -104 60.5 -168t160.5 -64t160.5 63.5t60.5 168.5v532h307v-561q0 -209 -145 -337t-383 -128zM242 1145l256 321h284l256 -321h-268l-129 149l-131 -149h-268z" />
    <glyph glyph-name="udieresis" unicode="&#xfc;" horiz-adv-x="1277" 
d="M639 -33q-238 0 -383 128t-145 337v561h307v-532q0 -104 60.5 -168t160.5 -64t160.5 63.5t60.5 168.5v532h307v-561q0 -209 -145 -337t-383 -128zM705 1485h337v-316h-337v316zM240 1485h335v-316h-335v316z" />
    <glyph glyph-name="yacute" unicode="&#xfd;" horiz-adv-x="1359" 
d="M997 993h326l-659 -1468h-330l211 455l-506 1013h328l329 -667h4zM803 1157h-268l-7 8l170 318h326z" />
    <glyph glyph-name="thorn" unicode="&#xfe;" horiz-adv-x="1339" 
d="M696 207q115 0 189 81q73 81 73 209t-73 209q-74 80 -189 80q-116 0 -188 -80t-72 -209q0 -128 72 -209t188 -81zM129 -475v2056h307v-686h4q129 131 334 131t346 -148q142 -148 142 -383t-144 -382t-346 -147t-332 132h-4v-573h-307z" />
    <glyph glyph-name="ydieresis" unicode="&#xff;" horiz-adv-x="1359" 
d="M997 993h326l-659 -1468h-330l211 455l-506 1013h328l329 -667h4zM1081 1485v-316h-338v316h338zM614 1485v-316h-335v316h335z" />
    <glyph glyph-name="Amacron" unicode="&#x100;" horiz-adv-x="1640" 
d="M606 557h430l-211 510h-6zM31 0l639 1434h305l635 -1434h-342l-123 293h-645l-125 -293h-344zM512 1587v225h618v-225h-618z" />
    <glyph glyph-name="amacron" unicode="&#x101;" horiz-adv-x="1339" 
d="M644 207q116 0 187.5 81t71.5 209t-71.5 208.5t-187.5 80.5t-189.5 -80.5t-73.5 -208.5t73.5 -209t189.5 -81zM575 -33q-208 0 -351.5 148.5t-143.5 381t142.5 381t352.5 148.5t330 -129h4v96h303v-993h-303v96h-4q-122 -129 -330 -129zM352 1186v225h619v-225h-619z" />
    <glyph glyph-name="Abreve" unicode="&#x102;" horiz-adv-x="1640" 
d="M606 557h430l-211 510h-6zM31 0l639 1434h305l635 -1434h-342l-123 293h-645l-125 -293h-344zM821 1575q-164 0 -257 92t-101 240h213q18 -143 145.5 -143t145.5 143h213q-8 -147 -101.5 -239.5t-257.5 -92.5z" />
    <glyph glyph-name="abreve" unicode="&#x103;" horiz-adv-x="1339" 
d="M644 207q116 0 187.5 81t71.5 209t-71.5 208.5t-187.5 80.5t-189.5 -80.5t-73.5 -208.5t73.5 -209t189.5 -81zM575 -33q-208 0 -351.5 148.5t-143.5 381t142.5 381t352.5 148.5t330 -129h4v96h303v-993h-303v96h-4q-122 -129 -330 -129zM661.5 1130q-163.5 0 -257 92.5
t-101.5 241.5h213q18 -145 145.5 -145t145.5 145h213q-8 -150 -101.5 -242t-257 -92z" />
    <glyph glyph-name="Aogonek" unicode="&#x104;" horiz-adv-x="1640" 
d="M606 557h430l-211 510h-6zM1161 -153.5q0 110.5 94 182.5l-110 264h-645l-125 -293h-344l639 1434h305l635 -1434h-54q-141 -23 -141 -96q0 -68 125 -68q45 0 96 14l27 -221q-90 -23 -168 -22q-145 0 -239.5 64.5t-94.5 175z" />
    <glyph glyph-name="aogonek" unicode="&#x105;" horiz-adv-x="1339" 
d="M644 207q116 0 187.5 81t71.5 209t-71.5 208.5t-187.5 80.5t-189.5 -80.5t-73.5 -208.5t73.5 -209t189.5 -81zM805 -151.5q0 112.5 104 186.5v61h-4q-123 -129 -330.5 -129t-351 148.5t-143.5 381t142.5 381t352.5 148.5t330 -129h4v96h303v-993h-12q-141 -23 -141 -96
q0 -68 125 -68q45 0 96 14l27 -221q-90 -23 -168 -22q-145 0 -239.5 64.5t-94.5 177z" />
    <glyph glyph-name="Cacute" unicode="&#x106;" horiz-adv-x="1708" 
d="M874 254q156 0 260.5 82t143.5 225h332q-43 -272 -244 -432t-494 -160q-348 0 -561 207t-213 543t213 541.5t561 205.5q293 0 494 -159.5t244 -432.5h-332q-39 143 -142.5 225.5t-261.5 82.5q-203 0 -326.5 -128t-123.5 -336t123.5 -336t326.5 -128zM707 1575l-7 8
l170 318h326l-221 -326h-268z" />
    <glyph glyph-name="cacute" unicode="&#x107;" horiz-adv-x="1245" 
d="M623.5 -33q-234.5 0 -389 145.5t-154.5 384.5t154.5 384t389 145t378 -112.5t163.5 -299.5h-291q-16 72 -75.5 118t-168 46t-182 -77.5t-73.5 -204.5t73.5 -204t182 -77t168 46t75.5 118h291q-20 -188 -163.5 -300t-378 -112zM473 1157l-6 8l170 318h326l-222 -326h-268z
" />
    <glyph glyph-name="Cdotaccent" unicode="&#x10a;" horiz-adv-x="1708" 
d="M874 254q156 0 260.5 82t143.5 225h332q-43 -272 -244 -432t-494 -160q-348 0 -561 207t-213 543t213 541.5t561 205.5q293 0 494 -159.5t244 -432.5h-332q-39 143 -142.5 225.5t-261.5 82.5q-203 0 -326.5 -128t-123.5 -336t123.5 -336t326.5 -128zM682 1898h336v-313
h-336v313z" />
    <glyph glyph-name="cdotaccent" unicode="&#x10b;" horiz-adv-x="1245" 
d="M623.5 -33q-234.5 0 -389 145.5t-154.5 384.5t154.5 384t389 145t378 -112.5t163.5 -299.5h-291q-16 72 -75.5 118t-168 46t-182 -77.5t-73.5 -204.5t73.5 -204t182 -77t168 46t75.5 118h291q-20 -188 -163.5 -300t-378 -112zM449 1485h335v-316h-335v316z" />
    <glyph glyph-name="Ccaron" unicode="&#x10c;" horiz-adv-x="1708" 
d="M874 254q156 0 260.5 82t143.5 225h332q-43 -272 -244 -432t-494 -160q-348 0 -561 207t-213 543t213 541.5t561 205.5q293 0 494 -159.5t244 -432.5h-332q-39 143 -142.5 225.5t-261.5 82.5q-203 0 -326.5 -128t-123.5 -336t123.5 -336t326.5 -128zM709 1573l-256 319
h268l131 -147l129 147h268l-256 -319h-284z" />
    <glyph glyph-name="ccaron" unicode="&#x10d;" horiz-adv-x="1245" 
d="M623.5 -33q-234.5 0 -389 145.5t-154.5 384.5t154.5 384t389 145t378 -112.5t163.5 -299.5h-291q-16 72 -75.5 118t-168 46t-182 -77.5t-73.5 -204.5t73.5 -204t182 -77t168 46t75.5 118h291q-20 -188 -163.5 -300t-378 -112zM475 1145l-256 321h268l131 -149l130 149
h268l-256 -321h-285z" />
    <glyph glyph-name="Dcaron" unicode="&#x10e;" horiz-adv-x="1603" 
d="M680 274q225 0 361.5 122t136.5 320.5t-136.5 320.5t-361.5 122h-223v-885h223zM702 1434q367 0 585 -196t218 -521.5t-218 -521t-585 -195.5h-567v1434h567zM659 1573l-256 319h269l131 -147l129 147h268l-256 -319h-285z" />
    <glyph glyph-name="dcaron" unicode="&#x10f;" horiz-adv-x="1339" 
d="M644 207q116 0 187.5 81t71.5 209t-71.5 208.5t-187.5 80.5t-189.5 -80.5t-73.5 -208.5t73.5 -209t189.5 -81zM1346 1169l12 412h287l-82 -412h-217zM573 1026q210 0 326 -129h4v684h309v-1581h-303v96h-4q-127 -129 -332.5 -129t-349 148.5t-143.5 381t141.5 381
t351.5 148.5z" />
    <glyph glyph-name="Dcroat" unicode="&#x110;" horiz-adv-x="1603" 
d="M680 274q225 0 361.5 122t136.5 320.5t-136.5 320.5t-361.5 122h-223v-309h276v-264h-276v-312h223zM702 1434q367 0 585 -196t218 -521.5t-218 -521t-585 -195.5h-567v586h-121v264h121v584h567z" />
    <glyph glyph-name="dcroat" unicode="&#x111;" horiz-adv-x="1456" 
d="M644 207q116 0 187.5 81t71.5 209t-71.5 208.5t-187.5 80.5t-189.5 -80.5t-73.5 -208.5t73.5 -209t189.5 -81zM1292 1337v-211h-80v-1126h-303v96h-4q-127 -129 -332.5 -129t-349 148.5t-143.5 381t141 381t351.5 148.5t326.5 -129h4v229h-342v211h342v244h309v-244h80z
" />
    <glyph glyph-name="Emacron" unicode="&#x112;" horiz-adv-x="1314" 
d="M1233 1167h-776v-325h680v-264h-680v-312h776v-266h-1098v1434h1098v-267zM399 1587v225h619v-225h-619z" />
    <glyph glyph-name="emacron" unicode="&#x113;" horiz-adv-x="1243" 
d="M636 799q-101 0 -172 -60.5t-85 -156.5h489q-4 96 -67.5 156.5t-164.5 60.5zM639 -33q-250 0 -403.5 145.5t-153.5 384.5t150.5 384t394 145t389 -144.5t145.5 -394.5v-88h-780q25 -92 96.5 -145t167.5 -53q137 0 195 82h305q-41 -141 -181.5 -228.5t-324.5 -87.5z
M313 1186v225h619v-225h-619z" />
    <glyph glyph-name="Edotaccent" unicode="&#x116;" horiz-adv-x="1314" 
d="M1233 1167h-776v-325h680v-264h-680v-312h776v-266h-1098v1434h1098v-267zM539 1898h335v-313h-335v313z" />
    <glyph glyph-name="edotaccent" unicode="&#x117;" horiz-adv-x="1243" 
d="M636 799q-101 0 -172 -60.5t-85 -156.5h489q-4 96 -67.5 156.5t-164.5 60.5zM639 -33q-250 0 -403.5 145.5t-153.5 384.5t150.5 384t394 145t389 -144.5t145.5 -394.5v-88h-780q25 -92 96.5 -145t167.5 -53q137 0 195 82h305q-41 -141 -181.5 -228.5t-324.5 -87.5z
M453 1485h335v-316h-335v316z" />
    <glyph glyph-name="Eogonek" unicode="&#x118;" horiz-adv-x="1314" 
d="M741 -164q0 100 64 164h-670v1434h1098v-267h-776v-325h680v-264h-680v-312h776v-266h-96q-141 -23 -142 -96q0 -68 125 -68q48 0 97 14l26 -221q-90 -23 -168 -22q-145 0 -239.5 64.5t-94.5 164.5z" />
    <glyph glyph-name="eogonek" unicode="&#x119;" horiz-adv-x="1243" 
d="M636 799q-101 0 -172 -60.5t-85 -156.5h489q-4 96 -67.5 156.5t-164.5 60.5zM1161 487v-88h-780q25 -92 96.5 -145t167.5 -53q137 0 195 82h305q-29 -98 -108 -172t-189 -111h-2q-27 -10 -74 -20q-66 -25 -65 -76q0 -68 124 -68q45 0 97 14l26 -221q-90 -23 -168 -22
q-145 0 -239 64.5t-94 174.5q0 74 45 136q-193 39 -304.5 176t-111.5 338q0 240 150.5 385t394 145t389 -144.5t145.5 -394.5z" />
    <glyph glyph-name="Ecaron" unicode="&#x11a;" horiz-adv-x="1314" 
d="M1233 1167h-776v-325h680v-264h-680v-312h776v-266h-1098v1434h1098v-267zM565 1573l-256 319h269l131 -147l129 147h268l-256 -319h-285z" />
    <glyph glyph-name="ecaron" unicode="&#x11b;" horiz-adv-x="1243" 
d="M636 799q-101 0 -172 -60.5t-85 -156.5h489q-4 96 -67.5 156.5t-164.5 60.5zM639 -33q-250 0 -403.5 145.5t-153.5 384.5t150.5 384t394 145t389 -144.5t145.5 -394.5v-88h-780q25 -92 96.5 -145t167.5 -53q137 0 195 82h305q-41 -141 -181.5 -228.5t-324.5 -87.5z
M479 1145l-256 321h269l131 -149l129 149h268l-256 -321h-285z" />
    <glyph glyph-name="Gbreve" unicode="&#x11e;" horiz-adv-x="1724" 
d="M878 -31q-354 0 -567 207t-213 543t212 541.5t560 205.5q299 0 491.5 -147.5t252.5 -382.5h-336q-47 119 -154.5 182.5t-249.5 63.5q-203 0 -326.5 -128t-123.5 -337t125 -337t325 -128q150 0 255.5 72.5t138.5 197.5h-416v252h774q2 -383 -196 -594t-552 -211zM866 1575
q-164 0 -257 92t-101 240h213q18 -143 145.5 -143t145.5 143h213q-8 -147 -101.5 -239.5t-257.5 -92.5z" />
    <glyph glyph-name="gbreve" unicode="&#x11f;" horiz-adv-x="1347" 
d="M652 213q116 0 187.5 80t71.5 207t-72.5 206.5t-186.5 79.5t-188.5 -80.5t-74.5 -206.5t73.5 -206t189.5 -80zM918 993h303v-1018q0 -217 -151.5 -351t-393.5 -134t-390.5 112.5t-170.5 301.5h309q16 -76 79.5 -120t169.5 -44t172 63.5t66 169.5v127h-4
q-125 -129 -330.5 -129t-347 148.5t-141.5 380t142.5 379t348 147.5t332.5 -127h7v94zM665.5 1130q-163.5 0 -257 92.5t-101.5 241.5h213q18 -145 145.5 -145t145.5 145h213q-8 -150 -101.5 -242t-257 -92z" />
    <glyph glyph-name="Gdotaccent" unicode="&#x120;" horiz-adv-x="1724" 
d="M878 -31q-354 0 -567 207t-213 543t212 541.5t560 205.5q299 0 491.5 -147.5t252.5 -382.5h-336q-47 119 -154.5 182.5t-249.5 63.5q-203 0 -326.5 -128t-123.5 -337t125 -337t325 -128q150 0 255.5 72.5t138.5 197.5h-416v252h774q2 -383 -196 -594t-552 -211zM696 1898
h336v-313h-336v313z" />
    <glyph glyph-name="gdotaccent" unicode="&#x121;" horiz-adv-x="1347" 
d="M652 213q116 0 187.5 80t71.5 207t-72.5 206.5t-186.5 79.5t-188.5 -80.5t-74.5 -206.5t73.5 -206t189.5 -80zM918 993h303v-1018q0 -217 -151.5 -351t-393.5 -134t-390.5 112.5t-170.5 301.5h309q16 -76 79.5 -120t169.5 -44t172 63.5t66 169.5v127h-4
q-125 -129 -330.5 -129t-347 148.5t-141.5 380t142.5 379t348 147.5t332.5 -127h7v94zM496 1485h335v-316h-335v316z" />
    <glyph glyph-name="Gcommaaccent" unicode="&#x122;" horiz-adv-x="1724" 
d="M707 -100h335v-164q0 -160 -73.5 -233.5t-257.5 -98.5l-27 129q98 27 128 51.5t34 75.5h-139v240zM878 -31q-354 0 -567 207t-213 543t212 541.5t560 205.5q299 0 491.5 -147.5t252.5 -382.5h-336q-47 119 -154.5 182.5t-249.5 63.5q-203 0 -326.5 -128t-123.5 -337
t125 -337t325 -128q150 0 255.5 72.5t138.5 197.5h-416v252h774q2 -383 -196 -594t-552 -211z" />
    <glyph glyph-name="gcommaaccent" unicode="&#x123;" horiz-adv-x="1347" 
d="M652 213q116 0 187.5 80t71.5 207t-72.5 206.5t-186.5 79.5t-188.5 -80.5t-74.5 -206.5t73.5 -206t189.5 -80zM918 993h303v-1018q0 -217 -151.5 -351t-393.5 -134t-390.5 112.5t-170.5 301.5h309q16 -76 79.5 -120t169.5 -44t172 63.5t66 169.5v127h-4
q-125 -129 -330.5 -129t-347 148.5t-141.5 380t142.5 379t348 147.5t332.5 -127h7v94zM829 1171h-335v164q0 160 73.5 233.5t257.5 98.5l27 -129q-98 -27 -128 -51.5t-34 -75.5h139v-240z" />
    <glyph glyph-name="Hbar" unicode="&#x126;" horiz-adv-x="1576" 
d="M457 846h663v176h-663v-176zM1120 1434h322v-1434h-322v573h-663v-573h-322v1434h322v-197h663v197z" />
    <glyph glyph-name="hbar" unicode="&#x127;" horiz-adv-x="1431" 
d="M754.5 1026q190.5 0 312 -127t121.5 -326v-573h-309v532q0 104 -58.5 168t-158.5 64t-163 -60.5t-63 -160.5v-543h-307v1180h-84v178h84v223h307v-223h277v-178h-277v-283h4q124 129 314.5 129z" />
    <glyph glyph-name="Itilde" unicode="&#x128;" horiz-adv-x="591" 
d="M135 0v1434h322v-1434h-322zM442 1597q-78 0 -162.5 48.5t-105.5 48.5q-45 0 -59 -66h-224q6 127 73 205t186 78q84 0 165.5 -48t104.5 -48q43 0 55 67h221q4 -123 -66.5 -204t-187.5 -81z" />
    <glyph glyph-name="itilde" unicode="&#x129;" horiz-adv-x="565" 
d="M129 0v993h307v-993h-307zM428 1157q-78 0 -163 49t-105 49q-45 0 -60 -67h-223q6 129 72.5 207t172.5 78q106 -1 221 -75q38 -24 63 -24q43 0 55 68h221q4 -123 -66.5 -204t-187.5 -81z" />
    <glyph glyph-name="Imacron" unicode="&#x12a;" horiz-adv-x="591" 
d="M135 0v1434h322v-1434h-322zM-12 1587v225h618v-225h-618z" />
    <glyph glyph-name="imacron" unicode="&#x12b;" horiz-adv-x="565" 
d="M129 0v993h307v-993h-307zM-27 1186v225h619v-225h-619z" />
    <glyph glyph-name="Iogonek" unicode="&#x12e;" horiz-adv-x="591" 
d="M33 -150.5q0 113.5 102 183.5v1401h322v-1434h-29q-141 -23 -141 -96q0 -68 125 -68q45 0 96 14l27 -221q-90 -23 -168 -22q-145 0 -239.5 64.5t-94.5 178z" />
    <glyph glyph-name="iogonek" unicode="&#x12f;" horiz-adv-x="565" 
d="M37 -153.5q0 110.5 92 180.5v966h307v-993h-4q-141 -23 -141 -96q0 -68 125 -68q47 0 96 14l27 -221q-90 -23 -168 -22q-145 0 -239.5 64.5t-94.5 175zM440 1581v-281h-315v281h315z" />
    <glyph glyph-name="Idotaccent" unicode="&#x130;" horiz-adv-x="591" 
d="M135 0v1434h322v-1434h-322zM127 1898h336v-313h-336v313z" />
    <glyph glyph-name="dotlessi" unicode="&#x131;" horiz-adv-x="565" 
d="M129 0v993h307v-993h-307z" />
    <glyph glyph-name="IJ" unicode="&#x132;" horiz-adv-x="1916" 
d="M1221.5 -33q-265.5 0 -420 132t-174.5 372h317q37 -227 275 -227q115 0 186.5 79.5t71.5 211.5v626h-639v273h964v-895q0 -272 -157.5 -422t-423 -150zM135 0v1434h322v-1434h-322z" />
    <glyph glyph-name="ij" unicode="&#x133;" horiz-adv-x="1136" 
d="M502 -510v248l24 4q94 12 134 49t40 133v1069h310v-1036q0 -242 -111 -354.5t-344 -112.5h-53zM129 0v993h307v-993h-307zM696 1300v281h316v-281h-316zM125 1300v281h315v-281h-315z" />
    <glyph glyph-name="Kcommaaccent" unicode="&#x136;" horiz-adv-x="1562" 
d="M598 -340v240h336v-164q0 -160 -74 -233.5t-258 -98.5l-27 129q98 27 128 51.5t34 75.5h-139zM457 0h-322v1434h322v-691l630 691h388l-654 -717l717 -717h-405l-676 670v-670z" />
    <glyph glyph-name="kcommaaccent" unicode="&#x137;" horiz-adv-x="1286" 
d="M457 -100h336v-164q0 -160 -74 -233.5t-258 -98.5l-27 129q98 27 128 51.5t34 75.5h-139v240zM129 0v1581h307v-1085l422 497h350l-420 -497l482 -496h-385l-449 461v-461h-307z" />
    <glyph glyph-name="kgreenlandic" unicode="&#x138;" horiz-adv-x="1286" 
d="M129 0v993h307v-497l422 497h350l-420 -497l482 -496h-385l-449 461v-461h-307z" />
    <glyph glyph-name="Lacute" unicode="&#x139;" horiz-adv-x="1253" 
d="M457 266h749v-266h-1071v1434h322v-1168zM152 1575l-7 8l170 318h326l-221 -326h-268z" />
    <glyph glyph-name="lacute" unicode="&#x13a;" horiz-adv-x="565" 
d="M129 0v1581h307v-1581h-307zM137 1722l-6 9l170 317h326l-221 -326h-269z" />
    <glyph glyph-name="Lcommaaccent" unicode="&#x13b;" horiz-adv-x="1253" 
d="M489 -100h336v-164q0 -160 -73.5 -233.5t-257.5 -98.5l-27 129q98 27 128 51.5t34 75.5h-140v240zM457 266h749v-266h-1071v1434h322v-1168z" />
    <glyph glyph-name="lcommaaccent" unicode="&#x13c;" horiz-adv-x="565" 
d="M115 -100h336v-164q0 -160 -74 -233.5t-258 -98.5l-27 129q98 27 128 51.5t34 75.5h-139v240zM129 0v1581h307v-1581h-307z" />
    <glyph glyph-name="Lcaron" unicode="&#x13d;" horiz-adv-x="1253" 
d="M756 1020l12 412h287l-82 -412h-217zM457 266h749v-266h-1071v1434h322v-1168z" />
    <glyph glyph-name="lcaron" unicode="&#x13e;" horiz-adv-x="565" 
d="M573 1169l13 412h286l-81 -412h-218zM129 0v1581h307v-1581h-307z" />
    <glyph glyph-name="Ldot" unicode="&#x13f;" horiz-adv-x="1253" 
d="M692 903h342v-323h-342v323zM457 266h749v-266h-1071v1434h322v-1168z" />
    <glyph glyph-name="ldot" unicode="&#x140;" horiz-adv-x="565" 
d="M520 770h342v-324h-342v324zM129 0v1581h307v-1581h-307z" />
    <glyph glyph-name="Lslash" unicode="&#x141;" horiz-adv-x="1253" 
d="M457 266h749v-266h-1071v516l-123 -45v246l123 45v672h322v-557l334 120v-243l-334 -121v-367z" />
    <glyph glyph-name="lslash" unicode="&#x142;" horiz-adv-x="565" 
d="M436 0h-307v555l-129 -47v270l129 47v756h307v-643l129 47v-268l-129 -47v-670z" />
    <glyph glyph-name="Nacute" unicode="&#x143;" horiz-adv-x="1605" 
d="M1149 1434h321v-1434h-258l-755 879v-879h-322v1434h252l762 -899v899zM657 1575l-6 8l170 318h326l-221 -326h-269z" />
    <glyph glyph-name="nacute" unicode="&#x144;" horiz-adv-x="1298" 
d="M129 0v993h303v-96h4q118 129 310 129t317 -127t125 -326v-573h-309v532q0 104 -58.5 168t-158.5 64t-163 -60.5t-63 -160.5v-543h-307zM520 1157l-6 8l170 318h326l-222 -326h-268z" />
    <glyph glyph-name="Ncommaaccent" unicode="&#x145;" horiz-adv-x="1605" 
d="M637 -100h336v-164q0 -160 -74 -233.5t-258 -98.5l-27 129q98 27 128 51.5t34 75.5h-139v240zM1149 1434h321v-1434h-258l-755 879v-879h-322v1434h252l762 -899v899z" />
    <glyph glyph-name="ncommaaccent" unicode="&#x146;" horiz-adv-x="1298" 
d="M498 -100h336v-164q0 -160 -74 -233.5t-258 -98.5l-27 129q98 27 128 51.5t34 75.5h-139v240zM129 0v993h303v-96h4q118 129 310 129t317 -127t125 -326v-573h-309v532q0 104 -58.5 168t-158.5 64t-163 -60.5t-63 -160.5v-543h-307z" />
    <glyph glyph-name="Ncaron" unicode="&#x147;" horiz-adv-x="1605" 
d="M1149 1434h321v-1434h-258l-755 879v-879h-322v1434h252l762 -899v899zM659 1573l-256 319h269l131 -147l129 147h268l-256 -319h-285z" />
    <glyph glyph-name="ncaron" unicode="&#x148;" horiz-adv-x="1298" 
d="M129 0v993h303v-96h4q118 129 310 129t317 -127t125 -326v-573h-309v532q0 104 -58.5 168t-158.5 64t-163 -60.5t-63 -160.5v-543h-307zM522 1145l-256 321h269l131 -149l129 149h268l-256 -321h-285z" />
    <glyph glyph-name="Eng" unicode="&#x14a;" horiz-adv-x="1605" 
d="M1149 1434h321v-1364q0 -280 -158 -430t-448 -150q-131 0 -276 45l39 260q117 -27 204 -26q150 1 232 75t82 222v12l-688 801v-879h-322v1434h252l762 -899v899z" />
    <glyph glyph-name="eng" unicode="&#x14b;" horiz-adv-x="1310" 
d="M682 -510v248l23 4q94 12 134 49t40 131v610q-1 104 -59 168t-158 64t-162 -60t-64 -161v-543h-307v993h303v-96h4q118 129 310 129t317 -127t125 -326v-618q0 -241 -110 -353t-343 -112h-53z" />
    <glyph glyph-name="Omacron" unicode="&#x14c;" horiz-adv-x="1755" 
d="M878.5 248q200.5 0 327.5 131t127 338t-127 338t-327.5 131t-327.5 -131t-127 -338t127 -338t327.5 -131zM878 -31q-345 0 -562.5 209t-217.5 539t217 538.5t562.5 208.5t563.5 -208.5t218 -538.5t-218 -539t-563 -209zM569 1587v225h619v-225h-619z" />
    <glyph glyph-name="omacron" unicode="&#x14d;" horiz-adv-x="1286" 
d="M643 221q121 0 195.5 75t74.5 200t-74.5 200.5t-195.5 75.5t-195.5 -75.5t-74.5 -200.5t74.5 -200t195.5 -75zM643 -33q-254 0 -408.5 145.5t-154.5 384.5t154.5 384t408.5 145q255 0 409 -146t154 -384t-154.5 -383.5t-408.5 -145.5zM334 1186v225h618v-225h-618z" />
    <glyph glyph-name="Ohungarumlaut" unicode="&#x150;" horiz-adv-x="1755" 
d="M878.5 248q200.5 0 327.5 131t127 338t-127 338t-327.5 131t-327.5 -131t-127 -338t127 -338t327.5 -131zM878 -31q-345 0 -562.5 209t-217.5 539t217 538.5t562.5 208.5t563.5 -208.5t218 -538.5t-218 -539t-563 -209zM934 1597l-6 9l127 317h280l-168 -326h-233z
M594 1597l-4 9l125 317h282l-170 -326h-233z" />
    <glyph glyph-name="ohungarumlaut" unicode="&#x151;" horiz-adv-x="1286" 
d="M643 221q121 0 195.5 75t74.5 200t-74.5 200.5t-195.5 75.5t-195.5 -75.5t-74.5 -200.5t74.5 -200t195.5 -75zM643 -33q-254 0 -408.5 145.5t-154.5 384.5t154.5 384t408.5 145q255 0 409 -146t154 -384t-154.5 -383.5t-408.5 -145.5zM698 1157l-6 6l127 320h281
l-168 -326h-234zM358 1157l-4 6l125 320h283l-170 -326h-234z" />
    <glyph glyph-name="OE" unicode="&#x152;" horiz-adv-x="2142" 
d="M885 274h78v885h-78q-225 0 -361 -122q-136 -123 -137 -321q1 -198 137 -320t361 -122zM862 0q-366 0 -584 196t-218 522t218 520q220 196 584 196h1198v-267h-776v-325h680v-264h-680v-312h776v-266h-1198z" />
    <glyph glyph-name="oe" unicode="&#x153;" horiz-adv-x="2074" 
d="M643 221q121 0 196 75t74 200q-1 124 -75 200t-195 76t-196 -76t-75 -200t76 -200q74 -75 195 -75zM1208 582h492q-4 96 -68 156t-164 60q-102 0 -173 -60t-87 -156zM1993 487v-88h-781q25 -92 97 -145t168 -53q137 0 194 82h305q-41 -141 -181 -229t-325 -87
q-256 0 -411 152q-156 -152 -413 -152q-257 -1 -412 145q-154 146 -154 385t154 384q155 145 411 145t412 -152q153 152 399 152t392 -144t145 -395z" />
    <glyph glyph-name="Racute" unicode="&#x154;" horiz-adv-x="1511" 
d="M457 1165v-395h272q143 0 225 52t82 145.5t-76.5 145.5t-214.5 52h-288zM457 502v-502h-322v1434h639q266 0 424 -127t158 -340q0 -141 -77 -248t-218 -162l405 -557h-385l-356 502h-268zM864 1575h-268l-6 8l170 318h325z" />
    <glyph glyph-name="racute" unicode="&#x155;" horiz-adv-x="858" 
d="M129 0v993h303v-119h4q88 152 269 152q66 0 106 -12v-279q-55 12 -102 13q-127 0 -200 -76t-73 -213v-459h-307zM285 1157l-6 8l170 318h325l-221 -326h-268z" />
    <glyph glyph-name="Rcommaaccent" unicode="&#x156;" horiz-adv-x="1511" 
d="M573 -340v240h336v-164q0 -160 -73.5 -233.5t-257.5 -98.5l-27 129q98 27 128 51.5t34 75.5h-140zM457 1165v-395h272q143 0 225 52t82 145.5t-76.5 145.5t-214.5 52h-288zM457 502v-502h-322v1434h639q266 0 424 -127t158 -340q0 -141 -77 -248t-218 -162l405 -557h-385
l-356 502h-268z" />
    <glyph glyph-name="rcommaaccent" unicode="&#x157;" horiz-adv-x="858" 
d="M117 -100h336v-164q0 -160 -74 -233.5t-258 -98.5l-27 129q98 27 128 51.5t34 75.5h-139v240zM129 0v993h303v-119h4q88 152 269 152q66 0 106 -12v-279q-55 12 -102 13q-127 0 -200 -76t-73 -213v-459h-307z" />
    <glyph glyph-name="Rcaron" unicode="&#x158;" horiz-adv-x="1511" 
d="M457 1165v-395h272q143 0 225 52t82 145.5t-76.5 145.5t-214.5 52h-288zM457 502v-502h-322v1434h639q266 0 424 -127t158 -340q0 -141 -77 -248t-218 -162l405 -557h-385l-356 502h-268zM883 1573h-285l-256 319h268l131 -147l129 147h269z" />
    <glyph glyph-name="rcaron" unicode="&#x159;" horiz-adv-x="858" 
d="M129 0v993h303v-119h4q88 152 269 152q66 0 106 -12v-279q-55 12 -102 13q-127 0 -200 -76t-73 -213v-459h-307zM287 1145l-256 321h268l131 -149l129 149h268l-256 -321h-284z" />
    <glyph glyph-name="Sacute" unicode="&#x15a;" horiz-adv-x="1449" 
d="M746.5 -31q-277.5 0 -454.5 130t-204 358h320q23 -100 113.5 -165t220 -65t197 44t66.5 111.5t-49.5 106.5t-123 57.5t-166 33t-182.5 41t-166.5 68.5t-124 127t-50.5 206q-2 201 155 322.5t415 121.5t430 -122.5t192 -327.5h-323q-20 88 -90 142t-185 54t-181.5 -46
t-65 -123t64.5 -120.5t157.5 -59t204 -41t203.5 -61.5t157.5 -124t65.5 -223q2 -201 -158.5 -323t-438 -122zM582 1575l-7 8l170 318h326l-221 -326h-268z" />
    <glyph glyph-name="sacute" unicode="&#x15b;" horiz-adv-x="1120" 
d="M564 -33q-224 0 -361 98.5t-146 264.5h275q25 -141 241 -142q76 0 121 25t45 72t-65.5 70.5t-159.5 34.5t-188.5 33.5t-160 92.5t-65.5 202t125 220t328 88t334 -87t147 -249h-278q-10 59 -69.5 92t-131.5 33t-115 -23.5t-43 -67.5t48.5 -70.5t120 -35t154.5 -26
t154.5 -43t119.5 -91t48 -165.5q0 -154 -127 -240t-351 -86zM418 1157l-6 8l170 318h325l-221 -326h-268z" />
    <glyph glyph-name="Scedilla" unicode="&#x15e;" horiz-adv-x="1449" 
d="M741.5 227q129.5 0 197 44t66.5 111.5t-49.5 106.5t-123 57.5t-166 33t-182.5 41t-166.5 68.5t-124 127t-50.5 206q-2 201 155 322.5t415 121.5t430 -122.5t192 -327.5h-323q-20 88 -90 142t-185 54t-181.5 -46t-65 -123t64.5 -120.5t157.5 -59t204 -41t203.5 -61.5
t157.5 -124t65.5 -223q2 -180 -129 -299t-356 -142l-113 -329h-253l86 340q-211 37 -340 160.5t-150 312.5h320q23 -100 113.5 -165t220 -65z" />
    <glyph glyph-name="scedilla" unicode="&#x15f;" horiz-adv-x="1120" 
d="M1042 278.5q0 -114.5 -91 -197.5t-257 -106l-112 -331h-254l86 338q-162 29 -256.5 121t-100.5 227h275q25 -141 241 -142q76 0 121 25t45 72t-65.5 70.5t-159.5 34.5t-188.5 33.5t-160 92.5t-65.5 202t125 220t328 88t334 -87t147 -249h-278q-10 59 -69.5 92t-131.5 33
t-115 -23.5t-43 -67.5t48.5 -70.5t120 -35t154.5 -26t154.5 -43t119.5 -91t48 -180z" />
    <glyph glyph-name="Scaron" unicode="&#x160;" horiz-adv-x="1449" 
d="M746.5 -31q-277.5 0 -454.5 130t-204 358h320q23 -100 113.5 -165t220 -65t197 44t66.5 111.5t-49.5 106.5t-123 57.5t-166 33t-182.5 41t-166.5 68.5t-124 127t-50.5 206q-2 201 155 322.5t415 121.5t430 -122.5t192 -327.5h-323q-20 88 -90 142t-185 54t-181.5 -46
t-65 -123t64.5 -120.5t157.5 -59t204 -41t203.5 -61.5t157.5 -124t65.5 -223q2 -201 -158.5 -323t-438 -122zM584 1573l-256 319h268l131 -147l129 147h268l-256 -319h-284z" />
    <glyph glyph-name="scaron" unicode="&#x161;" horiz-adv-x="1120" 
d="M564 -33q-224 0 -361 98.5t-146 264.5h275q25 -141 241 -142q76 0 121 25t45 72t-65.5 70.5t-159.5 34.5t-188.5 33.5t-160 92.5t-65.5 202t125 220t328 88t334 -87t147 -249h-278q-10 59 -69.5 92t-131.5 33t-115 -23.5t-43 -67.5t48.5 -70.5t120 -35t154.5 -26
t154.5 -43t119.5 -91t48 -165.5q0 -154 -127 -240t-351 -86zM420 1145l-256 321h268l131 -149l129 149h269l-256 -321h-285z" />
    <glyph glyph-name="uni0162" unicode="&#x162;" horiz-adv-x="1404" 
d="M53 1434h1297v-273h-488v-1161h-26l-121 -356h-254l90 356h-10v1161h-488v273z" />
    <glyph glyph-name="uni0163" unicode="&#x163;" horiz-adv-x="960" 
d="M868 745h-323v-344q0 -82 47 -125t137 -43q16 0 139 11v-252q-68 -18 -147 -23l-111 -325h-254l95 370q-100 47 -156.5 139.5t-56.5 213.5v378h-228v248h228v316h307v-316h323v-248z" />
    <glyph glyph-name="Tcaron" unicode="&#x164;" horiz-adv-x="1404" 
d="M1350 1434v-273h-488v-1161h-321v1161h-488v273h1297zM559 1573l-256 319h268l131 -147l129 147h269l-256 -319h-285z" />
    <glyph glyph-name="tcaron" unicode="&#x165;" horiz-adv-x="960" 
d="M674 -33q-197 0 -316.5 109.5t-119.5 290.5v378h-228v248h228v316h307v-316h323v-248h-323v-344q0 -82 47 -125t137 -43q16 0 139 11v-252q-85 -25 -194 -25zM670 1153l12 412h287l-82 -412h-217z" />
    <glyph glyph-name="Tbar" unicode="&#x166;" horiz-adv-x="1404" 
d="M1350 1161h-488v-213h318v-215h-318v-733h-321v733h-316v215h316v213h-488v273h1297v-273z" />
    <glyph glyph-name="tbar" unicode="&#x167;" horiz-adv-x="999" 
d="M868 745h-323v-108h323v-160h-323v-76q0 -82 47 -125t137 -43q16 0 139 11v-252q-86 -25 -194 -25q-197 0 -316.5 109.5t-119.5 290.5v110h-228v160h228v108h-228v248h228v316h307v-316h323v-248z" />
    <glyph glyph-name="Utilde" unicode="&#x168;" horiz-adv-x="1579" 
d="M789 -33q-310 0 -492 178.5t-182 483.5v805h323v-809q0 -170 96.5 -272.5t255 -102.5t255 102.5t96.5 272.5v809h323v-805q0 -305 -182.5 -483.5t-492.5 -178.5zM936 1597q-78 0 -163 48.5t-105 48.5q-45 0 -60 -66h-223q6 127 72.5 205t185.5 78q82 0 166 -48t104 -48
q43 0 56 67h221q4 -123 -66.5 -204t-187.5 -81z" />
    <glyph glyph-name="utilde" unicode="&#x169;" horiz-adv-x="1277" 
d="M639 -33q-238 0 -383 128t-145 337v561h307v-532q0 -104 60.5 -168t160.5 -64t160.5 63.5t60.5 168.5v532h307v-561q0 -209 -145 -337t-383 -128zM786 1157q-78 0 -162.5 49t-105.5 49q-45 0 -59 -67h-223q6 129 72.5 207t185.5 78q84 0 165.5 -49.5t104.5 -49.5
q43 0 55 68h221q4 -123 -66.5 -204t-187.5 -81z" />
    <glyph glyph-name="Umacron" unicode="&#x16a;" horiz-adv-x="1579" 
d="M789 -33q-310 0 -492 178.5t-182 483.5v805h323v-809q0 -170 96.5 -272.5t255 -102.5t255 102.5t96.5 272.5v809h323v-805q0 -305 -182.5 -483.5t-492.5 -178.5zM481 1587v225h619v-225h-619z" />
    <glyph glyph-name="umacron" unicode="&#x16b;" horiz-adv-x="1277" 
d="M639 -33q-238 0 -383 128t-145 337v561h307v-532q0 -104 60.5 -168t160.5 -64t160.5 63.5t60.5 168.5v532h307v-561q0 -209 -145 -337t-383 -128zM332 1186v225h618v-225h-618z" />
    <glyph glyph-name="Uring" unicode="&#x16e;" horiz-adv-x="1579" 
d="M789 -33q-310 0 -492 178.5t-182 483.5v805h323v-809q0 -170 96.5 -272.5t255 -102.5t255 102.5t96.5 272.5v809h323v-805q0 -305 -182.5 -483.5t-492.5 -178.5zM792 1722q44 0 71.5 27t27.5 69t-27.5 67.5t-71.5 25.5t-73 -25.5t-29 -67.5t29 -69t73 -27zM792 1589
q-114 0 -185.5 62.5t-71.5 165t71.5 165t186 62.5t184.5 -62.5t70 -165t-70.5 -165t-184.5 -62.5z" />
    <glyph glyph-name="uring" unicode="&#x16f;" horiz-adv-x="1277" 
d="M639 -33q-238 0 -383 128t-145 337v561h307v-532q0 -104 60.5 -168t160.5 -64t160.5 63.5t60.5 168.5v532h307v-561q0 -209 -145 -337t-383 -128zM642 1262q44 0 71.5 25.5t27.5 67.5t-27.5 68.5t-71.5 26.5t-72.5 -26.5t-28.5 -68.5t28.5 -67.5t72.5 -25.5zM643 1128
q-115 0 -186.5 62.5t-71.5 164t71.5 164t186.5 62.5t184.5 -62.5t69.5 -163.5t-69.5 -164t-184.5 -63z" />
    <glyph glyph-name="Uhungarumlaut" unicode="&#x170;" horiz-adv-x="1579" 
d="M789 -33q-310 0 -492 178.5t-182 483.5v805h323v-809q0 -170 96.5 -272.5t255 -102.5t255 102.5t96.5 272.5v809h323v-805q0 -305 -182.5 -483.5t-492.5 -178.5zM846 1597l-6 9l127 317h280l-168 -326h-233zM506 1597l-4 9l125 317h282l-170 -326h-233z" />
    <glyph glyph-name="uhungarumlaut" unicode="&#x171;" horiz-adv-x="1277" 
d="M639 -33q-238 0 -383 128t-145 337v561h307v-532q0 -104 60.5 -168t160.5 -64t160.5 63.5t60.5 168.5v532h307v-561q0 -209 -145 -337t-383 -128zM696 1157l-6 6l127 320h281l-168 -326h-234zM356 1157l-4 6l125 320h283l-170 -326h-234z" />
    <glyph glyph-name="Uogonek" unicode="&#x172;" horiz-adv-x="1579" 
d="M1141 1434h323v-805q0 -262 -137 -433t-379 -214q-68 -29 -67 -78q0 -68 125 -68q47 0 96 14l26 -221q-90 -23 -167 -22q-145 0 -239.5 64.5t-94.5 174.5q0 72 41 129q-258 35 -405.5 208t-147.5 446v805h323v-809q0 -171 96 -273q98 -102 256 -102t254.5 102.5
t96.5 272.5v809z" />
    <glyph glyph-name="uogonek" unicode="&#x173;" horiz-adv-x="1277" 
d="M860 993h307v-561q0 -176 -103 -296t-284 -154q-53 -29 -53 -72q0 -68 125 -68q45 0 96 15l27 -222q-90 -23 -168 -22q-145 0 -239.5 64.5t-94.5 175.5q0 70 39 124q-184 35 -292.5 156t-108.5 299v561h307v-532q0 -104 60.5 -168t160.5 -64t160.5 63.5t60.5 168.5v532z
" />
    <glyph glyph-name="Wcircumflex" unicode="&#x174;" horiz-adv-x="2234" 
d="M487 0l-440 1434h340l283 -959h8l285 959h313l278 -961h9l284 961h340l-442 -1434h-334l-291 973h-8l-289 -973h-336zM717 1573l256 319h284l256 -319h-268l-129 147l-131 -147h-268z" />
    <glyph glyph-name="wcircumflex" unicode="&#x175;" horiz-adv-x="1736" 
d="M403 0l-366 993h323l191 -557h4l193 557h245l193 -559h4l190 559h322l-365 -993h-278l-187 549h-4l-186 -549h-279zM471 1145l256 321h285l256 -321h-269l-129 149l-131 -149h-268z" />
    <glyph glyph-name="Ycircumflex" unicode="&#x176;" horiz-adv-x="1531" 
d="M604 0v446l-588 988h357l391 -668l395 668h357l-588 -985v-449h-324zM367 1573l256 319h284l256 -319h-268l-129 147l-131 -147h-268z" />
    <glyph glyph-name="ycircumflex" unicode="&#x177;" horiz-adv-x="1359" 
d="M997 993h326l-659 -1468h-330l211 455l-506 1013h328l329 -667h4zM680 1294l-131 -149h-268l256 321h284l256 -321h-268z" />
    <glyph glyph-name="Ydieresis" unicode="&#x178;" horiz-adv-x="1531" 
d="M604 0v446l-588 988h357l391 -668l395 668h357l-588 -985v-449h-324zM829 1585v313h338v-313h-338zM365 1585v313h335v-313h-335z" />
    <glyph glyph-name="Zacute" unicode="&#x179;" horiz-adv-x="1417" 
d="M80 0v145l772 1020h-739v269h1206v-144l-746 -1022h756v-268h-1249zM563 1575l-6 8l170 318h326l-222 -326h-268z" />
    <glyph glyph-name="zacute" unicode="&#x17a;" horiz-adv-x="1091" 
d="M68 0v141l528 611h-516v241h946v-153l-518 -598h516v-242h-956zM401 1157l-6 8l170 318h326l-221 -326h-269z" />
    <glyph glyph-name="Zdotaccent" unicode="&#x17b;" horiz-adv-x="1417" 
d="M80 0v145l772 1020h-739v269h1206v-144l-746 -1022h756v-268h-1249zM539 1898h335v-313h-335v313z" />
    <glyph glyph-name="zdotaccent" unicode="&#x17c;" horiz-adv-x="1091" 
d="M68 0v141l528 611h-516v241h946v-153l-518 -598h516v-242h-956zM377 1485h336v-316h-336v316z" />
    <glyph glyph-name="Zcaron" unicode="&#x17d;" horiz-adv-x="1417" 
d="M80 0v145l772 1020h-739v269h1206v-144l-746 -1022h756v-268h-1249zM565 1573l-256 319h269l131 -147l129 147h268l-256 -319h-285z" />
    <glyph glyph-name="zcaron" unicode="&#x17e;" horiz-adv-x="1091" 
d="M68 0v141l528 611h-516v241h946v-153l-518 -598h516v-242h-956zM403 1145l-256 321h269l131 -149l129 149h268l-256 -321h-285z" />
    <glyph glyph-name="florin" unicode="&#x192;" horiz-adv-x="1249" 
d="M972 1202q-68 0 -117 -46q-50 -46 -64 -130l-37 -246h346v-233h-379l-53 -354q-31 -215 -147 -327t-302 -112q-129 0 -262 35l43 248q139 -18 164 -19q80 0 129 48t61 129l52 352h-267v233h301l37 248q31 215 147 327t302 111q127 0 262 -36l-43 -252q-105 24 -173 24z
" />
    <glyph glyph-name="uni01CA" unicode="&#x1ca;" horiz-adv-x="2930" 
d="M2235.5 -33q-265.5 0 -420 132t-175.5 372h318q37 -227 274 -227q115 0 186.5 79.5t71.5 211.5v626h-639v273h965v-895q0 -272 -157.5 -422t-423 -150zM1149 1434h321v-1434h-258l-755 879v-879h-322v1434h252l762 -899v899z" />
    <glyph glyph-name="uni01CC" unicode="&#x1cc;" horiz-adv-x="1869" 
d="M1235 -510v248l25 4q94 12 134 49t40 133v1069h309v-1036q0 -242 -110.5 -354.5t-344.5 -112.5h-53zM129 0v993h303v-96h4q118 129 310 129t317 -127t125 -326v-573h-309v532q0 104 -58.5 168t-158.5 64t-163 -60.5t-63 -160.5v-543h-307zM1430 1300v281h315v-281h-315z
" />
    <glyph glyph-name="AEacute" unicode="&#x1fc;" horiz-adv-x="2422" 
d="M1245 557v510l-387 -510h387zM2341 1434v-269h-776v-323h688v-264h-688v-312h776v-266h-1096v291h-579l-224 -291h-389l1110 1434h1178zM1217 1575l-7 8l170 318h326l-221 -326h-268z" />
    <glyph glyph-name="aeacute" unicode="&#x1fd;" horiz-adv-x="1957" 
d="M545.5 193q95.5 0 161 57t65.5 147h-289q-57 0 -93 -26.5t-36 -72.5t48 -75.5t143.5 -29.5zM1351 799q-101 0 -172 -60.5t-87 -156.5h491q-4 96 -67.5 156.5t-164.5 60.5zM1876 487v-88h-780q25 -92 96.5 -145t167.5 -53q137 0 194 82h306q-41 -141 -181.5 -228.5
t-324.5 -87.5q-279 0 -434 176q-147 -176 -449 -176q-178 0 -293 89t-115 227.5t108 215t298 76.5h301v35q0 184 -184 185q-147 0 -176 -125h-297q14 162 142 259t354.5 97t355.5 -129q147 129 383.5 129t382 -144.5t145.5 -394.5zM1100 1157h-269l-6 8l170 318h326z" />
    <glyph glyph-name="Oslashacute" unicode="&#x1fe;" horiz-adv-x="1755" 
d="M879 248q201 0 327.5 131t126.5 338q0 158 -78 274l-610 -686q105 -57 234 -57zM424 717q0 -158 76 -275l612 686q-104 57 -233 58q-201 0 -328 -131t-127 -338zM1659 706.5q0 -319.5 -218 -528.5t-562 -209q-248 0 -435 111l-104 -117l-156 125l105 117
q-190 207 -190.5 524.5t216.5 526t564 208.5q248 0 434 -110l104 116l156 -122l-107 -119q193 -203 193 -522.5zM1001 1575h-268l-6 8l170 318h326z" />
    <glyph glyph-name="oslashacute" unicode="&#x1ff;" horiz-adv-x="1286" 
d="M643 221q121 0 195.5 75t74.5 200q0 82 -34 145l-355 -397q56 -23 119 -23zM373 496q0 -82 35 -146l356 398q-55 25 -121 24q-121 0 -195.5 -75.5t-74.5 -200.5zM1206 486.5q0 -228.5 -154.5 -374t-408.5 -145.5q-174 0 -303 70l-78 -86l-125 98l76 84q-133 145 -133 374
t154.5 374t408.5 145q174 0 305 -72l78 88l125 -98l-78 -86q133 -143 133 -371.5zM766 1157h-268l-6 8l170 318h325z" />
    <glyph glyph-name="Scommaaccent" unicode="&#x218;" horiz-adv-x="1449" 
d="M559 -100h336v-164q0 -160 -73.5 -233.5t-258.5 -98.5l-26 129q98 27 127.5 51.5t33.5 75.5h-139v240zM746.5 -31q-277.5 0 -454.5 130t-204 358h320q23 -100 113.5 -165t220 -65t197 44t66.5 111.5t-49.5 106.5t-123 57.5t-166 33t-182.5 41t-166.5 68.5t-124 127
t-50.5 206q-2 201 155 322.5t415 121.5t430 -122.5t192 -327.5h-323q-20 88 -90 142t-185 54t-181.5 -46t-65 -123t64.5 -120.5t157.5 -59t204 -41t203.5 -61.5t157.5 -124t65.5 -223q2 -201 -158.5 -323t-438 -122z" />
    <glyph glyph-name="scommaaccent" unicode="&#x219;" horiz-adv-x="1120" 
d="M395 -100h336v-164q0 -160 -73.5 -233.5t-258.5 -98.5l-26 129q98 27 127.5 51.5t34.5 75.5h-140v240zM564 -33q-224 0 -361 98.5t-146 264.5h275q25 -141 241 -142q76 0 121 25t45 72t-65.5 70.5t-159.5 34.5t-188.5 33.5t-160 92.5t-65.5 202t125 220t328 88t334 -87
t147 -249h-278q-10 59 -69.5 92t-131.5 33t-115 -23.5t-43 -67.5t48.5 -70.5t120 -35t154.5 -26t154.5 -43t119.5 -91t48 -165.5q0 -154 -127 -240t-351 -86z" />
    <glyph glyph-name="uni021A" unicode="&#x21a;" horiz-adv-x="1404" 
d="M528 -100h336v-164q0 -160 -73.5 -233.5t-258.5 -98.5l-26 129q98 27 128 51.5t34 75.5h-140v240zM1350 1434v-273h-488v-1161h-321v1161h-488v273h1297z" />
    <glyph glyph-name="uni021B" unicode="&#x21b;" horiz-adv-x="960" 
d="M424 -100h336v-164q0 -160 -74 -233.5t-258 -98.5l-27 129q98 27 128 51.5t34 75.5h-139v240zM674 -33q-197 0 -316.5 109.5t-119.5 290.5v378h-228v248h228v316h307v-316h323v-248h-323v-344q0 -82 47 -125t137 -43q16 0 139 11v-252q-85 -25 -194 -25z" />
    <glyph glyph-name="uni0237" unicode="&#x237;" horiz-adv-x="571" 
d="M-61 -510v248l24 4q94 12 134 49t40 131v1071h307v-1036q0 -242 -109.5 -354.5t-342.5 -112.5h-53z" />
    <glyph glyph-name="circumflex" unicode="&#x2c6;" horiz-adv-x="1001" 
d="M102 1145l256 321h285l256 -321h-268l-129 149l-131 -149h-269z" />
    <glyph glyph-name="caron" unicode="&#x2c7;" horiz-adv-x="1001" 
d="M358 1145l-256 321h269l131 -149l129 149h268l-256 -321h-285z" />
    <glyph glyph-name="breve" unicode="&#x2d8;" horiz-adv-x="921" 
d="M460 1319q128 0 146 145h213q-8 -150 -101 -242t-257 -92t-257 92t-102 242h213q17 -145 145 -145z" />
    <glyph glyph-name="dotaccent" unicode="&#x2d9;" horiz-adv-x="540" 
d="M102 1485h336v-316h-336v316z" />
    <glyph glyph-name="ring" unicode="&#x2da;" horiz-adv-x="716" 
d="M359 1262q44 0 72 26t28 67q0 43 -28 69t-72 26q-45 0 -73 -27t-28 -69t28 -66q28 -26 73 -26zM360 1128q-114 0 -186 62t-72 164t72 164t186 63q114 0 185 -62q69 -61 69 -163t-70 -165t-184 -63z" />
    <glyph glyph-name="ogonek" unicode="&#x2db;" horiz-adv-x="706" 
d="M436 -393q-145 1 -239 65q-95 64 -95 176t96 181q96 70 265 88l35 -117q-141 -23 -142 -96q0 -68 125 -68q47 0 97 14l26 -221q-90 -22 -168 -22z" />
    <glyph glyph-name="tilde" unicode="&#x2dc;" horiz-adv-x="1009" 
d="M653 1157q-78 0 -163 49t-105 49q-45 0 -59 -67h-224q6 129 73 207t171 78t222 -74q38 -25 63 -25q43 0 55 68h221q3 -123 -67 -204t-187 -81z" />
    <glyph glyph-name="hungarumlaut" unicode="&#x2dd;" horiz-adv-x="950" 
d="M446 1157l-6 6l127 320h281l-168 -326h-234zM106 1157l-4 6l125 320h283l-170 -326h-234z" />
    <glyph glyph-name="uni0326" unicode="&#x326;" horiz-adv-x="0" 
d="M-438 -100h336v-164q0 -160 -74 -233.5t-258 -98.5l-27 129q98 27 128 51.5t34 75.5h-139v240z" />
    <glyph glyph-name="Wgrave" unicode="&#x1e80;" horiz-adv-x="2234" 
d="M487 0l-440 1434h340l283 -959h8l285 959h313l278 -961h9l284 961h340l-442 -1434h-334l-291 973h-8l-289 -973h-336zM1262 1575h-269l-221 326h326l170 -318z" />
    <glyph glyph-name="wgrave" unicode="&#x1e81;" horiz-adv-x="1736" 
d="M403 0l-366 993h323l191 -557h4l193 557h245l193 -559h4l190 559h322l-365 -993h-278l-187 549h-4l-186 -549h-279zM1016 1157h-268l-222 326h326l170 -318z" />
    <glyph glyph-name="Wacute" unicode="&#x1e82;" horiz-adv-x="2234" 
d="M487 0l-440 1434h340l283 -959h8l285 959h313l278 -961h9l284 961h340l-442 -1434h-334l-291 973h-8l-289 -973h-336zM971 1575l-6 8l170 318h325l-221 -326h-268z" />
    <glyph glyph-name="wacute" unicode="&#x1e83;" horiz-adv-x="1736" 
d="M403 0l-366 993h323l191 -557h4l193 557h245l193 -559h4l190 559h322l-365 -993h-278l-187 549h-4l-186 -549h-279zM725 1157l-6 8l170 318h325l-221 -326h-268z" />
    <glyph glyph-name="Wdieresis" unicode="&#x1e84;" horiz-adv-x="2234" 
d="M487 0l-440 1434h340l283 -959h8l285 959h313l278 -961h9l284 961h340l-442 -1434h-334l-291 973h-8l-289 -973h-336zM1180 1585v313h338v-313h-338zM715 1585v313h336v-313h-336z" />
    <glyph glyph-name="wdieresis" unicode="&#x1e85;" horiz-adv-x="1736" 
d="M403 0l-366 993h323l191 -557h4l193 557h245l193 -559h4l190 559h322l-365 -993h-278l-187 549h-4l-186 -549h-279zM934 1485h338v-316h-338v316zM469 1485h336v-316h-336v316z" />
    <glyph glyph-name="uni1E9E" unicode="&#x1e9e;" horiz-adv-x="1550" 
d="M899 -33q-150 0 -276 51v275q119 -59 233 -59t192 52q78 54 76 140q0 86 -78 141q-79 55 -208 56h-129v219l346 295q-123 71 -271 71t-237 -72q-90 -72 -90 -192v-944h-322v946q0 238 176 379t470 141t558 -153v-246l-286 -240q195 -37 305 -147t108 -274
q0 -195 -162 -317t-405 -122z" />
    <glyph glyph-name="Ygrave" unicode="&#x1ef2;" horiz-adv-x="1531" 
d="M604 0v446l-588 988h357l391 -668l395 668h357l-588 -985v-449h-324zM911 1575h-268l-221 326h326l170 -318z" />
    <glyph glyph-name="ygrave" unicode="&#x1ef3;" horiz-adv-x="1359" 
d="M997 993h326l-659 -1468h-330l211 455l-506 1013h328l329 -667h4zM825 1157h-268l-221 326h326l169 -318z" />
    <glyph glyph-name="uni1EF8" unicode="&#x1ef8;" horiz-adv-x="1531" 
d="M604 0v446l-588 988h357l391 -668l395 668h357l-588 -985v-449h-324zM911 1597q-78 0 -162.5 48.5t-105.5 48.5q-45 0 -59 -66h-224q6 127 73 205t185 78q82 0 166 -48t105 -48q43 0 55 67h221q4 -123 -66.5 -204t-187.5 -81z" />
    <glyph glyph-name="uni1EF9" unicode="&#x1ef9;" horiz-adv-x="1359" 
d="M997 993h326l-659 -1468h-330l211 455l-506 1013h328l329 -667h4zM825 1157q-78 0 -162.5 49t-105.5 49q-45 0 -59 -67h-224q6 129 73 207t172 78q105 -1 221 -75q38 -24 63 -24q43 0 55 68h221q4 -123 -66.5 -204t-187.5 -81z" />
    <glyph glyph-name="endash" unicode="&#x2013;" horiz-adv-x="1464" 
d="M193 397v279h1079v-279h-1079z" />
    <glyph glyph-name="emdash" unicode="&#x2014;" horiz-adv-x="2238" 
d="M193 397v279h1853v-279h-1853z" />
    <glyph glyph-name="quoteleft" unicode="&#x2018;" horiz-adv-x="479" 
d="M412 950h-342v244q0 180 86 272t266 115l27 -127q-96 -27 -138 -63q-41 -37 -47 -119h148v-322z" />
    <glyph glyph-name="quoteright" unicode="&#x2019;" horiz-adv-x="479" 
d="M70 1581h342v-244q0 -178 -87 -271t-268 -116l-24 127q96 27 137 64t47 119h-147v321z" />
    <glyph glyph-name="quotesinglbase" unicode="&#x201a;" horiz-adv-x="479" 
d="M70 322h342v-246q0 -178 -87 -272t-268 -115l-24 129q96 28 137 64t47 118h-147v322z" />
    <glyph glyph-name="quotedblleft" unicode="&#x201c;" horiz-adv-x="927" 
d="M858 950h-342v244q0 180 86 272t266 115l27 -127q-96 -28 -137 -64t-47 -118h147v-322zM412 950h-342v244q0 180 86 272t266 115l27 -127q-96 -27 -138 -63q-41 -37 -47 -119h148v-322z" />
    <glyph glyph-name="quotedblright" unicode="&#x201d;" horiz-adv-x="927" 
d="M516 1581h342v-244q0 -178 -86 -271t-266 -116l-27 127q96 27 137 64t48 119h-148v321zM70 1581h342v-244q0 -178 -87 -271t-268 -116l-24 127q96 27 137 64t47 119h-147v321z" />
    <glyph glyph-name="quotedblbase" unicode="&#x201e;" horiz-adv-x="927" 
d="M516 322h342v-246q0 -178 -86 -272t-266 -115l-27 129q96 28 137 64t48 118h-148v322zM70 322h342v-246q0 -178 -87 -272t-268 -115l-24 129q96 28 137 64t47 118h-147v322z" />
    <glyph glyph-name="dagger" unicode="&#x2020;" horiz-adv-x="860" 
d="M334 623v436h-250v180h250v236h192v-236h248v-180h-248v-436h-192z" />
    <glyph glyph-name="daggerdbl" unicode="&#x2021;" horiz-adv-x="860" 
d="M334 623v190h-250v180h250v117h-250v180h250v185h192v-185h248v-180h-248v-117h248v-180h-248v-190h-192z" />
    <glyph glyph-name="bullet" unicode="&#x2022;" horiz-adv-x="745" 
d="M373 319q-127 0 -218 85t-92 206t91 206t219 85t218 -85t91 -206t-91 -206t-218 -85z" />
    <glyph glyph-name="uni2023" unicode="&#x2023;" horiz-adv-x="757" 
d="M129 72v938l573 -469z" />
    <glyph glyph-name="ellipsis" unicode="&#x2026;" horiz-adv-x="1505" 
d="M1094 322h342v-322h-342v322zM582 322h342v-322h-342v322zM70 322h342v-322h-342v322z" />
    <glyph glyph-name="perthousand" unicode="&#x2030;" horiz-adv-x="3360" 
d="M2778 162q101 0 164 58q62 58 62 154t-62 155t-164 59t-164 -58t-62 -155q0 -96 62 -155q63 -58 164 -58zM1775 162q101 0 163 58t62 154t-62 155t-163 59t-163 -58t-64 -155q0 -97 63 -155t164 -58zM2778 -33q-198 0 -318 112t-121 296q0 184 121 296q120 111 318 111
t319 -112t121 -295q0 -184 -122 -296q-120 -112 -318 -112zM2214 375q0 -184 -120 -296t-319 -112q-198 0 -319 112t-121 296t121 296q121 111 319 111q199 0 319 -112t120 -295zM584 846q100 0 162 58t62 154t-62 155t-162 59t-162 -58t-64 -155q0 -97 63 -155t163 -58z
M573 0l1002 1434h211l-1002 -1434h-211zM584 651q-199 0 -320 112t-121 296t121 296q121 111 320 111q200 0 320 -112t120 -295q0 -184 -120 -296t-320 -112z" />
    <glyph glyph-name="guilsinglleft" unicode="&#x2039;" horiz-adv-x="583" 
d="M530 840l-211 -324l211 -323h-276l-201 303v41l201 303h276z" />
    <glyph glyph-name="guilsinglright" unicode="&#x203a;" horiz-adv-x="583" 
d="M53 840h277l200 -303v-41l-200 -303h-277l211 323z" />
    <glyph glyph-name="fraction" unicode="&#x2044;" horiz-adv-x="1132" 
d="M-39 0l1000 1434h210l-999 -1434h-211z" />
    <glyph glyph-name="uni2070" unicode="&#x2070;" horiz-adv-x="864" 
d="M588 1323v147q0 78 -43 126t-113 48t-113 -48t-43 -126v-147q0 -76 43 -124t113 -48t113 48t43 124zM432 1833q170 0 274 -99t105 -264v-147q0 -164 -104 -263q-105 -99 -275 -99t-274 99t-105 263v147q1 164 105 264t274 99z" />
    <glyph glyph-name="uni2074" unicode="&#x2074;" horiz-adv-x="897" 
d="M514 1317v295l-219 -295h219zM842 1317v-182h-111v-146h-217v146h-457v143l389 539h285v-500h111z" />
    <glyph glyph-name="uni2075" unicode="&#x2075;" horiz-adv-x="843" 
d="M446 1528q140 0 228 -75t88 -201t-94 -204t-248 -79q-154 1 -249 73t-103 185h215q12 -37 50 -59t92 -22t91 31t37 77t-35 75q-34 29 -100 29t-107 -41l-180 49l47 451h539v-183h-350l-15 -121q43 15 94 15z" />
    <glyph glyph-name="uni2076" unicode="&#x2076;" horiz-adv-x="837" 
d="M420 1143q66 0 106 35t39 92q0 57 -40 92q-39 35 -105 35t-106 -35t-40 -92t40 -92t106 -35zM780 1271q0 -132 -98 -217t-260 -85t-263 84t-102 213q0 86 88 223l222 328h260l-170 -246q147 -6 235 -87t88 -213z" />
    <glyph glyph-name="uni2077" unicode="&#x2077;" horiz-adv-x="735" 
d="M37 1622v195h661v-125l-346 -703h-254l318 633h-379z" />
    <glyph glyph-name="uni2078" unicode="&#x2078;" horiz-adv-x="868" 
d="M434 1139q57 1 92 29t35 73t-35 73t-92 28t-92 -28t-35 -73t35 -73t92 -29zM434 1485q51 1 84 27t33 68t-33 69t-84 27t-84 -28q-33 -26 -33 -68t33 -68t84 -27zM434 969q-166 1 -265 71t-99 193t135 192q-101 61 -101 169t90 174t240 67q150 0 240 -67t90 -174
t-100 -169q135 -71 135 -193q1 -122 -99 -192t-266 -71z" />
    <glyph glyph-name="uni2079" unicode="&#x2079;" horiz-adv-x="837" 
d="M418 1405q66 0 106 35t39 93q0 58 -40 93q-39 35 -105 35t-106 -35t-40 -92t40 -93t106 -36zM416 1833q162 0 263 -83t101 -212q0 -92 -88 -223l-221 -330h-260l170 248q-145 6 -235 87q-89 81 -89 213q1 132 99 216t260 84z" />
    <glyph glyph-name="uni2080" unicode="&#x2080;" horiz-adv-x="864" 
d="M588 -45v147q0 78 -43 125t-113 47t-113 -47t-43 -125v-147q0 -78 43 -126t113 -48t113 48t43 126zM432 465q170 0 274 -99t105 -264v-147q0 -164 -104 -263q-105 -100 -275 -100t-274 100t-105 263v147q1 164 105 264t274 99z" />
    <glyph glyph-name="uni2081" unicode="&#x2081;" horiz-adv-x="538" 
d="M250 -389v645h-213v182h428v-827h-215z" />
    <glyph glyph-name="uni2082" unicode="&#x2082;" horiz-adv-x="792" 
d="M78 -389v104l319 334q95 90 95 133t-26 66t-71 22q-100 0 -114 -100h-207q8 129 99 209t232 80t231 -70t89 -178q0 -108 -129 -246l-166 -178h303v-176h-655z" />
    <glyph glyph-name="uni2083" unicode="&#x2083;" horiz-adv-x="827" 
d="M417 -408q-148 0 -243 72q-94 72 -111 193h220q20 -88 135 -88q53 -1 86 25t33 67t-34 67t-95 27h-105v143l150 158h-340v182h622v-149l-188 -199q96 -29 150 -90t55 -145q0 -117 -94 -190t-241 -73z" />
    <glyph glyph-name="uni2084" unicode="&#x2084;" horiz-adv-x="897" 
d="M514 -61v297l-219 -297h219zM842 -61v-183h-111v-145h-217v145h-457v144l389 538h285v-499h111z" />
    <glyph glyph-name="uni2085" unicode="&#x2085;" horiz-adv-x="843" 
d="M446 150q140 0 228 -75t88 -201t-94 -204t-248 -78t-249 72t-103 184h215q12 -36 50 -58t92 -22t91 30t37 77t-35 76q-34 29 -100 29t-107 -41l-180 49l47 450h539v-182h-350l-15 -121q43 15 94 15z" />
    <glyph glyph-name="uni2086" unicode="&#x2086;" horiz-adv-x="837" 
d="M420 -236q66 0 106 35t39 92q0 57 -40 93q-39 36 -105 36t-106 -36t-40 -92t40 -92t106 -36zM780 -108q0 -132 -98 -216t-260 -84t-263 83t-102 212q0 86 88 224l222 327h260l-170 -245q147 -5 235 -87t88 -214z" />
    <glyph glyph-name="uni2087" unicode="&#x2087;" horiz-adv-x="735" 
d="M37 244v194h661v-125l-346 -702h-254l318 633h-379z" />
    <glyph glyph-name="uni2088" unicode="&#x2088;" horiz-adv-x="868" 
d="M434 -238q57 0 92 28t35 73t-35 73t-92 27q-57 0 -92 -28q-35 -29 -35 -73t35 -72t92 -28zM434 106q51 0 84 27t33 69t-33 68t-84 27q-51 0 -84 -27q-33 -26 -33 -68t33 -69t84 -27zM434 -408q-166 0 -265 70t-99 192t135 193q-101 61 -101 169t90 174t240 67
q150 0 240 -67t90 -174t-100 -169q135 -70 135 -193q1 -122 -99 -192t-266 -70z" />
    <glyph glyph-name="uni2089" unicode="&#x2089;" horiz-adv-x="837" 
d="M418 31q66 0 106 35t39 92q0 57 -40 92t-104 35q-63 0 -105 -35t-42 -91t40 -92t106 -36zM416 459q162 0 263 -84t101 -213q0 -92 -88 -223l-221 -328h-260l170 246q-145 6 -235 87q-89 81 -89 214q1 133 99 217t260 84z" />
    <glyph glyph-name="Euro" unicode="&#x20ac;" horiz-adv-x="1845" 
d="M1022 254q148 0 252 82t143 225h332q-43 -272 -244 -432t-489 -160q-288 -1 -485 139q-198 140 -265 379h-192v168h164q-2 21 -2 63t2 62h-164v166h190q68 242 265 381q198 139 487 139q290 0 490 -160t243 -432h-332q-39 144 -142 226t-251 82t-254 -62
q-104 -62 -158 -174h535l-35 -166h-545q-4 -40 -4 -62t4 -63h516l-36 -168h-435q55 -111 159 -172q103 -61 251 -61z" />
    <glyph glyph-name="uni2116" unicode="&#x2116;" horiz-adv-x="2963" 
d="M1751 0v223h1042v-223h-1042zM2270 1157q-118 0 -192 -75q-74 -76 -75 -194q1 -118 75 -192t192 -75q118 1 193 75t74 193t-75 193t-192 75zM2270 367q-248 0 -404 145q-156 144 -156 376t156 378t404 145q248 0 406 -145q156 -144 156 -376t-156 -378
q-157 -145 -406 -145zM1149 1434h321v-1434h-258l-755 879v-879h-322v1434h252l762 -899v899z" />
    <glyph glyph-name="trademark" unicode="&#x2122;" horiz-adv-x="1509" 
d="M1421 1434v-598h-164v301l-167 -230h-68l-168 230v-301h-164v598h121l246 -326l243 326h121zM57 1286v148h572v-148h-201v-450h-170v450h-201z" />
    <glyph glyph-name="oneeighth" unicode="&#x215b;" horiz-adv-x="1865" 
d="M1432 152q57 0 92 28t35 74q0 45 -35 72q-35 26 -92 26t-93 -26q-35 -27 -35 -73t35 -74q36 -27 93 -27zM1313 590q0 -42 33 -68t85 -26t85 26q32 26 32 69t-32 69t-85 26q-52 0 -85 -27t-33 -69zM1796 244q0 -122 -99 -192t-266 -70t-267 69q-99 70 -99 193t135 192
q-98 59 -98 168q0 110 90 176t240 66t238 -67t89 -175q0 -108 -98 -168q135 -70 135 -192zM219 0l1000 1434h211l-1000 -1434h-211zM250 614v646h-213v182h428v-828h-215z" />
    <glyph glyph-name="threeeighths" unicode="&#x215c;" horiz-adv-x="2039" 
d="M1606 152q57 0 92 28t35 74q0 45 -35 72q-35 26 -92 26t-93 -26q-35 -27 -35 -73t35 -74q36 -27 93 -27zM1605 686q-52 0 -85 -27t-33 -69t33 -68t85 -26t85 26q32 26 32 69t-32 69t-85 26zM1970 244q0 -122 -99 -193q-99 -69 -266 -69t-267 69q-99 70 -99 193t135 192
q-98 59 -98 168q0 110 90 176t240 66t238 -67t89 -175q0 -108 -98 -168q135 -70 135 -192zM1393 1434h211l-1000 -1434h-211zM752 858q0 -118 -94 -190t-241 -72q-148 0 -243 72q-94 72 -111 192h220q8 -38 43 -64t90 -26t88 27t33 67t-34 68q-34 27 -95 26h-105v144
l150 158h-340v182h622v-150l-184 -198q93 -30 147 -92t54 -144z" />
    <glyph glyph-name="fiveeighths" unicode="&#x215d;" horiz-adv-x="2050" 
d="M1616 152q57 0 92 28t35 73q0 46 -35 73q-35 26 -92 26t-92 -26t-35 -72t35 -74t92 -28zM1735 591q0 43 -33 69t-85 26t-85 -27t-33 -69t33 -68t85 -26t85 26t33 69zM1982 244q0 -122 -99 -193q-99 -69 -266 -69t-266 70t-99 192q0 123 134 192q-98 59 -98 168
q0 110 89 176t239 66t240 -67t89 -175q0 -108 -98 -168q135 -70 135 -192zM1405 1434h211l-1000 -1434h-210zM446 1153q140 -1 228 -75t88 -200t-94 -204t-248 -78t-249 72t-103 184h215q12 -36 50 -58t92 -22t91 30t37 77t-35 75q-34 28 -100 29q-66 0 -107 -41l-180 49
l47 451h539v-182h-350l-15 -121q43 14 94 14z" />
    <glyph glyph-name="seveneighths" unicode="&#x215e;" horiz-adv-x="1837" 
d="M1403 152q57 0 92 28t35 74q0 45 -35 72q-35 26 -92 26t-92 -26t-35 -72t35 -74t92 -28zM1403 496q51 0 84 26t33 69t-33 69t-84 26t-84 -27t-33 -69t33 -68t84 -26zM1403 -18q-166 0 -265 70q-100 70 -100 192q0 123 136 192q-100 61 -100 169q0 109 89 175
q90 66 240 66q149 0 239 -67t90 -174t-100 -169q135 -70 135 -192t-99 -192t-265 -70zM190 0l1002 1434h211l-1002 -1434h-211zM37 1247v195h661v-125l-346 -703h-254l318 633h-379z" />
    <glyph glyph-name="arrowleft" unicode="&#x2190;" horiz-adv-x="2009" 
d="M1927 893v-309h-1317l480 -480l-199 -186l-819 819l819 822l199 -187l-480 -479h1317z" />
    <glyph glyph-name="arrowup" unicode="&#x2191;" horiz-adv-x="1824" 
d="M758 -135v1317l-479 -480l-187 197l819 821l822 -821l-187 -197l-479 480v-1317h-309z" />
    <glyph glyph-name="arrowright" unicode="&#x2192;" horiz-adv-x="2009" 
d="M82 584v309h1317l-481 479l198 187l821 -822l-821 -819l-198 186l481 480h-1317z" />
    <glyph glyph-name="arrowdown" unicode="&#x2193;" horiz-adv-x="1824" 
d="M758 1720h309v-1317l479 480l187 -197l-822 -821l-819 821l187 197l479 -480v1317z" />
    <glyph glyph-name="arrowboth" unicode="&#x2194;" horiz-adv-x="2779" 
d="M1888 1559l819 -822l-819 -819l-198 186l479 480h-1559l480 -480l-199 -186l-819 819l819 822l199 -187l-480 -479h1559l-479 479z" />
    <glyph glyph-name="arrowupdn" unicode="&#x2195;" horiz-adv-x="1824" 
d="M913 -535l-821 820l189 198l477 -479v1487l-479 -479l-187 198l819 820l820 -818l-185 -198l-479 477v-1487l479 479l187 -198z" />
    <glyph glyph-name="uni2196" unicode="&#x2196;" horiz-adv-x="1673" 
d="M184 1448h1162l8 -272h-680l932 -930l-220 -217l-929 929v-677l-273 8v1159z" />
    <glyph glyph-name="uni2197" unicode="&#x2197;" horiz-adv-x="1673" 
d="M1489 1448v-1159l-272 -8v677l-932 -929l-217 217l929 930h-678l9 272h1161z" />
    <glyph glyph-name="uni2198" unicode="&#x2198;" horiz-adv-x="1673" 
d="M1489 29h-1161l-9 272h678l-929 930l217 217l932 -930v678l272 -8v-1159z" />
    <glyph glyph-name="uni2199" unicode="&#x2199;" horiz-adv-x="1673" 
d="M184 29v1159l273 8v-678l929 930l220 -217l-932 -930h680l-8 -272h-1162z" />
    <glyph glyph-name="partialdiff" unicode="&#x2202;" horiz-adv-x="1275" 
d="M642 752q-120 0 -194 -73t-73 -193q-1 -120 73 -192t194 -73q120 0 194 74q74 75 74 193t-74 191t-194 73zM1204 516q0 -248 -154 -398t-407 -151q-254 1 -409 143q-154 142 -154 375t156 377t407 144q63 0 125 -19q-88 113 -213 199t-328 178l271 113q334 -141 520 -405
t186 -556z" />
    <glyph glyph-name="minus" unicode="&#x2212;" horiz-adv-x="1443" 
d="M207 553v235h1028v-235h-1028z" />
    <glyph glyph-name="approxequal" unicode="&#x2248;" horiz-adv-x="1013" 
d="M666 254q-80 0 -182 57t-122 58q-57 0 -57 -78h-262q2 145 80 235t211 90q90 0 191 -57t124 -57q59 0 60 78h262q0 -146 -84 -236t-221 -90zM666 684q-80 0 -182 57t-122 58q-57 0 -57 -78h-262q2 145 81 235t210 91q90 1 191 -57t124 -58q59 0 60 78h262
q0 -146 -84 -236t-221 -90z" />
    <glyph glyph-name="notequal" unicode="&#x2260;" horiz-adv-x="1462" 
d="M1253 752h-352l-129 -183h481v-235h-645l-153 -221h-211l153 221h-190v235h354l127 183h-481v235h645l154 221h213l-154 -221h188v-235z" />
    <glyph glyph-name="lessequal" unicode="&#x2264;" horiz-adv-x="1232" 
d="M92 0v238h1008v-238h-1008zM1055 307l-918 338v270l918 338v-270l-600 -203l600 -202v-271z" />
    <glyph glyph-name="greaterequal" unicode="&#x2265;" horiz-adv-x="1232" 
d="M133 0v238h1008v-238h-1008zM178 307v271l600 202l-600 203v270l918 -338v-270z" />
    <glyph glyph-name="filledbox" unicode="&#x25a0;" horiz-adv-x="1705" 
d="M135 0v1434h1434v-1434h-1434z" />
    <glyph glyph-name="uni25A1" unicode="&#x25a1;" horiz-adv-x="1705" 
d="M385 250h934v934h-934v-934zM135 0v1434h1434v-1434h-1434z" />
    <glyph glyph-name="triagup" unicode="&#x25b2;" horiz-adv-x="1923" 
d="M31 0l930 1466l931 -1466h-1861z" />
    <glyph glyph-name="uni25B8" unicode="&#x25b8;" horiz-adv-x="757" 
d="M129 72v938l573 -469z" />
    <glyph glyph-name="triagdn" unicode="&#x25bc;" horiz-adv-x="1923" 
d="M961 -33l-930 1467h1861z" />
    <glyph glyph-name="uni25BD" unicode="&#x25bd;" horiz-adv-x="1923" 
d="M967 455l454 731h-919zM961 -33l-930 1467h1861z" />
    <glyph glyph-name="uni25C2" unicode="&#x25c2;" horiz-adv-x="757" 
d="M629 72l-574 469l574 469v-938z" />
    <glyph glyph-name="uni25C6" unicode="&#x25c6;" horiz-adv-x="1656" 
d="M829 -41l-757 758l755 758l758 -758z" />
    <glyph glyph-name="circle" unicode="&#x25cb;" horiz-adv-x="1691" 
d="M848 227q203 1 344 143t141 346t-141 347t-345 143t-346 -142q-143 -142 -143 -347t144 -347t346 -143zM1593 715q0 -311 -217 -529t-528 -219q-311 0 -531 217q-219 216 -219 530t219 533t531 219t528 -220q217 -220 217 -531z" />
    <glyph glyph-name="uni25CF" unicode="&#x25cf;" horiz-adv-x="1691" 
d="M1593 715q0 -311 -217 -529t-528 -219q-311 0 -531 217q-219 216 -219 530t219 533t531 219t528 -220q217 -220 217 -531z" />
    <glyph glyph-name="uni25D0" unicode="&#x25d0;" horiz-adv-x="1691" 
d="M842 227q205 1 348 143t143 347t-142 347t-349 142v-979zM1593 715q0 -313 -219 -531t-530 -217q-311 0 -529 218q-217 217 -217 529t217 532t529 220t530 -219q219 -219 219 -532z" />
    <glyph glyph-name="uni25D6" unicode="&#x25d6;" horiz-adv-x="987" 
d="M852 -33q-315 0 -535 217q-219 216 -219 530t219 533t535 219v-1499z" />
    <glyph glyph-name="heart" unicode="&#x2665;" horiz-adv-x="1456" 
d="M1020 1276q158 0 256 -97t98 -256t-157 -348q-135 -158 -299 -296t-187 -189h-8q-10 28 -82 94t-163 148t-182 176t-153 206q-61 112 -61 212q0 156 98 253t256 97q82 0 147 -37t99 -74t45 -37q10 0 46 37q37 37 101 74t146 37z" />
    <glyph glyph-name="uni2780" unicode="&#x2780;" horiz-adv-x="1777" 
d="M817 303v645h-213v180h428v-825h-215zM889 125q268 0 440 166t172 426t-172 426t-440 166t-440 -166q-173 -166 -173 -426t172 -426t441 -166zM889 -33q-348 0 -570 210q-221 210 -221 540q0 329 221 539t569 210t571 -210q222 -210 222 -540t-222 -539
q-222 -210 -570 -210z" />
    <glyph glyph-name="uni2781" unicode="&#x2781;" horiz-adv-x="1777" 
d="M565 303v105l318 333q35 33 48 46q48 49 48 91t-27 64t-71 21q-100 0 -115 -101h-205q6 129 97 209q92 80 234 80t230 -70t88 -178t-129 -246l-166 -178h306v-176h-656zM889 125q268 0 440 166t172 426t-172 426t-440 166t-440 -166q-173 -166 -173 -426t172 -426
t441 -166zM889 -33q-348 0 -570 210q-221 210 -221 540q0 329 221 539t569 210t571 -210q222 -210 222 -540t-222 -539q-222 -210 -570 -210z" />
    <glyph glyph-name="uni2782" unicode="&#x2782;" horiz-adv-x="1777" 
d="M1231 549q0 -117 -94 -191q-93 -74 -241 -74t-244 73q-95 73 -109 194h217q8 -37 43 -64t90 -27t89 28q34 26 34 67t-35 68t-94 26h-107v144l150 157h-340v180h622v-147l-186 -199q96 -29 150 -90t55 -145zM889 125q268 0 440 166t172 426t-172 426t-440 166t-440 -166
q-173 -166 -173 -426t172 -426t441 -166zM889 1466q348 0 570 -210t222 -540t-222 -539q-222 -210 -570 -210t-570 210q-221 210 -221 540q0 329 222 539t569 210z" />
    <glyph glyph-name="uni2783" unicode="&#x2783;" horiz-adv-x="1777" 
d="M903 631v297l-219 -297h219zM1231 631v-182h-109v-146h-219v146h-457v143l390 538h286v-499h109zM889 125q268 0 440 166t172 426t-172 426t-440 166t-440 -166q-173 -166 -173 -426t172 -426t441 -166zM889 -33q-348 0 -570 210q-221 210 -221 540q0 329 221 539
t569 210t571 -210q222 -210 222 -540t-222 -539q-222 -210 -570 -210z" />
    <glyph glyph-name="uni2784" unicode="&#x2784;" horiz-adv-x="1777" 
d="M918 852q143 0 230 -75t87 -201t-94 -204q-94 -79 -248 -79t-250 73t-104 185h217q12 -37 50 -59t92 -23q54 0 90 30q36 31 36 77t-35 76t-99 30t-108 -41l-178 49l45 449h539v-183h-348l-15 -118q44 14 93 14zM889 125q268 0 440 166t172 426t-172 426t-440 166
t-440 -166q-173 -166 -173 -426t172 -426t441 -166zM889 1466q348 0 570 -210t222 -540t-222 -539q-222 -210 -570 -210t-570 210q-221 210 -221 540q0 329 222 539t569 210z" />
    <glyph glyph-name="uni2785" unicode="&#x2785;" horiz-adv-x="1777" 
d="M889 463q65 0 105 36t40 93t-40 92t-104 35t-106 -35t-41 -91q0 -56 40 -93t106 -37zM1251 593q0 -132 -99 -217t-261 -85t-263 84t-102 213q0 88 90 223l220 326h260l-170 -244q147 -8 236 -88t89 -212zM889 125q268 0 440 166t172 426t-172 426t-440 166t-440 -166
q-173 -166 -173 -426t172 -426t441 -166zM889 1466q348 0 570 -210t222 -540t-222 -539q-222 -210 -570 -210t-570 210q-221 210 -221 540q0 329 222 539t569 210z" />
    <glyph glyph-name="uni2786" unicode="&#x2786;" horiz-adv-x="1777" 
d="M561 934v194h662v-124l-346 -703h-254l317 633h-379zM889 125q268 0 440 166t172 426t-172 426t-440 166t-440 -166q-173 -166 -173 -426t172 -426t441 -166zM889 -33q-348 0 -570 210q-221 210 -221 540q0 329 221 539t569 210t571 -210q222 -210 222 -540t-222 -539
q-222 -210 -570 -210z" />
    <glyph glyph-name="uni2787" unicode="&#x2787;" horiz-adv-x="1777" 
d="M889 455q57 -1 92 27t35 74t-35 74t-92 28t-92 -28t-35 -73t35 -73t92 -29zM772 896q0 -42 33 -70t85 -27q52 -1 84 27t32 70t-32 69t-84 27t-85 -28q-33 -26 -33 -68zM889 285q-166 1 -265 71q-100 70 -100 193t135 192q-100 61 -100 169t90 174t240 67q149 0 239 -67
t90 -174t-100 -169q135 -67 135 -191t-99 -194t-265 -71zM889 125q268 0 440 166t172 426t-172 426t-440 166t-440 -166q-173 -166 -173 -426t172 -426t441 -166zM889 -33q-348 0 -570 210q-221 210 -221 540q0 329 221 539t569 210t571 -210q222 -210 222 -540t-222 -539
q-222 -210 -570 -210z" />
    <glyph glyph-name="uni2788" unicode="&#x2788;" horiz-adv-x="1777" 
d="M887 721q65 0 105 35t40 93t-40 93t-106 35t-105 -35q-40 -35 -40 -92t40 -93t106 -36zM887 1149q162 0 263 -84t101 -213q0 -90 -90 -221l-221 -330h-260l170 246q-147 10 -236 90q-88 80 -88 211t100 216t261 85zM889 125q268 0 440 166t172 426t-172 426t-440 166
t-440 -166q-173 -166 -173 -426t172 -426t441 -166zM889 1466q348 0 570 -210t222 -540t-222 -539q-222 -210 -570 -210t-570 210q-221 210 -221 540q0 329 222 539t569 210z" />
    <glyph glyph-name="uni278A" unicode="&#x278a;" horiz-adv-x="1777" 
d="M817 303h215v825h-428v-180h213v-645zM889 -33q-348 0 -570 210q-221 210 -221 540q0 329 221 539t569 210t571 -210q222 -210 222 -540t-222 -539q-222 -210 -570 -210z" />
    <glyph glyph-name="uni278B" unicode="&#x278b;" horiz-adv-x="1777" 
d="M565 303h656v176h-306l166 178q129 137 129 246t-88 179t-230 69q-142 0 -234 -80t-97 -209h205q14 100 115 101q45 0 71 -22q26 -23 27 -53q0 -30 -17 -59q-16 -29 -30 -42t-49 -46l-318 -333v-105zM889 -33q-348 0 -570 210q-221 210 -221 540q0 329 221 539t569 210
t571 -210q222 -210 222 -540t-222 -539q-222 -210 -570 -210z" />
    <glyph glyph-name="uni278C" unicode="&#x278c;" horiz-adv-x="1777" 
d="M896 285q148 -1 241 73q94 74 94 191q0 80 -54 144t-151 89l186 201v147h-622v-180h340l-150 -157v-144h107q59 -1 94 -27t35 -67t-34 -68t-89 -27t-90 28q-35 26 -43 63h-217q14 -121 109 -194q96 -72 244 -72zM889 -33q-348 0 -570 210q-221 210 -221 540
q0 329 221 539t569 210t571 -210q222 -210 222 -540t-222 -539q-222 -210 -570 -210z" />
    <glyph glyph-name="uni278D" unicode="&#x278d;" horiz-adv-x="1777" 
d="M903 631h-219l219 297v-297zM903 303h219v146h109v182h-109v499h-286l-390 -538v-143h457v-146zM889 -33q-348 0 -570 210q-221 210 -221 540q0 329 221 539t569 210t571 -210q222 -210 222 -540t-222 -539q-222 -210 -570 -210z" />
    <glyph glyph-name="uni278E" unicode="&#x278e;" horiz-adv-x="1777" 
d="M893 293q154 0 248 79t94 205q0 127 -87 201t-230 74q-39 0 -93 -14l15 118h348v183h-539l-45 -449l178 -49q44 41 108 41t99 -30t35 -77t-36 -77t-90 -29q-54 0 -92 23t-50 59h-217q8 -113 104 -185t250 -73zM889 -33q-348 0 -570 210q-221 210 -221 540q0 329 221 539
t569 210t571 -210q222 -210 222 -540t-222 -539q-222 -210 -570 -210z" />
    <glyph glyph-name="uni278F" unicode="&#x278f;" horiz-adv-x="1777" 
d="M889 463q-66 0 -106 37t-40 93t41 91t106 35q64 0 104 -35t40 -92t-40 -93t-105 -36zM891 291q162 0 261 85t99 210q1 124 -69 200t-191 99q-61 6 -65 6l170 246h-260l-220 -326q-90 -135 -90 -223q0 -129 102 -213t263 -84zM889 -33q-348 0 -570 210q-221 210 -221 540
q0 329 221 539t569 210t571 -210q222 -210 222 -540t-222 -539q-222 -210 -570 -210z" />
    <glyph glyph-name="uni2790" unicode="&#x2790;" horiz-adv-x="1777" 
d="M1223 1128h-662v-194h379l-317 -633h254l346 703v124zM889 -33q-348 0 -570 210q-221 210 -221 540q0 329 221 539t569 210t571 -210q222 -210 222 -540t-222 -539q-222 -210 -570 -210z" />
    <glyph glyph-name="uni2791" unicode="&#x2791;" horiz-adv-x="1777" 
d="M889 455q-57 1 -92 29t-35 73t35 73t92 28t92 -28t35 -74t-35 -74t-92 -27zM1006 896q0 -42 -32 -70t-84 -27q-52 -1 -85 27t-33 70t33 69t85 27t84 -28q32 -26 32 -68zM889 285q166 1 265 71t99 194t-135 191q100 61 100 169t-90 174t-240 67q-150 0 -239 -67
q-90 -67 -90 -174t100 -169q-135 -71 -135 -193t100 -192t265 -71zM889 -33q-348 0 -570 210q-221 210 -221 540q0 329 221 539t569 210t571 -210q222 -210 222 -540t-222 -539q-222 -210 -570 -210z" />
    <glyph glyph-name="uni2792" unicode="&#x2792;" horiz-adv-x="1777" 
d="M887 721q-66 0 -106 36t-40 93t40 92t106 35q65 0 105 -35t40 -93t-40 -93t-105 -35zM1251 852q0 129 -101 213t-263 84t-261 -85q-100 -84 -100 -206t66 -198q84 -98 260 -111l-172 -248h260l221 330q90 131 90 221zM889 -33q-348 0 -570 210q-221 210 -221 540
q0 329 221 539t569 210t571 -210q222 -210 222 -540t-222 -539q-222 -210 -570 -210z" />
    <glyph glyph-name="uniF8FF" unicode="&#xf8ff;" horiz-adv-x="1536" 
d="M449 578h147l31 -269h10l57 269h146l57 -269h12l31 269h145v-9l-75 -379h-199l-23 123l-16 103h-10l-14 -103l-25 -123h-201l-73 379v9zM358 90h820v1249h-820v-1249zM205 -72v1573h1126v-1573h-1126z" />
    <glyph glyph-name="Jacute" horiz-adv-x="1325" 
d="M629.5 -33q-265.5 0 -420 132t-174.5 372h317q37 -227 275 -227q115 0 186.5 79.5t71.5 211.5v626h-639v273h964v-895q0 -272 -157.5 -422t-423 -150zM569 1575l-6 8l170 318h326l-221 -326h-269z" />
    <glyph glyph-name="A.ss01" horiz-adv-x="1699" 
d="M1245 557v510h-4l-383 -510h387zM1565 1434v-1434h-320v291h-579l-224 -291h-389l1110 1434h402z" />
    <glyph glyph-name="Aacute.ss01" horiz-adv-x="1699" 
d="M1245 557v510h-4l-383 -510h387zM1565 1434v-1434h-320v291h-579l-224 -291h-389l1110 1434h402zM1219 1575l-7 8l170 318h326l-221 -326h-268z" />
    <glyph glyph-name="Abreve.ss01" horiz-adv-x="1699" 
d="M1245 557v510h-4l-383 -510h387zM1565 1434v-1434h-320v291h-579l-224 -291h-389l1110 1434h402zM1364 1575q-164 0 -257 92t-101 240h213q18 -143 145 -143t145 143h213q-8 -147 -101 -239.5t-257 -92.5z" />
    <glyph glyph-name="Acircumflex.ss01" horiz-adv-x="1699" 
d="M1245 557v510h-4l-383 -510h387zM1565 1434v-1434h-320v291h-579l-224 -291h-389l1110 1434h402zM965 1573l256 319h284l256 -319h-268l-129 147l-131 -147h-268z" />
    <glyph glyph-name="Adieresis.ss01" horiz-adv-x="1699" 
d="M1245 557v510h-4l-383 -510h387zM1565 1434v-1434h-320v291h-579l-224 -291h-389l1110 1434h402zM1427 1585v313h338v-313h-338zM963 1585v313h335v-313h-335z" />
    <glyph glyph-name="Agrave.ss01" horiz-adv-x="1699" 
d="M1245 557v510h-4l-383 -510h387zM1565 1434v-1434h-320v291h-579l-224 -291h-389l1110 1434h402zM1509 1575h-268l-221 326h326l170 -318z" />
    <glyph glyph-name="Amacron.ss01" horiz-adv-x="1699" 
d="M1245 557v510h-4l-383 -510h387zM1565 1434v-1434h-320v291h-579l-224 -291h-389l1110 1434h402zM1055 1587v225h618v-225h-618z" />
    <glyph glyph-name="Aogonek.ss01" horiz-adv-x="1699" 
d="M1245 557v510h-4l-383 -510h387zM1147 -151.5q0 112.5 98 182.5v260h-579l-224 -291h-389l1110 1434h402v-1434h-23q-141 -23 -141 -96q0 -68 125 -68q47 0 96 14l27 -221q-90 -23 -168 -22q-145 0 -239.5 64.5t-94.5 177z" />
    <glyph glyph-name="Aring.ss01" horiz-adv-x="1699" 
d="M1245 557v510h-4l-383 -510h387zM1565 1434v-1434h-320v291h-579l-224 -291h-389l1110 1434h402zM1365 1722q44 0 71.5 27t27.5 69t-27.5 67.5t-71.5 25.5t-72.5 -25.5t-28.5 -67.5t28.5 -69t72.5 -27zM1365 1589q-114 0 -185.5 62.5t-71.5 165t71.5 165t186.5 62.5
t184.5 -62.5t69.5 -165t-70.5 -165t-184.5 -62.5z" />
    <glyph glyph-name="M.ss02" horiz-adv-x="2889" 
d="M2755 1434v-1434h-320v1040h-4l-791 -1040h-395v1040h-4l-790 -1040h-398l1090 1434h422v-1012l768 1012h422z" />
    <glyph glyph-name="V.ss02" horiz-adv-x="1699" 
d="M1245 393v1041h320v-1434h-422l-1090 1434h398l790 -1041h4z" />
    <glyph glyph-name="W.ss02" horiz-adv-x="2889" 
d="M2435 1434h320v-1434h-422l-768 1012v-1012h-422l-1090 1434h398l790 -1041h4v1041h395l791 -1041h4v1041z" />
    <glyph glyph-name="Wacute.ss02" horiz-adv-x="2889" 
d="M2435 1434h320v-1434h-422l-768 1012v-1012h-422l-1090 1434h398l790 -1041h4v1041h395l791 -1041h4v1041zM1567 1575h-269l-6 8l170 318h326z" />
    <glyph glyph-name="Wcircumflex.ss02" horiz-adv-x="2889" 
d="M2435 1434h320v-1434h-422l-768 1012v-1012h-422l-1090 1434h398l790 -1041h4v1041h395l791 -1041h4v1041zM1444 1720l-131 -147h-269l256 319h285l256 -319h-268z" />
    <glyph glyph-name="Wdieresis.ss02" horiz-adv-x="2889" 
d="M2435 1434h320v-1434h-422l-768 1012v-1012h-422l-1090 1434h398l790 -1041h4v1041h395l791 -1041h4v1041zM1845 1898v-313h-338v313h338zM1378 1898v-313h-336v313h336z" />
    <glyph glyph-name="Wgrave.ss02" horiz-adv-x="2889" 
d="M2435 1434h320v-1434h-422l-768 1012v-1012h-422l-1090 1434h398l790 -1041h4v1041h395l791 -1041h4v1041zM1589 1575h-268l-221 326h325l170 -318z" />
    <glyph glyph-name="J.ss03" horiz-adv-x="1325" 
d="M629.5 -33q-265.5 0 -420 132t-174.5 372h317q37 -227 275 -227q115 0 186.5 79.5t71.5 211.5v899h325v-895q0 -272 -157.5 -422t-423 -150z" />
    <glyph glyph-name="Jacute.ss03" horiz-adv-x="1325" 
d="M629.5 -33q-265.5 0 -420 132t-174.5 372h317q37 -227 275 -227q115 0 186.5 79.5t71.5 211.5v899h325v-895q0 -272 -157.5 -422t-423 -150zM901 1575l-6 8l170 318h326l-222 -326h-268z" />
    <glyph glyph-name="A.ss04" horiz-adv-x="1699" 
d="M455 1067v-510h387l-383 510h-4zM455 291v-291h-320v1434h402l1110 -1434h-390l-223 291h-579z" />
    <glyph glyph-name="Aacute.ss04" horiz-adv-x="1699" 
d="M455 1067v-510h387l-383 510h-4zM455 291v-291h-320v1434h402l1110 -1434h-390l-223 291h-579zM190 1575l-6 8l170 318h326l-221 -326h-269z" />
    <glyph glyph-name="Abreve.ss04" horiz-adv-x="1699" 
d="M455 1067v-510h387l-383 510h-4zM455 291v-291h-320v1434h402l1110 -1434h-390l-223 291h-579zM336 1575q-164 0 -257 92t-102 240h213q18 -143 145.5 -143t145.5 143h213q-8 -147 -101 -239.5t-257 -92.5z" />
    <glyph glyph-name="Acircumflex.ss04" horiz-adv-x="1699" 
d="M455 1067v-510h387l-383 510h-4zM455 291v-291h-320v1434h402l1110 -1434h-390l-223 291h-579zM-63 1573l256 319h284l256 -319h-268l-129 147l-131 -147h-268z" />
    <glyph glyph-name="Adieresis.ss04" horiz-adv-x="1699" 
d="M455 1067v-510h387l-383 510h-4zM455 291v-291h-320v1434h402l1110 -1434h-390l-223 291h-579zM399 1585v313h338v-313h-338zM-66 1585v313h336v-313h-336z" />
    <glyph glyph-name="Agrave.ss04" horiz-adv-x="1699" 
d="M455 1067v-510h387l-383 510h-4zM455 291v-291h-320v1434h402l1110 -1434h-390l-223 291h-579zM481 1575h-268l-221 326h325l170 -318z" />
    <glyph glyph-name="Amacron.ss04" horiz-adv-x="1699" 
d="M455 1067v-510h387l-383 510h-4zM455 291v-291h-320v1434h402l1110 -1434h-390l-223 291h-579zM27 1587v225h618v-225h-618z" />
    <glyph glyph-name="Aogonek.ss04" horiz-adv-x="1699" 
d="M455 557h387l-383 510h-4v-510zM1149 -156q0 108 90 181l-205 266h-579v-291h-320v1434h402l1110 -1434h-103q-141 -23 -141 -96q0 -68 125 -68q45 0 96 14l27 -221q-90 -23 -168 -22q-145 0 -239.5 64.5t-94.5 172.5z" />
    <glyph glyph-name="Aring.ss04" horiz-adv-x="1699" 
d="M455 1067v-510h387l-383 510h-4zM455 291v-291h-320v1434h402l1110 -1434h-390l-223 291h-579zM337 1722q44 0 71.5 27t27.5 69t-27.5 67.5t-71.5 25.5t-72.5 -25.5t-28.5 -67.5t28.5 -69t72.5 -27zM337 1589q-114 0 -185.5 62.5t-71.5 165t71.5 165t186.5 62.5
t184.5 -62.5t69.5 -165t-70.5 -165t-184.5 -62.5z" />
    <glyph glyph-name="M.ss05" horiz-adv-x="2889" 
d="M1647 1040v-1040h-398l-790 1040h-4v-1040h-320v1434h422l770 -1014v1014h422l1087 -1434h-397l-788 1040h-4z" />
    <glyph glyph-name="V.ss05" horiz-adv-x="1695" 
d="M135 0v1434h320v-1041h4l790 1041h391l-1089 -1434h-416z" />
    <glyph glyph-name="W.ss05" horiz-adv-x="2881" 
d="M1321 0v1014l-770 -1014h-416v1434h320v-1041h4l790 1041h391v-1041h5l790 1041h391l-1091 -1434h-414z" />
    <glyph glyph-name="Wacute.ss05" horiz-adv-x="2881" 
d="M1321 0v1014l-770 -1014h-416v1434h320v-1041h4l790 1041h391v-1041h5l790 1041h391l-1091 -1434h-414zM1571 1575h-268l-7 8l170 318h326z" />
    <glyph glyph-name="Wcircumflex.ss05" horiz-adv-x="2881" 
d="M1321 0v1014l-770 -1014h-416v1434h320v-1041h4l790 1041h391v-1041h5l790 1041h391l-1091 -1434h-414zM1448 1720l-131 -147h-268l256 319h284l256 -319h-268z" />
    <glyph glyph-name="Wdieresis.ss05" horiz-adv-x="2881" 
d="M1321 0v1014l-770 -1014h-416v1434h320v-1041h4l790 1041h391v-1041h5l790 1041h391l-1091 -1434h-414zM1849 1898v-313h-338v313h338zM1382 1898v-313h-335v313h335z" />
    <glyph glyph-name="Wgrave.ss05" horiz-adv-x="2881" 
d="M1321 0v1014l-770 -1014h-416v1434h320v-1041h4l790 1041h391v-1041h5l790 1041h391l-1091 -1434h-414zM1593 1575h-268l-221 326h326l169 -318z" />
    <glyph glyph-name="i.loclTRK" horiz-adv-x="565" 
d="M129 0v993h307v-993h-307zM113 1485h336v-316h-336v316z" />
    <glyph glyph-name="jacute" horiz-adv-x="571" 
d="M-61 -510v248l24 4q94 12 134 49t40 131v1071h307v-1036q0 -242 -109.5 -354.5t-342.5 -112.5h-53zM141 1157l-6 8l170 318h326l-221 -326h-269z" />
    <glyph glyph-name="v.ss02" horiz-adv-x="1366" 
d="M930 375v618h307v-993h-336l-870 993h352l543 -618h4z" />
    <glyph glyph-name="w.ss02" horiz-adv-x="2109" 
d="M868 377v616h320l479 -616h6v616h307v-993h-331l-467 573h-6v-573h-336l-809 993h352l481 -616h4z" />
    <glyph glyph-name="wacute.ss02" horiz-adv-x="2109" 
d="M868 377v616h320l479 -616h6v616h307v-993h-331l-467 573h-6v-573h-336l-809 993h352l481 -616h4zM883 1157l-6 8l170 318h325l-221 -326h-268z" />
    <glyph glyph-name="wcircumflex.ss02" horiz-adv-x="2109" 
d="M868 377v616h320l479 -616h6v616h307v-993h-331l-467 573h-6v-573h-336l-809 993h352l481 -616h4zM629 1145l256 321h284l256 -321h-268l-129 149l-131 -149h-268z" />
    <glyph glyph-name="wdieresis.ss02" horiz-adv-x="2109" 
d="M868 377v616h320l479 -616h6v616h307v-993h-331l-467 573h-6v-573h-336l-809 993h352l481 -616h4zM1092 1485h338v-316h-338v316zM627 1485h336v-316h-336v316z" />
    <glyph glyph-name="wgrave.ss02" horiz-adv-x="2109" 
d="M868 377v616h320l479 -616h6v616h307v-993h-331l-467 573h-6v-573h-336l-809 993h352l481 -616h4zM1174 1157h-269l-221 326h326l170 -318z" />
    <glyph glyph-name="y.ss02" horiz-adv-x="1361" 
d="M924 993h309v-1468h-309v475l-893 993h352l537 -594h4v594z" />
    <glyph glyph-name="yacute.ss02" horiz-adv-x="1361" 
d="M924 993h309v-1468h-309v475l-893 993h352l537 -594h4v594zM805 1157h-268l-7 8l170 318h326z" />
    <glyph glyph-name="ycircumflex.ss02" horiz-adv-x="1361" 
d="M924 993h309v-1468h-309v475l-893 993h352l537 -594h4v594zM682 1294l-131 -149h-268l256 321h284l256 -321h-268z" />
    <glyph glyph-name="ydieresis.ss02" horiz-adv-x="1361" 
d="M924 993h309v-1468h-309v475l-893 993h352l537 -594h4v594zM1083 1485v-316h-338v316h338zM616 1485v-316h-335v316h335z" />
    <glyph glyph-name="ygrave.ss02" horiz-adv-x="1361" 
d="M924 993h309v-1468h-309v475l-893 993h352l537 -594h4v594zM827 1157h-268l-221 326h326l170 -318z" />
    <glyph glyph-name="uni1EF9.ss02" horiz-adv-x="1361" 
d="M924 993h309v-1468h-309v475l-893 993h352l537 -594h4v594zM827 1157q-78 0 -162.5 49t-105.5 49q-45 0 -59 -67h-224q6 129 73 207t186 78q84 0 165.5 -49.5t104.5 -49.5q43 0 55 68h221q4 -123 -66.5 -204t-187.5 -81z" />
    <glyph glyph-name="v.ss05" horiz-adv-x="1366" 
d="M129 0v993h307v-614h4l537 614h358l-870 -993h-336z" />
    <glyph glyph-name="w.ss05" horiz-adv-x="2109" 
d="M129 0v993h307v-614h4l478 614h323v-614h4l477 614h357l-811 -993h-334v573h-6l-469 -573h-330z" />
    <glyph glyph-name="wacute.ss05" horiz-adv-x="2109" 
d="M129 0v993h307v-614h4l478 614h323v-614h4l477 614h357l-811 -993h-334v573h-6l-469 -573h-330zM936 1157l-6 8l170 318h325l-221 -326h-268z" />
    <glyph glyph-name="wcircumflex.ss05" horiz-adv-x="2109" 
d="M129 0v993h307v-614h4l478 614h323v-614h4l477 614h357l-811 -993h-334v573h-6l-469 -573h-330zM682 1145l256 321h285l256 -321h-269l-129 149l-131 -149h-268z" />
    <glyph glyph-name="wdieresis.ss05" horiz-adv-x="2109" 
d="M129 0v993h307v-614h4l478 614h323v-614h4l477 614h357l-811 -993h-334v573h-6l-469 -573h-330zM1145 1485h338v-316h-338v316zM680 1485h336v-316h-336v316z" />
    <glyph glyph-name="wgrave.ss05" horiz-adv-x="2109" 
d="M129 0v993h307v-614h4l478 614h323v-614h4l477 614h357l-811 -993h-334v573h-6l-469 -573h-330zM1227 1157h-269l-221 326h326l170 -318z" />
    <glyph glyph-name="y.ss05" horiz-adv-x="1361" 
d="M436 -475h-307v1468h307v-592h4l535 592h356l-895 -993v-475z" />
    <glyph glyph-name="yacute.ss05" horiz-adv-x="1361" 
d="M436 -475h-307v1468h307v-592h4l535 592h356l-895 -993v-475zM803 1157h-268l-7 8l170 318h326z" />
    <glyph glyph-name="ycircumflex.ss05" horiz-adv-x="1361" 
d="M436 -475h-307v1468h307v-592h4l535 592h356l-895 -993v-475zM680 1294l-131 -149h-268l256 321h284l256 -321h-268z" />
    <glyph glyph-name="ydieresis.ss05" horiz-adv-x="1361" 
d="M436 -475h-307v1468h307v-592h4l535 592h356l-895 -993v-475zM1081 1485v-316h-338v316h338zM614 1485v-316h-335v316h335z" />
    <glyph glyph-name="ygrave.ss05" horiz-adv-x="1361" 
d="M436 -475h-307v1468h307v-592h4l535 592h356l-895 -993v-475zM825 1157h-268l-221 326h326l169 -318z" />
    <glyph glyph-name="uni1EF9.ss05" horiz-adv-x="1361" 
d="M436 -475h-307v1468h307v-592h4l535 592h356l-895 -993v-475zM825 1157q-78 0 -162.5 49t-105.5 49q-45 0 -59 -67h-224q6 129 73 207t172 78q105 -1 221 -75q38 -24 63 -24q43 0 55 68h221q4 -123 -66.5 -204t-187.5 -81z" />
    <glyph glyph-name="a.ss06" horiz-adv-x="1241" 
d="M571.5 193q102.5 0 177 55t74.5 147h-307q-66 0 -103.5 -25.5t-37.5 -71.5t47 -75.5t149.5 -29.5zM475 -33q-178 0 -286.5 84t-108.5 221.5t114.5 220t303.5 82.5h323v35q0 84 -55 134.5t-137 50.5t-133.5 -34t-61.5 -89h-295q18 158 154.5 256t348.5 98t350 -116.5
t138 -307.5v-602h-296v96h-5q-125 -129 -354 -129z" />
    <glyph glyph-name="aacute.ss06" horiz-adv-x="1241" 
d="M571.5 193q102.5 0 177 55t74.5 147h-307q-66 0 -103.5 -25.5t-37.5 -71.5t47 -75.5t149.5 -29.5zM475 -33q-178 0 -286.5 84t-108.5 221.5t114.5 220t303.5 82.5h323v35q0 84 -55 134.5t-137 50.5t-133.5 -34t-61.5 -89h-295q18 158 154.5 256t348.5 98t350 -116.5
t138 -307.5v-602h-296v96h-5q-125 -129 -354 -129zM479 1157l-6 8l170 318h326l-221 -326h-269z" />
    <glyph glyph-name="abreve.ss06" horiz-adv-x="1241" 
d="M571.5 193q102.5 0 177 55t74.5 147h-307q-66 0 -103.5 -25.5t-37.5 -71.5t47 -75.5t149.5 -29.5zM475 -33q-178 0 -286.5 84t-108.5 221.5t114.5 220t303.5 82.5h323v35q0 84 -55 134.5t-137 50.5t-133.5 -34t-61.5 -89h-295q18 158 154.5 256t348.5 98t350 -116.5
t138 -307.5v-602h-296v96h-5q-125 -129 -354 -129zM624.5 1130q-163.5 0 -257 92.5t-101.5 241.5h213q18 -145 145.5 -145t145.5 145h213q-8 -150 -101.5 -242t-257 -92z" />
    <glyph glyph-name="acircumflex.ss06" horiz-adv-x="1241" 
d="M571.5 193q102.5 0 177 55t74.5 147h-307q-66 0 -103.5 -25.5t-37.5 -71.5t47 -75.5t149.5 -29.5zM475 -33q-178 0 -286.5 84t-108.5 221.5t114.5 220t303.5 82.5h323v35q0 84 -55 134.5t-137 50.5t-133.5 -34t-61.5 -89h-295q18 158 154.5 256t348.5 98t350 -116.5
t138 -307.5v-602h-296v96h-5q-125 -129 -354 -129zM225 1145l256 321h285l256 -321h-268l-129 149l-131 -149h-269z" />
    <glyph glyph-name="adieresis.ss06" horiz-adv-x="1241" 
d="M571.5 193q102.5 0 177 55t74.5 147h-307q-66 0 -103.5 -25.5t-37.5 -71.5t47 -75.5t149.5 -29.5zM475 -33q-178 0 -286.5 84t-108.5 221.5t114.5 220t303.5 82.5h323v35q0 84 -55 134.5t-137 50.5t-133.5 -34t-61.5 -89h-295q18 158 154.5 256t348.5 98t350 -116.5
t138 -307.5v-602h-296v96h-5q-125 -129 -354 -129zM688 1485h338v-316h-338v316zM223 1485h336v-316h-336v316z" />
    <glyph glyph-name="agrave.ss06" horiz-adv-x="1241" 
d="M571.5 193q102.5 0 177 55t74.5 147h-307q-66 0 -103.5 -25.5t-37.5 -71.5t47 -75.5t149.5 -29.5zM475 -33q-178 0 -286.5 84t-108.5 221.5t114.5 220t303.5 82.5h323v35q0 84 -55 134.5t-137 50.5t-133.5 -34t-61.5 -89h-295q18 158 154.5 256t348.5 98t350 -116.5
t138 -307.5v-602h-296v96h-5q-125 -129 -354 -129zM770 1157h-268l-221 326h325l170 -318z" />
    <glyph glyph-name="amacron.ss06" horiz-adv-x="1241" 
d="M571.5 193q102.5 0 177 55t74.5 147h-307q-66 0 -103.5 -25.5t-37.5 -71.5t47 -75.5t149.5 -29.5zM475 -33q-178 0 -286.5 84t-108.5 221.5t114.5 220t303.5 82.5h323v35q0 84 -55 134.5t-137 50.5t-133.5 -34t-61.5 -89h-295q18 158 154.5 256t348.5 98t350 -116.5
t138 -307.5v-602h-296v96h-5q-125 -129 -354 -129zM315 1186v225h619v-225h-619z" />
    <glyph glyph-name="aogonek.ss06" horiz-adv-x="1241" 
d="M571.5 193q102.5 0 177 55t74.5 147h-307q-66 0 -103.5 -25.5t-37.5 -71.5t47 -75.5t149.5 -29.5zM731 -150.5q0 113.5 103 183.5v63h-5q-125 -129 -354 -129q-178 0 -286.5 84t-108.5 221.5t114.5 220t303.5 82.5h323v35q0 84 -55 134.5t-137 50.5t-133.5 -34t-61.5 -89
h-295q18 158 154.5 256t348.5 98t350 -116.5t138 -307.5v-602h-4q-141 -23 -141 -96q0 -68 125 -68q45 0 96 14l27 -221q-90 -23 -168 -22q-145 0 -239.5 64.5t-94.5 178z" />
    <glyph glyph-name="aring.ss06" horiz-adv-x="1241" 
d="M571.5 193q102.5 0 177 55t74.5 147h-307q-66 0 -103.5 -25.5t-37.5 -71.5t47 -75.5t149.5 -29.5zM475 -33q-178 0 -286.5 84t-108.5 221.5t114.5 220t303.5 82.5h323v35q0 84 -55 134.5t-137 50.5t-133.5 -34t-61.5 -89h-295q18 158 154.5 256t348.5 98t350 -116.5
t138 -307.5v-602h-296v96h-5q-125 -129 -354 -129zM626 1262q44 0 71.5 25.5t27.5 67.5t-27.5 68.5t-71.5 26.5t-73 -26.5t-29 -68.5t29 -67.5t73 -25.5zM626.5 1128q-114.5 0 -186 62.5t-71.5 164t71.5 164t186 62.5t184.5 -62.5t70 -163.5t-70 -164t-184.5 -63z" />
    <glyph glyph-name="atilde.ss06" horiz-adv-x="1241" 
d="M571.5 193q102.5 0 177 55t74.5 147h-307q-66 0 -103.5 -25.5t-37.5 -71.5t47 -75.5t149.5 -29.5zM475 -33q-178 0 -286.5 84t-108.5 221.5t114.5 220t303.5 82.5h323v35q0 84 -55 134.5t-137 50.5t-133.5 -34t-61.5 -89h-295q18 158 154.5 256t348.5 98t350 -116.5
t138 -307.5v-602h-296v96h-5q-125 -129 -354 -129zM770 1157q-78 0 -163 49t-105 49q-45 0 -60 -67h-223q6 129 72.5 207t185.5 78q84 0 166 -49.5t105 -49.5q43 0 55 68h221q4 -123 -66.5 -204t-187.5 -81z" />
    <glyph glyph-name="ij.ss07" horiz-adv-x="1130" 
d="M694 -475v1468h307v-1468h-307zM129 0v993h307v-993h-307zM690 1300v281h316v-281h-316zM125 1300v281h315v-281h-315z" />
    <glyph glyph-name="j.ss07" horiz-adv-x="565" 
d="M129 -475v1468h307v-1468h-307zM125 1300v281h315v-281h-315z" />
    <glyph glyph-name="uni0237.ss07" horiz-adv-x="565" 
d="M129 -475v1468h307v-1468h-307z" />
    <glyph glyph-name="jacute.ss07" horiz-adv-x="565" 
d="M129 -475v1468h307v-1468h-307zM137 1157l-6 8l170 318h326l-221 -326h-269z" />
    <glyph glyph-name="f.ss08" horiz-adv-x="751" 
d="M129 0v1171q0 203 128 324t343 121q84 0 148 -19v-251q-45 10 -84 10q-106 0 -166 -50t-62 -139v-174h312v-248h-312v-745h-307z" />
    <glyph glyph-name="t.ss09" horiz-adv-x="835" 
d="M549 -33q-197 0 -316.5 109.5t-119.5 290.5v942h309v-316h321v-248h-321v-344q0 -168 184 -168q39 0 137 13v-254q-85 -25 -194 -25z" />
    <glyph glyph-name="tbar.ss09" horiz-adv-x="876" 
d="M743 745h-321v-108h321v-160h-321v-76q0 -168 184 -168q39 0 137 13v-254q-86 -25 -194 -25q-197 0 -316.5 109.5t-119.5 290.5v942h309v-316h321v-248z" />
    <glyph glyph-name="tcaron.ss09" horiz-adv-x="835" 
d="M549 -33q-197 0 -316.5 109.5t-119.5 290.5v942h309v-316h321v-248h-321v-344q0 -168 184 -168q39 0 137 13v-254q-85 -25 -194 -25zM545 1153l12 412h287l-82 -412h-217z" />
    <glyph glyph-name="uni0163.ss09" horiz-adv-x="835" 
d="M743 745h-321v-344q0 -168 184 -168q39 0 137 13v-254q-68 -18 -147 -23l-111 -325h-254l95 370q-100 47 -156.5 139.5t-56.5 213.5v942h309v-316h321v-248z" />
    <glyph glyph-name="uni021B.ss09" horiz-adv-x="835" 
d="M299 -100h336v-164q0 -160 -74 -233.5t-258 -98.5l-27 129q98 27 128 51.5t34 75.5h-139v240zM549 -33q-197 0 -316.5 109.5t-119.5 290.5v942h309v-316h321v-248h-321v-344q0 -168 184 -168q39 0 137 13v-254q-85 -25 -194 -25z" />
    <glyph glyph-name="u.ss10" horiz-adv-x="1298" 
d="M1169 993v-993h-303v96h-4q-118 -129 -310 -129t-316.5 127t-124.5 326v573h307v-532q0 -104 59.5 -168t159.5 -64t162.5 60.5t62.5 161.5v542h307z" />
    <glyph glyph-name="uacute.ss10" horiz-adv-x="1298" 
d="M1169 993v-993h-303v96h-4q-118 -129 -310 -129t-316.5 127t-124.5 326v573h307v-532q0 -104 59.5 -168t159.5 -64t162.5 60.5t62.5 161.5v542h307zM504 1157l-6 8l170 318h325l-221 -326h-268z" />
    <glyph glyph-name="ucircumflex.ss10" horiz-adv-x="1298" 
d="M1169 993v-993h-303v96h-4q-118 -129 -310 -129t-316.5 127t-124.5 326v573h307v-532q0 -104 59.5 -168t159.5 -64t162.5 60.5t62.5 161.5v542h307zM250 1145l256 321h285l256 -321h-269l-129 149l-131 -149h-268z" />
    <glyph glyph-name="udieresis.ss10" horiz-adv-x="1298" 
d="M1169 993v-993h-303v96h-4q-118 -129 -310 -129t-316.5 127t-124.5 326v573h307v-532q0 -104 59.5 -168t159.5 -64t162.5 60.5t62.5 161.5v542h307zM713 1485h338v-316h-338v316zM248 1485h336v-316h-336v316z" />
    <glyph glyph-name="ugrave.ss10" horiz-adv-x="1298" 
d="M1169 993v-993h-303v96h-4q-118 -129 -310 -129t-316.5 127t-124.5 326v573h307v-532q0 -104 59.5 -168t159.5 -64t162.5 60.5t62.5 161.5v542h307zM795 1157h-269l-221 326h326l170 -318z" />
    <glyph glyph-name="uhungarumlaut.ss10" horiz-adv-x="1298" 
d="M1169 993v-993h-303v96h-4q-118 -129 -310 -129t-316.5 127t-124.5 326v573h307v-532q0 -104 59.5 -168t159.5 -64t162.5 60.5t62.5 161.5v542h307zM705 1157l-7 6l127 320h281l-168 -326h-233zM365 1157l-5 6l125 320h283l-170 -326h-233z" />
    <glyph glyph-name="umacron.ss10" horiz-adv-x="1298" 
d="M1169 993v-993h-303v96h-4q-118 -129 -310 -129t-316.5 127t-124.5 326v573h307v-532q0 -104 59.5 -168t159.5 -64t162.5 60.5t62.5 161.5v542h307zM340 1186v225h618v-225h-618z" />
    <glyph glyph-name="uogonek.ss10" horiz-adv-x="1298" 
d="M762 -151.5q0 112.5 104 186.5v61h-4q-117 -129 -309.5 -129t-317 127t-124.5 326v573h307v-532q0 -104 59.5 -168t159.5 -64t162.5 60.5t62.5 161.5v542h307v-993h-12q-141 -23 -141 -96q0 -68 125 -68q47 0 96 14l27 -221q-90 -23 -168 -22q-145 0 -239.5 64.5
t-94.5 177z" />
    <glyph glyph-name="uring.ss10" horiz-adv-x="1298" 
d="M1169 993v-993h-303v96h-4q-117 -129 -309.5 -129t-317 127t-124.5 326v573h307v-532q0 -104 59.5 -168t159.5 -64t162.5 60.5t62.5 161.5v542h307zM650 1262q44 0 72 25.5t28 67.5t-28 68.5t-72 26.5t-72.5 -26.5t-28.5 -68.5t28.5 -67.5t72.5 -25.5zM651.5 1128
q-114.5 0 -186.5 62.5t-72 164t72 164t186.5 62.5t184 -62.5t69.5 -163.5t-69.5 -164t-184 -63z" />
    <glyph glyph-name="utilde.ss10" horiz-adv-x="1298" 
d="M1169 993v-993h-303v96h-4q-118 -129 -310 -129t-316.5 127t-124.5 326v573h307v-532q0 -104 59.5 -168t159.5 -64t162.5 60.5t62.5 161.5v542h307zM795 1157q-78 0 -163 49t-106 49q-45 0 -59 -67h-223q6 129 72.5 207t185.5 78q84 0 166 -49.5t104 -49.5q43 0 55 68
h222q4 -123 -66.5 -204t-187.5 -81z" />
    <glyph glyph-name="y.ss11" horiz-adv-x="1359" 
d="M317 -510q-102 0 -184 21v258q191 -34 283 18q56 31 88 102l41 91l-506 1013h328l329 -667h4l297 667h326l-530 -1179q-144 -324 -476 -324z" />
    <glyph glyph-name="yacute.ss11" horiz-adv-x="1359" 
d="M317 -510q-102 0 -184 21v258q191 -34 283 18q56 31 88 102l41 91l-506 1013h328l329 -667h4l297 667h326l-530 -1179q-144 -324 -476 -324zM537 1157l-7 8l170 318h326l-221 -326h-268z" />
    <glyph glyph-name="ycircumflex.ss11" horiz-adv-x="1359" 
d="M317 -510q-102 0 -184 21v258q191 -34 283 18q56 31 88 102l41 91l-506 1013h328l329 -667h4l297 667h326l-530 -1179q-144 -324 -476 -324zM283 1145l256 321h284l256 -321h-268l-129 149l-131 -149h-268z" />
    <glyph glyph-name="ydieresis.ss11" horiz-adv-x="1359" 
d="M317 -510q-102 0 -184 21v258q191 -34 283 18q56 31 88 102l41 91l-506 1013h328l329 -667h4l297 667h326l-530 -1179q-144 -324 -476 -324zM745 1485h338v-316h-338v316zM281 1485h335v-316h-335v316z" />
    <glyph glyph-name="ygrave.ss11" horiz-adv-x="1359" 
d="M317 -510q-102 0 -184 21v258q191 -34 283 18q56 31 88 102l41 91l-506 1013h328l329 -667h4l297 667h326l-530 -1179q-144 -324 -476 -324zM827 1157h-268l-221 326h326l170 -318z" />
    <glyph glyph-name="y.ss12" horiz-adv-x="1304" 
d="M635 -510q-246 0 -388.5 114.5t-162.5 299.5h305q16 -72 77.5 -118t166 -46t170 59.5t65.5 167.5v133h-4q-139 -129 -320 -129t-302 127t-121 326v569h307v-528q0 -104 58.5 -166.5t158.5 -62.5t161.5 59t61.5 160v538h310v-1020q0 -217 -148.5 -350t-394.5 -133z" />
    <glyph glyph-name="yacute.ss12" horiz-adv-x="1304" 
d="M635 -510q-246 0 -388.5 114.5t-162.5 299.5h305q16 -72 77.5 -118t166 -46t170 59.5t65.5 167.5v133h-4q-139 -129 -320 -129t-302 127t-121 326v569h307v-528q0 -104 58.5 -166.5t158.5 -62.5t161.5 59t61.5 160v538h310v-1020q0 -217 -148.5 -350t-394.5 -133z
M506 1157l-6 8l170 318h325l-221 -326h-268z" />
    <glyph glyph-name="ycircumflex.ss12" horiz-adv-x="1304" 
d="M635 -510q-246 0 -388.5 114.5t-162.5 299.5h305q16 -72 77.5 -118t166 -46t170 59.5t65.5 167.5v133h-4q-139 -129 -320 -129t-302 127t-121 326v569h307v-528q0 -104 58.5 -166.5t158.5 -62.5t161.5 59t61.5 160v538h310v-1020q0 -217 -148.5 -350t-394.5 -133z
M252 1145l256 321h285l256 -321h-269l-129 149l-131 -149h-268z" />
    <glyph glyph-name="ydieresis.ss12" horiz-adv-x="1304" 
d="M635 -510q-246 0 -388.5 114.5t-162.5 299.5h305q16 -72 77.5 -118t166 -46t170 59.5t65.5 167.5v133h-4q-139 -129 -320 -129t-302 127t-121 326v569h307v-528q0 -104 58.5 -166.5t158.5 -62.5t161.5 59t61.5 160v538h310v-1020q0 -217 -148.5 -350t-394.5 -133z
M715 1485h338v-316h-338v316zM250 1485h336v-316h-336v316z" />
    <glyph glyph-name="ygrave.ss12" horiz-adv-x="1304" 
d="M635 -510q-246 0 -388.5 114.5t-162.5 299.5h305q16 -72 77.5 -118t166 -46t170 59.5t65.5 167.5v133h-4q-139 -129 -320 -129t-302 127t-121 326v569h307v-528q0 -104 58.5 -166.5t158.5 -62.5t161.5 59t61.5 160v538h310v-1020q0 -217 -148.5 -350t-394.5 -133z
M797 1157h-269l-221 326h326l170 -318z" />
    <glyph glyph-name="germandbls.ss13" horiz-adv-x="1331" 
d="M1253 412q0 -203 -134 -324t-359 -121q-111 0 -215 39v262q76 -35 170 -35q94 -1 157 59q64 60 64 156t-65 157q-65 60 -171 61h-86v192l131 164q76 96 76 176t-52 120t-139 40q-86 0 -140 -45t-54 -121v-1667h-307v1669q0 190 136 306q135 116 359 116t361 -104
t137 -262t-110 -308l-82 -100q150 -41 236 -156t87 -274z" />
    <glyph glyph-name="C_A" horiz-adv-x="2299" 
d="M1843 557v510h-4l-381 -510h385zM2163 1434v-1434h-320v291h-579l-224 -291h-168q-352 0 -563 193t-211 527t213 541q213 206 561 205q248 0 435 -116l-199 -234q-94 66 -234 66q-202 0 -326 -128t-124 -333t121 -319t327 -117l891 1149h400z" />
    <glyph glyph-name="E_A" horiz-adv-x="2238" 
d="M457 266h342l241 312h-583v-312zM1784 557v510h-4l-383 -510h387zM2103 1434v-1434h-319v291h-580l-18 -25h47v-266h-1098v1434h1098v-267h-776v-325h676v-146l569 738h401z" />
    <glyph glyph-name="F_A" horiz-adv-x="2201" 
d="M1747 557v510h-6l-381 -510h387zM2064 1434v-1434h-317v291h-580l-225 -291h-387l414 535h-512v-535h-322v1434h987v-267h-665v-368h563v-199l645 834h399z" />
    <glyph glyph-name="G_A" horiz-adv-x="2551" 
d="M2097 557v510h-4l-383 -510h387zM2417 1434v-1434h-320v291h-586q-193 -322 -641 -322q-346 0 -559 207t-213 543t212 542t560 205q299 0 492 -147t252 -383h-336q-47 119 -155 182t-249 64q-202 0 -326 -128t-124 -337t125 -337t325 -128q150 0 255 73t139 197h-416v252
h653l510 660h402z" />
    <glyph glyph-name="H_T" horiz-adv-x="2396" 
d="M1626 0v1434h717v-273h-395v-1161h-322zM135 0v1434h322v-590h663v317h-377v273h699v-1434h-322v569h-663v-569h-322z" />
    <glyph glyph-name="K_A" horiz-adv-x="2349" 
d="M1892 557v510h-4l-381 -510h385zM2212 1434v-1434h-320v291h-579l-29 -37l254 -254h-405l-25 25l-18 -25h-388l187 242l-432 428v-670h-322v1434h322v-691l630 691h388l-654 -717l246 -246l745 963h400z" />
    <glyph glyph-name="L_A" horiz-adv-x="2062" 
d="M1608 557v510h-4l-383 -510h387zM1927 1434v-1434h-319v291h-580l-18 -25h196v-266h-1071v1434h322v-1168h166l903 1168h401z" />
    <glyph glyph-name="L_L" horiz-adv-x="1273" 
d="M948 705h258v-267h-563v996h305v-729zM457 266h749v-266h-1071v1434h322v-1168z" />
    <glyph glyph-name="N_T" horiz-adv-x="2424" 
d="M1655 1434h717v-273h-396v-1161h-321v1434zM754 1434h716v-1434h-243l-770 879v-879h-322v1434h238l776 -899v626h-395v273z" />
    <glyph glyph-name="R_A" horiz-adv-x="2607" 
d="M2152 557v510h-4l-381 -510h385zM457 1165v-430h272q141 1 224 57t83 156t-80 158t-211 59h-288zM2472 1434v-1434h-320v291h-579l-166 -217l59 -74h-503l59 76l-305 389h-260v-465h-322v1434h639q266 0 424 -130t158 -354q0 -326 -301 -436l155 -195l861 1115h401z" />
    <glyph glyph-name="T_H" horiz-adv-x="2396" 
d="M1939 1434h322v-1434h-322v569h-663v-569h-322v1434h699v-273h-377v-317h663v590zM53 1161v273h717v-1434h-321v1161h-396z" />
    <glyph glyph-name="T_U" horiz-adv-x="2418" 
d="M1980 1434h324v-805q0 -305 -182 -483t-492 -179q-310 0 -493 178q-182 178 -183 484v805h717v-273h-393v-536q0 -171 96 -273t255 -102t255 102t96 273v809zM53 1161v273h717v-1434h-321v1161h-396z" />
    <glyph glyph-name="U_T" horiz-adv-x="2418" 
d="M1649 1434h716v-273h-395v-1161h-321v1434zM748 1434h716v-805q0 -305 -182 -483t-492 -179q-310 0 -493 178q-182 178 -182 484v805h323v-809q0 -171 96 -273t256 -102q158 0 254 102t97 273v536h-393v273z" />
    <glyph glyph-name="f_b" horiz-adv-x="2207" 
d="M1565 207q115 0 189 81t73 209q0 128 -74 209q-75 80 -189 80t-187 -80t-73 -209q0 -128 74 -209q72 -81 187 -81zM1635 1026q211 0 353 -148t142 -380t-143 -382q-143 -148 -367 -149q-188 0 -315 129h-5v-96h-303v1581h308v-684h4q116 129 326 129zM244 0v745h-234v248
h234v178q0 203 129 324t344 121q84 0 147 -19v-251q-47 10 -84 10q-106 0 -166 -50t-61 -139v-174h311v-248h-311v-745h-309z" />
    <glyph glyph-name="f_f_b" horiz-adv-x="3076" 
d="M2433 207q115 0 189 81t73 209q0 128 -74 209q-75 80 -189 80t-186 -80t-73 -209q1 -128 73 -209t187 -81zM2503 1026q211 0 353 -148t142 -380t-143 -382q-143 -148 -367 -149q-188 0 -315 129h-4v-96h-303v1581h307v-684h4q116 129 326 129zM1112 0v745h-233v248h233
v178q0 203 129 324t344 121q84 0 148 -19v-251q-47 10 -84 10q-107 0 -167 -50t-61 -139v-174h312v-248h-312v-745h-309zM244 0v745h-234v248h234v178q0 203 129 324t344 121q84 0 147 -19v-251q-47 10 -84 10q-106 0 -166 -50t-61 -139v-174h311v-248h-311v-745h-309z" />
    <glyph glyph-name="f_f_f" horiz-adv-x="2605" 
d="M1980 0v745h-233v248h233v178q0 203 129 324t345 121q84 0 147 -19v-251q-47 10 -84 10q-107 0 -167 -50t-60 -139v-174h311v-248h-311v-745h-310zM1112 0v745h-233v248h233v178q0 203 129 324t344 121q84 0 148 -19v-251q-47 10 -84 10q-107 0 -167 -50t-61 -139v-174
h312v-248h-312v-745h-309zM244 0v745h-234v248h234v178q0 203 129 324t344 121q84 0 147 -19v-251q-47 10 -84 10q-106 0 -166 -50t-61 -139v-174h311v-248h-311v-745h-309z" />
    <glyph glyph-name="f_f_h" horiz-adv-x="3035" 
d="M1866 0v1581h307v-684h4q123 129 313 129t313 -127q122 -127 122 -326v-573h-310v532q0 104 -58 168q-59 64 -159 64t-162 -60t-63 -161v-543h-307zM1112 0v745h-233v248h233v178q0 203 129 324t344 121q84 0 148 -19v-251q-47 10 -84 10q-107 0 -167 -50t-61 -139v-174
h312v-248h-312v-745h-309zM244 0v745h-234v248h234v178q0 203 129 324t344 121q84 0 147 -19v-251q-47 10 -84 10q-106 0 -166 -50t-61 -139v-174h311v-248h-311v-745h-309z" />
    <glyph glyph-name="f_f_j" horiz-adv-x="2308" 
d="M1673 -510v248l25 4q94 12 134 49t40 133v1069h309v-1036q-1 -243 -111 -355t-344 -112h-53zM1868 1300v281h315v-281h-315zM1112 0v745h-233v248h233v178q0 203 129 324t344 121q84 0 148 -19v-251q-47 10 -84 10q-107 0 -167 -50t-61 -139v-174h312v-248h-312v-745
h-309zM244 0v745h-234v248h234v178q0 203 129 324t344 121q84 0 147 -19v-251q-47 10 -84 10q-106 0 -166 -50t-61 -139v-174h311v-248h-311v-745h-309z" />
    <glyph glyph-name="f_f_k" horiz-adv-x="3022" 
d="M1866 0v1581h307v-1085l422 497h350l-420 -497l481 -496h-385l-448 461v-461h-307zM1112 0v745h-233v248h233v178q0 203 129 324t344 121q84 0 148 -19v-251q-47 10 -84 10q-107 0 -167 -50t-61 -139v-174h312v-248h-312v-745h-309zM244 0v745h-234v248h234v178
q0 203 129 324t344 121q84 0 147 -19v-251q-47 10 -84 10q-106 0 -166 -50t-61 -139v-174h311v-248h-311v-745h-309z" />
    <glyph glyph-name="f_f_thorn" horiz-adv-x="3076" 
d="M2433 207q115 0 189 81t73 209q0 128 -74 209q-75 80 -189 80t-186 -80t-73 -209q1 -128 73 -209t187 -81zM1866 -475v2056h307v-686h4q129 131 333 131t346 -148t142 -383t-144 -382t-346 -147t-331 132h-4v-573h-307zM1112 0v745h-233v248h233v178q0 203 129 324
t344 121q84 0 148 -19v-251q-47 10 -84 10q-107 0 -167 -50t-61 -139v-174h312v-248h-312v-745h-309zM244 0v745h-234v248h234v178q0 203 129 324t344 121q84 0 147 -19v-251q-47 10 -84 10q-106 0 -166 -50t-61 -139v-174h311v-248h-311v-745h-309z" />
    <glyph glyph-name="f_h" horiz-adv-x="2166" 
d="M997 0v1581h308v-684h4q123 129 313 129t312 -127t122 -326v-573h-309v532q0 104 -58 168q-59 64 -159 64t-162 -60t-63 -161v-543h-308zM244 0v745h-234v248h234v178q0 203 129 324t344 121q84 0 147 -19v-251q-47 10 -84 10q-106 0 -166 -50t-61 -139v-174h311v-248
h-311v-745h-309z" />
    <glyph glyph-name="f_j" horiz-adv-x="1439" 
d="M805 -510v248l24 4q94 12 135 49q40 37 40 133v1069h309v-1036q0 -243 -111 -355t-344 -112h-53zM999 1300v281h316v-281h-316zM244 0v745h-234v248h234v178q0 203 129 324t344 121q84 0 147 -19v-251q-47 10 -84 10q-106 0 -166 -50t-61 -139v-174h311v-248h-311v-745
h-309z" />
    <glyph glyph-name="f_k" horiz-adv-x="2154" 
d="M997 0v1581h308v-1085l421 497h351l-420 -497l481 -496h-385l-448 461v-461h-308zM244 0v745h-234v248h234v178q0 203 129 324t344 121q84 0 147 -19v-251q-47 10 -84 10q-106 0 -166 -50t-61 -139v-174h311v-248h-311v-745h-309z" />
    <glyph glyph-name="f_thorn" horiz-adv-x="2207" 
d="M1565 207q115 0 189 81t73 209q0 128 -74 209q-75 80 -189 80t-187 -80t-73 -209q0 -128 74 -209q72 -81 187 -81zM997 -475v2056h308v-686h4q129 131 333 131t346 -148t142 -383t-144 -382t-346 -147t-331 132h-4v-573h-308zM244 0v745h-234v248h234v178q0 203 129 324
t344 121q84 0 147 -19v-251q-47 10 -84 10q-106 0 -166 -50t-61 -139v-174h311v-248h-311v-745h-309z" />
    <glyph glyph-name="f_f_j.ss07" horiz-adv-x="2301" 
d="M1866 -475v1468h307v-1468h-307zM1862 1300v281h315v-281h-315zM1112 0v745h-233v248h233v178q0 203 129 324t344 121q84 0 148 -19v-251q-47 10 -84 10q-107 0 -167 -50t-61 -139v-174h312v-248h-312v-745h-309zM244 0v745h-234v248h234v178q0 203 129 324t344 121
q84 0 147 -19v-251q-47 10 -84 10q-106 0 -166 -50t-61 -139v-174h311v-248h-311v-745h-309z" />
    <glyph glyph-name="f_j.ss07" horiz-adv-x="1433" 
d="M997 -475v1468h308v-1468h-308zM993 1300v281h316v-281h-316zM244 0v745h-234v248h234v178q0 203 129 324t344 121q84 0 147 -19v-251q-47 10 -84 10q-106 0 -166 -50t-61 -139v-174h311v-248h-311v-745h-309z" />
    <glyph glyph-name="f_b.ss08" horiz-adv-x="2091" 
d="M1448 207q114 0 188 81t74 209t-74 209q-74 80 -188 80t-188 -80q-72 -80 -72 -209q0 -128 72 -209t188 -81zM1518 1026q210 0 352 -148t143 -380q0 -232 -143 -382q-143 -148 -367 -149q-188 0 -315 129h-4v-96h-303v1581h307v-684h4q116 129 326 129zM129 0v1171
q0 203 128 324t343 121q84 0 148 -19v-251q-45 10 -84 10q-106 0 -166 -50t-62 -139v-174h312v-248h-312v-745h-307z" />
    <glyph glyph-name="f_f.ss08" horiz-adv-x="1503" 
d="M881 0v1171q0 203 128 324t343 121q84 0 147 -19v-251q-45 10 -84 10q-107 0 -167 -50t-60 -139v-174h311v-248h-311v-745h-307zM129 0v1171q0 203 128 324t343 121q84 0 148 -19v-251q-45 10 -84 10q-106 0 -166 -50t-62 -139v-174h312v-248h-312v-745h-307z" />
    <glyph glyph-name="f_f_b.ss08" horiz-adv-x="2842" 
d="M2200 207q114 0 188 81t74 209t-74 209q-74 80 -188 80t-188 -80q-73 -80 -73 -209q0 -128 73 -209t188 -81zM2270 1026q210 0 352 -148t142 -380t-142 -382q-144 -148 -367 -149q-188 0 -316 129h-4v-96h-303v1581h307v-684h5q116 129 326 129zM881 0v1171
q0 203 128 324t343 121q84 0 147 -19v-251q-45 10 -84 10q-107 0 -167 -50t-60 -139v-174h311v-248h-311v-745h-307zM129 0v1171q0 203 128 324t343 121q84 0 148 -19v-251q-45 10 -84 10q-106 0 -166 -50t-62 -139v-174h312v-248h-312v-745h-307z" />
    <glyph glyph-name="f_f_f.ss08" horiz-adv-x="2254" 
d="M1632 0v1171q0 203 128 324t343 121q84 0 148 -19v-251q-45 10 -84 10q-107 0 -167 -50t-61 -139v-174h312v-248h-312v-745h-307zM881 0v1171q0 203 128 324t343 121q84 0 147 -19v-251q-45 10 -84 10q-107 0 -167 -50t-60 -139v-174h311v-248h-311v-745h-307zM129 0
v1171q0 203 128 324t343 121q84 0 148 -19v-251q-45 10 -84 10q-106 0 -166 -50t-62 -139v-174h312v-248h-312v-745h-307z" />
    <glyph glyph-name="f_f_h.ss08" horiz-adv-x="2801" 
d="M1632 0v1581h307v-684h5q124 129 314 129t312 -127t121 -326v-573h-309v532q0 104 -58 168t-159 64t-163 -60t-63 -161v-543h-307zM881 0v1171q0 203 128 324t343 121q84 0 147 -19v-251q-45 10 -84 10q-107 0 -167 -50t-60 -139v-174h311v-248h-311v-745h-307zM129 0
v1171q0 203 128 324t343 121q84 0 148 -19v-251q-45 10 -84 10q-106 0 -166 -50t-62 -139v-174h312v-248h-312v-745h-307z" />
    <glyph glyph-name="f_f_i.ss08" horiz-adv-x="2068" 
d="M1632 0v993h307v-993h-307zM1628 1300v281h316v-281h-316zM881 0v1171q0 203 128 324t343 121q84 0 147 -19v-251q-45 10 -84 10q-107 0 -167 -50t-60 -139v-174h311v-248h-311v-745h-307zM129 0v1171q0 203 128 324t343 121q84 0 148 -19v-251q-45 10 -84 10
q-106 0 -166 -50t-62 -139v-174h312v-248h-312v-745h-307z" />
    <glyph glyph-name="f_f_j.ss08" horiz-adv-x="2074" 
d="M1440 -510v248l24 4q94 12 134 49t40 133v1069h310v-1036q0 -243 -111 -355t-344 -112h-53zM1634 1300v281h316v-281h-316zM881 0v1171q0 203 128 324t343 121q84 0 147 -19v-251q-45 10 -84 10q-107 0 -167 -50t-60 -139v-174h311v-248h-311v-745h-307zM129 0v1171
q0 203 128 324t343 121q84 0 148 -19v-251q-45 10 -84 10q-106 0 -166 -50t-62 -139v-174h312v-248h-312v-745h-307z" />
    <glyph glyph-name="f_f_k.ss08" horiz-adv-x="2789" 
d="M1632 0v1581h307v-1085l422 497h351l-420 -497l481 -496h-385l-449 461v-461h-307zM881 0v1171q0 203 128 324t343 121q84 0 147 -19v-251q-45 10 -84 10q-107 0 -167 -50t-60 -139v-174h311v-248h-311v-745h-307zM129 0v1171q0 203 128 324t343 121q84 0 148 -19v-251
q-45 10 -84 10q-106 0 -166 -50t-62 -139v-174h312v-248h-312v-745h-307z" />
    <glyph glyph-name="f_f_l.ss08" horiz-adv-x="2068" 
d="M1632 0v1581h307v-1581h-307zM881 0v1171q0 203 128 324t343 121q84 0 147 -19v-251q-45 10 -84 10q-107 0 -167 -50t-60 -139v-174h311v-248h-311v-745h-307zM129 0v1171q0 203 128 324t343 121q84 0 148 -19v-251q-45 10 -84 10q-106 0 -166 -50t-62 -139v-174h312
v-248h-312v-745h-307z" />
    <glyph glyph-name="f_f_thorn.ss08" horiz-adv-x="2842" 
d="M2200 207q114 0 188 81t74 209t-74 209q-74 80 -188 80t-188 -80q-73 -80 -73 -209q0 -128 73 -209t188 -81zM1632 -475v2056h307v-686h5q130 131 334 131t345 -148t141 -383t-144 -382t-346 -147t-330 132h-5v-573h-307zM881 0v1171q0 203 128 324t343 121q84 0 147 -19
v-251q-45 10 -84 10q-107 0 -167 -50t-60 -139v-174h311v-248h-311v-745h-307zM129 0v1171q0 203 128 324t343 121q84 0 148 -19v-251q-45 10 -84 10q-106 0 -166 -50t-62 -139v-174h312v-248h-312v-745h-307z" />
    <glyph glyph-name="f_h.ss08" horiz-adv-x="2050" 
d="M881 0v1581h307v-684h4q124 129 314 129t312 -127t121 -326v-573h-309v532q0 104 -58 168t-158 64t-164 -60q-62 -60 -62 -161v-543h-307zM129 0v1171q0 203 128 324t343 121q84 0 148 -19v-251q-45 10 -84 10q-106 0 -166 -50t-62 -139v-174h312v-248h-312v-745h-307z
" />
    <glyph glyph-name="f_j.ss08" horiz-adv-x="1323" 
d="M688 -510v248l25 4q94 12 134 49t40 133v1069h309v-1036q0 -243 -111 -355t-344 -112h-53zM883 1300v281h315v-281h-315zM129 0v1171q0 203 128 324t343 121q84 0 148 -19v-251q-45 10 -84 10q-106 0 -166 -50t-62 -139v-174h312v-248h-312v-745h-307z" />
    <glyph glyph-name="f_k.ss08" horiz-adv-x="2037" 
d="M881 0v1581h307v-1085l422 497h350l-420 -497l481 -496h-385l-448 461v-461h-307zM129 0v1171q0 203 128 324t343 121q84 0 148 -19v-251q-45 10 -84 10q-106 0 -166 -50t-62 -139v-174h312v-248h-312v-745h-307z" />
    <glyph glyph-name="f_thorn.ss08" horiz-adv-x="2091" 
d="M1448 207q114 0 188 81t74 209t-74 209q-74 80 -188 80t-188 -80q-72 -80 -72 -209q0 -128 72 -209t188 -81zM881 -475v2056h307v-686h4q130 131 334 131t346 -148t141 -383q0 -235 -144 -382t-346 -147t-331 132h-4v-573h-307zM129 0v1171q0 203 128 324t343 121
q84 0 148 -19v-251q-45 10 -84 10q-106 0 -166 -50t-62 -139v-174h312v-248h-312v-745h-307z" />
    <glyph glyph-name="fi.ss08" horiz-adv-x="1316" 
d="M881 0v993h307v-993h-307zM877 1300v281h315v-281h-315zM129 0v1171q0 203 128 324t343 121q84 0 148 -19v-251q-45 10 -84 10q-106 0 -166 -50t-62 -139v-174h312v-248h-312v-745h-307z" />
    <glyph glyph-name="fl.ss08" horiz-adv-x="1316" 
d="M881 0v1581h307v-1581h-307zM129 0v1171q0 203 128 324t343 121q84 0 148 -19v-251q-45 10 -84 10q-106 0 -166 -50t-62 -139v-174h312v-248h-312v-745h-307z" />
    <glyph glyph-name="zero.closecirc" horiz-adv-x="1777" 
d="M1044 643q0 -78 -42 -125t-112 -47q-71 0 -114 47t-43 125v148q0 79 43 125t114 46q70 0 112 -46q42 -48 42 -125v-148zM889 281q170 0 274 99t105 263v148q0 164 -104 263t-275 99q-169 0 -273 -99t-104 -263v-148q0 -164 104 -263t273 -99zM889 -33q-348 0 -570 210
q-221 210 -221 540q0 329 221 539t569 210t571 -210q222 -210 222 -540t-222 -539q-222 -210 -570 -210z" />
    <glyph glyph-name="zero.opencirc" horiz-adv-x="1777" 
d="M890 471q70 0 112 47t42 125v148q0 79 -42 125t-112 46t-114 -46q-43 -48 -43 -125v-148q0 -78 43 -125t114 -47zM889 281q-170 0 -274 99q-103 99 -103 263v148q0 164 103 263t273 99t275 -99q104 -99 105 -263v-148q0 -164 -104 -263t-275 -99zM889 115q272 0 447 169
t175 433t-175 433t-447 169q-271 0 -447 -169t-176 -433t176 -433t447 -169zM889 -33q-348 0 -570 210q-221 210 -221 540q0 329 221 539t569 210t571 -210q222 -210 222 -540t-222 -539q-222 -210 -570 -210z" />
    <glyph glyph-name="zero.osf" horiz-adv-x="1212" 
d="M606 223q106 0 172 65t66 171v178q0 106 -65 171q-65 64 -173 64t-174 -64q-64 -64 -63 -171v-178q-1 -106 65 -171t172 -65zM1133 455q1 -219 -145 -353t-383 -133q-237 0 -381 133t-144 353v188q0 217 144 350t381 133t382 -133t146 -350v-188z" />
    <glyph glyph-name="one.osf" horiz-adv-x="792" 
d="M367 0v850h-357v262h670v-1112h-313z" />
    <glyph glyph-name="two.osf" horiz-adv-x="1218" 
d="M100 0v156l469 301q215 127 215 243q0 72 -53 117t-146 45t-151 -56t-65 -140h-301q12 215 157 338q145 122 375 122t367 -114t137 -297q0 -184 -221 -340l-185 -127l432 -2v-246h-1030z" />
    <glyph glyph-name="three.osf" horiz-adv-x="1226" 
d="M1161 115q0 -193 -147 -312t-385 -119q-237 0 -387 112q-150 110 -170 310h297q17 -78 81 -126t174 -50q110 0 176 52t64 135q0 82 -70 133q-71 51 -184 51h-174v227h2l299 324h-600v260h983v-215l-352 -381q182 -33 288 -139t105 -262z" />
    <glyph glyph-name="four.osf" horiz-adv-x="1402" 
d="M831 231v666l-413 -666h413zM1331 231v-254h-196v-260h-304v260h-759v195l579 940h484v-881h196z" />
    <glyph glyph-name="five.osf" horiz-adv-x="1300" 
d="M700 614q216 0 362 -124t146 -330t-154 -338q-154 -133 -397 -133q-243 1 -397 115t-182 315h303q20 -78 91 -131q72 -54 186 -54t186 62t72 160q0 100 -74 157t-197 57t-215 -65l-244 103l117 704h813v-260h-575l-45 -272q95 34 204 34z" />
    <glyph glyph-name="six.osf" horiz-adv-x="1347" 
d="M676 209q125 0 203 72q77 73 77 185t-78 182t-202 69q-125 0 -204 -71q-79 -72 -79 -184t79 -182t204 -71zM1260 471q0 -223 -161 -363t-423 -140t-424 138q-162 139 -162 365q0 147 125 336l399 584h365l-287 -420h4q254 -1 409 -139t155 -361z" />
    <glyph glyph-name="seven.osf" horiz-adv-x="1120" 
d="M20 1110h1061v-172l-592 -1225h-350l549 1125h-668v272z" />
    <glyph glyph-name="eight.osf" horiz-adv-x="1353" 
d="M677 207q117 0 187 57q70 56 70 154t-71 158t-187 61q-116 0 -186 -60q-70 -61 -70 -157t70 -155q71 -58 187 -58zM677 834q103 0 168 56t65 145t-65 143q-65 53 -168 53t-168 -53q-65 -52 -65 -142t65 -146t168 -56zM1266 395q0 -193 -162 -311t-427 -117
q-265 0 -427 118t-162 310q0 119 66 212t184 149q-188 104 -188 292t144 298q144 108 381 108t382 -110t145 -298t-188 -290q252 -115 252 -361z" />
    <glyph glyph-name="nine.osf" horiz-adv-x="1347" 
d="M672 377q125 1 204 71t78 183q0 113 -78 183t-204 71q-125 0 -203 -72q-78 -73 -78 -185t78 -182t203 -69zM672 1126q262 0 424 -139t161 -364q0 -150 -124 -336l-400 -584h-362l284 420h-4q-255 2 -409 139t-154 360q0 224 161 364t423 140z" />
    <glyph glyph-name="zero.osf.zero" horiz-adv-x="1212" 
d="M844 459v198l-398 -381q62 -53 164 -53t168 65t66 171zM594 872q-98 0 -162 -64t-63 -171v-174l383 368q-60 41 -158 41zM605 1126q237 0 382 -133t146 -350v-188q1 -219 -145 -353t-383 -133q-237 0 -381 133t-144 353v188q0 217 144 350t381 133z" />
    <glyph glyph-name="zero.tf" 
d="M989 543v348q0 139 -84 225t-221 86t-221 -86t-84 -225v-348q0 -139 84 -225t221 -87q137 1 221 87t84 225zM72 891q0 259 168 417t443 158t444 -158t169 -417v-348q0 -260 -169 -418t-444 -158t-443 158t-168 418v348z" />
    <glyph glyph-name="one.tf" 
d="M143 0v246h445v928h-357v260h670v-1188h381v-246h-1139z" />
    <glyph glyph-name="two.tf" 
d="M182 0v147l592 674q96 113 96 202t-54 134t-146 45t-148 -52t-67 -140h-310q15 212 155 334t376 122t378 -115q142 -116 142 -296t-160 -365l-387 -444h561v-246h-1028z" />
    <glyph glyph-name="three.tf" 
d="M1229 403q1 -197 -147 -317t-386 -119q-238 0 -390 113q-153 113 -173 311h301q20 -78 86 -128t174 -50t172 52q66 52 66 141q0 88 -71 146t-187 58h-189v228l303 336h-604v260h985v-217l-350 -390q190 -31 300 -145t110 -279z" />
    <glyph glyph-name="four.tf" 
d="M801 516v694l-414 -694h414zM801 0v262h-754v193l578 979h481v-918h201v-254h-201v-262h-305z" />
    <glyph glyph-name="five.tf" 
d="M711 903q219 0 364 -126q145 -125 145 -331t-155 -342q-157 -136 -397 -137q-240 0 -396 117t-182 313h305q23 -84 93 -134t184 -50t186 63q72 64 72 164t-75 160t-199 59q-124 0 -218 -69l-239 108l123 736h813v-260h-576l-51 -300q94 29 203 29z" />
    <glyph glyph-name="six.tf" 
d="M399 464q0 -114 79 -184t205 -71q126 0 204 72q78 71 78 185t-78 186t-204 71q-126 0 -205 -72q-79 -73 -79 -187zM1268 471q0 -223 -161 -363t-423 -140t-423 138q-161 139 -161 367q0 147 125 334l430 627h363l-318 -465h7q253 -7 407 -141t154 -357z" />
    <glyph glyph-name="seven.tf" 
d="M158 1434h1061v-172l-607 -1262h-350l563 1161h-667v273z" />
    <glyph glyph-name="eight.tf" 
d="M683 207q115 0 187 59q72 60 72 158t-72 158t-188 61q-116 0 -186 -60q-70 -61 -70 -159t70 -158t187 -59zM684 842q104 0 168 57q63 57 63 147t-63 144q-64 53 -168 53t-168 -53t-63 -143q0 -90 63 -148q64 -57 168 -57zM1272 395q0 -193 -162 -311t-427 -117
q-265 0 -427 118t-162 310q0 121 66 215t184 150q-188 102 -188 311q0 178 145 287q145 108 382 108t382 -110t145 -287q0 -207 -186 -309q120 -56 184 -150t64 -215z" />
    <glyph glyph-name="nine.tf" 
d="M403 968q0 -114 78 -186t204 -71q126 -1 205 71t79 186t-79 186t-205 71q-126 0 -204 -72q-78 -71 -78 -185zM684 1466q262 0 423 -139t161 -366q0 -147 -125 -334l-430 -627h-365l320 465h-2q-248 0 -407 135t-159 360q0 226 161 366t423 140z" />
    <glyph glyph-name="zero.tf.zero" 
d="M989 543v348q0 23 -2 33l-471 -650q72 -43 168 -43q137 1 221 87t84 225zM379 891v-348q0 -25 2 -37l473 651q-74 45 -170 45q-137 0 -221 -86t-84 -225zM72 891q0 259 168 417t443 158t444 -158t169 -417v-348q0 -260 -169 -418t-444 -158t-443 158t-168 418v348z" />
    <glyph glyph-name="zero.tosf" 
d="M684 223q106 0 172 65t66 171v178q0 106 -66 171q-66 64 -174 64t-172 -64t-64 -171v-178q0 -106 66 -171t172 -65zM1210 455q0 -219 -145 -353t-382 -133q-237 0 -381 133t-144 353v188q0 217 144 350t381 133t382 -133t145 -350v-188z" />
    <glyph glyph-name="one.tosf" 
d="M162 0v246h422v604h-357v260h670v-864h371v-246h-1106z" />
    <glyph glyph-name="two.tosf" 
d="M186 0v156l469 301q217 127 217 243q0 72 -54 117t-147 45t-151 -56t-65 -140h-301q12 215 157 338q145 122 375 122t367 -114t137 -297q0 -184 -221 -340l-185 -127l433 -2v-246h-1031z" />
    <glyph glyph-name="three.tosf" 
d="M930 117q0 82 -71 133t-185 51h-172v227h2l297 324h-598v260h983v-215l-352 -381q182 -33 287 -139t106 -262q1 -193 -147 -312t-386 -119t-388 112q-150 110 -169 310h297q18 -78 82 -126t173 -50q109 0 175 52t66 135z" />
    <glyph glyph-name="four.tosf" 
d="M801 231v666l-404 -666h404zM1300 231v-254h-196v-260h-303v260h-750v195l570 940h483v-881h196z" />
    <glyph glyph-name="five.tosf" 
d="M737 614q215 0 361 -124t147 -330q-1 -206 -155 -338q-154 -133 -396 -133q-242 1 -396 115t-185 315h305q20 -78 91 -131q71 -54 185 -54t187 62q71 62 71 160q0 100 -73 157q-74 57 -197 57t-215 -65l-244 103l117 704h813v-260h-578l-45 -272q96 34 207 34z" />
    <glyph glyph-name="six.tosf" 
d="M401 462q0 -112 79 -182t205 -71q126 0 203 71q77 70 77 184t-77 184t-203 69q-126 0 -205 -71q-79 -72 -79 -184zM1270 471q0 -223 -162 -363t-423 -140t-424 138q-163 139 -163 365q0 147 125 336l402 584h362l-285 -420h5q251 -5 407 -141t156 -359z" />
    <glyph glyph-name="seven.tosf" 
d="M141 1110h1061v-172l-592 -1225h-348l547 1125h-668v272z" />
    <glyph glyph-name="eight.tosf" 
d="M683 207q115 0 187 58q72 59 72 155t-72 156t-188 61q-116 0 -186 -60q-70 -59 -70 -157t70 -156t187 -57zM684 834q104 0 168 56q63 56 63 145t-63 143q-64 54 -168 53q-104 0 -168 -53q-64 -52 -63 -142q-1 -90 63 -146t168 -56zM1272 395q0 -193 -162 -311t-427 -117
q-265 0 -427 118t-162 310q0 121 67 213t185 148q-190 102 -190 292t145 298t382 108t382 -110t145 -296q0 -188 -188 -292q250 -115 250 -361z" />
    <glyph glyph-name="nine.tosf" 
d="M401 628q0 -112 78 -182t204 -69t204 71t78 183t-79 183t-204 71q-125 0 -203 -72q-78 -73 -78 -185zM682 1126q262 0 425 -139t163 -364q0 -152 -127 -336l-400 -584h-362l285 420h-4q-252 4 -408 140t-156 359q0 224 161 364t423 140z" />
    <glyph glyph-name="zero.tosf.zero" 
d="M922 459v198l-398 -381q62 -53 164 -53t168 65t66 171zM672 872q-98 0 -162 -64t-64 -171v-174l383 368q-59 41 -157 41zM683 1126q237 0 382 -133t145 -350v-188q0 -219 -145 -353t-382 -133q-237 0 -381 133t-144 353v188q0 217 144 350t381 133z" />
    <glyph glyph-name="zero.zero" horiz-adv-x="1419" 
d="M1016 543v348q0 23 -2 33l-471 -650q72 -43 168 -43q137 1 221 87t84 225zM403 891v-348q0 -27 3 -39l475 653q-74 45 -170 45q-137 0 -223 -86t-85 -225zM710 1466q275 0 444 -158t169 -417v-348q0 -260 -169 -418t-444 -158t-444 158q-168 158 -168 418v348
q0 260 168 418q169 157 444 157z" />
    <glyph glyph-name="zero.dnom" horiz-adv-x="864" 
d="M588 344v148q0 78 -43 126t-113 48t-113 -48t-43 -126v-148q0 -76 43 -124t113 -48t113 48t43 124zM432 854q170 0 274 -99t105 -263v-148q0 -164 -104 -263q-105 -99 -275 -99t-274 99t-105 263v148q1 164 105 263t274 99z" />
    <glyph glyph-name="one.dnom" horiz-adv-x="538" 
d="M250 0v645h-213v182h428v-827h-215z" />
    <glyph glyph-name="two.dnom" horiz-adv-x="792" 
d="M78 2v104l319 334q95 90 95 134q1 87 -98 88q-99 0 -113 -101h-207q8 129 99 209t232 80t231 -70t89 -178q0 -108 -129 -246l-166 -178h303v-176h-655z" />
    <glyph glyph-name="three.dnom" horiz-adv-x="827" 
d="M418 158q53 0 86 26t33 66q0 42 -34 68t-95 26h-105v143l150 158h-340v182h622v-149l-188 -199q96 -29 150 -90t55 -145q0 -117 -94 -190q-94 -72 -241 -72q-148 0 -243 72q-94 73 -111 192h220q20 -88 135 -88z" />
    <glyph glyph-name="four.dnom" horiz-adv-x="897" 
d="M514 328v297l-219 -297h219zM842 328v-183h-111v-145h-217v145h-457v144l389 538h285v-499h111z" />
    <glyph glyph-name="five.dnom" horiz-adv-x="843" 
d="M446 539q140 0 228 -75t88 -200t-94 -204q-94 -78 -248 -78t-249 72t-103 186h215q12 -37 51 -60q39 -22 92 -22t90 30t37 76q0 47 -35 76q-36 29 -102 29t-105 -41l-180 49l47 450h539v-182h-350l-15 -121q43 15 94 15z" />
    <glyph glyph-name="six.dnom" horiz-adv-x="837" 
d="M420 154q66 0 106 34t39 94q0 58 -40 93q-39 35 -105 35t-106 -35t-40 -93t40 -93t106 -35zM780 282q0 -132 -98 -216t-260 -84t-263 84t-102 210q0 86 88 224l222 327h260l-170 -243q147 -10 235 -90t88 -212z" />
    <glyph glyph-name="seven.dnom" horiz-adv-x="735" 
d="M37 633v194h661v-125l-346 -702h-254l318 633h-379z" />
    <glyph glyph-name="eight.dnom" horiz-adv-x="868" 
d="M434 152q57 0 92 28t35 74q0 45 -35 72q-35 26 -92 26t-92 -26t-35 -72t35 -74t92 -28zM434 496q51 0 84 26t33 69t-33 69t-84 26t-84 -27t-33 -69t33 -68t84 -26zM434 -18q-166 0 -265 70t-99 192q0 123 135 192q-101 61 -101 169q0 109 90 175t240 66t240 -67t90 -174
t-100 -169q135 -70 135 -192q1 -122 -99 -192t-266 -70z" />
    <glyph glyph-name="nine.dnom" horiz-adv-x="837" 
d="M418 420q66 0 106 35t39 93q0 58 -40 93q-39 35 -105 35t-106 -35t-40 -92t40 -93t106 -36zM416 848q162 0 263 -84t101 -213q0 -92 -88 -221l-221 -330h-260l170 246q-145 8 -235 89q-89 81 -89 213q1 132 99 216t260 84z" />
    <glyph glyph-name="zero.numr" horiz-adv-x="864" 
d="M588 948v148q0 78 -43 126t-113 48t-113 -48t-43 -126v-148q0 -76 43 -124t113 -48t113 48t43 124zM432 1458q170 0 274 -99t105 -263v-148q0 -164 -104 -263q-105 -99 -275 -99t-274 99t-105 263v148q1 164 105 263t274 99z" />
    <glyph glyph-name="one.numr" horiz-adv-x="538" 
d="M250 614v646h-213v182h428v-828h-215z" />
    <glyph glyph-name="two.numr" horiz-adv-x="792" 
d="M78 614v105l319 334q95 90 95 134q1 87 -98 87t-113 -100h-207q8 128 99 208t232 80t231 -69q89 -71 89 -179t-129 -245l-166 -178h303v-177h-655z" />
    <glyph glyph-name="three.numr" horiz-adv-x="827" 
d="M417 596q-148 0 -243 72q-94 72 -111 192h220q8 -38 43 -64t90 -26t88 27t33 67t-34 68q-34 27 -95 26h-105v144l150 158h-340v182h622v-150l-188 -198q96 -29 150 -90t55 -146q0 -118 -94 -190t-241 -72z" />
    <glyph glyph-name="four.numr" horiz-adv-x="897" 
d="M514 942v297l-219 -297h219zM842 942v-182h-111v-146h-217v146h-457v143l389 539h285v-500h111z" />
    <glyph glyph-name="five.numr" horiz-adv-x="843" 
d="M446 1153q140 0 228 -75q88 -74 88 -200t-94 -204t-248 -78t-249 72t-103 184h215q12 -36 50 -58t92 -22t91 30t37 77t-35 75q-34 28 -100 29q-66 0 -107 -41l-180 49l47 451h539v-182h-350l-15 -121q43 14 94 14z" />
    <glyph glyph-name="six.numr" horiz-adv-x="837" 
d="M420 768q66 0 106 35t39 92q0 57 -40 93q-39 36 -105 36t-106 -36t-40 -93t40 -92t106 -35zM780 896q0 -132 -98 -216t-260 -84t-263 83t-102 212q0 86 88 223l222 328h260l-170 -246q147 -6 235 -87t88 -213z" />
    <glyph glyph-name="seven.numr" horiz-adv-x="735" 
d="M37 1247v195h661v-125l-346 -703h-254l318 633h-379z" />
    <glyph glyph-name="eight.numr" horiz-adv-x="868" 
d="M434 766q57 0 92 28t35 72t-35 73q-35 28 -92 28t-92 -28t-35 -73q0 -44 35 -72t92 -28zM434 1110q51 0 84 27t33 69t-33 68t-84 26t-84 -26t-33 -69t33 -69t84 -26zM434 596q-166 0 -265 70t-99 192t135 193q-101 61 -101 169t90 174t240 66t240 -66t90 -174
q0 -107 -100 -169q135 -70 135 -193q1 -122 -99 -192t-266 -70z" />
    <glyph glyph-name="nine.numr" horiz-adv-x="837" 
d="M418 1030q66 0 106 35t39 93q0 58 -40 93t-104 35q-63 0 -105 -35t-42 -92t40 -93t106 -36zM416 1458q162 0 263 -83t101 -212q0 -86 -88 -223l-221 -328h-260l170 246q-145 6 -235 87q-89 81 -89 213q1 132 99 216t260 84z" />
    <glyph glyph-name="exclamdown.case" horiz-adv-x="600" 
d="M141 16v394l23 575h272l25 -575v-394h-320zM129 1128v322h342v-322h-342z" />
    <glyph glyph-name="questiondown.case" horiz-adv-x="1177" 
d="M379 400q0 -78 60 -132q61 -54 157 -55q96 0 157 48q60 48 70 126h303q-16 -193 -159 -307t-367 -113q-224 0 -368 121q-142 121 -142 315q0 105 45 185t110 125t129 82t108 79q42 42 40 93h252q4 -105 -35 -179t-97 -112t-118 -69q-60 -32 -103 -80q-42 -49 -42 -127z
M819 1112h-342v322h342v-322z" />
    <glyph glyph-name="braceleft.case" horiz-adv-x="780" 
d="M238 455q0 73 -29 99t-115 32l-37 4v227l37 2q86 8 115 35t29 98v185q0 174 124 277q125 103 355 110v-271q-172 -10 -172 -133v-190q0 -100 -36 -150t-128 -78q92 -28 128 -76t36 -151v-190q0 -123 172 -133v-271q-229 5 -355 109t-124 278v187z" />
    <glyph glyph-name="braceright.case" horiz-adv-x="780" 
d="M236 475q0 102 35 152q36 49 128 75q-92 29 -128 78t-35 150v190q0 123 -173 133l3 271q229 -6 353 -110t124 -277v-185q1 -72 29 -98t114 -35l39 -2v-227l-39 -4q-86 -6 -115 -33t-28 -98v-187q0 -174 -124 -278t-353 -109l-3 271q172 10 173 133v190z" />
    <glyph glyph-name="bracketleft.case" horiz-adv-x="815" 
d="M135 -98v1593h617v-272h-312v-1047h312v-274h-617z" />
    <glyph glyph-name="bracketright.case" horiz-adv-x="815" 
d="M63 -98v274h314v1047h-314v272h617v-1593h-617z" />
    <glyph glyph-name="parenleft.case" horiz-adv-x="782" 
d="M428 705q0 -179 69 -313t236 -298l-209 -186q-223 188 -324 374t-102 423q0 237 102 423t324 373l209 -186q-169 -164 -237 -297t-68 -313z" />
    <glyph glyph-name="parenright.case" horiz-adv-x="782" 
d="M684 704q0 -238 -102 -422q-102 -186 -324 -374l-209 186q168 164 237 297q68 133 68 313t-68 314q-69 133 -237 297l209 186q222 -187 324 -373t102 -424z" />
    <glyph glyph-name="emdash.case" horiz-adv-x="2238" 
d="M193 537v280h1853v-280h-1853z" />
    <glyph glyph-name="endash.case" horiz-adv-x="1464" 
d="M193 537v280h1079v-280h-1079z" />
    <glyph glyph-name="hyphen.case" horiz-adv-x="1153" 
d="M193 535v280h770v-280h-770z" />
    <glyph glyph-name="guillemotleft.case" horiz-adv-x="1005" 
d="M952 1001l-211 -323l211 -324h-276l-199 303v41l199 303h276zM530 1001l-211 -323l211 -324h-276l-201 303v41l201 303h276z" />
    <glyph glyph-name="guillemotright.case" horiz-adv-x="1005" 
d="M477 1001h275l200 -303v-41l-200 -303h-275l209 324zM53 1001h277l200 -303v-41l-200 -303h-277l211 324z" />
    <glyph glyph-name="guilsinglleft.case" horiz-adv-x="583" 
d="M530 1001l-211 -323l211 -324h-276l-201 303v41l201 303h276z" />
    <glyph glyph-name="guilsinglright.case" horiz-adv-x="583" 
d="M53 1001h277l200 -303v-41l-200 -303h-277l211 324z" />
    <glyph glyph-name="cent.osf" horiz-adv-x="1245" 
d="M631 778q-109 0 -183 -78t-73 -204q-1 -126 73 -204q74 -77 182 -77t169 46q59 46 75 118h291q-17 -156 -121 -261t-268 -138v-218h-254v215q-202 33 -322 171t-120 348t120 348q120 139 322 172v235h254v-237q162 -33 266 -138t123 -262h-291q-16 72 -75 118t-168 46z
" />
    <glyph glyph-name="dollar.osf" horiz-adv-x="1443" 
d="M494 1043q0 -143 224 -180t400 -102q94 -36 156 -124t63 -223q0 -174 -125 -291t-335 -146v-217h-254v215q-231 29 -376 156q-144 127 -165 326h321q19 -100 109 -165t220 -65t198 44q68 43 68 111q-1 122 -170 165q-74 19 -164 33q-209 34 -348 109q-75 42 -121 127
q-47 85 -48 206q0 180 129 299t347 141v215h254v-225q195 -37 321 -153t139 -283h-323q-18 88 -87 142t-184 54t-182 -46t-67 -123z" />
    <glyph glyph-name="Euro.osf" horiz-adv-x="1845" 
d="M1022 254q148 0 252 82t143 225h332q-43 -272 -244 -432t-489 -160q-288 -1 -485 139q-198 140 -265 379h-192v168h164q-2 21 -2 63t2 62h-164v166h190q68 242 265 381q198 139 487 139q290 0 490 -160t243 -432h-332q-39 144 -142 226t-251 82t-254 -62
q-104 -62 -158 -174h535l-35 -166h-545q-4 -40 -4 -62t4 -63h516l-36 -168h-435q55 -111 159 -172q103 -61 251 -61z" />
    <glyph glyph-name="florin.osf" horiz-adv-x="1249" 
d="M972 1202q-68 0 -117 -46q-50 -46 -64 -130l-37 -246h346v-233h-379l-53 -354q-31 -215 -147 -327t-302 -112q-129 0 -262 35l43 248q139 -18 164 -19q80 0 129 48t61 129l52 352h-267v233h301l37 248q31 215 147 327t302 111q127 0 262 -36l-43 -252q-105 24 -173 24z
" />
    <glyph glyph-name="sterling.osf" horiz-adv-x="1355" 
d="M80 0v252h129v305h-129v231h129v187q0 223 152 357q153 134 387 134t385 -118q152 -118 159 -316h-305q-53 182 -235 182q-104 0 -171 -66t-67 -173v-187h420v-231h-420v-305h752v-252h-1186z" />
    <glyph glyph-name="yen.osf" horiz-adv-x="1531" 
d="M1317 627v-193h-389v-96h389v-193h-389v-145h-324v145h-389v193h389v96h-389v193h283l-482 807h357l391 -668l395 668h357l-482 -807h283z" />
    <glyph glyph-name="cent.tf" 
d="M584 -238v215q-203 33 -323 171t-120 348t120 348q120 139 323 172v235h254v-237q162 -33 266 -138t123 -262h-291q-16 72 -76 118t-168 46t-182 -78t-74 -204t74 -204q74 -77 182 -77t168 46q59 46 76 118h291q-19 -156 -123 -262t-266 -137v-218h-254z" />
    <glyph glyph-name="dollar.tf" 
d="M712 1212q-114 0 -182 -46t-67 -123q0 -143 226 -180t398 -102q95 -36 157 -124t63 -223q0 -174 -125 -291t-336 -146v-217h-254v215q-231 29 -376 156q-144 127 -165 326h320q20 -100 110 -165q89 -65 219 -65t198 44q68 43 69 111q0 122 -169 165q-75 19 -166 33
q-206 33 -346 109q-75 42 -122 127t-47 206q0 180 129 299t346 141v215h254v-225q194 -37 320 -153t141 -283h-324q-18 88 -87 142q-70 54 -184 54z" />
    <glyph glyph-name="Euro.tf" 
d="M786 231q154 0 222 97h346q-133 -360 -568 -361q-242 1 -412 141t-229 379h-116v168h92q-2 21 -2 63t2 62h-92v166h116q57 240 229 380t412 140q434 0 568 -360h-346q-68 96 -222 96q-112 0 -196 -68t-125 -188h530l-37 -166h-528q-2 -20 -2 -62t2 -63h500l-35 -168h-430
q41 -119 125 -187t196 -69z" />
    <glyph glyph-name="florin.tf" 
d="M1084 1202q-68 0 -118 -46t-65 -130l-37 -246h346v-233h-379l-53 -354q-30 -215 -146 -327t-302 -112q-129 0 -262 35l43 248q139 -18 163 -19q80 0 129 48t62 129l51 352h-266v233h301l37 248q31 215 146 327q116 112 302 111q127 0 262 -36l-43 -252q-103 24 -171 24z
" />
    <glyph glyph-name="sterling.tf" 
d="M78 0v252h131v305h-131v231h131v187q0 223 152 357q153 134 385 134t384 -118t162 -316h-305q-53 182 -235 182q-106 0 -172 -66t-66 -173v-187h420v-231h-420v-305h752v-252h-1188z" />
    <glyph glyph-name="yen.tf" 
d="M1235 627v-193h-389v-96h389v-193h-389v-145h-324v145h-391v193h391v96h-391v193h297l-422 807h356l320 -668l322 668h356l-422 -807h297z" />
    <glyph glyph-name="cent.tosf" 
d="M584 -238v215q-203 33 -323 171t-120 348t120 348q120 139 323 172v235h254v-237q162 -33 266 -138t123 -262h-291q-16 72 -76 118t-168 46t-182 -78t-74 -204t74 -204q74 -77 182 -77t168 46q59 46 76 118h291q-19 -156 -123 -262t-266 -137v-218h-254z" />
    <glyph glyph-name="dollar.tosf" 
d="M712 1212q-114 0 -182 -46t-67 -123q0 -143 226 -180t398 -102q95 -36 157 -124t63 -223q0 -174 -125 -291t-336 -146v-217h-254v215q-231 29 -376 156q-144 127 -165 326h320q20 -100 110 -165q89 -65 219 -65t198 44q68 43 69 111q0 122 -169 165q-75 19 -166 33
q-206 33 -346 109q-75 42 -122 127t-47 206q0 180 129 299t346 141v215h254v-225q194 -37 320 -153t141 -283h-324q-18 88 -87 142q-70 54 -184 54z" />
    <glyph glyph-name="Euro.tosf" 
d="M786 231q154 0 222 97h346q-133 -360 -568 -361q-242 1 -412 141t-229 379h-116v168h92q-2 21 -2 63t2 62h-92v166h116q57 240 229 380t412 140q434 0 568 -360h-346q-68 96 -222 96q-112 0 -196 -68t-125 -188h530l-37 -166h-528q-2 -20 -2 -62t2 -63h500l-35 -168h-430
q41 -119 125 -187t196 -69z" />
    <glyph glyph-name="florin.tosf" 
d="M1084 1202q-68 0 -118 -46t-65 -130l-37 -246h346v-233h-379l-53 -354q-30 -215 -146 -327t-302 -112q-129 0 -262 35l43 248q139 -18 163 -19q80 0 129 48t62 129l51 352h-266v233h301l37 248q31 215 146 327q116 112 302 111q127 0 262 -36l-43 -252q-103 24 -171 24z
" />
    <glyph glyph-name="sterling.tosf" 
d="M78 0v252h131v305h-131v231h131v187q0 223 152 357q153 134 385 134t384 -118t162 -316h-305q-53 182 -235 182q-106 0 -172 -66t-66 -173v-187h420v-231h-420v-305h752v-252h-1188z" />
    <glyph glyph-name="yen.tosf" 
d="M1235 627v-193h-389v-96h389v-193h-389v-145h-324v145h-391v193h391v96h-391v193h297l-422 807h356l320 -668l322 668h356l-422 -807h297z" />
    <glyph glyph-name="at.case" horiz-adv-x="2138" 
d="M1055 463q96 0 152 60q57 59 57 157t-56 158t-153 61q-95 0 -157 -61q-62 -62 -62 -158t61 -157q62 -60 158 -60zM1077 -190q-408 0 -682 250t-274 623q0 374 277 624q278 249 694 249t672 -227t255 -600q0 -215 -106 -347t-279 -132q-98 0 -182 42t-123 111
q-49 -71 -138 -111t-185 -40q-193 0 -314 120t-121 309t121 309t314 120q74 0 146 -28t112 -68h4v69h258v-489q0 -156 119 -156q75 0 121 79t46 210q0 289 -198 467q-200 178 -524 178t-541 -198t-217 -491q0 -294 213 -492t530 -197q248 0 479 153l107 -165
q-267 -172 -584 -172z" />
    <glyph glyph-name="caron.alt" horiz-adv-x="503" 
d="M102 1069l13 412h286l-82 -412h-217z" />
    <glyph glyph-name="acute.cap" horiz-adv-x="700" 
d="M109 1571l-7 8l170 317h326l-221 -325h-268z" />
    <glyph glyph-name="breve.cap" horiz-adv-x="921" 
d="M461 1571q-164 0 -257 92t-102 240h213q17 -143 145 -143t146 143h213q-8 -147 -101 -239t-257 -93z" />
    <glyph glyph-name="caron.cap" horiz-adv-x="1001" 
d="M358 1565l-256 319h269l131 -147l129 147h268l-256 -319h-285z" />
    <glyph glyph-name="circumflex.cap" horiz-adv-x="1001" 
d="M102 1565l256 319h285l256 -319h-268l-129 147l-131 -147h-269z" />
    <glyph glyph-name="dieresis.cap" horiz-adv-x="1007" 
d="M567 1583v313h338v-313h-338zM102 1583v313h336v-313h-336z" />
    <glyph glyph-name="dotaccent.cap" horiz-adv-x="540" 
d="M102 1896h336v-313h-336v313z" />
    <glyph glyph-name="grave.cap" horiz-adv-x="700" 
d="M592 1571h-268l-222 325h326l170 -317z" />
    <glyph glyph-name="hungarumlaut.cap" horiz-adv-x="950" 
d="M446 1579l-6 8l127 318h281l-168 -326h-234zM106 1579l-4 8l125 318h283l-170 -326h-234z" />
    <glyph glyph-name="macron.cap" horiz-adv-x="823" 
d="M102 1585v225h619v-225h-619z" />
    <glyph glyph-name="ring.cap" horiz-adv-x="716" 
d="M359 1907q-45 0 -73 -26t-28 -68q0 -43 28 -69t73 -26q44 0 72 27t28 69t-28 67q-28 26 -72 26zM102 1812q0 102 72 164t186 64q114 0 185 -62q69 -62 69 -166q0 -102 -70 -164t-185 -63q-113 1 -185 63t-72 164z" />
    <glyph glyph-name="tilde.cap" horiz-adv-x="1009" 
d="M653 1569q-78 0 -163 48t-105 48q-45 0 -59 -66h-224q6 127 73 205t185 78q82 0 166 -48t105 -48q43 0 55 67h221q3 -123 -67 -203t-187 -81z" />
    <glyph glyph-name="IJacute" horiz-adv-x="1916" 
d="M1221.5 -33q-265.5 0 -420 132t-174.5 372h317q37 -227 275 -227q115 0 186.5 79.5t71.5 211.5v626h-639v273h964v-895q0 -272 -157.5 -422t-423 -150zM135 0v1434h322v-1434h-322zM1161 1575l-6 8l170 318h326l-221 -326h-269zM152 1575l-7 8l170 318h326l-221 -326
h-268z" />
    <glyph glyph-name="ijacute" horiz-adv-x="1136" 
d="M504 -510v248l24 4q94 12 134 49t40 131v1071h308v-1036q0 -242 -109.5 -354.5t-343.5 -112.5h-53zM129 0v993h307v-993h-307zM707 1157l-7 8l170 318h326l-221 -326h-268zM137 1157l-6 8l170 318h326l-221 -326h-269z" />
    <glyph glyph-name="ijacute.ss07" horiz-adv-x="1136" 
d="M702 -475v1468h308v-1468h-308zM129 0v993h307v-993h-307zM705 1157l-5 8l170 318h326l-221 -326h-270zM137 1157l-6 8l170 318h326l-221 -326h-269z" />
    </font>
</defs>
</svg>
