<?xml version="1.0" standalone="no"?>
<!DOCTYPE svg PUBLIC "-//W3C//DTD SVG 1.1//EN" "http://www.w3.org/Graphics/SVG/1.1/DTD/svg11.dtd" >
<svg xmlns="http://www.w3.org/2000/svg">
<metadata>
Created by FontPrep 20130207 at Thu Jul 13 16:37:40 2017
 By Lizzy Knight
Copyright (c) 2017 by Salvador Rodri'guez. All rights reserved.
</metadata>
<defs>
<font id="85b33659b914b2603d6d5c69f422b733" horiz-adv-x='1024' >
  <font-face 
    font-family="SonnyGothic-Book"
    font-weight="300"
    font-stretch="normal"
    units-per-em="2048"
    panose-1="0 0 4 0 0 0 0 0 0 0"
    ascent="1638"
    descent="-410"
    x-height="969"
    cap-height="1434"
    bbox="-367 -518 3144 2025"
    underline-thickness="102"
    underline-position="-102"
    unicode-range="U+0020-FB02"
  />
<missing-glyph horiz-adv-x="1447" 
d="M326 121h688l-688 1227v-1227zM1124 1393h-690l690 -1231v1231zM205 1513h1038v-1513h-1038v1513z" />
    <glyph glyph-name="fi" unicode="fi" horiz-adv-x="1318" 
d="M961 0v969h174v-969h-174zM956 1335v242h183v-242h-183zM258 0v827h-248v142h248v262q0 170 111 272t290 103q63 0 111 -13v-149q-47 10 -84 10q-118 0 -186 -60t-68 -163v-262h338v-142h-338v-827h-174z" />
    <glyph glyph-name="fl" unicode="fl" horiz-adv-x="1284" 
d="M942 0v1577h174v-1577h-174zM258 0v827h-248v142h248v262q0 170 111 272t290 103q63 0 111 -13v-149q-47 10 -84 10q-118 0 -186 -60t-68 -163v-262h338v-142h-338v-827h-174z" />
    <glyph glyph-name="f_f" unicode="ff" horiz-adv-x="1552" 
d="M1034 0v827h-248v142h248v262q0 170 111 272t291 103q63 0 110 -13v-149q-47 10 -84 10q-118 0 -186 -60t-68 -163v-262h338v-142h-338v-827h-174zM258 0v827h-248v142h248v262q0 170 111 272t290 103q63 0 111 -13v-149q-47 10 -84 10q-118 0 -186 -60t-68 -163v-262
h338v-142h-338v-827h-174z" />
    <glyph glyph-name="f_f_i" unicode="ffi" horiz-adv-x="2095" 
d="M1737 0v969h174v-969h-174zM1733 1335v242h182v-242h-182zM1034 0v827h-248v142h248v262q0 170 111 272t291 103q63 0 110 -13v-149q-47 10 -84 10q-118 0 -186 -60t-68 -163v-262h338v-142h-338v-827h-174zM258 0v827h-248v142h248v262q0 170 111 272t290 103
q63 0 111 -13v-149q-47 10 -84 10q-118 0 -186 -60t-68 -163v-262h338v-142h-338v-827h-174z" />
    <glyph glyph-name="f_f_l" unicode="ffl" horiz-adv-x="2060" 
d="M1718 0v1577h174v-1577h-174zM1034 0v827h-248v142h248v262q0 170 111 272t291 103q63 0 110 -13v-149q-47 10 -84 10q-118 0 -186 -60t-68 -163v-262h338v-142h-338v-827h-174zM258 0v827h-248v142h248v262q0 170 111 272t290 103q63 0 111 -13v-149q-47 10 -84 10
q-118 0 -186 -60t-68 -163v-262h338v-142h-338v-827h-174z" />
    <glyph glyph-name=".notdef" horiz-adv-x="1447" 
d="M326 121h688l-688 1227v-1227zM1124 1393h-690l690 -1231v1231zM205 1513h1038v-1513h-1038v1513z" />
    <glyph glyph-name=".null" horiz-adv-x="0" 
 />
    <glyph glyph-name="nonmarkingreturn" horiz-adv-x="681" 
 />
    <glyph glyph-name="space" unicode=" " horiz-adv-x="546" 
 />
    <glyph glyph-name="exclam" unicode="!" horiz-adv-x="552" 
d="M166 211h221v-211h-221v211zM186 1434h183v-371l-15 -670h-153l-15 670v371z" />
    <glyph glyph-name="quotedbl" unicode="&#x22;" horiz-adv-x="686" 
d="M430 1577h150v-176l-9 -391h-131l-10 391v176zM104 1577h150v-176l-8 -391h-131l-11 391v176z" />
    <glyph glyph-name="numbersign" unicode="#" horiz-adv-x="1609" 
d="M549 571h414l98 293h-416zM84 426v145h283l98 293h-260v148h307l139 422h183l-140 -422h414l139 422h183l-142 -422h240v-148h-287l-98 -293h262v-145h-311l-142 -426h-178l141 426h-417l-140 -426h-180l141 426h-235z" />
    <glyph glyph-name="dollar" unicode="$" horiz-adv-x="1411" 
d="M371 1063q0 -84 51 -137t132 -78t179 -41q245 -40 374 -99q81 -38 132 -117t51 -196q0 -173 -127 -285t-338 -135v-237h-157v235q-240 15 -386 141t-167 335h178q25 -152 139 -238t295 -86q180 0 279 70q98 70 98 176q0 105 -69 163t-171 76t-222 44t-222 58t-171 118
t-69 223q0 173 132 285t356 122v240h157v-244q199 -27 323 -133t144 -276h-182q-25 125 -123 197t-261 71t-259 -71t-96 -181z" />
    <glyph glyph-name="percent" unicode="%" horiz-adv-x="2342" 
d="M1749 96q125 0 202 76t77 192t-77 191q-77 76 -202 76t-203 -76t-78 -192q0 -115 78 -191t203 -76zM1749 -29q-182 1 -299 107t-117 284t117 286t299 108t299 -108t117 -286t-117 -284t-299 -107zM594 803q125 0 202 76q76 75 76 191t-76 192q-77 76 -202 76t-202 -76
t-77 -192t77 -192t202 -75zM602 0l1008 1434h131l-1006 -1434h-133zM594 678q-182 0 -299 108t-117 285q0 179 117 285t299 106t299 -106t117 -284t-117 -286t-299 -108z" />
    <glyph glyph-name="ampersand" unicode="&#x26;" horiz-adv-x="1429" 
d="M557 119q205 0 317 160l-395 374q-92 -47 -145 -121t-53 -153q0 -117 75 -189q76 -71 201 -71zM555 -29q-207 0 -332 112t-125 294q0 115 73 219t194 168l-7 6q-170 158 -170 324t117 267t311 101t315 -103q120 -103 120 -272h-172q0 103 -72 165t-187 62
q-114 0 -182 -60q-68 -62 -67 -164q0 -70 41 -132t123 -141l409 -385q25 92 25 205h172q0 -193 -62 -334l322 -303h-234l-172 164q-156 -193 -440 -193z" />
    <glyph glyph-name="quotesingle" unicode="'" horiz-adv-x="358" 
d="M104 1577h150v-176l-8 -391h-131l-11 391v176z" />
    <glyph glyph-name="parenleft" unicode="(" horiz-adv-x="753" 
d="M311 621q0 -236 87 -413t286 -353l-111 -109q-229 190 -333 397t-104 479t104 478q104 207 333 397l111 -108q-199 -176 -286 -354t-87 -414z" />
    <glyph glyph-name="parenright" unicode=")" horiz-adv-x="753" 
d="M442 622q0 238 -87 414t-285 353l112 108q230 -190 334 -397t104 -478q0 -270 -104 -478t-334 -398l-112 109q199 176 285 353q87 177 87 414z" />
    <glyph glyph-name="asterisk" unicode="*" horiz-adv-x="866" 
d="M381 836v227l-231 -123l-46 94l218 119l-218 117l46 94l231 -125v223h104v-223l232 125l45 -94l-217 -117l217 -119l-45 -94l-232 123v-227h-104z" />
    <glyph glyph-name="plus" unicode="+" horiz-adv-x="1476" 
d="M653 201v387h-420v153h420v387h170v-387h420v-153h-420v-387h-170z" />
    <glyph glyph-name="comma" unicode="," horiz-adv-x="387" 
d="M84 209h221v-152q0 -141 -58 -210t-198 -103l-22 82q85 32 117 64t36 110h-96v209z" />
    <glyph glyph-name="hyphen" unicode="-" horiz-adv-x="1165" 
d="M221 469v164h723v-164h-723z" />
    <glyph glyph-name="period" unicode="." horiz-adv-x="387" 
d="M84 211h221v-211h-221v211z" />
    <glyph glyph-name="slash" unicode="/" horiz-adv-x="868" 
d="M264 -328h-168l574 1831h168z" />
    <glyph glyph-name="zero" unicode="0" horiz-adv-x="1411" 
d="M1102 535v364q0 184 -109 297t-287 113t-287 -113q-110 -113 -110 -297v-364q0 -184 110 -297t288 -113q179 0 287 113t108 297zM707 1462q261 0 419 -154t158 -409v-364q0 -254 -159 -409t-419 -155t-419 155q-160 155 -160 409v364q0 255 160 409t420 154z" />
    <glyph glyph-name="one" unicode="1" horiz-adv-x="768" 
d="M395 0v1280h-389v154h569v-1434h-180z" />
    <glyph glyph-name="two" unicode="2" horiz-adv-x="1202" 
d="M125 0v90l575 606q195 199 195 357q0 117 -86 189t-223 73q-138 0 -224 -73t-102 -195h-180q10 188 145 302q135 113 353 113t357 -110q140 -110 140 -304q0 -192 -231 -430l-451 -477h707v-141h-975z" />
    <glyph glyph-name="three" unicode="3" horiz-adv-x="1208" 
d="M1120 387q0 -188 -138 -302t-360 -114q-222 -1 -364 99q-143 100 -168 276h176q23 -102 115 -166q93 -64 239 -63t238 75t92 200t-93 203t-253 77h-172v139l418 469h-717v154h924v-140l-426 -483q225 -6 357 -121t132 -303z" />
    <glyph glyph-name="four" unicode="4" horiz-adv-x="1380" 
d="M885 449v841l-576 -841h576zM885 0v301h-787v109l693 1024h270v-985h229v-148h-229v-301h-176z" />
    <glyph glyph-name="five" unicode="5" horiz-adv-x="1265" 
d="M651 887q221 0 361 -125t141 -327q0 -202 -146 -333q-145 -131 -373 -131t-376 108q-147 108 -180 296h178q29 -119 126 -189t252 -70t252 89q97 88 97 228t-98 223t-266 83t-300 -106l-137 69l125 732h754v-154h-615l-84 -463q144 70 289 70z" />
    <glyph glyph-name="six" unicode="6" horiz-adv-x="1327" 
d="M664 111q166 0 269 94t103 245q0 152 -103 244t-269 92t-270 -94t-105 -244q1 -150 105 -243q104 -94 270 -94zM664 936q250 0 400 -133t148 -347q0 -214 -152 -350q-152 -135 -396 -135t-397 134t-152 350q0 154 121 327l481 652h211l-375 -512q50 14 111 14z" />
    <glyph glyph-name="seven" unicode="7" horiz-adv-x="1085" 
d="M29 1434h1011v-105l-667 -1329h-203l643 1274h-784v160z" />
    <glyph glyph-name="eight" unicode="8" horiz-adv-x="1347" 
d="M674 115q160 1 261 77t101 206t-102 208t-260 78t-260 -78t-102 -208t100 -206q102 -76 262 -77zM674 803q141 0 230 75q89 74 89 190t-89 188t-230 71q-140 0 -230 -72q-90 -71 -90 -187t90 -190t230 -75zM674 -29q-254 0 -407 115t-152 303q0 133 82 227t215 142
q-109 45 -171 130t-63 189q0 173 138 279t358 106t357 -106q138 -106 138 -279q0 -104 -62 -189t-171 -130q135 -48 217 -142t82 -227q1 -188 -153 -303t-408 -115z" />
    <glyph glyph-name="nine" unicode="9" horiz-adv-x="1327" 
d="M664 647q166 0 270 94t104 244t-104 244t-270 94t-270 -94t-103 -245q-1 -151 103 -244t270 -93zM663 1462q245 0 397 -134t152 -349q0 -154 -120 -328l-482 -651h-211l375 512q-55 -14 -110 -14q-250 0 -400 133t-150 348t152 349t397 134z" />
    <glyph glyph-name="colon" unicode=":" horiz-adv-x="387" 
d="M84 211h221v-211h-221v211zM84 969h221v-211h-221v211z" />
    <glyph glyph-name="semicolon" unicode=";" horiz-adv-x="387" 
d="M84 209h221v-152q0 -141 -58 -210t-198 -103l-22 82q85 32 117 64t36 110h-96v209zM84 969h221v-211h-221v211z" />
    <glyph glyph-name="less" unicode="&#x3c;" horiz-adv-x="1177" 
d="M1026 131l-915 408v163l915 408v-166l-723 -323l723 -324v-166z" />
    <glyph glyph-name="equal" unicode="=" horiz-adv-x="1513" 
d="M233 389v154h1047v-154h-1047zM233 788v154h1047v-154h-1047z" />
    <glyph glyph-name="greater" unicode="&#x3e;" horiz-adv-x="1177" 
d="M152 131v166l722 324l-722 323v166l915 -408v-163z" />
    <glyph glyph-name="question" unicode="?" horiz-adv-x="1202" 
d="M422 211h221v-211h-221v211zM463 401q0 105 43 183t104 123q62 45 124 87q150 100 149 233q0 132 -84 210t-212 78q-128 -1 -209 -61t-104 -158h-178q27 172 157 269q129 97 331 97t337 -117q134 -118 134 -311q0 -84 -34 -154t-83 -112q-67 -59 -217 -169
q-117 -86 -117 -198h-141z" />
    <glyph glyph-name="at" unicode="@" horiz-adv-x="2138" 
d="M768 476q0 -122 79 -200t202 -77t197 77t75 201q0 125 -75 202q-76 77 -198 77t-201 -79t-79 -201zM1071 -354q-385 0 -652 244t-267 597q0 352 269 598t660 246t647 -229t257 -586q-1 -202 -95 -324t-256 -122q-96 0 -168 47t-104 125q-47 -82 -138 -129t-198 -47
q-182 0 -300 116t-118 295q0 180 118 296t300 116q90 0 170 -37t121 -98h4v104h158v-448q0 -213 155 -213q96 0 157 87q60 87 60 230q0 301 -220 499q-220 197 -549 197t-561 -209t-232 -513t226 -514t554 -210q270 0 496 162l71 -104q-250 -176 -565 -176z" />
    <glyph glyph-name="A" unicode="A" horiz-adv-x="1613" 
d="M502 555h612l-303 670h-6zM55 0l668 1434h170l663 -1434h-192l-182 395h-750l-180 -395h-197z" />
    <glyph glyph-name="B" unicode="B" horiz-adv-x="1499" 
d="M365 152h473q164 0 264 68q100 66 100 180t-93 180.5t-253 66.5h-491v-495zM365 801h417q162 0 256.5 70.5t94.5 180.5t-84 170t-236 60h-448v-481zM184 0v1434h650q217 0 344 -97.5t127 -259.5q0 -123 -67 -208t-183 -121v-7q158 -27 242.5 -122t84.5 -236
q0 -174 -148.5 -278.5t-393.5 -104.5h-656z" />
    <glyph glyph-name="C" unicode="C" horiz-adv-x="1730" 
d="M897 137q195 0 332 98.5t186 270.5h187q-49 -244 -245 -388.5t-460 -144.5q-342 0 -556 208t-214 538t215 536.5t555 206.5q264 0 459.5 -144t245.5 -386h-187q-49 170 -186 268t-332 98q-258 0 -421 -161.5t-163 -417.5t163 -419t421 -163z" />
    <glyph glyph-name="D" unicode="D" horiz-adv-x="1615" 
d="M682 158q281 0 449.5 152.5t168.5 406.5t-168.5 406.5t-449.5 152.5h-317v-1118h317zM700 1434q356 0 571.5 -196t215.5 -521.5t-215 -521t-572 -195.5h-516v1434h516z" />
    <glyph glyph-name="E" unicode="E" horiz-adv-x="1339" 
d="M1223 1276h-858v-485h772v-160h-772v-473h858v-158h-1039v1434h1039v-158z" />
    <glyph glyph-name="F" unicode="F" horiz-adv-x="1273" 
d="M184 0v1434h1018v-158h-837v-520h745v-160h-745v-596h-181z" />
    <glyph glyph-name="G" unicode="G" horiz-adv-x="1742" 
d="M888 -29q-335 0 -548 208t-213 538t215 537.5t553 207.5q270 0 461.5 -136t249.5 -355h-191q-53 156 -194.5 241.5t-325.5 85.5q-254 0 -418 -162.5t-164 -417.5t162 -418t398.5 -163t378 126t163.5 319h-559v157h756q2 -354 -193.5 -561t-530.5 -207z" />
    <glyph glyph-name="H" unicode="H" horiz-adv-x="1583" 
d="M184 0v1434h181v-646h854v646h182v-1434h-182v629h-854v-629h-181z" />
    <glyph glyph-name="I" unicode="I" horiz-adv-x="548" 
d="M184 0v1434h181v-1434h-181z" />
    <glyph glyph-name="J" unicode="J" horiz-adv-x="1280" 
d="M590.5 -29q-234.5 0 -378.5 117t-169 324h180q25 -129 116 -205t249 -76t251 105.5t93 275.5v764h-696v158h880v-928q0 -250 -145.5 -392.5t-380 -142.5z" />
    <glyph glyph-name="K" unicode="K" horiz-adv-x="1509" 
d="M365 0h-181v1434h181v-717l790 717h229l-792 -717l872 -717h-245l-854 702v-702z" />
    <glyph glyph-name="L" unicode="L" horiz-adv-x="1239" 
d="M365 154h811v-154h-992v1434h181v-1280z" />
    <glyph glyph-name="M" unicode="M" horiz-adv-x="2209" 
d="M72 0l383 1434h207l438 -1174h6l440 1174h209l383 -1434h-190l-316 1165h-8l-430 -1165h-178l-434 1165h-9l-311 -1165h-190z" />
    <glyph glyph-name="N" unicode="N" horiz-adv-x="1632" 
d="M1268 1434h182v-1434h-152l-933 1122v-1122h-181v1434h146l938 -1137v1137z" />
    <glyph glyph-name="O" unicode="O" horiz-adv-x="1794" 
d="M897 133q254 0 420 164t166 420t-166 419.5t-420 163.5t-420 -163.5t-166 -419.5t166 -420t420 -164zM897 -29q-334 0 -552 211t-218 534.5t218 534.5t552 211t552 -211t218 -534.5t-218 -534.5t-552 -211z" />
    <glyph glyph-name="P" unicode="P" horiz-adv-x="1349" 
d="M365 645h337q172 0 284 88q112 87 112 231t-114 228t-282 84h-337v-631zM184 0v1434h537q251 0 405 -131t154 -343t-164 -342t-407 -131h-344v-487h-181z" />
    <glyph glyph-name="Q" unicode="Q" horiz-adv-x="1794" 
d="M311 717q0 -256 166 -420t420 -164t420 164t166 420t-166 420q-166 163 -420 163t-420 -164t-166 -419zM1667 717q0 -215 -101 -387t-280 -267l320 -307l-131 -112l-375 350q-102 -23 -203 -23q-334 0 -552 211t-218 535q0 325 218 535t552 210t552 -210t218 -535z" />
    <glyph glyph-name="R" unicode="R" horiz-adv-x="1464" 
d="M365 1276v-543h364q190 0 297 73t107 200t-103.5 198.5t-286.5 71.5h-378zM365 575v-575h-181v1434h576q254 0 403.5 -116t149.5 -312q0 -164 -111.5 -274.5t-306.5 -143.5l500 -588h-226l-487 575h-317z" />
    <glyph glyph-name="S" unicode="S" horiz-adv-x="1421" 
d="M727 -29q-260 0 -424 127t-188 351h178q27 -152 142.5 -238t297 -86t278.5 69.5t96 176t-70.5 164t-172 76t-223.5 44t-223.5 57t-172 117.5t-71.5 224q-4 182 140.5 295.5t389 113.5t400.5 -110.5t182 -304.5h-182q-25 125 -125 196.5t-263 71.5t-258.5 -70.5
t-92.5 -181.5q0 -84 51 -137.5t133 -78t180 -40.5t196.5 -39t179.5 -60.5t132 -116.5t53 -196q2 -190 -150.5 -307t-412.5 -117z" />
    <glyph glyph-name="T" unicode="T" horiz-adv-x="1384" 
d="M1323 1434v-158h-541v-1276h-180v1276h-541v158h1262z" />
    <glyph glyph-name="U" unicode="U" horiz-adv-x="1597" 
d="M798.5 -29q-284.5 0 -459.5 177.5t-175 451.5v834h182v-834q0 -211 127 -340t325.5 -129t325.5 129t127 340v834h183v-834q0 -274 -175.5 -451.5t-460 -177.5z" />
    <glyph glyph-name="V" unicode="V" horiz-adv-x="1622" 
d="M727 0l-678 1434h199l561 -1205h6l561 1205h197l-676 -1434h-170z" />
    <glyph glyph-name="W" unicode="W" horiz-adv-x="2220" 
d="M545 0l-469 1434h190l377 -1168h8l367 1168h184l367 -1168l6 2l379 1166h190l-469 -1434h-192l-371 1167h-6l-369 -1167h-192z" />
    <glyph glyph-name="X" unicode="X" horiz-adv-x="1437" 
d="M45 0l553 713l-537 721h226l430 -584l432 584h225l-534 -723l551 -711h-213l-459 582l-459 -582h-215z" />
    <glyph glyph-name="Y" unicode="Y" horiz-adv-x="1449" 
d="M635 0v498l-606 936h202l494 -768l496 768h200l-602 -936v-498h-184z" />
    <glyph glyph-name="Z" unicode="Z" horiz-adv-x="1404" 
d="M115 0v86l899 1192h-873v156h1135v-86l-881 -1192h885v-156h-1165z" />
    <glyph glyph-name="bracketleft" unicode="[" horiz-adv-x="731" 
d="M164 -258v1753h477v-158h-303v-1437h303v-158h-477z" />
    <glyph glyph-name="backslash" unicode="\" horiz-adv-x="868" 
d="M604 -328l-573 1831h170l571 -1831h-168z" />
    <glyph glyph-name="bracketright" unicode="]" horiz-adv-x="731" 
d="M90 -258v158h303v1437h-303v158h477v-1753h-477z" />
    <glyph glyph-name="asciicircum" unicode="^" horiz-adv-x="862" 
d="M510 1434l289 -525h-162l-207 398l-205 -398h-162l289 525h158z" />
    <glyph glyph-name="underscore" unicode="_" horiz-adv-x="1232" 
d="M0 -393v145h1233v-145h-1233z" />
    <glyph glyph-name="grave" unicode="`" horiz-adv-x="571" 
d="M465 1151h-158l-205 299h195l172 -293z" />
    <glyph glyph-name="a" unicode="a" horiz-adv-x="1325" 
d="M639 117q147 0 245.5 104.5t98.5 262t-98.5 263t-245.5 105.5t-248.5 -105.5t-101.5 -263t101.5 -262t248.5 -104.5zM627.5 -29q-224.5 0 -368.5 147.5t-144 365.5t144 365.5t367 147.5t353 -192h4v164h176v-969h-176v162h-4q-127 -191 -351.5 -191z" />
    <glyph glyph-name="b" unicode="b" horiz-adv-x="1325" 
d="M686 117q147 0 248 105q100 105 100 261t-100 262q-100 107 -248 107t-246 -106q-100 -106 -100 -262q0 -157 100 -262t246 -105zM707 997q215 0 359 -147q144 -146 144 -366t-144 -366t-366 -146t-356 190h-4v-162h-174v1577h174v-772h4q54 88 152 140t211 52z" />
    <glyph glyph-name="c" unicode="c" horiz-adv-x="1234" 
d="M643 -29q-236 0 -382 141.5t-146 371t146.5 371.5t381.5 142q186 0 317.5 -96t159.5 -258h-176q-25 90 -103.5 147.5t-197.5 57.5q-158 0 -256 -101.5t-98 -263t98 -262t256 -100.5q119 0 198 56t103 147h176q-29 -162 -160 -257.5t-317 -95.5z" />
    <glyph glyph-name="d" unicode="d" horiz-adv-x="1325" 
d="M639 117q147 0 245.5 104.5t98.5 262t-98.5 263t-245.5 105.5t-248.5 -106.5t-101.5 -262t101.5 -261t248.5 -105.5zM616 997q113 0 210.5 -52t152.5 -140h4v772h176v-1577h-176v162h-4q-131 -190 -353 -190t-366.5 147t-144.5 365t144 365.5t357 147.5z" />
    <glyph glyph-name="e" unicode="e" horiz-adv-x="1249" 
d="M637 856q-143 0 -240.5 -88t-109.5 -227h669q-4 133 -90 224t-229 91zM643 -29q-236 0 -382 141.5t-146 371t143 371.5t372.5 142t367 -143t137.5 -381v-59h-844q20 -135 117.5 -218t236.5 -83q92 0 165 33.5t105 95.5h189q-47 -123 -173 -197t-288 -74z" />
    <glyph glyph-name="f" unicode="f" horiz-adv-x="776" 
d="M258 0v827h-248v142h248v262q0 170 111 272t290 103q63 0 111 -13v-149q-47 10 -84 10q-118 0 -186 -60t-68 -163v-262h338v-142h-338v-827h-174z" />
    <glyph glyph-name="g" unicode="g" horiz-adv-x="1323" 
d="M636.5 117q147.5 0 247 105.5t99.5 262t-99.5 262t-247 105.5t-247.5 -105.5t-100 -262.5t100 -262t247.5 -105zM983 969h174v-996q0 -211 -138 -340t-356.5 -129t-351.5 99.5t-164 263.5h181q23 -100 109.5 -156.5t226 -56.5t229.5 88t90 231v189h-4
q-61 -90 -157.5 -140.5t-205.5 -50.5q-215 0 -358 146.5t-143 365.5t143 366.5t358 147.5q109 0 204 -50t159 -140h4v162z" />
    <glyph glyph-name="h" unicode="h" horiz-adv-x="1261" 
d="M166 0v1577h174v-768h4q61 90 153.5 139t196.5 49q193 0 314.5 -122.5t121.5 -317.5v-557h-176v549q0 135 -78.5 216t-214.5 81t-228.5 -92t-92.5 -234v-520h-174z" />
    <glyph glyph-name="i" unicode="i" horiz-adv-x="542" 
d="M184 0v969h174v-969h-174zM180 1335v242h182v-242h-182z" />
    <glyph glyph-name="j" unicode="j" horiz-adv-x="542" 
d="M-45 -496v144l16 2q115 6 164 57t49 182v1080h174v-1061q0 -213 -88 -308t-280 -96h-35zM180 1335v242h182v-242h-182z" />
    <glyph glyph-name="k" unicode="k" horiz-adv-x="1224" 
d="M166 0v1577h174v-1094l545 486h217l-543 -486l629 -483h-238l-610 469v-469h-174z" />
    <glyph glyph-name="l" unicode="l" horiz-adv-x="507" 
d="M166 0v1577h174v-1577h-174z" />
    <glyph glyph-name="m" unicode="m" horiz-adv-x="1947" 
d="M166 0v969h174v-154h4q57 86 146 134t195 48t194 -49t135 -135q131 184 368 184q197 0 317 -123t120 -317v-557h-177v549q0 137 -73 217q-74 80 -205 80t-207 -87t-76 -233v-526h-174v549q0 135 -72 216q-73 81 -201 81t-211 -91t-83 -235v-520h-174z" />
    <glyph glyph-name="n" unicode="n" horiz-adv-x="1261" 
d="M166 0v969h174v-154h4q53 84 148.5 133t199.5 49q195 0 316.5 -122.5t121.5 -317.5v-557h-176v549q0 135 -78.5 216t-215.5 81t-228.5 -90t-91.5 -236v-520h-174z" />
    <glyph glyph-name="o" unicode="o" horiz-adv-x="1304" 
d="M653.5 121q157.5 0 260 102.5t102.5 260.5t-102.5 260t-261.5 102t-261 -101.5t-102 -260.5t103.5 -261t261 -102zM653.5 -29q-235.5 0 -387 142.5t-151.5 370t151.5 370.5t385.5 143t386 -143q152 -144 152 -370t-150.5 -369.5t-386 -143.5z" />
    <glyph glyph-name="p" unicode="p" horiz-adv-x="1325" 
d="M686 852q-146 0 -246 -106t-100 -263q0 -158 99 -262t247 -104t248 105t100 261q0 157 -100 263t-248 106zM707 -29q-113 1 -210 53t-153 138h-4v-629h-174v1434h174v-162h4q134 193 356 193t366 -148q144 -146 144 -366t-144 -366t-359 -147z" />
    <glyph glyph-name="q" unicode="q" horiz-adv-x="1325" 
d="M639 852q-147 0 -249 -106t-101 -263q0 -156 101 -261q100 -105 248 -105t247 104q98 104 98 262q-1 157 -99 263t-245 106zM616 -29q-213 -1 -357 147t-144 366t144 366t357 147q109 0 204 -50t159 -142h4v164h176v-1436h-176v629h-4q-53 -86 -151 -138t-212 -53z" />
    <glyph glyph-name="r" unicode="r" horiz-adv-x="788" 
d="M166 0v969h174v-168h4q45 94 122 145q78 51 150 51t121 -12v-160q-45 14 -96 15q-139 0 -220 -101.5t-81 -275.5v-463h-174z" />
    <glyph glyph-name="s" unicode="s" horiz-adv-x="1118" 
d="M565 -29q-199 0 -325.5 90.5t-141.5 241.5h166q14 -94 100.5 -145.5t207.5 -51.5t188 43.5t67 114t-70.5 107.5t-171 50t-201.5 32.5t-172 82t-71 182.5t113 199.5t294 79.5t304 -83t137 -224h-166q-12 80 -93 128t-184 48t-168 -39t-65 -103t50.5 -99t127 -45.5
t164.5 -27.5t165 -40t127 -84t50 -158q0 -135 -116.5 -217t-315.5 -82z" />
    <glyph glyph-name="t" unicode="t" horiz-adv-x="851" 
d="M602 -29q-168 0 -263 98.5t-95 276.5v481h-238v142h238v327h176v-327h325v-142h-325v-477q0 -225 207 -225q33 0 118 8v-145q-65 -17 -143 -17z" />
    <glyph glyph-name="u" unicode="u" horiz-adv-x="1224" 
d="M612 -29q-215 0 -348 121t-133 318v559h174v-549q0 -135 86 -217t222 -82t221.5 82t85.5 217v549h174v-559q0 -197 -133.5 -318t-348.5 -121z" />
    <glyph glyph-name="v" unicode="v" horiz-adv-x="1236" 
d="M539 0l-476 969h189l364 -760h5l366 760h187l-474 -969h-161z" />
    <glyph glyph-name="w" unicode="w" horiz-adv-x="1689" 
d="M444 0l-381 969h191l264 -707h4l248 707h154l245 -707h5l266 707h186l-377 -969h-155l-246 700h-4l-244 -700h-156z" />
    <glyph glyph-name="x" unicode="x" horiz-adv-x="1165" 
d="M59 0l408 487l-399 482h217l299 -365l301 365h215l-400 -484l406 -485h-209l-311 369l-316 -369h-211z" />
    <glyph glyph-name="y" unicode="y" horiz-adv-x="1314" 
d="M1057 969h188l-676 -1436h-188l205 430l-516 1006h188l416 -815h4z" />
    <glyph glyph-name="z" unicode="z" horiz-adv-x="1060" 
d="M90 0v82l631 747h-608v140h858v-95l-625 -735h623v-139h-879z" />
    <glyph glyph-name="braceleft" unicode="{" horiz-adv-x="757" 
d="M283 90v262q0 106 -39 152t-146 49l-24 2v143l24 2q106 2 146 48t39 151v264q0 164 100 260t285 105v-162q-102 -6 -156 -59t-55 -144v-268q0 -117 -34 -178t-124 -90q90 -29 124 -90t34 -181v-266q0 -90 54 -143t157 -60v-161q-184 8 -285 104q-100 96 -100 260z" />
    <glyph glyph-name="bar" unicode="|" horiz-adv-x="649" 
d="M242 -328v1823h166v-1823h-166z" />
    <glyph glyph-name="braceright" unicode="}" horiz-adv-x="757" 
d="M301 90v266q0 118 35 180t125 91q-90 29 -125 90t-35 178v268q0 89 -54 143t-157 60v162q184 -8 284 -104t101 -261v-264q0 -106 40 -151t147 -48l24 -2v-143l-24 -2q-106 -4 -146 -49t-41 -152v-262q-1 -164 -101 -260t-284 -104v161q102 5 156 59t55 144z" />
    <glyph glyph-name="asciitilde" unicode="~" horiz-adv-x="983" 
d="M893 813q0 -109 -66 -175t-157 -67q-90 0 -198 69t-144 69t-61 -27q-24 -27 -23 -70h-156q0 111 64 178q64 66 156 66q94 0 200 -70t145 -70t63 28q24 26 23 69h154z" />
    <glyph glyph-name="exclamdown" unicode="&#xa1;" horiz-adv-x="552" 
d="M369 -465h-183v371l15 669h153l15 -669v-371zM166 758v211h221v-211h-221z" />
    <glyph glyph-name="cent" unicode="&#xa2;" horiz-adv-x="1234" 
d="M643 121q119 0 198 56t103 147h176q-27 -142 -131 -234t-262 -113v-245h-160v243q-205 23 -329 161t-123 347q0 209 124 348t328 162v252h160v-254q156 -20 261 -112t132 -236h-176q-25 90 -103 148q-79 57 -198 57q-158 0 -256 -102t-98 -263q0 -162 98 -262t256 -100z
" />
    <glyph glyph-name="sterling" unicode="&#xa3;" horiz-adv-x="1349" 
d="M86 0v145h158v447h-158v145h158v250q0 213 140 344t364 131t364 -112q139 -112 154 -295h-174q-29 127 -116 195q-88 68 -230 67q-142 0 -235 -90t-93 -240v-250h500v-145h-500v-447h831v-145h-1163z" />
    <glyph glyph-name="currency" unicode="&#xa4;" horiz-adv-x="1181" 
d="M590 336q125 0 203 76q77 76 77 192t-77 192q-78 74 -203 74t-202 -74t-77 -192q0 -116 77 -192t202 -76zM176 604q0 135 72 234l-98 98l110 111l107 -109q94 57 224 57t224 -57l107 109l110 -111l-98 -98q72 -98 72 -234t-74 -233l100 -99l-110 -110l-107 106
q-98 -57 -224 -57t-224 57l-107 -106l-110 110l98 99q-72 98 -72 233z" />
    <glyph glyph-name="yen" unicode="&#xa5;" horiz-adv-x="1441" 
d="M1210 561v-125h-395v-129h395v-125h-395v-182h-184v182h-400v125h400v129h-400v125h359l-565 873h202l494 -768l496 768h202l-563 -873h354z" />
    <glyph glyph-name="brokenbar" unicode="&#xa6;" horiz-adv-x="649" 
d="M242 -328v807h166v-807h-166zM242 688v807h166v-807h-166z" />
    <glyph glyph-name="section" unicode="&#xa7;" horiz-adv-x="1173" 
d="M913 502q0 60 -51 109q-51 48 -114 75q-62 27 -168 70t-166 73q-72 -10 -113 -50t-41 -102q0 -63 50 -113t108 -77t168 -69q108 -42 159 -66q76 12 122 51t46 99zM993 32q-1 -134 -111 -221t-295 -87t-307 92t-147 260h186q37 -203 265 -203q106 0 167 47q60 48 60 120
t-54 122t-134 81q-79 29 -175 69t-176 81t-134 115t-54 170q0 184 195 254q-99 92 -99 221t112 219t297 90t304 -89t145 -261h-190q-31 203 -260 203q-102 0 -164 -49t-64 -121q0 -72 54 -123t136 -84q81 -33 175 -74t175 -82q81 -42 135 -112q55 -70 55 -159t-56 -158
t-147 -97q106 -90 106 -224z" />
    <glyph glyph-name="dieresis" unicode="&#xa8;" horiz-adv-x="837" 
d="M512 1409h223v-221h-223v221zM102 1409h224v-221h-224v221z" />
    <glyph glyph-name="copyright" unicode="&#xa9;" horiz-adv-x="1837" 
d="M906 348q-152 0 -265 106t-113 263q0 158 113 263t265 105q152 -1 252 -71q101 -70 140 -199h-141q-66 152 -235 152q-111 0 -186 -73q-74 -73 -74 -177t74 -177t186 -73q170 0 235 151h141q-39 -130 -140 -200q-100 -70 -252 -70zM920 84q285 0 474 181t189 451
t-189 452t-474 182q-286 0 -476 -182t-190 -451q0 -270 190 -452q191 -181 476 -181zM919 -29q-341 0 -567 212q-225 212 -225 534q0 321 225 533q224 212 566 212t567 -212t225 -534t-225 -533q-225 -212 -566 -212z" />
    <glyph glyph-name="ordfeminine" unicode="&#xaa;" horiz-adv-x="772" 
d="M305 1087q-131 0 -131 -89q0 -46 44 -74t129 -29q85 0 146 54q60 54 60 138h-248zM317 797q-117 0 -191 56t-74 143q1 87 70 134t189 48h242v8q0 174 -170 174q-141 0 -174 -105h-123q14 95 96 151t212 56t206 -77t76 -207v-369h-123v96h-4q-76 -108 -232 -108z" />
    <glyph glyph-name="guillemotleft" unicode="&#xab;" horiz-adv-x="921" 
d="M838 823l-230 -307l230 -307h-170l-222 291v32l222 291h170zM473 823l-227 -307l227 -307h-170l-219 291v32l219 291h170z" />
    <glyph glyph-name="registered" unicode="&#xae;" horiz-adv-x="1206" 
d="M508 944h125q43 0 72 23t29 59t-30 60q-28 24 -73 24h-123v-166zM430 725v455h201q82 0 132 -44t50 -104t-34 -97q-34 -38 -91 -48l139 -162h-98l-129 152h-92v-152h-78zM604 555q174 0 295 114q121 113 121 273t-122 275t-295 115t-295 -116q-122 -114 -122 -274
t122 -274t296 -113zM604 465q-219 0 -370 139t-150 338q0 199 150 338q151 139 370 139t370 -139q150 -139 150 -338t-150 -338t-370 -139z" />
    <glyph glyph-name="macron" unicode="&#xaf;" horiz-adv-x="811" 
d="M102 1192v137h607v-137h-607z" />
    <glyph glyph-name="degree" unicode="&#xb0;" horiz-adv-x="1028" 
d="M514 913q98 1 163 61t65 151t-65 152q-65 60 -163 60t-163 -60q-65 -59 -65 -151t66 -152q64 -60 162 -61zM514 786q-162 0 -265 96t-103 243q0 145 102 241q104 96 266 96t265 -95t103 -241t-102 -244q-104 -96 -266 -96z" />
    <glyph glyph-name="plusminus" unicode="&#xb1;" horiz-adv-x="1476" 
d="M233 0v154h1008v-154h-1008zM653 297v350h-420v154h420v350h170v-350h420v-154h-420v-350h-170z" />
    <glyph glyph-name="uni00B2" unicode="&#xb2;" horiz-adv-x="772" 
d="M96 1055v65l299 289q53 49 75 71t48 62t25 89q0 48 -41 83t-110 35q-70 0 -114 -37t-53 -98h-131q10 112 92 180t209 68t206 -65t79 -169q0 -72 -44 -135t-126 -143l-195 -189h379v-106h-598z" />
    <glyph glyph-name="uni00B3" unicode="&#xb3;" horiz-adv-x="802" 
d="M711 1274q0 -100 -86 -168q-85 -68 -219 -68t-220 60t-102 166h135q13 -51 61 -83t125 -32t125 37t50 95q0 58 -48 96t-126 38h-101v105l207 209h-391v116h573v-100l-229 -236q113 -12 179 -74q66 -61 67 -161z" />
    <glyph glyph-name="acute" unicode="&#xb4;" horiz-adv-x="571" 
d="M106 1151l-4 6l172 293h195l-205 -299h-158z" />
    <glyph glyph-name="paragraph" unicode="&#xb6;" horiz-adv-x="1429" 
d="M1075 -287v1721h182v-1721h-182zM618 -287v992h-120q-190 0 -310 101q-119 101 -118 263q0 162 118 263q119 101 310 102h301v-1721h-181z" />
    <glyph glyph-name="periodcentered" unicode="&#xb7;" horiz-adv-x="387" 
d="M84 596h221v-211h-221v211z" />
    <glyph glyph-name="cedilla" unicode="&#xb8;" horiz-adv-x="493" 
d="M102 -328l113 363h176l-135 -363h-154z" />
    <glyph glyph-name="uni00B9" unicode="&#xb9;" horiz-adv-x="501" 
d="M270 1057v672h-225v116h356v-788h-131z" />
    <glyph glyph-name="ordmasculine" unicode="&#xba;" horiz-adv-x="833" 
d="M416 905q98 -1 165 63t66 160q0 96 -66 161q-67 65 -165 65t-165 -65t-67 -161t67 -160t165 -63zM416 797q-154 0 -255 94t-102 237q-1 142 101 238t256 96t256 -95t102 -239t-102 -237q-102 -94 -256 -94z" />
    <glyph glyph-name="guillemotright" unicode="&#xbb;" horiz-adv-x="921" 
d="M446 823h170l222 -291v-32l-222 -291h-170l230 307zM84 823h170l219 -291v-32l-219 -291h-170l227 307z" />
    <glyph glyph-name="onequarter" unicode="&#xbc;" horiz-adv-x="1689" 
d="M1354 276v371l-305 -371h305zM1612 276v-114h-127v-162h-131v162h-465v88l434 538h162v-512h127zM184 0l1004 1434h131l-1004 -1434h-131zM270 647v672h-225v117h356v-789h-131z" />
    <glyph glyph-name="onehalf" unicode="&#xbd;" horiz-adv-x="1660" 
d="M985 2v66l299 286q4 4 24 22t24 24l22 22q78 78 78 159q0 43 -41 79t-110 36t-114 -37t-53 -98h-131q10 111 92 179t209 69q127 0 206 -65t79 -169q0 -72 -44 -135t-126 -143l-195 -188h379v-107h-598zM184 0l1004 1434h131l-1004 -1434h-131zM270 647v672h-225v117h356
v-789h-131z" />
    <glyph glyph-name="threequarters" unicode="&#xbe;" horiz-adv-x="1878" 
d="M1542 276v371l-305 -371h305zM1673 276h127v-114h-127v-162h-131v162h-465v88l436 538h160v-512zM1376 1434h131l-1003 -1434h-131zM711 863q0 -99 -86 -167q-85 -68 -219 -68t-220 61q-86 60 -102 165h135q13 -51 61 -83t125 -32t125 37t50 95q0 59 -48 97t-126 38h-101
v104l207 209h-391v117h573v-101l-227 -233q111 -14 177 -77t67 -162z" />
    <glyph glyph-name="questiondown" unicode="&#xbf;" horiz-adv-x="1202" 
d="M739 567q-1 -89 -31 -159t-77 -110t-101 -81t-102 -74q-47 -33 -78 -87t-31 -122q0 -124 84 -202q85 -78 213 -78t208 60t104 159h178q-27 -172 -157 -270q-129 -99 -331 -99t-336 119t-135 309q1 100 47 178t112 130q66 51 134 96q158 107 158 231h141zM780 758h-221
v211h221v-211z" />
    <glyph glyph-name="Agrave" unicode="&#xc0;" horiz-adv-x="1613" 
d="M502 555h612l-303 670h-6zM55 0l668 1434h170l663 -1434h-192l-182 395h-750l-180 -395h-197zM891 1581h-158l-205 301h195l172 -295z" />
    <glyph glyph-name="Aacute" unicode="&#xc1;" horiz-adv-x="1613" 
d="M502 555h612l-303 670h-6zM55 0l668 1434h170l663 -1434h-192l-182 395h-750l-180 -395h-197zM754 1581l-4 6l172 295h194l-205 -301h-157z" />
    <glyph glyph-name="Acircumflex" unicode="&#xc2;" horiz-adv-x="1613" 
d="M502 555h612l-303 670h-6zM55 0l668 1434h170l663 -1434h-192l-182 395h-750l-180 -395h-197zM453 1579l266 301h176l266 -301h-170l-184 195l-186 -195h-168z" />
    <glyph glyph-name="Atilde" unicode="&#xc3;" horiz-adv-x="1613" 
d="M502 555h612l-303 670h-6zM55 0l668 1434h170l663 -1434h-192l-182 395h-750l-180 -395h-197zM965 1628q-81 0 -170.5 57.5t-124.5 57.5q-68 0 -76 -82h-141q4 96 59 155.5t139 59.5t171 -55.5t124 -55.5q70 0 74 82h139q2 -94 -55.5 -156.5t-138.5 -62.5z" />
    <glyph glyph-name="Adieresis" unicode="&#xc4;" horiz-adv-x="1613" 
d="M502 555h612l-303 670h-6zM55 0l668 1434h170l663 -1434h-192l-182 395h-750l-180 -395h-197zM899 1606v219h223v-219h-223zM489 1606v219h224v-219h-224z" />
    <glyph glyph-name="Aring" unicode="&#xc5;" horiz-adv-x="1613" 
d="M502 555h612l-303 670h-6zM55 0l668 1434h170l663 -1434h-192l-182 395h-750l-180 -395h-197zM807 1700q51 0 85 30.5t34 80t-35 80t-84 30.5t-83 -30.5t-34 -80t33 -80t84 -30.5zM809 1610q-98 0 -160.5 56t-62.5 144t62.5 144.5t160.5 56.5t158.5 -56.5t60.5 -144.5
t-60.5 -144t-158.5 -56z" />
    <glyph glyph-name="AE" unicode="&#xc6;" horiz-adv-x="2400" 
d="M1245 555v641l-504 -641h504zM2281 1434v-158h-856v-485h770v-160h-770v-473h856v-158h-1036v395h-629l-311 -395h-221l1143 1434h1054z" />
    <glyph glyph-name="Ccedilla" unicode="&#xc7;" horiz-adv-x="1730" 
d="M897 137q195 0 332 98.5t186 270.5h187q-49 -233 -231.5 -376.5t-432.5 -156.5l-113 -301h-153l96 310q-291 41 -466 240.5t-175 513.5t215 520t555 206q264 0 459.5 -144t245.5 -386h-187q-49 170 -186 268t-332 98q-258 0 -421 -161.5t-163 -417.5t163 -419t421 -163z
" />
    <glyph glyph-name="Egrave" unicode="&#xc8;" horiz-adv-x="1339" 
d="M1223 1276h-858v-485h772v-160h-772v-473h858v-158h-1039v1434h1039v-158zM791 1581h-158l-205 301h195l172 -295z" />
    <glyph glyph-name="Eacute" unicode="&#xc9;" horiz-adv-x="1339" 
d="M1223 1276h-858v-485h772v-160h-772v-473h858v-158h-1039v1434h1039v-158zM621 1581l-5 6l172 295h195l-205 -301h-157z" />
    <glyph glyph-name="Ecircumflex" unicode="&#xca;" horiz-adv-x="1339" 
d="M1223 1276h-858v-485h772v-160h-772v-473h858v-158h-1039v1434h1039v-158zM352 1579l266 301h177l266 -301h-170l-184 195l-187 -195h-168z" />
    <glyph glyph-name="Edieresis" unicode="&#xcb;" horiz-adv-x="1339" 
d="M1223 1276h-858v-485h772v-160h-772v-473h858v-158h-1039v1434h1039v-158zM799 1606v219h223v-219h-223zM389 1606v219h223v-219h-223z" />
    <glyph glyph-name="Igrave" unicode="&#xcc;" horiz-adv-x="548" 
d="M184 0v1434h181v-1434h-181zM360 1581h-157l-205 301h195l172 -295z" />
    <glyph glyph-name="Iacute" unicode="&#xcd;" horiz-adv-x="548" 
d="M184 0v1434h181v-1434h-181zM190 1581l-4 6l172 295h195l-205 -301h-158z" />
    <glyph glyph-name="Icircumflex" unicode="&#xce;" horiz-adv-x="548" 
d="M184 0v1434h181v-1434h-181zM-78 1579l266 301h177l266 -301h-170l-185 195l-186 -195h-168z" />
    <glyph glyph-name="Idieresis" unicode="&#xcf;" horiz-adv-x="548" 
d="M184 0v1434h181v-1434h-181zM369 1606v219h223v-219h-223zM-41 1606v219h223v-219h-223z" />
    <glyph glyph-name="Eth" unicode="&#xd0;" horiz-adv-x="1615" 
d="M682 158q281 0 449.5 152.5t168.5 406.5t-168.5 406.5t-449.5 152.5h-317v-479h370v-158h-370v-481h317zM700 1434q356 0 571.5 -196t215.5 -521.5t-215 -521t-572 -195.5h-516v639h-141v158h141v637h516z" />
    <glyph glyph-name="Ntilde" unicode="&#xd1;" horiz-adv-x="1632" 
d="M1268 1434h182v-1434h-152l-933 1122v-1122h-181v1434h146l938 -1137v1137zM977 1628q-80 0 -172 57.5t-125 57.5q-68 0 -76 -82h-141q4 96 59.5 155.5t139.5 59.5t171 -55.5t123 -55.5q70 0 74 82h139q2 -94 -55 -156.5t-137 -62.5z" />
    <glyph glyph-name="Ograve" unicode="&#xd2;" horiz-adv-x="1794" 
d="M897 133q254 0 420 164t166 420t-166 419.5t-420 163.5t-420 -163.5t-166 -419.5t166 -420t420 -164zM897 -29q-334 0 -552 211t-218 534.5t218 534.5t552 211t552 -211t218 -534.5t-218 -534.5t-552 -211zM981 1581h-158l-205 301h195l172 -295z" />
    <glyph glyph-name="Oacute" unicode="&#xd3;" horiz-adv-x="1794" 
d="M897 133q254 0 420 164t166 420t-166 419.5t-420 163.5t-420 -163.5t-166 -419.5t166 -420t420 -164zM897 -29q-334 0 -552 211t-218 534.5t218 534.5t552 211t552 -211t218 -534.5t-218 -534.5t-552 -211zM811 1581l-4 6l172 295h195l-205 -301h-158z" />
    <glyph glyph-name="Ocircumflex" unicode="&#xd4;" horiz-adv-x="1794" 
d="M897 133q254 0 420 164t166 420t-166 419.5t-420 163.5t-420 -163.5t-166 -419.5t166 -420t420 -164zM897 -29q-334 0 -552 211t-218 534.5t218 534.5t552 211t552 -211t218 -534.5t-218 -534.5t-552 -211zM543 1579l266 301h176l266 -301h-170l-184 195l-186 -195h-168z
" />
    <glyph glyph-name="Otilde" unicode="&#xd5;" horiz-adv-x="1794" 
d="M897 133q254 0 420 164t166 420t-166 419.5t-420 163.5t-420 -163.5t-166 -419.5t166 -420t420 -164zM897 -29q-334 0 -552 211t-218 534.5t218 534.5t552 211t552 -211t218 -534.5t-218 -534.5t-552 -211zM1057 1628q-80 0 -171 57.5t-126 57.5q-68 0 -76 -82h-141
q4 96 59 155.5t139.5 59.5t171 -55.5t123.5 -55.5q70 0 74 82h139q2 -94 -55 -156.5t-137 -62.5z" />
    <glyph glyph-name="Odieresis" unicode="&#xd6;" horiz-adv-x="1794" 
d="M897 133q254 0 420 164t166 420t-166 419.5t-420 163.5t-420 -163.5t-166 -419.5t166 -420t420 -164zM897 -29q-334 0 -552 211t-218 534.5t218 534.5t552 211t552 -211t218 -534.5t-218 -534.5t-552 -211zM989 1606v219h223v-219h-223zM580 1606v219h223v-219h-223z" />
    <glyph glyph-name="multiply" unicode="&#xd7;" horiz-adv-x="1419" 
d="M371 215l-111 107l336 329l-324 316l115 114l326 -315l336 326l108 -107l-334 -328l322 -317l-113 -115l-325 318z" />
    <glyph glyph-name="Oslash" unicode="&#xd8;" horiz-adv-x="1794" 
d="M897 133q254 0 420 164t166 407.5t-142 405.5l-780 -881q143 -96 336 -96zM311 729.5q0 -243.5 142 -405.5l782 878q-145 98 -338 98q-254 0 -420 -163.5t-166 -407zM1667 711.5q0 -318.5 -218 -529.5t-552 -211q-258 0 -451 129l-108 -120l-113 88l111 122
q-209 213 -209 532t218 529.5t552 210.5q258 0 453 -131l108 123l111 -88l-111 -123q209 -213 209 -531.5z" />
    <glyph glyph-name="Ugrave" unicode="&#xd9;" horiz-adv-x="1597" 
d="M798.5 -29q-284.5 0 -459.5 177.5t-175 451.5v834h182v-834q0 -211 127 -340t325.5 -129t325.5 129t127 340v834h183v-834q0 -274 -175.5 -451.5t-460 -177.5zM883 1581h-158l-205 301h195l172 -295z" />
    <glyph glyph-name="Uacute" unicode="&#xda;" horiz-adv-x="1597" 
d="M798.5 -29q-284.5 0 -459.5 177.5t-175 451.5v834h182v-834q0 -211 127 -340t325.5 -129t325.5 129t127 340v834h183v-834q0 -274 -175.5 -451.5t-460 -177.5zM713 1581l-4 6l172 295h194l-205 -301h-157z" />
    <glyph glyph-name="Ucircumflex" unicode="&#xdb;" horiz-adv-x="1597" 
d="M798.5 -29q-284.5 0 -459.5 177.5t-175 451.5v834h182v-834q0 -211 127 -340t325.5 -129t325.5 129t127 340v834h183v-834q0 -274 -175.5 -451.5t-460 -177.5zM444 1579l267 301h176l266 -301h-170l-184 195l-187 -195h-168z" />
    <glyph glyph-name="Udieresis" unicode="&#xdc;" horiz-adv-x="1597" 
d="M798.5 -29q-284.5 0 -459.5 177.5t-175 451.5v834h182v-834q0 -211 127 -340t325.5 -129t325.5 129t127 340v834h183v-834q0 -274 -175.5 -451.5t-460 -177.5zM891 1606v219h223v-219h-223zM481 1606v219h224v-219h-224z" />
    <glyph glyph-name="Yacute" unicode="&#xdd;" horiz-adv-x="1449" 
d="M635 0v498l-606 936h202l494 -768l496 768h200l-602 -936v-498h-184zM641 1581l-4 6l172 295h195l-205 -301h-158z" />
    <glyph glyph-name="Thorn" unicode="&#xde;" horiz-adv-x="1349" 
d="M365 414h337q172 0 284 88t112 232t-113 228t-283 82h-337v-630zM184 0v1434h181v-230h356q251 0 405 -131t154 -343t-164 -342t-407 -130h-344v-258h-181z" />
    <glyph glyph-name="germandbls" unicode="&#xdf;" horiz-adv-x="1282" 
d="M1163 396q0 -185 -128 -305t-339 -120q-109 0 -213 39v152q86 -37 207 -37t210 81t89 212t-90 212t-235 81h-62v139l156 211q84 105 84 199t-70 145t-184 51t-189 -64q-74 -64 -73 -167v-1225h-174v1225q0 174 118 277q119 104 313 104q195 0 311 -90t116 -234t-107 -281
l-127 -163q176 -23 282 -140t105 -302z" />
    <glyph glyph-name="agrave" unicode="&#xe0;" horiz-adv-x="1325" 
d="M639 117q147 0 245.5 104.5t98.5 262t-98.5 263t-245.5 105.5t-248.5 -105.5t-101.5 -263t101.5 -262t248.5 -104.5zM627.5 -29q-224.5 0 -368.5 147.5t-144 365.5t144 365.5t367 147.5t353 -192h4v164h176v-969h-176v162h-4q-127 -191 -351.5 -191zM741 1151h-157
l-205 299h194l172 -293z" />
    <glyph glyph-name="aacute" unicode="&#xe1;" horiz-adv-x="1325" 
d="M639 117q147 0 245.5 104.5t98.5 262t-98.5 263t-245.5 105.5t-248.5 -105.5t-101.5 -263t101.5 -262t248.5 -104.5zM627.5 -29q-224.5 0 -368.5 147.5t-144 365.5t144 365.5t367 147.5t353 -192h4v164h176v-969h-176v162h-4q-127 -191 -351.5 -191zM569 1151l-4 6
l172 293h195l-205 -299h-158z" />
    <glyph glyph-name="acircumflex" unicode="&#xe2;" horiz-adv-x="1325" 
d="M639 117q147 0 245.5 104.5t98.5 262t-98.5 263t-245.5 105.5t-248.5 -105.5t-101.5 -263t101.5 -262t248.5 -104.5zM627.5 -29q-224.5 0 -368.5 147.5t-144 365.5t144 365.5t367 147.5t353 -192h4v164h176v-969h-176v162h-4q-127 -191 -351.5 -191zM303 1137l266 299
h176l267 -299h-170l-185 194l-186 -194h-168z" />
    <glyph glyph-name="atilde" unicode="&#xe3;" horiz-adv-x="1325" 
d="M639 117q147 0 245.5 104.5t98.5 262t-98.5 263t-245.5 105.5t-248.5 -105.5t-101.5 -263t101.5 -262t248.5 -104.5zM627.5 -29q-224.5 0 -368.5 147.5t-144 365.5t144 365.5t367 147.5t353 -192h4v164h176v-969h-176v162h-4q-127 -191 -351.5 -191zM817 1180
q-80 0 -172 56t-125 56q-68 0 -76 -80h-141q4 96 59.5 155.5t139.5 59.5t171 -55t124 -55q70 0 73 82h140q2 -94 -55.5 -156.5t-137.5 -62.5z" />
    <glyph glyph-name="adieresis" unicode="&#xe4;" horiz-adv-x="1325" 
d="M639 117q147 0 245.5 104.5t98.5 262t-98.5 263t-245.5 105.5t-248.5 -105.5t-101.5 -263t101.5 -262t248.5 -104.5zM627.5 -29q-224.5 0 -368.5 147.5t-144 365.5t144 365.5t367 147.5t353 -192h4v164h176v-969h-176v162h-4q-127 -191 -351.5 -191zM750 1409h223v-221
h-223v221zM340 1409h223v-221h-223v221z" />
    <glyph glyph-name="aring" unicode="&#xe5;" horiz-adv-x="1325" 
d="M639 117q147 0 245.5 104.5t98.5 262t-98.5 263t-245.5 105.5t-248.5 -105.5t-101.5 -263t101.5 -262t248.5 -104.5zM627.5 -29q-224.5 0 -368.5 147.5t-144 365.5t144 365.5t367 147.5t353 -192h4v164h176v-969h-176v162h-4q-127 -191 -351.5 -191zM657.5 1219
q49.5 0 84 30.5t34.5 79.5t-33.5 81t-84 32t-84 -32t-33.5 -81t33.5 -79.5t83 -30.5zM658 1130q-99 0 -160.5 55.5t-61.5 143.5t62.5 144.5t161 56.5t159 -56.5t60.5 -144.5t-61 -143.5t-160 -55.5z" />
    <glyph glyph-name="ae" unicode="&#xe6;" horiz-adv-x="1996" 
d="M540 109q131 0 227.5 89t96.5 224h-401q-88 0 -141.5 -40t-53.5 -111t70.5 -116.5t201.5 -45.5zM1385.5 856q-142.5 0 -240 -88t-109.5 -227h668q-4 133 -90 224t-228.5 91zM1882 473v-59h-842q18 -133 116.5 -217t238.5 -84q90 0 163.5 33.5t106.5 95.5h186
q-45 -123 -171 -197t-289 -74q-303 0 -445 219q-63 -102 -183 -160.5t-284 -58.5t-272.5 85t-108.5 216t98.5 203t268.5 72h397v28q0 279 -272 279q-219 0 -260 -164h-176q16 139 134 223t302 84q272 0 383 -180q145 180 409 180q225 0 362.5 -143t137.5 -381z" />
    <glyph glyph-name="ccedilla" unicode="&#xe7;" horiz-adv-x="1234" 
d="M643 121q119 0 198 56t103 147h176q-27 -152 -143.5 -245t-286.5 -106l-112 -301h-154l96 310q-186 35 -296 170q-110 136 -109.5 348t147 354.5t381.5 142.5q186 0 317.5 -96t159.5 -258h-176q-25 90 -103.5 147.5t-197.5 57.5q-158 0 -256 -101.5t-98 -263t98 -262
t256 -100.5z" />
    <glyph glyph-name="egrave" unicode="&#xe8;" horiz-adv-x="1249" 
d="M637 856q-143 0 -240.5 -88t-109.5 -227h669q-4 133 -90 224t-229 91zM643 -29q-236 0 -382 141.5t-146 371t143 371.5t372.5 142t367 -143t137.5 -381v-59h-844q20 -135 117.5 -218t236.5 -83q92 0 165 33.5t105 95.5h189q-47 -123 -173 -197t-288 -74zM709 1151h-158
l-205 299h195l172 -293z" />
    <glyph glyph-name="eacute" unicode="&#xe9;" horiz-adv-x="1249" 
d="M637 856q-143 0 -240.5 -88t-109.5 -227h669q-4 133 -90 224t-229 91zM643 -29q-236 0 -382 141.5t-146 371t143 371.5t372.5 142t367 -143t137.5 -381v-59h-844q20 -135 117.5 -218t236.5 -83q92 0 165 33.5t105 95.5h189q-47 -123 -173 -197t-288 -74zM537 1151l-5 6
l173 293h194l-205 -299h-157z" />
    <glyph glyph-name="ecircumflex" unicode="&#xea;" horiz-adv-x="1249" 
d="M637 856q-143 0 -240.5 -88t-109.5 -227h669q-4 133 -90 224t-229 91zM643 -29q-236 0 -382 141.5t-146 371t143 371.5t372.5 142t367 -143t137.5 -381v-59h-844q20 -135 117.5 -218t236.5 -83q92 0 165 33.5t105 95.5h189q-47 -123 -173 -197t-288 -74zM270 1137
l267 299h176l266 -299h-170l-184 194l-187 -194h-168z" />
    <glyph glyph-name="edieresis" unicode="&#xeb;" horiz-adv-x="1249" 
d="M637 856q-143 0 -240.5 -88t-109.5 -227h669q-4 133 -90 224t-229 91zM643 -29q-236 0 -382 141.5t-146 371t143 371.5t372.5 142t367 -143t137.5 -381v-59h-844q20 -135 117.5 -218t236.5 -83q92 0 165 33.5t105 95.5h189q-47 -123 -173 -197t-288 -74zM717 1409h223
v-221h-223v221zM307 1409h223v-221h-223v221z" />
    <glyph glyph-name="igrave" unicode="&#xec;" horiz-adv-x="542" 
d="M184 0v969h174v-969h-174zM354 1151h-157l-205 299h194l172 -293z" />
    <glyph glyph-name="iacute" unicode="&#xed;" horiz-adv-x="542" 
d="M184 0v969h174v-969h-174zM182 1151l-4 6l172 293h195l-205 -299h-158z" />
    <glyph glyph-name="icircumflex" unicode="&#xee;" horiz-adv-x="542" 
d="M184 0v969h174v-969h-174zM-84 1137l266 299h176l267 -299h-170l-185 194l-186 -194h-168z" />
    <glyph glyph-name="idieresis" unicode="&#xef;" horiz-adv-x="542" 
d="M184 0v969h174v-969h-174zM362 1409h224v-221h-224v221zM-47 1409h223v-221h-223v221z" />
    <glyph glyph-name="eth" unicode="&#xf0;" horiz-adv-x="1271" 
d="M650 121q155 0 258 100q104 100 104 253t-102 253t-260 100q-157 0 -259 -100t-102 -253t103 -253t258 -100zM1186 486q0 -220 -152 -368q-152 -146 -384 -146t-384 140q-152 142 -152 363t150 362q150 140 387 140q147 0 262 -94q-98 180 -251 297l-338 -119l-48 113
l261 90q-98 59 -252 116l182 70q141 -49 252 -123l190 68l45 -113l-118 -41q166 -145 258 -340t92 -415z" />
    <glyph glyph-name="ntilde" unicode="&#xf1;" horiz-adv-x="1261" 
d="M166 0v969h174v-154h4q53 84 148.5 133t199.5 49q195 0 316.5 -122.5t121.5 -317.5v-557h-176v549q0 135 -78.5 216t-215.5 81t-228.5 -90t-91.5 -236v-520h-174zM814 1180q-81 0 -171 56t-125 56q-68 0 -76 -80h-141q4 96 59.5 155.5t139.5 59.5t171 -55t124 -55
q70 0 73 82h140q2 -94 -55.5 -156.5t-138.5 -62.5z" />
    <glyph glyph-name="ograve" unicode="&#xf2;" horiz-adv-x="1304" 
d="M653.5 121q157.5 0 260 102.5t102.5 260.5t-102.5 260t-261.5 102t-261 -101.5t-102 -260.5t103.5 -261t261 -102zM653.5 -29q-235.5 0 -387 142.5t-151.5 370t151.5 370.5t385.5 143t386 -143q152 -144 152 -370t-150.5 -369.5t-386 -143.5zM737 1151h-157l-205 299h194
l172 -293z" />
    <glyph glyph-name="oacute" unicode="&#xf3;" horiz-adv-x="1304" 
d="M653.5 121q157.5 0 260 102.5t102.5 260.5t-102.5 260t-261.5 102t-261 -101.5t-102 -260.5t103.5 -261t261 -102zM653.5 -29q-235.5 0 -387 142.5t-151.5 370t151.5 370.5t385.5 143t386 -143q152 -144 152 -370t-150.5 -369.5t-386 -143.5zM565 1151l-4 6l172 293h195
l-205 -299h-158z" />
    <glyph glyph-name="ocircumflex" unicode="&#xf4;" horiz-adv-x="1304" 
d="M653.5 121q157.5 0 260 102.5t102.5 260.5t-102.5 260t-261.5 102t-261 -101.5t-102 -260.5t103.5 -261t261 -102zM653.5 -29q-235.5 0 -387 142.5t-151.5 370t151.5 370.5t385.5 143t386 -143q152 -144 152 -370t-150.5 -369.5t-386 -143.5zM299 1137l266 299h176
l267 -299h-170l-185 194l-186 -194h-168z" />
    <glyph glyph-name="otilde" unicode="&#xf5;" horiz-adv-x="1304" 
d="M653.5 121q157.5 0 260 102.5t102.5 261t-102.5 260t-261.5 101.5t-261 -101.5t-102 -260.5t103.5 -261t261 -102zM653.5 -29q-235.5 0 -387 142.5t-151.5 370t151.5 370.5t385.5 143t386 -143t152 -369.5t-150.5 -370t-386 -143.5zM813 1180q-80 0 -172 56t-125 56
q-68 0 -76 -80h-141q4 96 59.5 155.5t139.5 59.5t171 -55t124 -55q70 0 73 82h140q2 -94 -55.5 -156.5t-137.5 -62.5z" />
    <glyph glyph-name="odieresis" unicode="&#xf6;" horiz-adv-x="1304" 
d="M653.5 121q157.5 0 260 102.5t102.5 260.5t-102.5 260t-261.5 102t-261 -101.5t-102 -260.5t103.5 -261t261 -102zM653.5 -29q-235.5 0 -387 142.5t-151.5 370t151.5 370.5t385.5 143t386 -143q152 -144 152 -370t-150.5 -369.5t-386 -143.5zM745 1409h224v-221h-224v221
zM336 1409h223v-221h-223v221z" />
    <glyph glyph-name="divide" unicode="&#xf7;" horiz-adv-x="1474" 
d="M627 389h221v-211h-221v211zM233 588v153h1008v-153h-1008zM627 1157h221v-211h-221v211z" />
    <glyph glyph-name="oslash" unicode="&#xf8;" horiz-adv-x="1304" 
d="M653 121q158 0 260.5 102.5t102.5 247.5t-76 244l-483 -543q85 -51 196 -51zM289 497.5q0 -145.5 76 -243.5l483 541q-86 51 -195 51q-160 0 -262 -101.5t-102 -247zM1190 477.5q0 -219.5 -150.5 -363t-386.5 -143.5q-170 0 -305 80l-78 -88l-96 76l78 88
q-137 143 -137 363t151.5 363.5t386.5 143.5q168 0 303 -79l78 88l96 -78l-77 -88q137 -143 137 -362.5z" />
    <glyph glyph-name="ugrave" unicode="&#xf9;" horiz-adv-x="1224" 
d="M612 -29q-215 0 -348 121t-133 318v559h174v-549q0 -135 86 -217t222 -82t221.5 82t85.5 217v549h174v-559q0 -197 -133.5 -318t-348.5 -121zM696 1151h-157l-205 299h194l172 -293z" />
    <glyph glyph-name="uacute" unicode="&#xfa;" horiz-adv-x="1224" 
d="M612 -29q-215 0 -348 121t-133 318v559h174v-549q0 -135 86 -217t222 -82t221.5 82t85.5 217v549h174v-559q0 -197 -133.5 -318t-348.5 -121zM524 1151l-4 6l172 293h195l-205 -299h-158z" />
    <glyph glyph-name="ucircumflex" unicode="&#xfb;" horiz-adv-x="1224" 
d="M612 -29q-215 0 -348 121t-133 318v559h174v-549q0 -135 86 -217t222 -82t221.5 82t85.5 217v549h174v-559q0 -197 -133.5 -318t-348.5 -121zM258 1137l266 299h176l267 -299h-170l-185 194l-186 -194h-168z" />
    <glyph glyph-name="udieresis" unicode="&#xfc;" horiz-adv-x="1224" 
d="M612 -29q-215 0 -348 121t-133 318v559h174v-549q0 -135 86 -217t222 -82t221.5 82t85.5 217v549h174v-559q0 -197 -133.5 -318t-348.5 -121zM705 1409h223v-221h-223v221zM295 1409h223v-221h-223v221z" />
    <glyph glyph-name="yacute" unicode="&#xfd;" horiz-adv-x="1314" 
d="M1057 969h188l-676 -1436h-188l205 430l-516 1006h188l416 -815h4zM727 1151h-158l-4 6l172 293h195z" />
    <glyph glyph-name="thorn" unicode="&#xfe;" horiz-adv-x="1325" 
d="M686 117q147 0 248 105q100 105 100 261t-100 262q-100 107 -248 107t-246 -106q-100 -106 -100 -262q0 -157 100 -262t246 -105zM166 -467v2044h174v-772h4q62 92 160 142t207 50q213 0 356 -147q143 -148 143 -368t-146 -366t-353 -147q-111 0 -207 51t-160 144h-4
v-631h-174z" />
    <glyph glyph-name="ydieresis" unicode="&#xff;" horiz-adv-x="1314" 
d="M1057 969h188l-676 -1436h-188l205 430l-516 1006h188l416 -815h4zM973 1409v-221h-223v221h223zM563 1409v-221h-223v221h223z" />
    <glyph glyph-name="Amacron" unicode="&#x100;" horiz-adv-x="1613" 
d="M502 555h612l-303 670h-6zM55 0l668 1434h170l663 -1434h-192l-182 395h-750l-180 -395h-197zM504 1608v135h606v-135h-606z" />
    <glyph glyph-name="amacron" unicode="&#x101;" horiz-adv-x="1325" 
d="M639 117q147 0 245.5 104.5t98.5 262t-98.5 263t-245.5 105.5t-248.5 -105.5t-101.5 -263t101.5 -262t248.5 -104.5zM627.5 -29q-224.5 0 -368.5 147.5t-144 365.5t144 365.5t367 147.5t353 -192h4v164h176v-969h-176v162h-4q-127 -191 -351.5 -191zM354 1192v137h607
v-137h-607z" />
    <glyph glyph-name="Abreve" unicode="&#x102;" horiz-adv-x="1613" 
d="M502 555h612l-303 670h-6zM55 0l668 1434h170l663 -1434h-192l-182 395h-750l-180 -395h-197zM807 1593q-145 0 -228 82t-87 211h129q6 -80 54 -130t132 -50t132 50t54 130h129q-4 -129 -87 -211t-228 -82z" />
    <glyph glyph-name="abreve" unicode="&#x103;" horiz-adv-x="1325" 
d="M639 117q147 0 245.5 104.5t98.5 262t-98.5 263t-245.5 105.5t-248.5 -105.5t-101.5 -263t101.5 -262t248.5 -104.5zM627.5 -29q-224.5 0 -368.5 147.5t-144 365.5t144 365.5t367 147.5t353 -192h4v164h176v-969h-176v162h-4q-127 -191 -351.5 -191zM657.5 1128
q-145.5 0 -228.5 82t-87 211h129q6 -80 54 -130t132 -50t132.5 50t54.5 130h129q-4 -129 -87 -211t-228.5 -82z" />
    <glyph glyph-name="Aogonek" unicode="&#x104;" horiz-adv-x="1613" 
d="M502 555h612l-303 670h-6zM1491 -381q-121 0 -202 56.5t-81 154.5q0 131 142 201l-168 364h-750l-180 -395h-197l668 1434h170l663 -1434h-24q-174 -43 -174 -143q0 -51 45 -78t94 -27t98 8l19 -125q-55 -16 -123 -16z" />
    <glyph glyph-name="aogonek" unicode="&#x105;" horiz-adv-x="1325" 
d="M639 117q147 0 245.5 104.5t98.5 262t-98.5 263t-245.5 105.5t-248.5 -105.5t-101.5 -263t101.5 -262t248.5 -104.5zM1118 -381q-121 0 -201.5 56.5t-80.5 154.5q0 133 147 203v129h-4q-127 -190 -351.5 -190.5t-368.5 147t-144 365.5t144 365.5t367 147.5t353 -192h4
v164h176v-969q-174 -43 -174 -143q0 -51 45 -78t94.5 -27t98.5 8l18 -125q-55 -16 -123 -16z" />
    <glyph glyph-name="Cacute" unicode="&#x106;" horiz-adv-x="1730" 
d="M897 137q195 0 332 98.5t186 270.5h187q-49 -244 -245 -388.5t-460 -144.5q-342 0 -556 208t-214 538t215 536.5t555 206.5q264 0 459.5 -144t245.5 -386h-187q-49 170 -186 268t-332 98q-258 0 -421 -161.5t-163 -417.5t163 -419t421 -163zM778 1581l-4 6l172 295h195
l-205 -301h-158z" />
    <glyph glyph-name="cacute" unicode="&#x107;" horiz-adv-x="1234" 
d="M643 -29q-236 0 -382 141.5t-146 371t146.5 371.5t381.5 142q186 0 317.5 -96t159.5 -258h-176q-25 90 -103.5 147.5t-197.5 57.5q-158 0 -256 -101.5t-98 -263t98 -262t256 -100.5q119 0 198 56t103 147h176q-29 -162 -160 -257.5t-317 -95.5zM526 1151l-4 6l172 293
h195l-205 -299h-158z" />
    <glyph glyph-name="Cdotaccent" unicode="&#x10a;" horiz-adv-x="1730" 
d="M897 137q195 0 332 98.5t186 270.5h187q-49 -244 -245 -388.5t-460 -144.5q-342 0 -556 208t-214 538t215 536.5t555 206.5q264 0 459.5 -144t245.5 -386h-187q-49 170 -186 268t-332 98q-258 0 -421 -161.5t-163 -417.5t163 -419t421 -163zM752 1825h223v-219h-223v219z
" />
    <glyph glyph-name="cdotaccent" unicode="&#x10b;" horiz-adv-x="1234" 
d="M643 -29q-236 0 -382 141.5t-146 371t146.5 371.5t381.5 142q186 0 317.5 -96t159.5 -258h-176q-25 90 -103.5 147.5t-197.5 57.5q-158 0 -256 -101.5t-98 -263t98 -262t256 -100.5q119 0 198 56t103 147h176q-29 -162 -160 -257.5t-317 -95.5zM502 1409h223v-221h-223
v221z" />
    <glyph glyph-name="Ccaron" unicode="&#x10c;" horiz-adv-x="1730" 
d="M897 137q195 0 332 98.5t186 270.5h187q-49 -244 -245 -388.5t-460 -144.5q-342 0 -556 208t-214 538t215 536.5t555 206.5q264 0 459.5 -144t245.5 -386h-187q-49 170 -186 268t-332 98q-258 0 -421 -161.5t-163 -417.5t163 -419t421 -163zM776 1579l-266 301h168
l186 -194l185 194h170l-267 -301h-176z" />
    <glyph glyph-name="ccaron" unicode="&#x10d;" horiz-adv-x="1234" 
d="M643 -29q-236 0 -382 141.5t-146 371t146.5 371.5t381.5 142q186 0 317.5 -96t159.5 -258h-176q-25 90 -103.5 147.5t-197.5 57.5q-158 0 -256 -101.5t-98 -263t98 -262t256 -100.5q119 0 198 56t103 147h176q-29 -162 -160 -257.5t-317 -95.5zM526 1137l-266 299h168
l186 -195l185 195h170l-267 -299h-176z" />
    <glyph glyph-name="Dcaron" unicode="&#x10e;" horiz-adv-x="1615" 
d="M682 158q281 0 449.5 152.5t168.5 406.5t-168.5 406.5t-449.5 152.5h-317v-1118h317zM700 1434q356 0 571.5 -196t215.5 -521.5t-215 -521t-572 -195.5h-516v1434h516zM721 1579l-266 301h168l186 -194l184 194h170l-266 -301h-176z" />
    <glyph glyph-name="dcaron" unicode="&#x10f;" horiz-adv-x="1325" 
d="M639 117q147 0 245.5 104.5t98.5 262t-98.5 263t-245.5 105.5t-248.5 -106.5t-101.5 -262t101.5 -261t248.5 -105.5zM1346 1190l18 387h180l-63 -387h-135zM616 997q113 0 210.5 -52t152.5 -140h4v772h176v-1577h-176v162h-4q-131 -190 -353 -190t-366.5 147t-144.5 365
t144 365.5t357 147.5z" />
    <glyph glyph-name="Dcroat" unicode="&#x110;" horiz-adv-x="1615" 
d="M682 158q281 0 449.5 152.5t168.5 406.5t-168.5 406.5t-449.5 152.5h-317v-479h370v-158h-370v-481h317zM700 1434q356 0 571.5 -196t215.5 -521.5t-215 -521t-572 -195.5h-516v639h-141v158h141v637h516z" />
    <glyph glyph-name="dcroat" unicode="&#x111;" horiz-adv-x="1447" 
d="M639 117q147 0 245.5 104.5t98.5 262t-98.5 263t-245.5 105.5t-248.5 -106.5t-101.5 -262t101.5 -261t248.5 -105.5zM1247 1303v-140h-88v-1163h-176v162h-4q-131 -190 -353 -190t-366.5 147t-144.5 365t144 365.5t357 147.5q113 0 210.5 -52t152.5 -140h4v358h-405v140
h405v274h176v-274h88z" />
    <glyph glyph-name="Emacron" unicode="&#x112;" horiz-adv-x="1339" 
d="M1223 1276h-858v-485h772v-160h-772v-473h858v-158h-1039v1434h1039v-158zM403 1608v135h607v-135h-607z" />
    <glyph glyph-name="emacron" unicode="&#x113;" horiz-adv-x="1249" 
d="M637 856q-143 0 -240.5 -88t-109.5 -227h669q-4 133 -90 224t-229 91zM643 -29q-236 0 -382 141.5t-146 371t143 371.5t372.5 142t367 -143t137.5 -381v-59h-844q20 -135 117.5 -218t236.5 -83q92 0 165 33.5t105 95.5h189q-47 -123 -173 -197t-288 -74zM322 1192v137
h606v-137h-606z" />
    <glyph glyph-name="Edotaccent" unicode="&#x116;" horiz-adv-x="1339" 
d="M1223 1276h-858v-485h772v-160h-772v-473h858v-158h-1039v1434h1039v-158zM594 1825h223v-219h-223v219z" />
    <glyph glyph-name="edotaccent" unicode="&#x117;" horiz-adv-x="1249" 
d="M637 856q-143 0 -240.5 -88t-109.5 -227h669q-4 133 -90 224t-229 91zM643 -29q-236 0 -382 141.5t-146 371t143 371.5t372.5 142t367 -143t137.5 -381v-59h-844q20 -135 117.5 -218t236.5 -83q92 0 165 33.5t105 95.5h189q-47 -123 -173 -197t-288 -74zM512 1409h223
v-221h-223v221z" />
    <glyph glyph-name="Eogonek" unicode="&#x118;" horiz-adv-x="1339" 
d="M1104 -381q-121 0 -202 56.5t-81 157.5t90 167h-727v1434h1039v-158h-858v-485h772v-160h-772v-473h858v-158h-78q-174 -43 -174 -143q0 -51 45 -78t94 -27t98 8l19 -125q-55 -16 -123 -16z" />
    <glyph glyph-name="eogonek" unicode="&#x119;" horiz-adv-x="1249" 
d="M637 856q-143 0 -240.5 -88t-109.5 -227h669q-4 133 -90 224t-229 91zM1135 473v-59h-844q20 -135 117.5 -218t236.5 -83q92 0 165 33.5t105 95.5h189q-69 -182 -309 -252q-115 -45 -115 -125q0 -51 45 -78t94.5 -27t98.5 9l18 -125q-55 -16 -149.5 -16.5t-175.5 56
t-81 144.5t52 145q-211 20 -339 158.5t-128 359.5t143 363.5t372.5 142.5t367 -143t137.5 -381z" />
    <glyph glyph-name="Ecaron" unicode="&#x11a;" horiz-adv-x="1339" 
d="M1223 1276h-858v-485h772v-160h-772v-473h858v-158h-1039v1434h1039v-158zM618 1579l-266 301h168l187 -194l184 194h170l-266 -301h-177z" />
    <glyph glyph-name="ecaron" unicode="&#x11b;" horiz-adv-x="1249" 
d="M637 856q-143 0 -240.5 -88t-109.5 -227h669q-4 133 -90 224t-229 91zM643 -29q-236 0 -382 141.5t-146 371t143 371.5t372.5 142t367 -143t137.5 -381v-59h-844q20 -135 117.5 -218t236.5 -83q92 0 165 33.5t105 95.5h189q-47 -123 -173 -197t-288 -74zM537 1137
l-267 299h168l187 -195l184 195h170l-266 -299h-176z" />
    <glyph glyph-name="Gbreve" unicode="&#x11e;" horiz-adv-x="1742" 
d="M888 -29q-335 0 -548 208t-213 538t215 537.5t553 207.5q270 0 461.5 -136t249.5 -355h-191q-53 156 -194.5 241.5t-325.5 85.5q-254 0 -418 -162.5t-164 -417.5t162 -418t398.5 -163t378 126t163.5 319h-559v157h756q2 -354 -193.5 -561t-530.5 -207zM882.5 1593
q-145.5 0 -228.5 82t-87 211h129q6 -80 54.5 -130t132.5 -50t132 50t54 130h129q-4 -129 -87 -211t-228.5 -82z" />
    <glyph glyph-name="gbreve" unicode="&#x11f;" horiz-adv-x="1323" 
d="M636.5 117q147.5 0 247 105.5t99.5 262t-99.5 262t-247 105.5t-247.5 -105.5t-100 -262.5t100 -262t247.5 -105zM983 969h174v-996q0 -211 -138 -340t-356.5 -129t-351.5 99.5t-164 263.5h181q23 -100 109.5 -156.5t226 -56.5t229.5 88t90 231v189h-4
q-61 -90 -157.5 -140.5t-205.5 -50.5q-215 0 -358 146.5t-143 365.5t143 366.5t358 147.5q109 0 204 -50t159 -140h4v162zM651.5 1128q-145.5 0 -228.5 82t-87 211h129q6 -80 54 -130t132 -50t132.5 50t54.5 130h129q-4 -129 -87 -211t-228.5 -82z" />
    <glyph glyph-name="Gdotaccent" unicode="&#x120;" horiz-adv-x="1742" 
d="M888 -29q-335 0 -548 208t-213 538t215 537.5t553 207.5q270 0 461.5 -136t249.5 -355h-191q-53 156 -194.5 241.5t-325.5 85.5q-254 0 -418 -162.5t-164 -417.5t162 -418t398.5 -163t378 126t163.5 319h-559v157h756q2 -354 -193.5 -561t-530.5 -207zM770 1825h223v-219
h-223v219z" />
    <glyph glyph-name="gdotaccent" unicode="&#x121;" horiz-adv-x="1323" 
d="M636.5 117q147.5 0 247 105.5t99.5 262t-99.5 262t-247 105.5t-247.5 -105.5t-100 -262.5t100 -262t247.5 -105zM983 969h174v-996q0 -211 -138 -340t-356.5 -129t-351.5 99.5t-164 263.5h181q23 -100 109.5 -156.5t226 -56.5t229.5 88t90 231v189h-4
q-61 -90 -157.5 -140.5t-205.5 -50.5q-215 0 -358 146.5t-143 365.5t143 366.5t358 147.5q109 0 204 -50t159 -140h4v162zM539 1409h223v-221h-223v221z" />
    <glyph glyph-name="Gcommaaccent" unicode="&#x122;" horiz-adv-x="1742" 
d="M780 -125h221v-113q0 -127 -50 -186t-191 -94l-23 84q84 31 109.5 57.5t27.5 81.5h-94v170zM888 -29q-335 0 -548 208t-213 538t215 537.5t553 207.5q270 0 461.5 -136t249.5 -355h-191q-53 156 -194.5 241.5t-325.5 85.5q-254 0 -418 -162.5t-164 -417.5t162 -418
t398.5 -163t378 126t163.5 319h-559v157h756q2 -354 -193.5 -561t-530.5 -207z" />
    <glyph glyph-name="gcommaaccent" unicode="&#x123;" horiz-adv-x="1331" 
d="M636.5 117q147.5 0 247 105.5t99.5 262t-99.5 262t-247 105.5t-247.5 -105.5t-100 -262.5t100 -262t247.5 -105zM983 969h174v-996q0 -211 -138 -340t-356.5 -129t-351.5 99.5t-164 263.5h181q23 -100 109.5 -156.5t226 -56.5t229.5 88t90 231v189h-4
q-61 -90 -157.5 -140.5t-205.5 -50.5q-215 0 -358 146.5t-143 365.5t143 366.5t358 147.5q109 0 204 -50t159 -140h4v162zM762 1188h-221v112q0 127 50 186.5t191 94.5l23 -84q-84 -31 -109.5 -57.5t-27.5 -81.5h94v-170z" />
    <glyph glyph-name="Hbar" unicode="&#x126;" horiz-adv-x="1583" 
d="M365 788h854v250h-854v-250zM1219 1434h182v-1434h-182v629h-854v-629h-181v1434h181v-252h854v252z" />
    <glyph glyph-name="hbar" unicode="&#x127;" horiz-adv-x="1415" 
d="M694 997q193 0 314.5 -122.5t121.5 -317.5v-557h-176v549q0 135 -78.5 216t-214.5 81t-228.5 -92t-92.5 -234v-520h-174v1192h-109v121h109v264h174v-264h365v-121h-365v-383h4q61 90 153.5 139t196.5 49z" />
    <glyph glyph-name="Itilde" unicode="&#x128;" horiz-adv-x="548" 
d="M184 0v1434h181v-1434h-181zM436 1628q-80 0 -171 57.5t-126 57.5q-68 0 -76 -82h-141q4 96 59.5 155.5t139.5 59.5t171 -55.5t124 -55.5q70 0 73 82h140q2 -94 -55.5 -156.5t-137.5 -62.5z" />
    <glyph glyph-name="itilde" unicode="&#x129;" horiz-adv-x="542" 
d="M184 0v969h174v-969h-174zM429 1180q-81 0 -171 56t-125 56q-68 0 -76 -80h-141q4 96 59.5 155.5t139.5 59.5t171 -55t124 -55q70 0 73 82h140q2 -94 -55.5 -156.5t-138.5 -62.5z" />
    <glyph glyph-name="Imacron" unicode="&#x12a;" horiz-adv-x="548" 
d="M184 0v1434h181v-1434h-181zM-27 1608v135h607v-135h-607z" />
    <glyph glyph-name="imacron" unicode="&#x12b;" horiz-adv-x="542" 
d="M184 0v969h174v-969h-174zM-33 1192v137h606v-137h-606z" />
    <glyph glyph-name="Iogonek" unicode="&#x12e;" horiz-adv-x="548" 
d="M319 -381q-121 0 -201.5 56.5t-80.5 154.5q0 133 147 203v1401h181v-1434h-5q-174 -43 -174 -143q0 -51 45 -78t94.5 -27t98.5 8l18 -125q-55 -16 -123 -16z" />
    <glyph glyph-name="iogonek" unicode="&#x12f;" horiz-adv-x="542" 
d="M317 -381q-121 0 -201.5 56.5t-80.5 154.5q0 135 149 205v934h174v-969q-174 -43 -174 -143q0 -51 45 -78t94.5 -27t98.5 8l18 -125q-55 -16 -123 -16zM362 1577v-242h-182v242h182z" />
    <glyph glyph-name="Idotaccent" unicode="&#x130;" horiz-adv-x="548" 
d="M184 0v1434h181v-1434h-181zM164 1825h223v-219h-223v219z" />
    <glyph glyph-name="dotlessi" unicode="&#x131;" horiz-adv-x="542" 
d="M184 0v969h174v-969h-174z" />
    <glyph glyph-name="IJ" unicode="&#x132;" horiz-adv-x="1828" 
d="M1139.5 -29q-234.5 0 -379 117t-168.5 324h180q25 -129 116 -205t249 -76t251 105.5t93 275.5v764h-697v158h881v-928q0 -250 -145.5 -392.5t-380 -142.5zM184 0v1434h181v-1434h-181z" />
    <glyph glyph-name="ij" unicode="&#x133;" horiz-adv-x="1085" 
d="M498 -496v144l16 2q115 6 164 57t49 182v1080h174v-1061q0 -213 -88 -308.5t-281 -95.5h-34zM184 0v969h174v-969h-174zM723 1335v242h182v-242h-182zM180 1335v242h182v-242h-182z" />
    <glyph glyph-name="Kcommaaccent" unicode="&#x136;" horiz-adv-x="1509" 
d="M639 -295v170h221v-113q0 -127 -50 -186t-192 -94l-22 84q84 31 109.5 57.5t27.5 81.5h-94zM365 0h-181v1434h181v-717l790 717h229l-792 -717l872 -717h-245l-854 702v-702z" />
    <glyph glyph-name="kcommaaccent" unicode="&#x137;" horiz-adv-x="1224" 
d="M483 -125h222v-113q0 -127 -50.5 -186t-191.5 -94l-23 84q84 31 109.5 57.5t28.5 81.5h-95v170zM166 0v1577h174v-1094l545 486h217l-543 -486l629 -483h-238l-610 469v-469h-174z" />
    <glyph glyph-name="kgreenlandic" unicode="&#x138;" horiz-adv-x="1224" 
d="M166 0v969h174v-486l545 486h217l-543 -486l629 -483h-238l-610 469v-469h-174z" />
    <glyph glyph-name="Lacute" unicode="&#x139;" horiz-adv-x="1239" 
d="M365 154h811v-154h-992v1434h181v-1280zM190 1581l-4 6l172 295h195l-205 -301h-158z" />
    <glyph glyph-name="lacute" unicode="&#x13a;" horiz-adv-x="507" 
d="M166 0v1577h174v-1577h-174zM168 1724l-4 7l172 294h194l-204 -301h-158z" />
    <glyph glyph-name="Lcommaaccent" unicode="&#x13b;" horiz-adv-x="1239" 
d="M535 -125h221v-113q0 -127 -50.5 -186t-191.5 -94l-22 84q84 31 109.5 57.5t27.5 81.5h-94v170zM365 154h811v-154h-992v1434h181v-1280z" />
    <glyph glyph-name="lcommaaccent" unicode="&#x13c;" horiz-adv-x="507" 
d="M143 -125h222v-113q0 -127 -50.5 -186t-191.5 -94l-23 84q84 31 110 57.5t28 81.5h-95v170zM166 0v1577h174v-1577h-174z" />
    <glyph glyph-name="Lcaron" unicode="&#x13d;" horiz-adv-x="1239" 
d="M694 1047l19 387h180l-64 -387h-135zM365 154h811v-154h-992v1434h181v-1280z" />
    <glyph glyph-name="lcaron" unicode="&#x13e;" horiz-adv-x="507" 
d="M506 1190l18 387h181l-64 -387h-135zM166 0v1577h174v-1577h-174z" />
    <glyph glyph-name="Ldot" unicode="&#x13f;" horiz-adv-x="1239" 
d="M702 821h222v-211h-222v211zM365 154h811v-154h-992v1434h181v-1280z" />
    <glyph glyph-name="ldot" unicode="&#x140;" horiz-adv-x="507" 
d="M457 659h221v-210h-221v210zM166 0v1577h174v-1577h-174z" />
    <glyph glyph-name="Lslash" unicode="&#x141;" horiz-adv-x="1239" 
d="M365 154h811v-154h-992v530l-155 -69v147l155 70v756h181v-674l348 155v-149l-348 -156v-456z" />
    <glyph glyph-name="lslash" unicode="&#x142;" horiz-adv-x="507" 
d="M340 0h-174v627l-152 -68v170l152 70v778h174v-700l156 71v-172l-156 -69v-707z" />
    <glyph glyph-name="Nacute" unicode="&#x143;" horiz-adv-x="1632" 
d="M1268 1434h182v-1434h-152l-933 1122v-1122h-181v1434h146l938 -1137v1137zM731 1581l-4 6l172 295h195l-205 -301h-158z" />
    <glyph glyph-name="nacute" unicode="&#x144;" horiz-adv-x="1261" 
d="M166 0v969h174v-154h4q53 84 148.5 133t199.5 49q195 0 316.5 -122.5t121.5 -317.5v-557h-176v549q0 135 -78.5 216t-215.5 81t-228.5 -90t-91.5 -236v-520h-174zM567 1151l-4 6l172 293h195l-205 -299h-158z" />
    <glyph glyph-name="Ncommaaccent" unicode="&#x145;" horiz-adv-x="1632" 
d="M723 -125h221v-113q0 -127 -50 -186t-192 -94l-22 84q84 31 109.5 57.5t27.5 81.5h-94v170zM1268 1434h182v-1434h-152l-933 1122v-1122h-181v1434h146l938 -1137v1137z" />
    <glyph glyph-name="ncommaaccent" unicode="&#x146;" horiz-adv-x="1261" 
d="M545 -125h221v-113q0 -127 -50 -186t-192 -94l-22 84q84 31 109.5 57.5t27.5 81.5h-94v170zM166 0v969h174v-154h4q53 84 148.5 133t199.5 49q195 0 316.5 -122.5t121.5 -317.5v-557h-176v549q0 135 -78.5 216t-215.5 81t-228.5 -90t-91.5 -236v-520h-174z" />
    <glyph glyph-name="Ncaron" unicode="&#x147;" horiz-adv-x="1632" 
d="M1268 1434h182v-1434h-152l-933 1122v-1122h-181v1434h146l938 -1137v1137zM729 1579l-266 301h168l186 -194l184 194h170l-266 -301h-176z" />
    <glyph glyph-name="ncaron" unicode="&#x148;" horiz-adv-x="1261" 
d="M166 0v969h174v-154h4q53 84 148.5 133t199.5 49q195 0 316.5 -122.5t121.5 -317.5v-557h-176v549q0 135 -78.5 216t-215.5 81t-228.5 -90t-91.5 -236v-520h-174zM567 1137l-266 299h168l186 -195l185 195h170l-267 -299h-176z" />
    <glyph glyph-name="Eng" unicode="&#x14a;" horiz-adv-x="1632" 
d="M1268 1434h182v-1405q-2 -246 -147 -385t-396 -140q-125 0 -241 41l24 148q100 -29 201 -29q176 0 273 98t102 277l-901 1083v-1122h-181v1434h146l936 -1135v63l2 -4v1076z" />
    <glyph glyph-name="eng" unicode="&#x14b;" horiz-adv-x="1310" 
d="M725 -496v144l16 2q115 6 164 57t49 182v660q0 135 -78 216q-79 81 -216 81q-136 0 -228 -90t-92 -236v-520h-174v969h174v-154h4q52 84 148 133t200 49q195 0 317 -123t121 -317v-649q0 -213 -89 -308t-281 -96h-35z" />
    <glyph glyph-name="Omacron" unicode="&#x14c;" horiz-adv-x="1794" 
d="M897 133q254 0 420 164t166 420t-166 419.5t-420 163.5t-420 -163.5t-166 -419.5t166 -420t420 -164zM897 -29q-334 0 -552 211t-218 534.5t218 534.5t552 211t552 -211t218 -534.5t-218 -534.5t-552 -211zM594 1608v135h606v-135h-606z" />
    <glyph glyph-name="omacron" unicode="&#x14d;" horiz-adv-x="1304" 
d="M653.5 121q157.5 0 260 102.5t102.5 260.5t-102.5 260t-261.5 102t-261 -101.5t-102 -260.5t103.5 -261t261 -102zM653.5 -29q-235.5 0 -387 142.5t-151.5 370t151.5 370.5t385.5 143t386 -143q152 -144 152 -370t-150.5 -369.5t-386 -143.5zM350 1192v137h606v-137h-606
z" />
    <glyph glyph-name="Ohungarumlaut" unicode="&#x150;" horiz-adv-x="1794" 
d="M897 133q254 0 420 164t166 420t-166 419.5t-420 163.5t-420 -163.5t-166 -419.5t166 -420t420 -164zM897 -29q-334 0 -552 211t-218 534.5t218 534.5t552 211t552 -211t218 -534.5t-218 -534.5t-552 -211zM975 1604l-4 6l149 293h183l-183 -299h-145zM676 1604l-4 6
l149 293h183l-183 -299h-145z" />
    <glyph glyph-name="ohungarumlaut" unicode="&#x151;" horiz-adv-x="1304" 
d="M653.5 121q157.5 0 260 102.5t102.5 260.5t-102.5 260t-261.5 102t-261 -101.5t-102 -260.5t103.5 -261t261 -102zM653.5 -29q-235.5 0 -387 142.5t-151.5 370t151.5 370.5t385.5 143t386 -143q152 -144 152 -370t-150.5 -369.5t-386 -143.5zM731 1151l-4 6l150 293h182
l-182 -299h-146zM432 1151l-4 6l150 293h182l-182 -299h-146z" />
    <glyph glyph-name="OE" unicode="&#x152;" horiz-adv-x="2189" 
d="M918 158h114v1118h-114q-283 0 -459 -156t-176 -404t176 -402q176 -156 459 -156zM899 0q-358 0 -581 199q-222 199 -222 518t222 518t581 199h1172v-158h-859v-485h773v-160h-773v-473h859v-158h-1172z" />
    <glyph glyph-name="oe" unicode="&#x153;" horiz-adv-x="2150" 
d="M653 121q158 0 260 102q103 102 103 261t-102 260q-102 102 -262 102q-159 0 -261 -102t-102 -260q0 -159 103 -261t261 -102zM1538 856q-142 0 -240 -88t-110 -227h670q-4 133 -90 224t-230 91zM2036 473v-59h-844q20 -135 118 -218t236 -83q90 -1 164 33t107 96h186
q-45 -123 -171 -197t-290 -74q-297 0 -440 215q-150 -215 -449 -215q-235 1 -387 143t-151 369q0 227 151 371q152 143 387 143q143 0 259 -57t188 -158q66 102 180 158t254 57q226 0 364 -143t138 -381z" />
    <glyph glyph-name="Racute" unicode="&#x154;" horiz-adv-x="1464" 
d="M365 1276v-543h364q190 0 297 73t107 200t-103.5 198.5t-286.5 71.5h-378zM365 575v-575h-181v1434h576q254 0 403.5 -116t149.5 -312q0 -164 -111.5 -274.5t-306.5 -143.5l500 -588h-226l-487 575h-317zM795 1581h-158l-4 6l172 295h194z" />
    <glyph glyph-name="racute" unicode="&#x155;" horiz-adv-x="788" 
d="M166 0v969h174v-168h4q45 94 122 145q78 51 150 51t121 -12v-160q-45 14 -96 15q-139 0 -220 -101.5t-81 -275.5v-463h-174zM319 1151l-4 6l172 293h195l-205 -299h-158z" />
    <glyph glyph-name="Rcommaaccent" unicode="&#x156;" horiz-adv-x="1464" 
d="M612 -295v170h222v-113q0 -127 -50.5 -186t-191.5 -94l-23 84q84 31 110 57.5t28 81.5h-95zM365 1276v-543h364q190 0 297 73t107 200t-103.5 198.5t-286.5 71.5h-378zM365 575v-575h-181v1434h576q254 0 403.5 -116t149.5 -312q0 -164 -111.5 -274.5t-306.5 -143.5
l500 -588h-226l-487 575h-317z" />
    <glyph glyph-name="rcommaaccent" unicode="&#x157;" horiz-adv-x="788" 
d="M145 -125h222v-113q0 -127 -50.5 -186t-191.5 -94l-23 84q84 31 110 57.5t28 81.5h-95v170zM166 0v969h174v-168h4q45 94 122 145q78 51 150 51t121 -12v-160q-45 14 -96 15q-139 0 -220 -101.5t-81 -275.5v-463h-174z" />
    <glyph glyph-name="Rcaron" unicode="&#x158;" horiz-adv-x="1464" 
d="M365 1276v-543h364q190 0 297 73t107 200t-103.5 198.5t-286.5 71.5h-378zM365 575v-575h-181v1434h576q254 0 403.5 -116t149.5 -312q0 -164 -111.5 -274.5t-306.5 -143.5l500 -588h-226l-487 575h-317zM811 1579h-176l-266 301h168l186 -194l184 194h170z" />
    <glyph glyph-name="rcaron" unicode="&#x159;" horiz-adv-x="788" 
d="M166 0v969h174v-168h4q45 94 122 145q78 51 150 51t121 -12v-160q-45 14 -96 15q-139 0 -220 -101.5t-81 -275.5v-463h-174zM319 1137l-266 299h168l187 -195l184 195h170l-266 -299h-177z" />
    <glyph glyph-name="Sacute" unicode="&#x15a;" horiz-adv-x="1421" 
d="M727 -29q-260 0 -424 127t-188 351h178q27 -152 142.5 -238t297 -86t278.5 69.5t96 176t-70.5 164t-172 76t-223.5 44t-223.5 57t-172 117.5t-71.5 224q-4 182 140.5 295.5t389 113.5t400.5 -110.5t182 -304.5h-182q-25 125 -125 196.5t-263 71.5t-258.5 -70.5
t-92.5 -181.5q0 -84 51 -137.5t133 -78t180 -40.5t196.5 -39t179.5 -60.5t132 -116.5t53 -196q2 -190 -150.5 -307t-412.5 -117zM625 1581l-4 6l172 295h194l-205 -301h-157z" />
    <glyph glyph-name="sacute" unicode="&#x15b;" horiz-adv-x="1118" 
d="M565 -29q-199 0 -325.5 90.5t-141.5 241.5h166q14 -94 100.5 -145.5t207.5 -51.5t188 43.5t67 114t-70.5 107.5t-171 50t-201.5 32.5t-172 82t-71 182.5t113 199.5t294 79.5t304 -83t137 -224h-166q-12 80 -93 128t-184 48t-168 -39t-65 -103t50.5 -99t127 -45.5
t164.5 -27.5t165 -40t127 -84t50 -158q0 -135 -116.5 -217t-315.5 -82zM473 1151l-4 6l172 293h195l-205 -299h-158z" />
    <glyph glyph-name="Scedilla" unicode="&#x15e;" horiz-adv-x="1421" 
d="M732.5 125q181.5 0 278.5 69.5t96 176t-70.5 164t-172 76t-223.5 44t-223.5 57t-172 117.5t-71.5 224q-4 182 140.5 295.5t389 113.5t400.5 -110.5t182 -304.5h-182q-25 125 -125 196.5t-263 71.5t-258.5 -70.5t-92.5 -181.5q0 -84 51 -137.5t133 -78t180 -40.5
t196.5 -39t179.5 -60.5t132 -116.5t53 -196q2 -182 -136 -296.5t-368 -125.5l-112 -301h-154l96 308q-219 27 -349 149.5t-152 319.5h178q27 -152 142.5 -238t297 -86z" />
    <glyph glyph-name="scedilla" unicode="&#x15f;" horiz-adv-x="1118" 
d="M997 256.5q0 -109.5 -98 -189t-262 -94.5l-113 -301h-153l94 305q-162 23 -258 109t-109 217h166q14 -94 100.5 -145.5t207.5 -51.5t188 43.5t67 114t-70.5 107.5t-171 50t-201.5 32.5t-172 82t-71 182.5t113 199.5t294 79.5t304 -83t137 -224h-166q-12 80 -93 128
t-184 48t-168 -39t-65 -103t50.5 -99t127 -45.5t164.5 -27.5t165 -40t127 -84.5t50 -171z" />
    <glyph glyph-name="Scaron" unicode="&#x160;" horiz-adv-x="1421" 
d="M727 -29q-260 0 -424 127t-188 351h178q27 -152 142.5 -238t297 -86t278.5 69.5t96 176t-70.5 164t-172 76t-223.5 44t-223.5 57t-172 117.5t-71.5 224q-4 182 140.5 295.5t389 113.5t400.5 -110.5t182 -304.5h-182q-25 125 -125 196.5t-263 71.5t-258.5 -70.5
t-92.5 -181.5q0 -84 51 -137.5t133 -78t180 -40.5t196.5 -39t179.5 -60.5t132 -116.5t53 -196q2 -190 -150.5 -307t-412.5 -117zM623 1579l-267 301h168l187 -194l184 194h170l-266 -301h-176z" />
    <glyph glyph-name="scaron" unicode="&#x161;" horiz-adv-x="1118" 
d="M565 -29q-199 0 -325.5 90.5t-141.5 241.5h166q14 -94 100.5 -145.5t207.5 -51.5t188 43.5t67 114t-70.5 107.5t-171 50t-201.5 32.5t-172 82t-71 182.5t113 199.5t294 79.5t304 -83t137 -224h-166q-12 80 -93 128t-184 48t-168 -39t-65 -103t50.5 -99t127 -45.5
t164.5 -27.5t165 -40t127 -84t50 -158q0 -135 -116.5 -217t-315.5 -82zM473 1137l-266 299h168l186 -195l184 195h170l-266 -299h-176z" />
    <glyph glyph-name="uni0162" unicode="&#x162;" horiz-adv-x="1384" 
d="M1323 1276h-541v-1241h2l-2 -6v-29h-10l-123 -328h-153l106 342v1262h-541v158h1262v-158z" />
    <glyph glyph-name="uni0163" unicode="&#x163;" horiz-adv-x="851" 
d="M745 827h-325v-477q0 -225 207 -225q33 0 118 8v-145q-66 -16 -143 -17h-16l-111 -299h-153l104 336q-182 84 -182 338v481h-238v142h238v327h176v-327h325v-142z" />
    <glyph glyph-name="Tcaron" unicode="&#x164;" horiz-adv-x="1384" 
d="M1323 1434v-158h-541v-1276h-180v1276h-541v158h1262zM604 1579l-266 301h168l186 -194l185 194h170l-267 -301h-176z" />
    <glyph glyph-name="tcaron" unicode="&#x165;" horiz-adv-x="851" 
d="M602 -29q-168 0 -263 98.5t-95 276.5v481h-238v142h238v327h176v-327h325v-142h-325v-477q0 -225 207 -225q33 0 118 8v-145q-65 -17 -143 -17zM575 1155l19 387h180l-63 -387h-136z" />
    <glyph glyph-name="Tbar" unicode="&#x166;" horiz-adv-x="1384" 
d="M1323 1276h-541v-283h383v-143h-383v-850h-180v850h-381v143h381v283h-541v158h1262v-158z" />
    <glyph glyph-name="tbar" unicode="&#x167;" horiz-adv-x="935" 
d="M745 827h-325v-176h325v-121h-325v-180q0 -225 207 -225q33 0 118 8v-145q-66 -16 -143 -17q-168 0 -263 98.5t-95 276.5v184h-238v121h238v176h-238v142h238v327h176v-327h325v-142z" />
    <glyph glyph-name="Utilde" unicode="&#x168;" horiz-adv-x="1597" 
d="M798.5 -29q-284.5 0 -459.5 177.5t-175 451.5v834h182v-834q0 -211 127 -340t325.5 -129t325.5 129t127 340v834h183v-834q0 -274 -175.5 -451.5t-460 -177.5zM958 1628q-80 0 -171 57.5t-125 57.5q-68 0 -76 -82h-142q4 96 59.5 155.5t139.5 59.5t171 -55.5t124 -55.5
q70 0 74 82h139q2 -94 -55.5 -156.5t-137.5 -62.5z" />
    <glyph glyph-name="utilde" unicode="&#x169;" horiz-adv-x="1224" 
d="M612 -29q-215 0 -348 121t-133 318v559h174v-549q0 -135 86 -217t222 -82t221.5 82t85.5 217v549h174v-559q0 -197 -133.5 -318t-348.5 -121zM772 1180q-80 0 -172 56t-125 56q-68 0 -76 -80h-141q4 96 59.5 155.5t139.5 59.5t171 -55t124 -55q70 0 73 82h140
q2 -94 -55.5 -156.5t-137.5 -62.5z" />
    <glyph glyph-name="Umacron" unicode="&#x16a;" horiz-adv-x="1597" 
d="M798.5 -29q-284.5 0 -459.5 177.5t-175 451.5v834h182v-834q0 -211 127 -340t325.5 -129t325.5 129t127 340v834h183v-834q0 -274 -175.5 -451.5t-460 -177.5zM496 1608v135h606v-135h-606z" />
    <glyph glyph-name="umacron" unicode="&#x16b;" horiz-adv-x="1224" 
d="M612 -29q-215 0 -348 121t-133 318v559h174v-549q0 -135 86 -217t222 -82t221.5 82t85.5 217v549h174v-559q0 -197 -133.5 -318t-348.5 -121zM309 1192v137h606v-137h-606z" />
    <glyph glyph-name="Uring" unicode="&#x16e;" horiz-adv-x="1597" 
d="M798.5 -29q-284.5 0 -459.5 177.5t-175 451.5v834h182v-834q0 -211 127 -340t325.5 -129t325.5 129t127 340v834h183v-834q0 -274 -175.5 -451.5t-460 -177.5zM799 1700q51 0 85 30.5t34 80t-35 80t-84 30.5t-83 -30.5t-34 -80t33 -80t84 -30.5zM800.5 1610
q-98.5 0 -160.5 56t-62 144t62 144.5t160.5 56.5t159 -56.5t60.5 -144.5t-60.5 -144t-159 -56z" />
    <glyph glyph-name="uring" unicode="&#x16f;" horiz-adv-x="1224" 
d="M612 -29q-215 0 -348 121t-133 318v559h174v-549q0 -135 86 -217t222 -82t221.5 82t85.5 217v549h174v-559q0 -197 -133.5 -318t-348.5 -121zM612.5 1219q49.5 0 84 30.5t34.5 79.5t-33.5 81t-84 32t-84 -32t-33.5 -81t33.5 -79.5t83 -30.5zM613 1130q-99 0 -160.5 55.5
t-61.5 143.5t62.5 144.5t161 56.5t159 -56.5t60.5 -144.5t-61 -143.5t-160 -55.5z" />
    <glyph glyph-name="Uhungarumlaut" unicode="&#x170;" horiz-adv-x="1597" 
d="M798.5 -29q-284.5 0 -459.5 177.5t-175 451.5v834h182v-834q0 -211 127 -340t325.5 -129t325.5 129t127 340v834h183v-834q0 -274 -175.5 -451.5t-460 -177.5zM877 1604l-5 6l150 293h182l-182 -299h-145zM578 1604l-5 6l150 293h182l-182 -299h-145z" />
    <glyph glyph-name="uhungarumlaut" unicode="&#x171;" horiz-adv-x="1224" 
d="M612 -29q-215 0 -348 121t-133 318v559h174v-549q0 -135 86 -217t222 -82t221.5 82t85.5 217v549h174v-559q0 -197 -133.5 -318t-348.5 -121zM690 1151l-4 6l150 293h182l-182 -299h-146zM391 1151l-4 6l150 293h182l-182 -299h-146z" />
    <glyph glyph-name="Uogonek" unicode="&#x172;" horiz-adv-x="1597" 
d="M1251 1434h183v-834q0 -229 -125 -394t-340 -216q-139 -43 -140 -133q0 -51 45.5 -78t94.5 -27t98 8l18 -125q-55 -16 -122 -16q-121 0 -202 56.5t-81 147.5t59 150q-260 20 -417.5 193.5t-157.5 433.5v834h182v-834q0 -211 127 -340t325.5 -129t325.5 129t127 340v834z
" />
    <glyph glyph-name="uogonek" unicode="&#x173;" horiz-adv-x="1224" 
d="M920 969h174v-559q0 -164 -94.5 -277t-254.5 -147q-137 -45 -137 -133q0 -51 45 -78t95 -27t98 8l18 -125q-55 -16 -123 -16q-121 0 -201.5 56.5t-80.5 150.5t67 155q-180 23 -287.5 139.5t-107.5 293.5v559h174v-549q0 -135 86 -217t222 -82t221.5 82t85.5 217v549z" />
    <glyph glyph-name="Wcircumflex" unicode="&#x174;" horiz-adv-x="2220" 
d="M545 0l-469 1434h190l377 -1168h8l367 1168h184l367 -1168l6 2l379 1166h190l-469 -1434h-192l-371 1167h-6l-369 -1167h-192zM756 1579l266 301h176l266 -301h-170l-184 195l-186 -195h-168z" />
    <glyph glyph-name="wcircumflex" unicode="&#x175;" horiz-adv-x="1689" 
d="M444 0l-381 969h191l264 -707h4l248 707h154l245 -707h5l266 707h186l-377 -969h-155l-246 700h-4l-244 -700h-156zM492 1137l266 299h176l266 -299h-170l-184 194l-187 -194h-167z" />
    <glyph glyph-name="Ycircumflex" unicode="&#x176;" horiz-adv-x="1449" 
d="M635 0v498l-606 936h202l494 -768l496 768h200l-602 -936v-498h-184zM373 1579l266 301h176l266 -301h-170l-184 195l-186 -195h-168z" />
    <glyph glyph-name="ycircumflex" unicode="&#x177;" horiz-adv-x="1314" 
d="M1057 969h188l-676 -1436h-188l205 430l-516 1006h188l416 -815h4zM657 1331l-186 -194h-168l266 299h176l267 -299h-170z" />
    <glyph glyph-name="Ydieresis" unicode="&#x178;" horiz-adv-x="1449" 
d="M635 0v498l-606 936h202l494 -768l496 768h200l-602 -936v-498h-184zM819 1606v219h223v-219h-223zM410 1606v219h223v-219h-223z" />
    <glyph glyph-name="Zacute" unicode="&#x179;" horiz-adv-x="1404" 
d="M115 0v86l899 1192h-873v156h1135v-86l-881 -1192h885v-156h-1165zM618 1581l-4 6l172 295h195l-205 -301h-158z" />
    <glyph glyph-name="zacute" unicode="&#x17a;" horiz-adv-x="1060" 
d="M90 0v82l631 747h-608v140h858v-95l-625 -735h623v-139h-879zM442 1151l-4 6l172 293h195l-205 -299h-158z" />
    <glyph glyph-name="Zdotaccent" unicode="&#x17b;" horiz-adv-x="1404" 
d="M115 0v86l899 1192h-873v156h1135v-86l-881 -1192h885v-156h-1165zM592 1825h223v-219h-223v219z" />
    <glyph glyph-name="zdotaccent" unicode="&#x17c;" horiz-adv-x="1060" 
d="M90 0v82l631 747h-608v140h858v-95l-625 -735h623v-139h-879zM418 1409h223v-221h-223v221z" />
    <glyph glyph-name="Zcaron" unicode="&#x17d;" horiz-adv-x="1404" 
d="M115 0v86l899 1192h-873v156h1135v-86l-881 -1192h885v-156h-1165zM616 1579l-266 301h168l187 -194l184 194h170l-266 -301h-177z" />
    <glyph glyph-name="zcaron" unicode="&#x17e;" horiz-adv-x="1060" 
d="M90 0v82l631 747h-608v140h858v-95l-625 -735h623v-139h-879zM442 1137l-266 299h168l186 -195l185 195h170l-267 -299h-176z" />
    <glyph glyph-name="florin" unicode="&#x192;" horiz-adv-x="1120" 
d="M868 1309q-82 1 -140 -59t-75 -160l-47 -334h369v-142h-389l-64 -438q-25 -178 -121 -275t-256 -98q-100 0 -217 27l27 145q104 -18 160 -18q98 0 155 59t72 160l64 438h-283v142h303l47 334q27 178 123 275t256 97q102 0 215 -28l-27 -148q-89 23 -172 23z" />
    <glyph glyph-name="uni01CA" unicode="&#x1ca;" horiz-adv-x="2912" 
d="M2223.5 -29q-234.5 0 -379 117t-169.5 324h180q25 -129 116 -205t249 -76t251 105.5t93 275.5v764h-696v158h880v-928q0 -250 -145 -392.5t-379.5 -142.5zM1268 1434h182v-1434h-152l-933 1122v-1122h-181v1434h146l938 -1137v1137z" />
    <glyph glyph-name="uni01CC" unicode="&#x1cc;" horiz-adv-x="1804" 
d="M1217 -496v144l16 2q115 6 164 57t49 182v1080h174v-1061q0 -213 -88 -308.5t-281 -95.5h-34zM166 0v969h174v-154h4q53 84 148.5 133t199.5 49q195 0 316.5 -122.5t121.5 -317.5v-557h-176v549q0 135 -78.5 216t-215.5 81t-228.5 -90t-91.5 -236v-520h-174zM1442 1335
v242h182v-242h-182z" />
    <glyph glyph-name="AEacute" unicode="&#x1fc;" horiz-adv-x="2400" 
d="M1245 555v641l-504 -641h504zM2281 1434v-158h-856v-485h770v-160h-770v-473h856v-158h-1036v395h-629l-311 -395h-221l1143 1434h1054zM1257 1581l-4 6l172 295h195l-205 -301h-158z" />
    <glyph glyph-name="aeacute" unicode="&#x1fd;" horiz-adv-x="1996" 
d="M540 109q131 0 227.5 89t96.5 224h-401q-88 0 -141.5 -40t-53.5 -111t70.5 -116.5t201.5 -45.5zM1385.5 856q-142.5 0 -240 -88t-109.5 -227h668q-4 133 -90 224t-228.5 91zM1882 473v-59h-842q18 -133 116.5 -217t238.5 -84q90 0 163.5 33.5t106.5 95.5h186
q-45 -123 -171 -197t-289 -74q-303 0 -445 219q-63 -102 -183 -160.5t-284 -58.5t-272.5 85t-108.5 216t98.5 203t268.5 72h397v28q0 279 -272 279q-219 0 -260 -164h-176q16 139 134 223t302 84q272 0 383 -180q145 180 409 180q225 0 362.5 -143t137.5 -381zM1067 1151
h-158l-4 6l172 293h195z" />
    <glyph glyph-name="Oslashacute" unicode="&#x1fe;" horiz-adv-x="1794" 
d="M897 133q254 0 420 164t166 407.5t-142 405.5l-780 -881q143 -96 336 -96zM311 729.5q0 -243.5 142 -405.5l782 878q-145 98 -338 98q-254 0 -420 -163.5t-166 -407zM1667 711.5q0 -318.5 -218 -529.5t-552 -211q-258 0 -451 129l-108 -120l-113 88l111 122
q-209 213 -209 532t218 529.5t552 210.5q258 0 453 -131l108 123l111 -88l-111 -123q209 -213 209 -531.5zM969 1581h-158l-4 6l172 295h195z" />
    <glyph glyph-name="oslashacute" unicode="&#x1ff;" horiz-adv-x="1304" 
d="M653 121q158 0 260.5 102.5t102.5 247.5t-76 244l-483 -543q85 -51 196 -51zM289 497.5q0 -145.5 76 -243.5l483 541q-86 51 -195 51q-160 0 -262 -101.5t-102 -247zM1190 477.5q0 -219.5 -150.5 -363t-386.5 -143.5q-170 0 -305 80l-78 -88l-96 76l78 88
q-137 143 -137 363t151.5 363.5t386.5 143.5q168 0 303 -79l78 88l96 -78l-77 -88q137 -143 137 -362.5zM723 1151h-158l-4 6l172 293h195z" />
    <glyph glyph-name="Scommaaccent" unicode="&#x218;" horiz-adv-x="1421" 
d="M600 -125h221v-113q0 -127 -50 -186t-191 -94l-23 84q84 31 109.5 57.5t27.5 81.5h-94v170zM727 -29q-260 0 -424 127t-188 351h178q27 -152 142.5 -238t297 -86t278.5 69.5t96 176t-70.5 164t-172 76t-223.5 44t-223.5 57t-172 117.5t-71.5 224q-4 182 140.5 295.5
t389 113.5t400.5 -110.5t182 -304.5h-182q-25 125 -125 196.5t-263 71.5t-258.5 -70.5t-92.5 -181.5q0 -84 51 -137.5t133 -78t180 -40.5t196.5 -39t179.5 -60.5t132 -116.5t53 -196q2 -190 -150.5 -307t-412.5 -117z" />
    <glyph glyph-name="scommaaccent" unicode="&#x219;" horiz-adv-x="1118" 
d="M451 -125h221v-113q0 -127 -50.5 -186t-191.5 -94l-22 84q84 31 109.5 57.5t27.5 81.5h-94v170zM565 -29q-199 0 -325.5 90.5t-141.5 241.5h166q14 -94 100.5 -145.5t207.5 -51.5t188 43.5t67 114t-70.5 107.5t-171 50t-201.5 32.5t-172 82t-71 182.5t113 199.5t294 79.5
t304 -83t137 -224h-166q-12 80 -93 128t-184 48t-168 -39t-65 -103t50.5 -99t127 -45.5t164.5 -27.5t165 -40t127 -84t50 -158q0 -135 -116.5 -217t-315.5 -82z" />
    <glyph glyph-name="uni021A" unicode="&#x21a;" horiz-adv-x="1384" 
d="M575 -125h222v-113q0 -127 -50.5 -186t-191.5 -94l-23 84q84 31 110 57.5t28 81.5h-95v170zM1323 1434v-158h-541v-1276h-180v1276h-541v158h1262z" />
    <glyph glyph-name="uni021B" unicode="&#x21b;" horiz-adv-x="851" 
d="M401 -125h222v-113q0 -127 -50.5 -186t-191.5 -94l-23 84q84 31 110 57.5t28 81.5h-95v170zM602 -29q-168 0 -263 98.5t-95 276.5v481h-238v142h238v327h176v-327h325v-142h-325v-477q0 -225 207 -225q33 0 118 8v-145q-65 -17 -143 -17z" />
    <glyph glyph-name="uni0237" unicode="&#x237;" horiz-adv-x="542" 
d="M-45 -496v144l16 2q115 6 164 57t49 182v1080h174v-1061q0 -213 -88 -308.5t-280 -95.5h-35z" />
    <glyph glyph-name="circumflex" unicode="&#x2c6;" horiz-adv-x="913" 
d="M102 1137l267 299h176l266 -299h-170l-184 194l-187 -194h-168z" />
    <glyph glyph-name="caron" unicode="&#x2c7;" horiz-adv-x="913" 
d="M369 1137l-267 299h168l187 -195l184 195h170l-266 -299h-176z" />
    <glyph glyph-name="breve" unicode="&#x2d8;" horiz-adv-x="835" 
d="M418 1128q-145 0 -229 82q-83 82 -87 211h129q7 -80 55 -130t132 -50t132 50t54 130h129q-4 -129 -87 -211t-228 -82z" />
    <glyph glyph-name="dotaccent" unicode="&#x2d9;" horiz-adv-x="428" 
d="M102 1409h224v-221h-224v221z" />
    <glyph glyph-name="ring" unicode="&#x2da;" horiz-adv-x="647" 
d="M324 1219q49 1 84 31t34 79q0 49 -34 81q-35 32 -84 32t-83 -32t-34 -81t34 -79t83 -31zM325 1130q-99 0 -161 56t-62 143q0 89 62 145t162 56q98 0 158 -56t60 -144t-60 -144t-159 -56z" />
    <glyph glyph-name="ogonek" unicode="&#x2db;" horiz-adv-x="610" 
d="M385 -381q-121 0 -202 56t-81 155q0 190 304 252l20 -82q-174 -43 -174 -143q0 -51 45 -78t95 -27t97 8l19 -125q-55 -16 -123 -16z" />
    <glyph glyph-name="tilde" unicode="&#x2dc;" horiz-adv-x="911" 
d="M616 1180q-80 0 -172 56t-125 56q-68 0 -75 -80h-142q4 96 60 156t139 59q84 0 171 -55t124 -55q70 0 74 82h139q2 -94 -55 -157q-58 -62 -138 -62z" />
    <glyph glyph-name="hungarumlaut" unicode="&#x2dd;" horiz-adv-x="835" 
d="M406 1151l-5 6l150 293h182l-182 -299h-145zM106 1151l-4 6l150 293h182l-182 -299h-146z" />
    <glyph glyph-name="uni0326" unicode="&#x326;" horiz-adv-x="0" 
d="M-324 -125h222v-113q0 -127 -50.5 -186t-191.5 -94l-23 84q84 31 110 57.5t28 81.5h-95v170z" />
    <glyph glyph-name="Wgrave" unicode="&#x1e80;" horiz-adv-x="2220" 
d="M545 0l-469 1434h190l377 -1168h8l367 1168h184l367 -1168l6 2l379 1166h190l-469 -1434h-192l-371 1167h-6l-369 -1167h-192zM1194 1581h-158l-205 301h195l172 -295z" />
    <glyph glyph-name="wgrave" unicode="&#x1e81;" horiz-adv-x="1689" 
d="M444 0l-381 969h191l264 -707h4l248 707h154l245 -707h5l266 707h186l-377 -969h-155l-246 700h-4l-244 -700h-156zM930 1151h-158l-205 299h195l172 -293z" />
    <glyph glyph-name="Wacute" unicode="&#x1e82;" horiz-adv-x="2220" 
d="M545 0l-469 1434h190l377 -1168h8l367 1168h184l367 -1168l6 2l379 1166h190l-469 -1434h-192l-371 1167h-6l-369 -1167h-192zM1024 1581l-4 6l172 295h194l-204 -301h-158z" />
    <glyph glyph-name="wacute" unicode="&#x1e83;" horiz-adv-x="1689" 
d="M444 0l-381 969h191l264 -707h4l248 707h154l245 -707h5l266 707h186l-377 -969h-155l-246 700h-4l-244 -700h-156zM758 1151l-4 6l172 293h194l-205 -299h-157z" />
    <glyph glyph-name="Wdieresis" unicode="&#x1e84;" horiz-adv-x="2220" 
d="M545 0l-469 1434h190l377 -1168h8l367 1168h184l367 -1168l6 2l379 1166h190l-469 -1434h-192l-371 1167h-6l-369 -1167h-192zM1202 1606v219h223v-219h-223zM793 1606v219h223v-219h-223z" />
    <glyph glyph-name="wdieresis" unicode="&#x1e85;" horiz-adv-x="1689" 
d="M444 0l-381 969h191l264 -707h4l248 707h154l245 -707h5l266 707h186l-377 -969h-155l-246 700h-4l-244 -700h-156zM938 1409h223v-221h-223v221zM528 1409h224v-221h-224v221z" />
    <glyph glyph-name="uni1E9E" unicode="&#x1e9e;" horiz-adv-x="1533" 
d="M1417 387q-1 -182 -155 -299t-392 -117q-156 0 -280 52v157q132 -55 280 -55t254 75q106 74 106 198t-113 203q-114 79 -300 79h-115v147l457 383q-175 104 -371 104t-310 -93q-114 -94 -113 -246v-971h-181v971q0 219 161 353t435 134t525 -151v-164l-396 -324
q233 -23 371 -138q137 -116 137 -298z" />
    <glyph glyph-name="Ygrave" unicode="&#x1ef2;" horiz-adv-x="1449" 
d="M635 0v498l-606 936h202l494 -768l496 768h200l-602 -936v-498h-184zM811 1581h-158l-204 301h194l172 -295z" />
    <glyph glyph-name="ygrave" unicode="&#x1ef3;" horiz-adv-x="1314" 
d="M1057 969h188l-676 -1436h-188l205 430l-516 1006h188l416 -815h4zM741 1151h-157l-205 299h194l172 -293z" />
    <glyph glyph-name="uni1EF8" unicode="&#x1ef8;" horiz-adv-x="1449" 
d="M635 0v498l-606 936h202l494 -768l496 768h200l-602 -936v-498h-184zM887 1628q-80 0 -172 57.5t-125 57.5q-68 0 -76 -82h-141q4 96 59 155.5t139.5 59.5t171 -55.5t123.5 -55.5q70 0 74 82h139q2 -94 -55 -156.5t-137 -62.5z" />
    <glyph glyph-name="uni1EF9" unicode="&#x1ef9;" horiz-adv-x="1314" 
d="M1057 969h188l-676 -1436h-188l205 430l-516 1006h188l416 -815h4zM520 1292q-68 0 -76 -80h-141q4 96 59.5 155.5t139.5 59.5t171 -55t124 -55q70 0 73 82h140q2 -94 -55.5 -156.5t-137.5 -62.5t-172 56t-125 56z" />
    <glyph glyph-name="endash" unicode="&#x2013;" horiz-adv-x="1521" 
d="M221 471v164h1079v-164h-1079z" />
    <glyph glyph-name="emdash" unicode="&#x2014;" horiz-adv-x="2150" 
d="M221 471v164h1708v-164h-1708z" />
    <glyph glyph-name="quoteleft" unicode="&#x2018;" horiz-adv-x="387" 
d="M305 1114h-221v150q0 141 57 210t197 103l22 -82q-84 -31 -116 -63t-35 -111h96v-207z" />
    <glyph glyph-name="quoteright" unicode="&#x2019;" horiz-adv-x="387" 
d="M84 1577h221v-150q0 -141 -58 -211t-198 -102l-22 82q85 30 117 62t36 110h-96v209z" />
    <glyph glyph-name="quotesinglbase" unicode="&#x201a;" horiz-adv-x="387" 
d="M84 209h221v-152q0 -141 -58 -210t-198 -103l-22 82q85 32 117 64t36 110h-96v209z" />
    <glyph glyph-name="quotedblleft" unicode="&#x201c;" horiz-adv-x="761" 
d="M680 1114h-223v150q0 141 58 210t198 103l22 -82q-84 -31 -117 -63t-36 -111h98v-207zM305 1114h-221v150q0 141 57 210t197 103l22 -82q-84 -31 -116 -63t-35 -111h96v-207z" />
    <glyph glyph-name="quotedblright" unicode="&#x201d;" horiz-adv-x="761" 
d="M457 1577h223v-150q0 -141 -58 -211t-198 -102l-23 82q84 30 117 62t37 110h-98v209zM84 1577h221v-150q0 -141 -58 -211t-198 -102l-22 82q85 30 117 62t36 110h-96v209z" />
    <glyph glyph-name="quotedblbase" unicode="&#x201e;" horiz-adv-x="761" 
d="M457 209h223v-152q0 -141 -58 -210t-198 -103l-23 82q84 32 117 64t37 110h-98v209zM84 209h221v-152q0 -141 -58 -210t-198 -103l-22 82q85 32 117 64t36 110h-96v209z" />
    <glyph glyph-name="dagger" unicode="&#x2020;" horiz-adv-x="864" 
d="M369 655v447h-265v117h265v249h125v-249h266v-117h-266v-447h-125z" />
    <glyph glyph-name="daggerdbl" unicode="&#x2021;" horiz-adv-x="864" 
d="M369 645v223h-265v115h265v154h-265v114h265v209h125v-209h266v-114h-266v-154h266v-115h-266v-223h-125z" />
    <glyph glyph-name="bullet" unicode="&#x2022;" horiz-adv-x="686" 
d="M342 369q-106 -1 -181 69t-75 170t75 171t181 71t181 -71t75 -171t-75 -170t-181 -69z" />
    <glyph glyph-name="uni2023" unicode="&#x2023;" horiz-adv-x="817" 
d="M178 72v938l574 -469z" />
    <glyph glyph-name="ellipsis" unicode="&#x2026;" horiz-adv-x="1273" 
d="M971 211h221v-211h-221v211zM526 211h224v-211h-224v211zM84 211h221v-211h-221v211z" />
    <glyph glyph-name="perthousand" unicode="&#x2030;" horiz-adv-x="3321" 
d="M2728 96q125 0 203 76t78 192t-78 191q-78 76 -203 76t-202 -76t-77 -192q0 -115 77 -191t202 -76zM1749 96q125 0 202 76t77 192t-77 191q-77 76 -202 76t-203 -76t-78 -192q0 -115 78 -191t203 -76zM2728 -29q-182 1 -298 107t-116 284t116 286t298 108t299 -108
t117 -286t-117 -284t-299 -107zM1749 -29q-182 1 -299 107t-117 284t117 286t299 108t299 -108t117 -286t-117 -284t-299 -107zM594 803q125 0 202 76q76 75 76 191t-76 192q-77 76 -202 76t-202 -76t-77 -192t77 -192t202 -75zM602 0l1008 1434h131l-1006 -1434h-133z
M594 678q-182 0 -299 108t-117 285q0 179 117 285t299 106t299 -106t117 -284t-117 -286t-299 -108z" />
    <glyph glyph-name="guilsinglleft" unicode="&#x2039;" horiz-adv-x="557" 
d="M473 823l-227 -307l227 -307h-170l-219 291v32l219 291h170z" />
    <glyph glyph-name="guilsinglright" unicode="&#x203a;" horiz-adv-x="557" 
d="M84 823h170l219 -291v-32l-219 -291h-170l227 307z" />
    <glyph glyph-name="fraction" unicode="&#x2044;" horiz-adv-x="1013" 
d="M-61 0l1005 1434h131l-1005 -1434h-131z" />
    <glyph glyph-name="uni2070" unicode="&#x2070;" horiz-adv-x="825" 
d="M610 1366v164q0 96 -54 154t-143 58t-143 -58t-55 -154v-164q0 -96 55 -154q56 -58 144 -59t142 59t54 154zM414 1862q152 0 244 -92t92 -240v-164q0 -150 -92 -240t-244 -90t-245 90t-93 240v164q0 150 93 241t245 91z" />
    <glyph glyph-name="uni2074" unicode="&#x2074;" horiz-adv-x="868" 
d="M532 1331v373l-305 -373h305zM793 1331v-112h-127v-162h-134v162h-462v88l434 538h162v-514h127z" />
    <glyph glyph-name="uni2075" unicode="&#x2075;" horiz-adv-x="815" 
d="M408 1565q139 0 224 -71q85 -70 85 -188t-87 -193q-86 -75 -228 -75t-228 65t-102 169h135q14 -57 66 -89t132 -32t131 43q50 43 50 111q0 69 -50 109t-136 40t-156 -55l-109 39l45 407h496v-116h-383l-23 -193q68 29 138 29z" />
    <glyph glyph-name="uni2076" unicode="&#x2076;" horiz-adv-x="802" 
d="M399 1145q88 0 143 46q54 46 54 123t-54 124t-142 47t-142 -47q-53 -47 -53 -123t53 -123t141 -47zM410 1595q139 1 230 -75t91 -202t-92 -203q-91 -77 -237 -77t-239 78t-93 199q0 88 80 196l247 334h160l-186 -252q12 2 39 2z" />
    <glyph glyph-name="uni2077" unicode="&#x2077;" horiz-adv-x="688" 
d="M41 1724v121h610v-80l-379 -708h-153l356 667h-434z" />
    <glyph glyph-name="uni2078" unicode="&#x2078;" horiz-adv-x="845" 
d="M424 1145q82 0 133 38t51 99t-51 98t-133 37t-133 -37t-51 -98t51 -99t133 -38zM424 1507q76 0 120 35t44 90t-46 90t-118 35t-118 -35t-46 -90t44 -90t120 -35zM424 1036q-150 0 -242 66t-92 172q0 66 40 118t112 78q-117 54 -117 162t85 168t214 62q129 0 213 -60
t84 -169q0 -108 -117 -163q74 -26 114 -78t40 -118q0 -106 -92 -172t-242 -66z" />
    <glyph glyph-name="uni2079" unicode="&#x2079;" horiz-adv-x="802" 
d="M403 1417q88 0 142 46q53 46 53 122t-53 123t-141 47t-143 -46q-54 -46 -54 -123t54 -123t142 -46zM402 1862q144 0 238 -78t93 -184q0 -106 -78 -211l-249 -334h-160l186 252q-12 -2 -39 -2q-139 -1 -229 75t-90 202t92 203t236 77z" />
    <glyph glyph-name="uni2080" unicode="&#x2080;" horiz-adv-x="825" 
d="M610 -96v164q0 96 -54 154t-143 58t-143 -58t-55 -154v-164q0 -96 55 -154q56 -58 144 -59t142 59t54 154zM414 399q152 0 244 -91t92 -240v-164q0 -150 -92 -241t-244 -91t-245 91t-93 241v164q0 150 93 240t245 91z" />
    <glyph glyph-name="uni2081" unicode="&#x2081;" horiz-adv-x="501" 
d="M264 -410v672h-219v117h350v-789h-131z" />
    <glyph glyph-name="uni2082" unicode="&#x2082;" horiz-adv-x="770" 
d="M96 -410v66l299 289q3 4 23 22q20 17 25 23t22 22q16 16 22 24t18 21q38 48 38 103t-42 91t-111 36t-114 -38t-53 -99h-131q10 112 92 180t210 68t207 -64q79 -63 79 -170q0 -72 -44 -135t-126 -144l-195 -188h379v-107h-598z" />
    <glyph glyph-name="uni2083" unicode="&#x2083;" horiz-adv-x="802" 
d="M711 -192q0 -100 -86 -168q-85 -68 -219 -68t-220 60t-102 165h135q29 -113 187 -112q78 1 126 37t48 94t-48 95q-48 38 -126 38h-101v104l207 209h-391v117h573v-100l-227 -234q111 -13 177 -75t67 -162z" />
    <glyph glyph-name="uni2084" unicode="&#x2084;" horiz-adv-x="868" 
d="M532 -133v371l-305 -371h305zM793 -133v-115h-127v-162h-134v162h-462v88l434 539h162v-512h127z" />
    <glyph glyph-name="uni2085" unicode="&#x2085;" horiz-adv-x="815" 
d="M408 98q139 0 224 -70t85 -189t-87 -193q-86 -74 -228 -74t-228 64t-102 169h135q14 -57 66 -89t131 -32t131 44q51 42 51 110t-49 109t-138 41t-155 -56l-109 41l45 406h496v-117h-383l-23 -192q68 28 138 28z" />
    <glyph glyph-name="uni2086" unicode="&#x2086;" horiz-adv-x="802" 
d="M399 -322q89 0 143 48t54 122q0 76 -54 123t-142 47t-142 -47q-53 -47 -53 -123t53 -123t141 -47zM410 129q141 0 231 -75q90 -74 90 -200t-92 -204q-91 -78 -237 -78t-239 79t-93 199q0 86 80 197l247 332h160l-188 -252q14 2 41 2z" />
    <glyph glyph-name="uni2087" unicode="&#x2087;" horiz-adv-x="688" 
d="M41 258v121h610v-80l-379 -709h-153l356 668h-434z" />
    <glyph glyph-name="uni2088" unicode="&#x2088;" horiz-adv-x="845" 
d="M424 -319q82 -1 133 37t51 100t-51 98q-51 37 -134 37t-133 -37t-50 -98t51 -99t133 -38zM424 43q76 0 120 35t44 90t-47 91t-118 36t-117 -36t-46 -91t44 -90t120 -35zM424 -428q-150 0 -242 66t-92 172q0 137 152 198q-117 52 -117 160t85 168t214 61q129 0 213 -60
t84 -169t-117 -160q154 -61 154 -198q0 -106 -92 -172t-242 -66z" />
    <glyph glyph-name="uni2089" unicode="&#x2089;" horiz-adv-x="802" 
d="M403 -47q88 0 142 46q53 46 53 123t-53 124t-141 47t-143 -47q-54 -47 -54 -124t54 -123t142 -46zM74 118q0 126 92 202t236 77q144 0 238 -78t93 -198q0 -88 -78 -197l-249 -334h-160l188 254q-14 -2 -41 -2q-139 0 -229 75t-90 201z" />
    <glyph glyph-name="Euro" unicode="&#x20ac;" horiz-adv-x="1896" 
d="M1060 137q196 1 333 99t186 270h188q-49 -244 -245 -388t-468 -144q-274 0 -472 142q-198 144 -263 388h-233v121h211q-4 61 -4 93t4 93h-211v121h233q66 244 264 387t471 143t469 -144t244 -386h-188q-49 170 -186 268t-333 98t-341 -98t-207 -268h680l-29 -121h-680
q-6 -45 -6 -92t6 -94h645l-26 -121h-590q60 -170 206 -268t342 -99z" />
    <glyph glyph-name="uni2116" unicode="&#x2116;" horiz-adv-x="3000" 
d="M1784 0v147h1018v-147h-1018zM2279 528q154 0 258 102q105 102 105 254q0 153 -104 254t-259 101q-154 0 -258 -101t-104 -254q0 -152 104 -254t258 -102zM2818 884q0 -220 -154 -364t-386 -143q-232 0 -385 143q-153 144 -153 364t153 363t386 143t386 -142
q153 -144 153 -364zM1268 1434h182v-1434h-152l-933 1122v-1122h-181v1434h146l938 -1137v1137z" />
    <glyph glyph-name="trademark" unicode="&#x2122;" horiz-adv-x="1478" 
d="M1378 1434v-598h-102v393l-211 -311h-53l-211 311l2 -393h-105v598h74l266 -383l267 383h73zM53 1339v95h559v-95h-227v-503h-104v503h-228z" />
    <glyph glyph-name="oneeighth" unicode="&#x215b;" horiz-adv-x="1748" 
d="M1325 90q82 0 133 38t51 99t-51 99t-134 36q-83 0 -133 -36t-50 -98t51 -100t133 -38zM1325 453q76 1 120 35t44 90t-47 91q-47 36 -117 36t-117 -36t-47 -91t44 -90t120 -35zM1325 -18q-150 0 -242 66t-92 171q0 137 152 199q-117 52 -117 160t85 168t214 60t214 -60
t85 -168t-119 -160q154 -61 154 -199q0 -105 -92 -171t-242 -66zM184 0l1004 1434h131l-1004 -1434h-131zM270 647v672h-225v117h356v-789h-131z" />
    <glyph glyph-name="threeeighths" unicode="&#x215c;" horiz-adv-x="1935" 
d="M1518 90q82 0 132 38t50 99t-50 99t-133 36q-83 0 -134 -36q-50 -36 -50 -98q-1 -62 51 -100t134 -38zM1352 578q0 -54 45 -90t121 -36t120 36q44 34 43 90t-47 91q-46 36 -117 36t-118 -36t-47 -91zM1851 219q0 -106 -92 -172q-91 -65 -241 -65t-242 66t-92 171
q0 137 151 199q-117 52 -117 160t85 168q84 60 214 60t214 -60t84 -168t-117 -160q72 -29 112 -82t41 -117zM1380 1434h131l-1003 -1434h-133zM711 862q0 -98 -86 -166q-85 -68 -219 -68t-220 61q-86 60 -102 165h135q13 -51 61 -83t125 -32t125 37t50 95q0 59 -48 97
t-126 38h-101v104l207 209h-391v117h573v-101l-227 -233q111 -14 177 -78t67 -162z" />
    <glyph glyph-name="fiveeighths" unicode="&#x215d;" horiz-adv-x="1941" 
d="M1518 90q82 0 133 38t51 99t-50 99t-134 36q-84 0 -135 -36q-50 -36 -50 -98q-1 -62 51 -100t134 -38zM1354 578q0 -54 44 -90t120 -36t120 36q44 34 43 90q1 56 -45 91q-46 36 -117 36t-118 -36t-47 -91zM1184 219q0 137 153 199q-117 52 -117 160t85 168q84 60 213 60
t214 -60t85 -168t-117 -160q152 -61 151 -199q0 -106 -92 -172q-91 -65 -241 -65t-242 66t-92 171zM1380 1434h133l-1005 -1434h-131zM408 1155q139 -1 224 -71t85 -188t-87 -193q-86 -75 -228 -75t-228 66q-86 64 -102 168h135q14 -57 66 -89t132 -32t131 43q50 43 50 111
t-50 109q-50 40 -136 40t-156 -55l-109 39l45 408h496v-117h-383l-23 -193q68 29 138 29z" />
    <glyph glyph-name="seveneighths" unicode="&#x215e;" horiz-adv-x="1738" 
d="M1315 90q82 0 133 38t51 99t-51 99t-133 36q-82 0 -133 -36q-52 -36 -52 -98t52 -100t133 -38zM1315 453q76 1 120 35t44 90t-47 91q-47 36 -117 36t-117 -36t-47 -91t44 -90t120 -35zM1315 -18q-150 0 -242 66t-92 171q0 137 152 199q-117 52 -117 160t85 168t214 60
t214 -60t85 -168t-119 -160q154 -61 154 -199q0 -105 -92 -171t-242 -66zM172 0l1006 1434h131l-1004 -1434h-133zM41 1313v121h610v-80l-379 -709h-153l356 668h-434z" />
    <glyph glyph-name="arrowleft" unicode="&#x2190;" horiz-adv-x="2002" 
d="M1921 862v-174h-1534l598 -600l-119 -108l-794 796l794 795l119 -111l-598 -598h1534z" />
    <glyph glyph-name="arrowup" unicode="&#x2191;" horiz-adv-x="1775" 
d="M801 -119v1534l-598 -600l-111 119l795 797l796 -797l-108 -119l-600 600v-1534h-174z" />
    <glyph glyph-name="arrowright" unicode="&#x2192;" horiz-adv-x="2002" 
d="M82 688v174h1534l-598 598l117 111l796 -795l-796 -796l-117 108l598 600h-1534z" />
    <glyph glyph-name="arrowdown" unicode="&#x2193;" horiz-adv-x="1775" 
d="M801 1731h174v-1534l600 598l108 -119l-796 -795l-795 795l111 119l598 -598v1534z" />
    <glyph glyph-name="arrowboth" unicode="&#x2194;" horiz-adv-x="2617" 
d="M1751 1571l795 -795l-795 -796l-119 108l600 600h-1845l598 -600l-119 -108l-794 796l794 795l119 -111l-598 -598h1845l-600 598z" />
    <glyph glyph-name="arrowupdn" unicode="&#x2195;" horiz-adv-x="1777" 
d="M889 -438l-797 796l111 119l598 -600v1806l-598 -598l-111 119l797 795l794 -795l-108 -119l-598 598l-2 -1806l600 598l111 -117z" />
    <glyph glyph-name="uni2196" unicode="&#x2196;" horiz-adv-x="1669" 
d="M184 1458h1127l6 -160h-848l1085 -1085l-124 -123l-1084 1084v-846l-162 6v1124z" />
    <glyph glyph-name="uni2197" unicode="&#x2197;" horiz-adv-x="1669" 
d="M238 90l-125 123l1085 1085h-848l8 160h1125l2 -1124l-164 -6v846z" />
    <glyph glyph-name="uni2198" unicode="&#x2198;" horiz-adv-x="1669" 
d="M358 90l-8 162h848l-1085 1083l125 123l1083 -1083v846l164 -4l-2 -1127h-1125z" />
    <glyph glyph-name="uni2199" unicode="&#x2199;" horiz-adv-x="1669" 
d="M184 90v1127l162 4v-846l1084 1083l124 -123l-1085 -1083h848l-6 -162h-1127z" />
    <glyph glyph-name="partialdiff" unicode="&#x2202;" horiz-adv-x="1271" 
d="M650 121q155 0 258 100q104 100 104 253t-102 253t-260 100q-157 0 -259 -100t-102 -253t103 -253t258 -100zM1186 498q0 -234 -152 -380t-384 -146t-384 140q-152 142 -152 363t150 362q150 140 387 140q147 0 262 -94q-96 174 -245 294q-150 120 -381 203l180 70
q323 -111 521 -375t198 -577z" />
    <glyph glyph-name="minus" unicode="&#x2212;" horiz-adv-x="1474" 
d="M233 588v153h1008v-153h-1008z" />
    <glyph glyph-name="approxequal" unicode="&#x2248;" horiz-adv-x="983" 
d="M893 555q0 -109 -66 -177t-157 -67q-90 0 -198 70t-144 70t-61 -27q-24 -27 -23 -70h-156q0 108 64 176t156 68q94 0 200 -70t145 -70t63 28q24 26 23 69h154zM893 965q0 -109 -66 -177t-157 -67q-90 0 -198 70q-108 69 -144 69t-61 -26q-24 -26 -23 -70h-156
q0 108 64 176t156 68q94 0 200 -70t145 -70t63 27t23 70h154z" />
    <glyph glyph-name="notequal" unicode="&#x2260;" horiz-adv-x="1513" 
d="M1280 788h-371l-172 -245h543v-154h-651l-178 -254h-132l179 254h-265v154h371l172 245h-543v154h652l178 256h133l-180 -256h264v-154z" />
    <glyph glyph-name="lessequal" unicode="&#x2264;" horiz-adv-x="1267" 
d="M111 0v154h1007v-154h-1007zM1071 248l-917 381v166l917 379v-166l-723 -297l723 -297v-166z" />
    <glyph glyph-name="greaterequal" unicode="&#x2265;" horiz-adv-x="1267" 
d="M152 0v154h1007v-154h-1007zM199 248v166l723 297l-723 297v166l915 -379v-166z" />
    <glyph glyph-name="filledbox" unicode="&#x25a0;" horiz-adv-x="1802" 
d="M184 0v1434h1434v-1434h-1434z" />
    <glyph glyph-name="uni25A1" unicode="&#x25a1;" horiz-adv-x="1802" 
d="M346 162h1110v1110h-1110v-1110zM184 0v1434h1434v-1434h-1434z" />
    <glyph glyph-name="triagup" unicode="&#x25b2;" horiz-adv-x="1970" 
d="M55 0l930 1462l930 -1462h-1860z" />
    <glyph glyph-name="uni25B8" unicode="&#x25b8;" horiz-adv-x="817" 
d="M178 72v938l574 -469z" />
    <glyph glyph-name="triagdn" unicode="&#x25bc;" horiz-adv-x="1970" 
d="M985 -29l-930 1463h1860z" />
    <glyph glyph-name="uni25BD" unicode="&#x25bd;" horiz-adv-x="1970" 
d="M989 276l627 1000h-1262zM985 -29l-930 1463h1860z" />
    <glyph glyph-name="uni25C2" unicode="&#x25c2;" horiz-adv-x="817" 
d="M639 72l-573 469l573 469v-938z" />
    <glyph glyph-name="uni25C6" unicode="&#x25c6;" horiz-adv-x="1656" 
d="M829 -41l-757 758l755 758l758 -758z" />
    <glyph glyph-name="circle" unicode="&#x25cb;" horiz-adv-x="1744" 
d="M874 135q240 0 410 170t170 411q0 242 -170 412t-410 170t-412 -170q-171 -170 -171 -412t171 -412q171 -169 412 -169zM1616 716q0 -310 -216 -528t-525 -217q-309 0 -529 217q-219 218 -219 528t218 528q219 218 529 218t526 -218t216 -528z" />
    <glyph glyph-name="uni25CF" unicode="&#x25cf;" horiz-adv-x="1744" 
d="M1616 716q0 -310 -216 -528t-525 -217q-309 0 -529 217q-219 218 -219 528t218 528q219 218 529 218t526 -218t216 -528z" />
    <glyph glyph-name="uni25D0" unicode="&#x25d0;" horiz-adv-x="1744" 
d="M868 135q244 0 415 169t171 412q0 242 -171 412t-415 170v-1163zM870 -29q-309 0 -526 217q-217 218 -217 528t217 528t526 218q310 0 528 -218t218 -528t-218 -528q-219 -217 -528 -217z" />
    <glyph glyph-name="uni25D6" unicode="&#x25d6;" horiz-adv-x="1060" 
d="M877 -29q-311 0 -531 217q-219 218 -219 528t218 528t532 218v-1491z" />
    <glyph glyph-name="heart" unicode="&#x2665;" horiz-adv-x="1423" 
d="M981 1231q145 0 237 -90t91 -234q1 -92 -57 -195q-58 -102 -142 -190t-169 -164t-151 -136t-75 -87h-8q-10 27 -76 87t-150 136t-168 163t-141 191t-57 195q0 143 90 233t235 91q58 0 110 -22q52 -23 80 -47t50 -46t32 -20q9 0 42 34t92 67q59 34 135 34z" />
    <glyph glyph-name="uni2780" unicode="&#x2780;" horiz-adv-x="1837" 
d="M883 326v673h-219v115h350v-788h-131zM920 84q285 0 474 181t189 451t-189 452t-474 182q-286 0 -476 -182t-190 -451q0 -270 190 -452q191 -181 476 -181zM919 -29q-341 0 -567 212q-225 212 -225 534q0 321 225 533q224 212 566 212t567 -212t225 -534t-225 -533
q-225 -212 -566 -212z" />
    <glyph glyph-name="uni2781" unicode="&#x2781;" horiz-adv-x="1837" 
d="M623 326v67l299 287q4 4 26 25t40 40q19 19 46 49q35 41 35 98q0 58 -42 94q-43 36 -111 36t-113 -38t-53 -99h-132q10 113 92 181t211 69q129 0 207 -65t78 -154t-44 -152t-126 -143l-194 -187h379v-108h-598zM920 84q285 0 474 181t189 451t-189 452t-474 182
q-286 0 -476 -182t-190 -451q0 -270 190 -452q191 -181 476 -181zM919 -29q-341 0 -567 212q-225 212 -225 534q0 321 225 533q224 212 566 212t567 -212t225 -534t-225 -533q-225 -212 -566 -212z" />
    <glyph glyph-name="uni2782" unicode="&#x2782;" horiz-adv-x="1837" 
d="M1231 545q0 -101 -85 -169t-218 -67t-219 61t-105 165h137q29 -113 187 -113q76 0 124 36t48 94t-46 96t-126 38h-101v105l205 208h-389v117h574v-100l-228 -234q111 -14 177 -75t65 -162zM920 84q285 0 474 181t189 451t-189 452t-474 182q-286 0 -476 -182t-190 -451
q0 -270 190 -452q191 -181 476 -181zM127 717q-1 321 225 533t567 212t566 -212t225 -534t-225 -533q-225 -212 -566 -212t-567 212q-225 212 -225 534z" />
    <glyph glyph-name="uni2783" unicode="&#x2783;" horiz-adv-x="1837" 
d="M983 602v371l-305 -371h305zM1243 602v-115h-129v-161h-131v161h-465v91l436 536h160v-512h129zM920 84q285 0 474 181t189 451t-189 452t-474 182q-286 0 -476 -182t-190 -451q0 -270 190 -452q191 -181 476 -181zM919 -29q-341 0 -567 212q-225 212 -225 534
q0 321 225 533q224 212 566 212t567 -212t225 -534t-225 -533q-225 -212 -566 -212z" />
    <glyph glyph-name="uni2784" unicode="&#x2784;" horiz-adv-x="1837" 
d="M932 844q139 0 224 -71t85 -189t-87 -193q-87 -74 -228 -74q-142 -1 -228 63t-102 169h135q33 -121 195 -121q82 0 133 43t51 111t-49 108t-137 41q-88 0 -156 -53l-109 39l46 405h495v-114h-383l-22 -195q65 31 137 31zM920 84q285 0 474 181t189 451t-189 452t-474 182
q-286 0 -476 -182t-190 -451q0 -270 190 -452q191 -181 476 -181zM127 717q-1 321 225 533t567 212t566 -212t225 -534t-225 -533q-225 -212 -566 -212t-567 212q-225 212 -225 534z" />
    <glyph glyph-name="uni2785" unicode="&#x2785;" horiz-adv-x="1837" 
d="M920 422q88 0 142 46t54 123t-54 124t-142 47t-142 -47t-53 -123q-1 -76 53 -123t142 -47zM930 872q139 0 229 -76t90 -201q0 -126 -92 -203t-236 -77t-238 78q-93 78 -93 199q0 86 78 196l247 334h162l-186 -252q12 2 39 2zM920 84q285 0 474 181t189 451t-189 452
t-474 182q-286 0 -476 -182t-190 -451q0 -270 190 -452q191 -181 476 -181zM127 717q-1 321 225 533t567 212t566 -212t225 -534t-225 -533q-225 -212 -566 -212t-567 212q-225 212 -225 534z" />
    <glyph glyph-name="uni2786" unicode="&#x2786;" horiz-adv-x="1837" 
d="M614 993v121h611v-78l-379 -710h-154l357 667h-435zM920 84q285 0 474 181t189 451t-189 452t-474 182q-286 0 -476 -182t-190 -451q0 -270 190 -452q191 -181 476 -181zM919 -29q-341 0 -567 212q-225 212 -225 534q0 321 225 533q224 212 566 212t567 -212t225 -534
t-225 -533q-225 -212 -566 -212z" />
    <glyph glyph-name="uni2787" unicode="&#x2787;" horiz-adv-x="1837" 
d="M920 418q82 0 133 38t51 98t-51 97t-134 37t-133 -37t-51 -97t51 -98t134 -38zM920 778q76 0 120 35t43 90q0 55 -47 91q-48 36 -118 36t-117 -36t-47 -91t45 -90t121 -35zM920 309q-152 0 -243 66t-91 172q0 135 151 196q-117 51 -117 161t85 170q84 60 214 60t214 -60
t84 -170t-117 -161q154 -61 153 -196q-1 -106 -91 -172t-242 -66zM920 84q285 0 474 181t189 451t-189 452t-474 182q-286 0 -476 -182t-190 -451q0 -270 190 -452q191 -181 476 -181zM919 -29q-341 0 -567 212q-225 212 -225 534q0 321 225 533q224 212 566 212t567 -212
t225 -534t-225 -533q-225 -212 -566 -212z" />
    <glyph glyph-name="uni2788" unicode="&#x2788;" horiz-adv-x="1837" 
d="M920 686q88 0 141 47t53 123t-53 123t-141 47t-142 -46t-55 -123q1 -77 55 -124t142 -47zM919 1133q144 0 237 -78q93 -79 93 -185t-78 -211l-249 -333h-160l186 252q-12 -2 -39 -3q-139 0 -229 76t-90 202t92 203q93 77 237 77zM920 84q285 0 474 181t189 451t-189 452
t-474 182q-286 0 -476 -182t-190 -451q0 -270 190 -452q191 -181 476 -181zM127 717q-1 321 225 533t567 212t566 -212t225 -534t-225 -533q-225 -212 -566 -212t-567 212q-225 212 -225 534z" />
    <glyph glyph-name="uni278A" unicode="&#x278a;" horiz-adv-x="1837" 
d="M883 326h131v788h-350v-115h219v-673zM919 -29q-341 0 -567 212q-225 212 -225 534q0 321 225 533q224 212 566 212t567 -212t225 -534t-225 -533q-225 -212 -566 -212z" />
    <glyph glyph-name="uni278B" unicode="&#x278b;" horiz-adv-x="1837" 
d="M623 326h598v108h-379l194 187q53 51 84 87q88 102 87 199q-1 98 -80 163t-207 65t-209 -69q-82 -69 -93 -181h132q8 61 53 99t114 38t111 -36t41 -80q0 -44 -13 -71t-24 -42q-12 -13 -18 -21t-22 -24l-22 -22q-4 -6 -24 -24t-24 -22l-299 -287v-67zM919 -29
q-341 0 -567 212q-225 212 -225 534q0 321 225 533q224 212 566 212t567 -212t225 -534t-225 -533q-225 -212 -566 -212z" />
    <glyph glyph-name="uni278C" unicode="&#x278c;" horiz-adv-x="1837" 
d="M928 309q133 0 218 68t85 164t-57 156t-158 77l-33 4l234 238v100h-574v-117h391l-207 -208v-105h101q80 0 126 -38t46 -96t-48 -94t-124 -36q-158 0 -187 113h-137q18 -104 104 -165t220 -61zM919 -29q-341 0 -567 212q-225 212 -225 534q0 321 225 533q224 212 566 212
t567 -212t225 -534t-225 -533q-225 -212 -566 -212z" />
    <glyph glyph-name="uni278D" unicode="&#x278d;" horiz-adv-x="1837" 
d="M983 602h-305l305 371v-371zM983 326h131v161h129v115h-129v512h-160l-436 -536v-91h465v-161zM919 -29q-341 0 -567 212q-225 212 -225 534q0 321 225 533q224 212 566 212t567 -212t225 -534t-225 -533q-225 -212 -566 -212z" />
    <glyph glyph-name="uni278E" unicode="&#x278e;" horiz-adv-x="1837" 
d="M926 317q141 0 228 74t87 193q0 120 -85 190t-224 70q-70 0 -137 -31l22 195h383v114h-495l-46 -405l109 -39q68 53 156 53t137 -41q49 -40 49 -108t-51 -111t-133 -43q-162 0 -195 121h-135q16 -104 102 -168t228 -64zM919 -29q-341 0 -567 212q-225 212 -225 534
q0 321 225 533q224 212 566 212t567 -212t225 -534t-225 -533q-225 -212 -566 -212z" />
    <glyph glyph-name="uni278F" unicode="&#x278f;" horiz-adv-x="1837" 
d="M920 422q-88 0 -142 47q-53 47 -53 123t53 123q54 47 142 47t142 -47t54 -124t-54 -123t-142 -46zM590 592q0 -121 94 -199t237 -78q144 0 236 77t92 198q0 120 -77 194t-199 86q-57 0 -88 -6l192 258h-162l-247 -334q-78 -111 -78 -196zM919 -29q-341 0 -567 212
q-225 212 -225 534q0 321 225 533q224 212 566 212t567 -212t225 -534t-225 -533q-225 -212 -566 -212z" />
    <glyph glyph-name="uni2790" unicode="&#x2790;" horiz-adv-x="1837" 
d="M1225 1114h-611v-121h435l-357 -667h154l379 710v78zM919 -29q-341 0 -567 212q-225 212 -225 534q0 321 225 533q224 212 566 212t567 -212t225 -534t-225 -533q-225 -212 -566 -212z" />
    <glyph glyph-name="uni2791" unicode="&#x2791;" horiz-adv-x="1837" 
d="M920 418q-82 0 -134 38q-51 38 -51 98t50 97q49 37 133 37t135 -37t51 -97t-51 -98t-133 -38zM920 778q-76 0 -121 35t-45 90t47 91t118 36t117 -36t47 -91t-43 -90t-120 -35zM920 309q152 0 242 66t91 172q0 135 -153 196q117 51 117 161t-84 170t-214 60t-214 -60
t-84 -170t116 -161q-152 -61 -151 -196q0 -106 91 -172t243 -66zM919 -29q-341 0 -567 212q-225 212 -225 534q0 321 225 533q224 212 566 212t567 -212t225 -534t-225 -533q-225 -212 -566 -212z" />
    <glyph glyph-name="uni2792" unicode="&#x2792;" horiz-adv-x="1837" 
d="M920 686q-88 0 -143 47q-54 47 -54 124t54 123q55 46 143 46t141 -47t53 -123t-53 -123t-141 -47zM1249 870q0 107 -93 185t-237 78q-145 0 -237 -77t-92 -196q0 -120 74 -192q110 -107 288 -86l-190 -256h160l249 333q78 104 78 211zM919 -29q-341 0 -567 212
q-225 212 -225 534q0 321 225 533q224 212 566 212t567 -212t225 -534t-225 -533q-225 -212 -566 -212z" />
    <glyph glyph-name="uniF8FF" unicode="&#xf8ff;" horiz-adv-x="1536" 
d="M449 578h147l31 -269h10l57 269h146l57 -269h12l31 269h145v-9l-75 -379h-199l-23 123l-16 103h-10l-14 -103l-25 -123h-201l-73 379v9zM358 90h820v1249h-820v-1249zM205 -72v1573h1126v-1573h-1126z" />
    <glyph glyph-name="Jacute" horiz-adv-x="1280" 
d="M590.5 -29q-234.5 0 -378.5 117t-169 324h180q25 -129 116 -205t249 -76t251 105.5t93 275.5v764h-696v158h880v-928q0 -250 -145.5 -392.5t-380 -142.5zM582 1581l-4 6l172 295h194l-205 -301h-157z" />
    <glyph glyph-name="A.ss01" horiz-adv-x="1607" 
d="M1245 555v641h-4l-500 -641h504zM1425 1434v-1434h-180v395h-629l-311 -395h-221l1143 1434h198z" />
    <glyph glyph-name="Aacute.ss01" horiz-adv-x="1607" 
d="M1245 555v641h-4l-500 -641h504zM1425 1434v-1434h-180v395h-629l-311 -395h-221l1143 1434h198zM1245 1581l-4 6l172 295h195l-205 -301h-158z" />
    <glyph glyph-name="Abreve.ss01" horiz-adv-x="1607" 
d="M1245 555v641h-4l-500 -641h504zM1425 1434v-1434h-180v395h-629l-311 -395h-221l1143 1434h198zM1325 1593q-145 0 -228 82t-87 211h129q6 -80 54 -130t132 -50t132 50t54 130h129q-4 -129 -87 -211t-228 -82z" />
    <glyph glyph-name="Acircumflex.ss01" horiz-adv-x="1607" 
d="M1245 555v641h-4l-500 -641h504zM1425 1434v-1434h-180v395h-629l-311 -395h-221l1143 1434h198zM971 1579l266 301h176l266 -301h-170l-184 195l-186 -195h-168z" />
    <glyph glyph-name="Adieresis.ss01" horiz-adv-x="1607" 
d="M1245 555v641h-4l-500 -641h504zM1425 1434v-1434h-180v395h-629l-311 -395h-221l1143 1434h198zM1417 1606v219h223v-219h-223zM1008 1606v219h223v-219h-223z" />
    <glyph glyph-name="Agrave.ss01" horiz-adv-x="1607" 
d="M1245 555v641h-4l-500 -641h504zM1425 1434v-1434h-180v395h-629l-311 -395h-221l1143 1434h198zM1409 1581h-158l-204 301h194l172 -295z" />
    <glyph glyph-name="Amacron.ss01" horiz-adv-x="1607" 
d="M1245 555v641h-4l-500 -641h504zM1425 1434v-1434h-180v395h-629l-311 -395h-221l1143 1434h198zM1022 1608v135h606v-135h-606z" />
    <glyph glyph-name="Aogonek.ss01" horiz-adv-x="1607" 
d="M1245 555v641h-4l-500 -641h504zM1384 -381q-121 0 -201.5 56.5t-80.5 154.5q0 131 143 201v364h-629l-311 -395h-221l1143 1434h198v-1434q-174 -43 -174 -143q0 -51 45 -78t94.5 -27t98.5 8l18 -125q-55 -16 -123 -16z" />
    <glyph glyph-name="Aring.ss01" horiz-adv-x="1607" 
d="M1245 555v641h-4l-500 -641h504zM1425 1434v-1434h-180v395h-629l-311 -395h-221l1143 1434h198zM1325 1700q51 0 85 30.5t34 80t-35 80t-84 30.5t-83 -30.5t-34 -80t33 -80t84 -30.5zM1327 1610q-98 0 -160.5 56t-62.5 144t62.5 144.5t160.5 56.5t158.5 -56.5
t60.5 -144.5t-60.5 -144t-158.5 -56z" />
    <glyph glyph-name="M.ss02" horiz-adv-x="2768" 
d="M2587 1434v-1434h-181v1204h-4l-936 -1204h-221v1204h-4l-936 -1204h-221l1118 1434h223v-1203l938 1203h224z" />
    <glyph glyph-name="V.ss02" horiz-adv-x="1607" 
d="M1245 229v1205h180v-1434h-223l-1118 1434h221l936 -1205h4z" />
    <glyph glyph-name="W.ss02" horiz-adv-x="2768" 
d="M2406 1434h181v-1434h-224l-938 1202v-1202h-223l-1118 1434h221l936 -1205h4v1205h221l936 -1205h4v1205z" />
    <glyph glyph-name="Wacute.ss02" horiz-adv-x="2768" 
d="M2406 1434h181v-1434h-224l-938 1202v-1202h-223l-1118 1434h221l936 -1205h4v1205h221l936 -1205h4v1205zM1427 1581h-157l-4 6l172 295h194z" />
    <glyph glyph-name="Wcircumflex.ss02" horiz-adv-x="2768" 
d="M2406 1434h181v-1434h-224l-938 1202v-1202h-223l-1118 1434h221l936 -1205h4v1205h221l936 -1205h4v1205zM1356 1774l-187 -195h-168l267 301h176l266 -301h-170z" />
    <glyph glyph-name="Wdieresis.ss02" horiz-adv-x="2768" 
d="M2406 1434h181v-1434h-224l-938 1202v-1202h-223l-1118 1434h221l936 -1205h4v1205h221l936 -1205h4v1205zM1671 1825v-219h-223v219h223zM1262 1825v-219h-224v219h224z" />
    <glyph glyph-name="Wgrave.ss02" horiz-adv-x="2768" 
d="M2406 1434h181v-1434h-224l-938 1202v-1202h-223l-1118 1434h221l936 -1205h4v1205h221l936 -1205h4v1205zM1440 1581h-158l-205 301h195l172 -295z" />
    <glyph glyph-name="J.ss03" horiz-adv-x="1280" 
d="M590.5 -29q-234.5 0 -378.5 117t-169 324h180q25 -129 116 -205t249 -76t251 105.5t93 275.5v922h184v-928q0 -250 -145.5 -392.5t-380 -142.5z" />
    <glyph glyph-name="Jacute.ss03" horiz-adv-x="1280" 
d="M590.5 -29q-234.5 0 -378.5 117t-169 324h180q25 -129 116 -205t249 -76t251 105.5t93 275.5v922h184v-928q0 -250 -145.5 -392.5t-380 -142.5zM940 1581l-4 6l172 295h195l-205 -301h-158z" />
    <glyph glyph-name="A.ss04" horiz-adv-x="1607" 
d="M365 1196v-641h503l-499 641h-4zM365 395v-395h-181v1434h197l1145 -1434h-223l-310 395h-628z" />
    <glyph glyph-name="Aacute.ss04" horiz-adv-x="1607" 
d="M365 1196v-641h503l-499 641h-4zM365 395v-395h-181v1434h197l1145 -1434h-223l-310 395h-628zM197 1581l-4 6l172 295h194l-205 -301h-157z" />
    <glyph glyph-name="Abreve.ss04" horiz-adv-x="1607" 
d="M365 1196v-641h503l-499 641h-4zM365 395v-395h-181v1434h197l1145 -1434h-223l-310 395h-628zM282.5 1593q-145.5 0 -228.5 82t-87 211h129q6 -80 54.5 -130t132.5 -50t132 50t54 130h129q-4 -129 -87 -211t-228.5 -82z" />
    <glyph glyph-name="Acircumflex.ss04" horiz-adv-x="1607" 
d="M365 1196v-641h503l-499 641h-4zM365 395v-395h-181v1434h197l1145 -1434h-223l-310 395h-628zM-72 1579l267 301h176l266 -301h-170l-184 195l-187 -195h-168z" />
    <glyph glyph-name="Adieresis.ss04" horiz-adv-x="1607" 
d="M365 1196v-641h503l-499 641h-4zM365 395v-395h-181v1434h197l1145 -1434h-223l-310 395h-628zM375 1606v219h223v-219h-223zM-35 1606v219h223v-219h-223z" />
    <glyph glyph-name="Agrave.ss04" horiz-adv-x="1607" 
d="M365 1196v-641h503l-499 641h-4zM365 395v-395h-181v1434h197l1145 -1434h-223l-310 395h-628zM367 1581h-158l-205 301h195l172 -295z" />
    <glyph glyph-name="Amacron.ss04" horiz-adv-x="1607" 
d="M365 1196v-641h503l-499 641h-4zM365 395v-395h-181v1434h197l1145 -1434h-223l-310 395h-628zM-20 1608v135h606v-135h-606z" />
    <glyph glyph-name="Aogonek.ss04" horiz-adv-x="1607" 
d="M365 555h503l-499 641h-4v-641zM1432 -381q-121 0 -202 56.5t-81 154.5q0 127 133 197l-289 368h-628v-395h-181v1434h197l1145 -1434h-53q-174 -43 -175 -143q0 -51 45.5 -78t94.5 -27t98 8l18 -125q-55 -16 -122 -16z" />
    <glyph glyph-name="Aring.ss04" horiz-adv-x="1607" 
d="M365 1196v-641h503l-499 641h-4zM365 395v-395h-181v1434h197l1145 -1434h-223l-310 395h-628zM282.5 1700q51.5 0 85 30.5t33.5 80t-34.5 80t-84 30.5t-83 -30.5t-33.5 -80t32.5 -80t84 -30.5zM284.5 1610q-98.5 0 -161 56t-62.5 144t62.5 144.5t161 56.5t159 -56.5
t60.5 -144.5t-60.5 -144t-159 -56z" />
    <glyph glyph-name="M.ss05" horiz-adv-x="2768" 
d="M1526 1204v-1204h-223l-934 1204h-4v-1204h-181v1434h222l940 -1203v1203h223l1118 -1434h-221l-936 1204h-4z" />
    <glyph glyph-name="V.ss05" horiz-adv-x="1607" 
d="M184 0v1434h181v-1205h4l934 1205h223l-1120 -1434h-222z" />
    <glyph glyph-name="W.ss05" horiz-adv-x="2768" 
d="M1346 0v1202l-940 -1202h-222v1434h181v-1205h4l934 1205h223v-1205h4l936 1205h221l-1118 -1434h-223z" />
    <glyph glyph-name="Wacute.ss05" horiz-adv-x="2768" 
d="M1346 0v1202l-940 -1202h-222v1434h181v-1205h4l934 1205h223v-1205h4l936 1205h221l-1118 -1434h-223zM1487 1581h-158l-4 6l172 295h195z" />
    <glyph glyph-name="Wcircumflex.ss05" horiz-adv-x="2768" 
d="M1346 0v1202l-940 -1202h-222v1434h181v-1205h4l934 1205h223v-1205h4l936 1205h221l-1118 -1434h-223zM1415 1774l-186 -195h-168l266 301h176l266 -301h-170z" />
    <glyph glyph-name="Wdieresis.ss05" horiz-adv-x="2768" 
d="M1346 0v1202l-940 -1202h-222v1434h181v-1205h4l934 1205h223v-1205h4l936 1205h221l-1118 -1434h-223zM1731 1825v-219h-224v219h224zM1321 1825v-219h-223v219h223z" />
    <glyph glyph-name="Wgrave.ss05" horiz-adv-x="2768" 
d="M1346 0v1202l-940 -1202h-222v1434h181v-1205h4l934 1205h223v-1205h4l936 1205h221l-1118 -1434h-223zM1499 1581h-158l-204 301h194l172 -295z" />
    <glyph glyph-name="i.loclTRK" horiz-adv-x="542" 
d="M184 0v969h174v-969h-174zM158 1409h223v-221h-223v221z" />
    <glyph glyph-name="jacute" horiz-adv-x="542" 
d="M-45 -496v144l16 2q115 6 164 57t49 182v1080h174v-1061q0 -213 -88 -308.5t-280 -95.5h-35zM184 1151l-4 6l172 293h195l-205 -299h-158z" />
    <glyph glyph-name="v.ss02" horiz-adv-x="1286" 
d="M944 215v754h174v-969h-186l-877 969h207l678 -754h4z" />
    <glyph glyph-name="w.ss02" horiz-adv-x="2050" 
d="M897 215v754h176l631 -754h4v754h174v-969h-184l-621 721h-4v-721h-188l-830 969h207l631 -754h4z" />
    <glyph glyph-name="wacute.ss02" horiz-adv-x="2050" 
d="M897 215v754h176l631 -754h4v754h174v-969h-184l-621 721h-4v-721h-188l-830 969h207l631 -754h4zM897 1151l-4 6l172 293h195l-205 -299h-158z" />
    <glyph glyph-name="wcircumflex.ss02" horiz-adv-x="2050" 
d="M897 215v754h176l631 -754h4v754h174v-969h-184l-621 721h-4v-721h-188l-830 969h207l631 -754h4zM631 1137l266 299h176l266 -299h-170l-184 194l-186 -194h-168z" />
    <glyph glyph-name="wdieresis.ss02" horiz-adv-x="2050" 
d="M897 215v754h176l631 -754h4v754h174v-969h-184l-621 721h-4v-721h-188l-830 969h207l631 -754h4zM1077 1409h223v-221h-223v221zM668 1409h223v-221h-223v221z" />
    <glyph glyph-name="wgrave.ss02" horiz-adv-x="2050" 
d="M897 215v754h176l631 -754h4v754h174v-969h-184l-621 721h-4v-721h-188l-830 969h207l631 -754h4zM1069 1151h-158l-204 299h194l172 -293z" />
    <glyph glyph-name="y.ss02" horiz-adv-x="1286" 
d="M944 969h174v-1436h-174v467l-889 969h207l678 -742h4v742z" />
    <glyph glyph-name="yacute.ss02" horiz-adv-x="1286" 
d="M944 969h174v-1436h-174v467l-889 969h207l678 -742h4v742zM713 1151h-158l-4 6l172 293h195z" />
    <glyph glyph-name="ycircumflex.ss02" horiz-adv-x="1286" 
d="M944 969h174v-1436h-174v467l-889 969h207l678 -742h4v742zM643 1331l-186 -194h-168l266 299h176l266 -299h-170z" />
    <glyph glyph-name="ydieresis.ss02" horiz-adv-x="1286" 
d="M944 969h174v-1436h-174v467l-889 969h207l678 -742h4v742zM958 1409v-221h-223v221h223zM549 1409v-221h-223v221h223z" />
    <glyph glyph-name="ygrave.ss02" horiz-adv-x="1286" 
d="M944 969h174v-1436h-174v467l-889 969h207l678 -742h4v742zM727 1151h-158l-204 299h194l172 -293z" />
    <glyph glyph-name="uni1EF9.ss02" horiz-adv-x="1286" 
d="M944 969h174v-1436h-174v467l-889 969h207l678 -742h4v742zM506 1292q-68 0 -76 -80h-141q4 96 59 156q56 60 140 59.5t170.5 -55.5t123.5 -55q70 0 74 82h139q2 -94 -55 -156.5t-138 -62.5t-171 56t-125 56z" />
    <glyph glyph-name="v.ss05" horiz-adv-x="1286" 
d="M166 0v969h174v-750h4l674 750h211l-875 -969h-188z" />
    <glyph glyph-name="w.ss05" horiz-adv-x="2050" 
d="M166 0v969h174v-752h4l629 752h178v-752h4l629 752h209l-830 -969h-186v721h-4l-621 -721h-186z" />
    <glyph glyph-name="wacute.ss05" horiz-adv-x="2050" 
d="M166 0v969h174v-752h4l629 752h178v-752h4l629 752h209l-830 -969h-186v721h-4l-621 -721h-186zM975 1151l-4 6l172 293h194l-204 -299h-158z" />
    <glyph glyph-name="wcircumflex.ss05" horiz-adv-x="2050" 
d="M166 0v969h174v-752h4l629 752h178v-752h4l629 752h209l-830 -969h-186v721h-4l-621 -721h-186zM709 1137l266 299h176l266 -299h-170l-184 194l-186 -194h-168z" />
    <glyph glyph-name="wdieresis.ss05" horiz-adv-x="2050" 
d="M166 0v969h174v-752h4l629 752h178v-752h4l629 752h209l-830 -969h-186v721h-4l-621 -721h-186zM1155 1409h223v-221h-223v221zM745 1409h224v-221h-224v221z" />
    <glyph glyph-name="wgrave.ss05" horiz-adv-x="2050" 
d="M166 0v969h174v-752h4l629 752h178v-752h4l629 752h209l-830 -969h-186v721h-4l-621 -721h-186zM1147 1151h-158l-205 299h195l172 -293z" />
    <glyph glyph-name="y.ss05" horiz-adv-x="1286" 
d="M340 -467h-174v1436h174v-738h4l676 738h209l-889 -969v-467z" />
    <glyph glyph-name="yacute.ss05" horiz-adv-x="1286" 
d="M340 -467h-174v1436h174v-738h4l676 738h209l-889 -969v-467zM711 1151h-158l-4 6l172 293h194z" />
    <glyph glyph-name="ycircumflex.ss05" horiz-adv-x="1286" 
d="M340 -467h-174v1436h174v-738h4l676 738h209l-889 -969v-467zM641 1331l-186 -194h-168l266 299h176l266 -299h-170z" />
    <glyph glyph-name="ydieresis.ss05" horiz-adv-x="1286" 
d="M340 -467h-174v1436h174v-738h4l676 738h209l-889 -969v-467zM956 1409v-221h-223v221h223zM547 1409v-221h-223v221h223z" />
    <glyph glyph-name="ygrave.ss05" horiz-adv-x="1286" 
d="M340 -467h-174v1436h174v-738h4l676 738h209l-889 -969v-467zM725 1151h-158l-205 299h195l172 -293z" />
    <glyph glyph-name="uni1EF9.ss05" horiz-adv-x="1286" 
d="M340 -467h-174v1436h174v-738h4l676 738h209l-889 -969v-467zM504 1292q-68 0 -76 -80h-141q4 96 59 155.5t139.5 59.5t171 -55t123.5 -55q70 0 74 82h139q2 -94 -55 -156.5t-137 -62.5t-172 56t-125 56z" />
    <glyph glyph-name="a.ss06" horiz-adv-x="1220" 
d="M537 109q160 0 258 87t98 226h-401q-96 0 -151.5 -39t-55.5 -113t74 -117.5t178 -43.5zM115 263q0 132 102 208t270 76h404v28q0 131 -73 205t-190.5 74t-189 -45t-86.5 -119h-176q20 139 143 223t315.5 84t312.5 -113.5t120 -312.5v-571h-176v152h-4
q-119 -181 -407 -181q-148 0 -256.5 80t-108.5 212z" />
    <glyph glyph-name="aacute.ss06" horiz-adv-x="1220" 
d="M537 109q160 0 258 87t98 226h-401q-96 0 -151.5 -39t-55.5 -113t74 -117.5t178 -43.5zM115 263q0 132 102 208t270 76h404v28q0 131 -73 205t-190.5 74t-189 -45t-86.5 -119h-176q20 139 143 223t315.5 84t312.5 -113.5t120 -312.5v-571h-176v152h-4
q-119 -181 -407 -181q-148 0 -256.5 80t-108.5 212zM520 1151l-4 6l172 293h195l-205 -299h-158z" />
    <glyph glyph-name="abreve.ss06" horiz-adv-x="1220" 
d="M537 109q160 0 258 87t98 226h-401q-96 0 -151.5 -39t-55.5 -113t74 -117.5t178 -43.5zM115 263q0 132 102 208t270 76h404v28q0 131 -73 205t-190.5 74t-189 -45t-86.5 -119h-176q20 139 143 223t315.5 84t312.5 -113.5t120 -312.5v-571h-176v152h-4
q-119 -181 -407 -181q-148 0 -256.5 80t-108.5 212zM608.5 1128q-145.5 0 -228.5 82t-87 211h129q6 -80 54 -130t132 -50t132.5 50t54.5 130h129q-4 -129 -87 -211t-228.5 -82z" />
    <glyph glyph-name="acircumflex.ss06" horiz-adv-x="1220" 
d="M537 109q160 0 258 87t98 226h-401q-96 0 -151.5 -39t-55.5 -113t74 -117.5t178 -43.5zM115 263q0 132 102 208t270 76h404v28q0 131 -73 205t-190.5 74t-189 -45t-86.5 -119h-176q20 139 143 223t315.5 84t312.5 -113.5t120 -312.5v-571h-176v152h-4
q-119 -181 -407 -181q-148 0 -256.5 80t-108.5 212zM254 1137l266 299h176l267 -299h-170l-185 194l-186 -194h-168z" />
    <glyph glyph-name="adieresis.ss06" horiz-adv-x="1220" 
d="M537 109q160 0 258 87t98 226h-401q-96 0 -151.5 -39t-55.5 -113t74 -117.5t178 -43.5zM115 263q0 132 102 208t270 76h404v28q0 131 -73 205t-190.5 74t-189 -45t-86.5 -119h-176q20 139 143 223t315.5 84t312.5 -113.5t120 -312.5v-571h-176v152h-4
q-119 -181 -407 -181q-148 0 -256.5 80t-108.5 212zM700 1409h224v-221h-224v221zM291 1409h223v-221h-223v221z" />
    <glyph glyph-name="agrave.ss06" horiz-adv-x="1220" 
d="M537 109q160 0 258 87t98 226h-401q-96 0 -151.5 -39t-55.5 -113t74 -117.5t178 -43.5zM115 263q0 132 102 208t270 76h404v28q0 131 -73 205t-190.5 74t-189 -45t-86.5 -119h-176q20 139 143 223t315.5 84t312.5 -113.5t120 -312.5v-571h-176v152h-4
q-119 -181 -407 -181q-148 0 -256.5 80t-108.5 212zM692 1151h-157l-205 299h194l172 -293z" />
    <glyph glyph-name="amacron.ss06" horiz-adv-x="1220" 
d="M537 109q160 0 258 87t98 226h-401q-96 0 -151.5 -39t-55.5 -113t74 -117.5t178 -43.5zM115 263q0 132 102 208t270 76h404v28q0 131 -73 205t-190.5 74t-189 -45t-86.5 -119h-176q20 139 143 223t315.5 84t312.5 -113.5t120 -312.5v-571h-176v152h-4
q-119 -181 -407 -181q-148 0 -256.5 80t-108.5 212zM305 1192v137h606v-137h-606z" />
    <glyph glyph-name="aogonek.ss06" horiz-adv-x="1220" 
d="M537 109q160 0 258 87t98 226h-401q-96 0 -151.5 -39t-55.5 -113t74 -117.5t178 -43.5zM887 152q-119 -181 -407 -181q-148 0 -256.5 80t-108.5 212t102 208t270 76h404v28q0 131 -73 205t-190.5 74t-189 -45t-86.5 -119h-176q20 139 143 223t315.5 84t312.5 -113.5
t120 -312.5v-571q-174 -43 -174 -143q0 -51 45 -78t94 -27t98 8l19 -125q-55 -16 -123 -16q-121 0 -202 56.5t-81 154.5q0 133 148 203v119h-4z" />
    <glyph glyph-name="aring.ss06" horiz-adv-x="1220" 
d="M537 109q160 0 258 87t98 226h-401q-96 0 -151.5 -39t-55.5 -113t74 -117.5t178 -43.5zM115 263q0 132 102 208t270 76h404v28q0 131 -73 205t-190.5 74t-189 -45t-86.5 -119h-176q20 139 143 223t315.5 84t312.5 -113.5t120 -312.5v-571h-176v152h-4
q-119 -181 -407 -181q-148 0 -256.5 80t-108.5 212zM608 1219q49 0 84 30.5t35 79.5t-34 81t-84 32t-83.5 -32t-33.5 -81t33.5 -79.5t82.5 -30.5zM609 1130q-99 0 -160.5 55.5t-61.5 143.5t62.5 144.5t161 56.5t158.5 -56.5t60 -144.5t-60.5 -143.5t-159.5 -55.5z" />
    <glyph glyph-name="atilde.ss06" horiz-adv-x="1220" 
d="M537 109q160 0 258 87t98 226h-401q-96 0 -151.5 -39t-55.5 -113t74 -117.5t178 -43.5zM115 263q0 132 102 208t270 76h404v28q0 131 -73 205t-190.5 74t-189 -45t-86.5 -119h-176q20 139 143 223t315.5 84t312.5 -113.5t120 -312.5v-571h-176v152h-4
q-119 -181 -407 -181q-148 0 -256.5 80t-108.5 212zM768 1180q-80 0 -172 56t-125 56q-68 0 -76 -80h-141q4 96 59.5 155.5t139.5 59.5t171 -55t124 -55q70 0 73 82h140q2 -94 -55.5 -156.5t-137.5 -62.5z" />
    <glyph glyph-name="ij.ss07" horiz-adv-x="1085" 
d="M727 -467v1436h174v-1436h-174zM184 0v969h174v-969h-174zM723 1335v242h182v-242h-182zM180 1335v242h182v-242h-182z" />
    <glyph glyph-name="j.ss07" horiz-adv-x="542" 
d="M184 -467v1436h174v-1436h-174zM180 1335v242h182v-242h-182z" />
    <glyph glyph-name="uni0237.ss07" horiz-adv-x="542" 
d="M184 -467v1436h174v-1436h-174z" />
    <glyph glyph-name="jacute.ss07" horiz-adv-x="542" 
d="M184 -467v1436h174v-1436h-174zM182 1151l-4 6l172 293h195l-205 -299h-158z" />
    <glyph glyph-name="f.ss08" horiz-adv-x="684" 
d="M166 0v1231q0 170 110 272q111 102 291 103q63 0 111 -13v-149q-47 10 -84 10q-118 0 -186 -60t-68 -163v-262h338v-142h-338v-827h-174z" />
    <glyph glyph-name="t.ss09" horiz-adv-x="737" 
d="M489 -29q-168 0 -263 98.5t-95 276.5v950h174v-327h328v-142h-328v-477q0 -225 207 -225q35 0 121 8v-145q-66 -17 -144 -17z" />
    <glyph glyph-name="tbar.ss09" horiz-adv-x="798" 
d="M633 827h-328v-176h328v-121h-328v-180q0 -225 207 -225q35 0 121 8v-145q-66 -16 -144 -17q-168 0 -263 98.5t-95 276.5v950h174v-327h328v-142z" />
    <glyph glyph-name="tcaron.ss09" horiz-adv-x="737" 
d="M489 -29q-168 0 -263 98.5t-95 276.5v950h174v-327h328v-142h-328v-477q0 -225 207 -225q35 0 121 8v-145q-66 -17 -144 -17zM463 1155l18 387h181l-64 -387h-135z" />
    <glyph glyph-name="uni0163.ss09" horiz-adv-x="737" 
d="M633 827h-328v-477q0 -225 207 -225q35 0 121 8v-145q-66 -16 -144 -17h-10l-110 -299h-154l102 332q-186 86 -186 342v950h174v-327h328v-142z" />
    <glyph glyph-name="uni021B.ss09" horiz-adv-x="737" 
d="M295 -125h221v-113q0 -127 -50 -186t-192 -94l-22 84q84 31 109.5 57.5t27.5 81.5h-94v170zM489 -29q-168 0 -263 98.5t-95 276.5v950h174v-327h328v-142h-328v-477q0 -225 207 -225q35 0 121 8v-145q-66 -17 -144 -17z" />
    <glyph glyph-name="u.ss10" horiz-adv-x="1261" 
d="M1094 969v-969h-174v152h-5q-53 -84 -147 -132.5t-201 -48.5q-193 0 -314.5 123t-121.5 316v559h174v-549q0 -137 79 -218t216 -81t228.5 91t91.5 237v520h174z" />
    <glyph glyph-name="uacute.ss10" horiz-adv-x="1261" 
d="M1094 969v-969h-174v152h-5q-53 -84 -147 -132.5t-201 -48.5q-193 0 -314.5 123t-121.5 316v559h174v-549q0 -137 79 -218t216 -81t228.5 91t91.5 237v520h174zM532 1151l-4 6l172 293h195l-205 -299h-158z" />
    <glyph glyph-name="ucircumflex.ss10" horiz-adv-x="1261" 
d="M1094 969v-969h-174v152h-5q-53 -84 -147 -132.5t-201 -48.5q-193 0 -314.5 123t-121.5 316v559h174v-549q0 -137 79 -218t216 -81t228.5 91t91.5 237v520h174zM266 1137l266 299h177l266 -299h-170l-184 194l-187 -194h-168z" />
    <glyph glyph-name="udieresis.ss10" horiz-adv-x="1261" 
d="M1094 969v-969h-174v152h-5q-53 -84 -147 -132.5t-201 -48.5q-193 0 -314.5 123t-121.5 316v559h174v-549q0 -137 79 -218t216 -81t228.5 91t91.5 237v520h174zM713 1409h223v-221h-223v221zM303 1409h223v-221h-223v221z" />
    <glyph glyph-name="ugrave.ss10" horiz-adv-x="1261" 
d="M1094 969v-969h-174v152h-5q-53 -84 -147 -132.5t-201 -48.5q-193 0 -314.5 123t-121.5 316v559h174v-549q0 -137 79 -218t216 -81t228.5 91t91.5 237v520h174zM705 1151h-158l-205 299h195l172 -293z" />
    <glyph glyph-name="uhungarumlaut.ss10" horiz-adv-x="1261" 
d="M1094 969v-969h-174v152h-5q-53 -84 -147 -132.5t-201 -48.5q-193 0 -314.5 123t-121.5 316v559h174v-549q0 -137 79 -218t216 -81t228.5 91t91.5 237v520h174zM698 1151l-4 6l150 293h182l-182 -299h-146zM399 1151l-4 6l150 293h182l-182 -299h-146z" />
    <glyph glyph-name="umacron.ss10" horiz-adv-x="1261" 
d="M1094 969v-969h-174v152h-5q-53 -84 -147 -132.5t-201 -48.5q-193 0 -314.5 123t-121.5 316v559h174v-549q0 -137 79 -218t216 -81t228.5 91t91.5 237v520h174zM317 1192v137h607v-137h-607z" />
    <glyph glyph-name="uogonek.ss10" horiz-adv-x="1261" 
d="M1053 -381q-121 0 -202 56.5t-81 154.5q0 135 150 205v117h-5q-53 -84 -147 -132.5t-201 -48.5q-193 0 -314.5 123t-121.5 316v559h174v-549q0 -137 79 -218t216 -81t228.5 91t91.5 237v520h174v-969q-174 -43 -174 -143q0 -51 45 -78t94 -27t98 8l19 -125
q-55 -16 -123 -16z" />
    <glyph glyph-name="uring.ss10" horiz-adv-x="1261" 
d="M1094 969v-969h-174v152h-5q-53 -84 -147 -132.5t-201 -48.5q-193 0 -314.5 123t-121.5 316v559h174v-549q0 -137 79 -218t216 -81t228.5 91t91.5 237v520h174zM620.5 1219q49.5 0 84 30.5t34.5 79.5t-33.5 81t-83.5 32t-84 -32t-34 -81t33.5 -79.5t83 -30.5zM622 1130
q-99 0 -161 55.5t-62 143.5t62.5 144.5t161 56.5t159 -56.5t60.5 -144.5t-60.5 -143.5t-159.5 -55.5z" />
    <glyph glyph-name="utilde.ss10" horiz-adv-x="1261" 
d="M1094 969v-969h-174v152h-5q-53 -84 -147 -132.5t-201 -48.5q-193 0 -314.5 123t-121.5 316v559h174v-549q0 -137 79 -218t216 -81t228.5 91t91.5 237v520h174zM780 1180q-80 0 -171 56t-126 56q-68 0 -75 -80h-142q4 96 59.5 155.5t139.5 59.5t171 -55t124 -55
q70 0 74 82h139q2 -94 -55.5 -156.5t-137.5 -62.5z" />
    <glyph glyph-name="y.ss11" horiz-adv-x="1314" 
d="M291 -496q-80 0 -154 17v149q65 -14 147 -14t140.5 41t103.5 139l58 125l-516 1008h188l416 -815h4l379 815h188l-557 -1186q-131 -279 -397 -279z" />
    <glyph glyph-name="yacute.ss11" horiz-adv-x="1314" 
d="M291 -496q-80 0 -154 17v149q65 -14 147 -14t140.5 41t103.5 139l58 125l-516 1008h188l416 -815h4l379 815h188l-557 -1186q-131 -279 -397 -279zM569 1151l-4 6l172 293h195l-205 -299h-158z" />
    <glyph glyph-name="ycircumflex.ss11" horiz-adv-x="1314" 
d="M291 -496q-80 0 -154 17v149q65 -14 147 -14t140.5 41t103.5 139l58 125l-516 1008h188l416 -815h4l379 815h188l-557 -1186q-131 -279 -397 -279zM303 1137l266 299h176l267 -299h-170l-185 194l-186 -194h-168z" />
    <glyph glyph-name="ydieresis.ss11" horiz-adv-x="1314" 
d="M291 -496q-80 0 -154 17v149q65 -14 147 -14t140.5 41t103.5 139l58 125l-516 1008h188l416 -815h4l379 815h188l-557 -1186q-131 -279 -397 -279zM750 1409h223v-221h-223v221zM340 1409h223v-221h-223v221z" />
    <glyph glyph-name="ygrave.ss11" horiz-adv-x="1314" 
d="M291 -496q-80 0 -154 17v149q65 -14 147 -14t140.5 41t103.5 139l58 125l-516 1008h188l416 -815h4l379 815h188l-557 -1186q-131 -279 -397 -279zM741 1151h-157l-205 299h194l172 -293z" />
    <glyph glyph-name="y.ss12" horiz-adv-x="1277" 
d="M628 -496q-214 0 -346 100.5t-161 262.5h178q25 -96 106.5 -154.5t220 -58.5t225.5 79t87 222v197h-4q-131 -180 -354 -181q-190 0 -310 123t-120 316v559h174v-549q0 -137 78.5 -218t216.5 -81t228.5 91t90.5 237v520h174v-1014q0 -203 -135 -327t-349 -124z" />
    <glyph glyph-name="yacute.ss12" horiz-adv-x="1277" 
d="M628 -496q-214 0 -346 100.5t-161 262.5h178q25 -96 106.5 -154.5t220 -58.5t225.5 79t87 222v197h-4q-131 -180 -354 -181q-190 0 -310 123t-120 316v559h174v-549q0 -137 78.5 -218t216.5 -81t228.5 91t90.5 237v520h174v-1014q0 -203 -135 -327t-349 -124zM543 1151
l-4 6l172 293h194l-205 -299h-157z" />
    <glyph glyph-name="ycircumflex.ss12" horiz-adv-x="1277" 
d="M628 -496q-214 0 -346 100.5t-161 262.5h178q25 -96 106.5 -154.5t220 -58.5t225.5 79t87 222v197h-4q-131 -180 -354 -181q-190 0 -310 123t-120 316v559h174v-549q0 -137 78.5 -218t216.5 -81t228.5 91t90.5 237v520h174v-1014q0 -203 -135 -327t-349 -124zM276 1137
l267 299h176l266 -299h-170l-184 194l-187 -194h-168z" />
    <glyph glyph-name="ydieresis.ss12" horiz-adv-x="1277" 
d="M628 -496q-214 0 -346 100.5t-161 262.5h178q25 -96 106.5 -154.5t220 -58.5t225.5 79t87 222v197h-4q-131 -180 -354 -181q-190 0 -310 123t-120 316v559h174v-549q0 -137 78.5 -218t216.5 -81t228.5 91t90.5 237v520h174v-1014q0 -203 -135 -327t-349 -124zM723 1409
h223v-221h-223v221zM313 1409h224v-221h-224v221z" />
    <glyph glyph-name="ygrave.ss12" horiz-adv-x="1277" 
d="M628 -496q-214 0 -346 100.5t-161 262.5h178q25 -96 106.5 -154.5t220 -58.5t225.5 79t87 222v197h-4q-131 -180 -354 -181q-190 0 -310 123t-120 316v559h174v-549q0 -137 78.5 -218t216.5 -81t228.5 91t90.5 237v520h174v-1014q0 -203 -135 -327t-349 -124zM715 1151
h-158l-205 299h195l172 -293z" />
    <glyph glyph-name="germandbls.ss13" horiz-adv-x="1282" 
d="M1163 396q0 -185 -128 -305t-339 -120q-109 0 -213 39v152q86 -37 207 -37t210 81t89 212t-90 212t-235 81h-62v139l156 211q84 105 84 199t-70 145t-184 51t-189 -64q-74 -64 -73 -167v-1692h-174v1692q0 174 118 277q119 104 313 104q195 0 311 -90t116 -234t-107 -281
l-127 -163q176 -23 282 -140t105 -302z" />
    <glyph glyph-name="C_A" horiz-adv-x="2275" 
d="M1911 555v641h-4l-500 -641h504zM2091 1434v-1434h-180v395h-629l-311 -395h-78q-342 0 -554 196t-212 524t215 534q215 208 555 208q240 0 416 -114l-121 -125q-127 76 -295 75q-256 0 -420 -162t-164 -415q0 -252 157 -403t411 -154l1011 1270h199z" />
    <glyph glyph-name="E_A" horiz-adv-x="2080" 
d="M365 158h315l379 473h-694v-473zM1716 555v641h-4l-500 -641h504zM1896 1434v-1434h-180v395h-629l-186 -237h322v-158h-1039v1434h1039v-158h-858v-485h772v-62l563 705h196z" />
    <glyph glyph-name="F_A" horiz-adv-x="2080" 
d="M1716 555v641h-4l-500 -641h504zM1896 1434v-1434h-180v395h-629l-309 -395h-223l475 596h-665v-596h-181v1434h967v-158h-786v-520h694v-125l641 803h196z" />
    <glyph glyph-name="G_A" horiz-adv-x="2580" 
d="M2218 555v641h-4l-500 -641h504zM2398 1434v-1434h-180v395h-659l-9 -6q-80 -199 -253 -309t-406 -109q-338 0 -551 208t-213 538q0 329 215 537t553 208q269 0 461 -136t250 -355h-191q-53 155 -194 241t-326 86q-254 0 -418 -162t-164 -418q0 -255 162 -418
q163 -163 399 -163t377 126t164 319h-559v157h756v-43l588 738h198z" />
    <glyph glyph-name="H_T" horiz-adv-x="2375" 
d="M1661 0v1434h653v-158h-473v-1276h-180zM184 0v1434h181v-646h854v488h-474v158h656v-1434h-182v629h-854v-629h-181z" />
    <glyph glyph-name="K_A" horiz-adv-x="2205" 
d="M1841 555v641h-4l-500 -641h504zM2021 1434v-1434h-180v395h-629l-90 -114l342 -281h-245l-193 158l-125 -158h-221l213 268l-528 434v-702h-181v1434h181v-717l790 717h229l-792 -717l399 -328l832 1045h198z" />
    <glyph glyph-name="L_A" horiz-adv-x="1974" 
d="M1610 555v641h-4l-500 -641h504zM1790 1434v-1434h-180v395h-629l-190 -241h385v-154h-992v1434h181v-1280h206l1020 1280h199z" />
    <glyph glyph-name="L_L" horiz-adv-x="1245" 
d="M807 539h369v-154h-551v1049h182v-895zM365 154h811v-154h-992v1434h181v-1280z" />
    <glyph glyph-name="N_T" horiz-adv-x="2424" 
d="M1710 1434h653v-158h-473v-1276h-180v1434zM795 1434h655v-1434h-152l-933 1122v-1122h-181v1434h146l938 -1137v979h-473v158z" />
    <glyph glyph-name="R_A" horiz-adv-x="2486" 
d="M2122 555v641h-4l-500 -641h504zM365 1276v-584h364q174 0 289 77t115 215t-111 215t-279 77h-378zM2302 1434v-1434h-180v395h-629l-209 -268l111 -127h-434l100 125l-352 410h-344v-535h-181v1434h576q252 0 402 -123t151 -313q-1 -190 -105 -300q-104 -111 -290 -147
l251 -291l936 1174h197z" />
    <glyph glyph-name="T_H" horiz-adv-x="2375" 
d="M2011 1434h180v-1434h-180v629h-854v-629h-180v1434h653v-158h-473v-488h854v646zM61 1276v158h656v-1434h-182v1276h-474z" />
    <glyph glyph-name="T_U" horiz-adv-x="2408" 
d="M2064 1434h181v-834q0 -276 -174 -452t-460 -177q-286 0 -461 177t-175 452v834h655v-158h-473v-676q0 -211 127 -340t326 -129q198 0 326 130t128 339v834zM61 1276v158h656v-1434h-182v1276h-474z" />
    <glyph glyph-name="U_T" horiz-adv-x="2408" 
d="M1694 1434h653v-158h-473v-1276h-180v1434zM778 1434h656v-834q0 -274 -176 -452t-460 -177q-284 0 -459 177t-175 452v834h182v-834q0 -211 127 -340t326 -129t325 129t127 340v676h-473v158z" />
    <glyph glyph-name="f_b" horiz-adv-x="2101" 
d="M1462 117q147 0 248 105q100 105 100 261t-100 262q-100 107 -248 107t-246 -106q-100 -106 -100 -262q0 -157 100 -262t246 -105zM1483 997q215 0 359 -147q144 -146 144 -366t-144 -366t-366 -146t-356 190h-4v-162h-174v1577h174v-772h4q54 88 152 140t211 52zM258 0
v827h-248v142h248v262q0 170 111 272t290 103q63 0 111 -13v-149q-47 10 -84 10q-118 0 -186 -60t-68 -163v-262h338v-142h-338v-827h-174z" />
    <glyph glyph-name="f_f_b" horiz-adv-x="2877" 
d="M2238 117q147 0 248 105q100 105 101 261q-1 156 -101 262q-100 107 -248 107t-246 -106q-100 -106 -100 -262q0 -157 100 -262t246 -105zM2259 997q215 0 359 -147q144 -146 144 -366t-144 -366t-366 -146t-356 190h-4v-162h-174v1577h174v-772h4q54 88 152 140t211 52z
M1034 0v827h-248v142h248v262q0 170 111 272t291 103q63 0 110 -13v-149q-47 10 -84 10q-118 0 -186 -60t-68 -163v-262h338v-142h-338v-827h-174zM258 0v827h-248v142h248v262q0 170 111 272t290 103q63 0 111 -13v-149q-47 10 -84 10q-118 0 -186 -60t-68 -163v-262h338
v-142h-338v-827h-174z" />
    <glyph glyph-name="f_f_f" horiz-adv-x="2328" 
d="M1810 0v827h-247v142h247v262q0 170 111 272t291 103q63 0 110 -13v-149q-47 10 -84 10q-118 0 -186 -60t-67 -163v-262h337v-142h-337v-827h-175zM1034 0v827h-248v142h248v262q0 170 111 272t291 103q63 0 110 -13v-149q-47 10 -84 10q-118 0 -186 -60t-68 -163v-262
h338v-142h-338v-827h-174zM258 0v827h-248v142h248v262q0 170 111 272t290 103q63 0 111 -13v-149q-47 10 -84 10q-118 0 -186 -60t-68 -163v-262h338v-142h-338v-827h-174z" />
    <glyph glyph-name="f_f_h" horiz-adv-x="2813" 
d="M1718 0v1577h174v-768h4q62 90 154 139t197 49q193 0 315 -123t121 -317v-557h-176v549q0 135 -79 216t-215 81t-228 -92t-93 -234v-520h-174zM1034 0v827h-248v142h248v262q0 170 111 272t291 103q63 0 110 -13v-149q-47 10 -84 10q-118 0 -186 -60t-68 -163v-262h338
v-142h-338v-827h-174zM258 0v827h-248v142h248v262q0 170 111 272t290 103q63 0 111 -13v-149q-47 10 -84 10q-118 0 -186 -60t-68 -163v-262h338v-142h-338v-827h-174z" />
    <glyph glyph-name="f_f_j" horiz-adv-x="2095" 
d="M1507 -496v144l17 2q115 6 164 57t49 182v1080h174v-1061q0 -213 -88 -308t-281 -96h-35zM1733 1335v242h182v-242h-182zM1034 0v827h-248v142h248v262q0 170 111 272t291 103q63 0 110 -13v-149q-47 10 -84 10q-118 0 -186 -60t-68 -163v-262h338v-142h-338v-827h-174z
M258 0v827h-248v142h248v262q0 170 111 272t290 103q63 0 111 -13v-149q-47 10 -84 10q-118 0 -186 -60t-68 -163v-262h338v-142h-338v-827h-174z" />
    <glyph glyph-name="f_f_k" horiz-adv-x="2777" 
d="M1718 0v1577h174v-1094l545 486h217l-543 -486l629 -483h-237l-611 469v-469h-174zM1034 0v827h-248v142h248v262q0 170 111 272t291 103q63 0 110 -13v-149q-47 10 -84 10q-118 0 -186 -60t-68 -163v-262h338v-142h-338v-827h-174zM258 0v827h-248v142h248v262
q0 170 111 272t290 103q63 0 111 -13v-149q-47 10 -84 10q-118 0 -186 -60t-68 -163v-262h338v-142h-338v-827h-174z" />
    <glyph glyph-name="f_f_thorn" horiz-adv-x="2877" 
d="M2238 117q147 0 248 105q100 105 101 261q-1 156 -101 262q-100 107 -248 107t-246 -106q-100 -106 -100 -262q0 -157 100 -262t246 -105zM1718 -467v2044h174v-772h4q62 92 160 142t207 50q213 0 356 -147q143 -148 143 -368t-146 -366t-353 -147q-111 0 -207 51
t-160 144h-4v-631h-174zM1034 0v827h-248v142h248v262q0 170 111 272t291 103q63 0 110 -13v-149q-47 10 -84 10q-118 0 -186 -60t-68 -163v-262h338v-142h-338v-827h-174zM258 0v827h-248v142h248v262q0 170 111 272t290 103q63 0 111 -13v-149q-47 10 -84 10
q-118 0 -186 -60t-68 -163v-262h338v-142h-338v-827h-174z" />
    <glyph glyph-name="f_h" horiz-adv-x="2037" 
d="M942 0v1577h174v-768h4q62 90 154 139t196 49q193 0 315 -123t122 -317v-557h-176v549q0 135 -79 216t-215 81q-137 0 -229 -92t-92 -234v-520h-174zM258 0v827h-248v142h248v262q0 170 111 272t290 103q63 0 111 -13v-149q-47 10 -84 10q-118 0 -186 -60t-68 -163v-262
h338v-142h-338v-827h-174z" />
    <glyph glyph-name="f_j" horiz-adv-x="1318" 
d="M731 -496v144l17 2q116 6 164 57t49 182v1080h174v-1061q0 -213 -88 -308t-281 -96h-35zM956 1335v242h183v-242h-183zM258 0v827h-248v142h248v262q0 170 111 272t290 103q63 0 111 -13v-149q-47 10 -84 10q-118 0 -186 -60t-68 -163v-262h338v-142h-338v-827h-174z" />
    <glyph glyph-name="f_k" horiz-adv-x="2000" 
d="M942 0v1577h174v-1094l545 486h217l-543 -486l629 -483h-238l-610 469v-469h-174zM258 0v827h-248v142h248v262q0 170 111 272t290 103q63 0 111 -13v-149q-47 10 -84 10q-118 0 -186 -60t-68 -163v-262h338v-142h-338v-827h-174z" />
    <glyph glyph-name="f_thorn" horiz-adv-x="2101" 
d="M1462 117q147 0 248 105q100 105 100 261t-100 262q-100 107 -248 107t-246 -106q-100 -106 -100 -262q0 -157 100 -262t246 -105zM942 -467v2044h174v-772h4q62 92 160 142t207 50q213 0 356 -147q143 -148 143 -368t-146 -366t-353 -147q-111 0 -207 51t-160 144h-4
v-631h-174zM258 0v827h-248v142h248v262q0 170 111 272t290 103q63 0 111 -13v-149q-47 10 -84 10q-118 0 -186 -60t-68 -163v-262h338v-142h-338v-827h-174z" />
    <glyph glyph-name="f_f_j.ss07" horiz-adv-x="2095" 
d="M1737 -467v1436h174v-1436h-174zM1733 1335v242h182v-242h-182zM1034 0v827h-248v142h248v262q0 170 111 272t291 103q63 0 110 -13v-149q-47 10 -84 10q-118 0 -186 -60t-68 -163v-262h338v-142h-338v-827h-174zM258 0v827h-248v142h248v262q0 170 111 272t290 103
q63 0 111 -13v-149q-47 10 -84 10q-118 0 -186 -60t-68 -163v-262h338v-142h-338v-827h-174z" />
    <glyph glyph-name="f_j.ss07" horiz-adv-x="1318" 
d="M961 -467v1436h174v-1436h-174zM956 1335v242h183v-242h-183zM258 0v827h-248v142h248v262q0 170 111 272t290 103q63 0 111 -13v-149q-47 10 -84 10q-118 0 -186 -60t-68 -163v-262h338v-142h-338v-827h-174z" />
    <glyph glyph-name="f_b.ss08" horiz-adv-x="2009" 
d="M1370 117q147 0 248 105q100 105 100 261t-100 262q-100 107 -248 107t-246 -106q-100 -106 -100 -262q0 -157 100 -262t246 -105zM1391 997q215 0 359 -147q144 -146 144 -366t-144 -366t-366 -146t-356 190h-4v-162h-174v1577h174v-772h4q54 88 152 140t211 52zM166 0
v1231q0 170 110 272q111 102 291 103q63 0 111 -13v-149q-47 10 -84 10q-118 0 -186 -60t-68 -163v-262h338v-142h-338v-827h-174z" />
    <glyph glyph-name="f_f.ss08" horiz-adv-x="1368" 
d="M850 0v1231q0 170 111 272t290 103q63 0 111 -13v-149q-47 10 -84 10q-118 0 -186 -60t-68 -163v-262h338v-142h-338v-827h-174zM166 0v1231q0 170 110 272q111 102 291 103q63 0 111 -13v-149q-47 10 -84 10q-118 0 -186 -60t-68 -163v-262h338v-142h-338v-827h-174z
" />
    <glyph glyph-name="f_f_b.ss08" horiz-adv-x="2693" 
d="M2054 117q147 0 248 105q100 105 100 261t-100 262q-100 107 -248 107t-246 -106q-100 -106 -100 -262q0 -157 100 -262t246 -105zM2075 997q215 0 359 -147q144 -146 144 -366t-144 -366t-366 -146t-356 190h-4v-162h-174v1577h174v-772h4q54 88 152 140t211 52zM850 0
v1231q0 170 111 272t290 103q63 0 111 -13v-149q-47 10 -84 10q-118 0 -186 -60t-68 -163v-262h338v-142h-338v-827h-174zM166 0v1231q0 170 110 272q111 102 291 103q63 0 111 -13v-149q-47 10 -84 10q-118 0 -186 -60t-68 -163v-262h338v-142h-338v-827h-174z" />
    <glyph glyph-name="f_f_f.ss08" horiz-adv-x="2052" 
d="M1534 0v1231q0 170 111 272t290 103q63 0 111 -13v-149q-47 10 -84 10q-118 0 -186 -60t-68 -163v-262h338v-142h-338v-827h-174zM850 0v1231q0 170 111 272t290 103q63 0 111 -13v-149q-47 10 -84 10q-118 0 -186 -60t-68 -163v-262h338v-142h-338v-827h-174zM166 0
v1231q0 170 110 272q111 102 291 103q63 0 111 -13v-149q-47 10 -84 10q-118 0 -186 -60t-68 -163v-262h338v-142h-338v-827h-174z" />
    <glyph glyph-name="f_f_h.ss08" horiz-adv-x="2629" 
d="M1534 0v1577h174v-768h4q62 90 154 139t196 49q193 0 315 -123t122 -317v-557h-177v549q0 135 -78 216q-79 81 -215 81q-137 0 -229 -92t-92 -234v-520h-174zM850 0v1231q0 170 111 272t290 103q63 0 111 -13v-149q-47 10 -84 10q-118 0 -186 -60t-68 -163v-262h338v-142
h-338v-827h-174zM166 0v1231q0 170 110 272q111 102 291 103q63 0 111 -13v-149q-47 10 -84 10q-118 0 -186 -60t-68 -163v-262h338v-142h-338v-827h-174z" />
    <glyph glyph-name="f_f_i.ss08" horiz-adv-x="1910" 
d="M1552 0v969h174v-969h-174zM1548 1335v242h183v-242h-183zM850 0v1231q0 170 111 272t290 103q63 0 111 -13v-149q-47 10 -84 10q-118 0 -186 -60t-68 -163v-262h338v-142h-338v-827h-174zM166 0v1231q0 170 110 272q111 102 291 103q63 0 111 -13v-149q-47 10 -84 10
q-118 0 -186 -60t-68 -163v-262h338v-142h-338v-827h-174z" />
    <glyph glyph-name="f_f_j.ss08" horiz-adv-x="1910" 
d="M1323 -496v144l16 2q115 6 164 57t49 182v1080h174v-1061q0 -213 -88 -308t-280 -96h-35zM1548 1335v242h183v-242h-183zM850 0v1231q0 170 111 272t290 103q63 0 111 -13v-149q-47 10 -84 10q-118 0 -186 -60t-68 -163v-262h338v-142h-338v-827h-174zM166 0v1231
q0 170 110 272q111 102 291 103q63 0 111 -13v-149q-47 10 -84 10q-118 0 -186 -60t-68 -163v-262h338v-142h-338v-827h-174z" />
    <glyph glyph-name="f_f_k.ss08" horiz-adv-x="2592" 
d="M1534 0v1577h174v-1094l545 486h217l-543 -486l629 -483h-238l-610 469v-469h-174zM850 0v1231q0 170 111 272t290 103q63 0 111 -13v-149q-47 10 -84 10q-118 0 -186 -60t-68 -163v-262h338v-142h-338v-827h-174zM166 0v1231q0 170 110 272q111 102 291 103
q63 0 111 -13v-149q-47 10 -84 10q-118 0 -186 -60t-68 -163v-262h338v-142h-338v-827h-174z" />
    <glyph glyph-name="f_f_l.ss08" horiz-adv-x="1875" 
d="M1534 0v1577h174v-1577h-174zM850 0v1231q0 170 111 272t290 103q63 0 111 -13v-149q-47 10 -84 10q-118 0 -186 -60t-68 -163v-262h338v-142h-338v-827h-174zM166 0v1231q0 170 110 272q111 102 291 103q63 0 111 -13v-149q-47 10 -84 10q-118 0 -186 -60t-68 -163v-262
h338v-142h-338v-827h-174z" />
    <glyph glyph-name="f_f_thorn.ss08" horiz-adv-x="2693" 
d="M2054 117q147 0 248 105q100 105 100 261t-100 262q-100 107 -248 107t-246 -106q-100 -106 -100 -262q0 -157 100 -262t246 -105zM1534 -467v2044h174v-772h4q62 92 160 142t207 50q213 0 356 -147q143 -148 143 -368t-146 -366t-353 -147q-111 0 -207 51t-160 144h-4
v-631h-174zM850 0v1231q0 170 111 272t290 103q63 0 111 -13v-149q-47 10 -84 10q-118 0 -186 -60t-68 -163v-262h338v-142h-338v-827h-174zM166 0v1231q0 170 110 272q111 102 291 103q63 0 111 -13v-149q-47 10 -84 10q-118 0 -186 -60t-68 -163v-262h338v-142h-338v-827
h-174z" />
    <glyph glyph-name="f_h.ss08" horiz-adv-x="1945" 
d="M850 0v1577h174v-768h4q62 90 154 139t196 49q193 0 315 -123t122 -317v-557h-177v549q0 135 -78 216q-79 81 -215 81q-137 0 -229 -92t-92 -234v-520h-174zM166 0v1231q0 170 110 272q111 102 291 103q63 0 111 -13v-149q-47 10 -84 10q-118 0 -186 -60t-68 -163v-262
h338v-142h-338v-827h-174z" />
    <glyph glyph-name="f_j.ss08" horiz-adv-x="1226" 
d="M639 -496v144l16 2q115 6 164 57t49 182v1080h174v-1061q0 -213 -88 -308t-280 -96h-35zM864 1335v242h183v-242h-183zM166 0v1231q0 170 110 272q111 102 291 103q63 0 111 -13v-149q-47 10 -84 10q-118 0 -186 -60t-68 -163v-262h338v-142h-338v-827h-174z" />
    <glyph glyph-name="f_k.ss08" horiz-adv-x="1908" 
d="M850 0v1577h174v-1094l545 486h217l-543 -486l629 -483h-238l-610 469v-469h-174zM166 0v1231q0 170 110 272q111 102 291 103q63 0 111 -13v-149q-47 10 -84 10q-118 0 -186 -60t-68 -163v-262h338v-142h-338v-827h-174z" />
    <glyph glyph-name="f_thorn.ss08" horiz-adv-x="2009" 
d="M1370 117q147 0 248 105q100 105 100 261t-100 262q-100 107 -248 107t-246 -106q-100 -106 -100 -262q0 -157 100 -262t246 -105zM850 -467v2044h174v-772h4q62 92 160 142t207 50q213 0 356 -147q143 -148 143 -368t-146 -366t-353 -147q-111 0 -207 51t-160 144h-4
v-631h-174zM166 0v1231q0 170 110 272q111 102 291 103q63 0 111 -13v-149q-47 10 -84 10q-118 0 -186 -60t-68 -163v-262h338v-142h-338v-827h-174z" />
    <glyph glyph-name="fi.ss08" horiz-adv-x="1226" 
d="M868 0v969h174v-969h-174zM864 1335v242h183v-242h-183zM166 0v1231q0 170 110 272q111 102 291 103q63 0 111 -13v-149q-47 10 -84 10q-118 0 -186 -60t-68 -163v-262h338v-142h-338v-827h-174z" />
    <glyph glyph-name="fl.ss08" horiz-adv-x="1191" 
d="M850 0v1577h174v-1577h-174zM166 0v1231q0 170 110 272q111 102 291 103q63 0 111 -13v-149q-47 10 -84 10q-118 0 -186 -60t-68 -163v-262h338v-142h-338v-827h-174z" />
    <glyph glyph-name="zero.closecirc" horiz-adv-x="1837" 
d="M1116 639q0 -97 -54 -155t-143 -58t-144 58q-54 58 -54 155v164q0 96 55 154q56 59 144 59t142 -60t54 -153v-164zM920 307q152 0 244 91t91 241v164q0 151 -92 241q-91 90 -243 90t-245 -90q-93 -92 -93 -241v-164q0 -150 93 -241t245 -91zM919 -29q-341 0 -567 212
q-225 212 -225 534q0 321 225 533q224 212 566 212t567 -212t225 -534t-225 -533q-225 -212 -566 -212z" />
    <glyph glyph-name="zero.opencirc" horiz-adv-x="1837" 
d="M919 426q89 0 143 58t54 155v164q0 94 -54 153q-54 60 -142 60t-144 -58t-55 -155v-164q0 -96 54 -155q55 -58 144 -58zM920 307q-152 0 -245 91t-93 241v164q0 151 93 241t245 90t244 -90q92 -92 91 -241v-164q1 -150 -91 -241t-244 -91zM920 84q285 0 474 181t189 451
t-189 452t-474 182q-286 0 -476 -182t-190 -451q0 -270 190 -452q191 -181 476 -181zM919 -29q-341 0 -567 212q-225 212 -225 534q0 321 225 533q224 212 566 212t567 -212t225 -534t-225 -533q-225 -212 -566 -212z" />
    <glyph glyph-name="zero.osf" horiz-adv-x="1218" 
d="M610 125q145 0 233 86q87 86 87 229v224q0 143 -88 230t-232 87t-233 -87q-88 -87 -88 -230v-224q0 -143 88 -229t233 -86zM610 -29q-223 0 -359 129t-136 340v224q0 211 136 340t359 129q222 0 358 -129t136 -340v-224q0 -211 -136 -340t-358 -129z" />
    <glyph glyph-name="one.osf" horiz-adv-x="706" 
d="M395 0v958h-389v154h569v-1112h-180z" />
    <glyph glyph-name="two.osf" horiz-adv-x="1189" 
d="M121 0v90l457 309q225 149 277 245q26 48 26 97q0 113 -81 179t-217 66q-137 0 -223 -77q-86 -76 -98 -196h-176q14 193 154 307t350 113q211 0 342 -108t131 -288q0 -197 -334 -420l-262 -176h620v-141h-966z" />
    <glyph glyph-name="three.osf" horiz-adv-x="1206" 
d="M1118 95q0 -179 -138 -294t-362 -115t-365 98q-142 97 -163 277h174q20 -104 110 -165q90 -62 240 -62q148 0 241 74t93 192t-96 191q-96 74 -250 74h-158v139l416 454h-715v154h924v-139l-426 -469q215 -10 345 -120t130 -289z" />
    <glyph glyph-name="four.osf" horiz-adv-x="1380" 
d="M885 147v822l-576 -822h576zM1290 147v-147h-229v-301h-176v301h-787v111l690 1001h273v-965h229z" />
    <glyph glyph-name="five.osf" horiz-adv-x="1259" 
d="M651 604q215 0 359 -123t143 -327q0 -204 -146 -334q-145 -131 -373 -131t-376 107q-147 108 -180 298h178q27 -118 125 -188t253 -70t252 87t97 227t-98 225q-98 84 -266 84t-297 -107l-142 68l119 692h754v-154h-615l-76 -426q133 72 289 72z" />
    <glyph glyph-name="six.osf" horiz-adv-x="1327" 
d="M1036 450q0 152 -103 244t-268 92t-269 -94t-105 -244q1 -150 105 -243q104 -94 269 -94t268 94t103 245zM666 936q248 0 398 -133t148 -347q0 -214 -152 -350q-152 -135 -396 -135t-397 134t-152 350q0 156 121 327l450 611h213l-354 -482q51 25 121 25z" />
    <glyph glyph-name="seven.osf" horiz-adv-x="1085" 
d="M29 1112h1011v-104l-667 -1295h-201l641 1239h-784v160z" />
    <glyph glyph-name="eight.osf" horiz-adv-x="1347" 
d="M674 113q160 1 261 77t101 204t-102 205t-260 77t-260 -77t-102 -205t100 -204q102 -76 262 -77zM674 795q141 1 230 75t89 188t-89 184t-230 71q-140 0 -230 -71q-90 -70 -90 -184t89 -189q90 -74 231 -74zM674 -29q-254 0 -407 114t-152 300q0 131 82 224t215 141
q-109 45 -171 130t-63 187q0 170 138 276q138 107 358 107t357 -106q138 -106 138 -277q0 -102 -62 -187t-171 -130q135 -46 217 -140t82 -225q1 -186 -153 -300t-408 -114z" />
    <glyph glyph-name="nine.osf" horiz-adv-x="1327" 
d="M663 993q-165 0 -269 -94t-103 -245q-1 -151 103 -244t269 -93q165 1 269 95t104 244t-104 243q-104 94 -269 94zM663 1133q245 -1 397 -135t152 -349q0 -156 -120 -327l-453 -613h-211l350 479q-55 -20 -116 -20q-248 0 -398 133t-150 347t152 350t397 135z" />
    <glyph glyph-name="zero.osf.zero" horiz-adv-x="1218" 
d="M930 440v224q0 59 -15 102l-550 -541q90 -100 240 -100t238 86q87 86 87 229zM289 664v-224q0 -39 10 -84l547 535q-90 90 -236 90t-233 -87q-88 -87 -88 -230zM610 1133q222 0 358 -129t136 -340v-224q0 -211 -135 -340t-359 -129t-359 129q-136 129 -136 340v224
q0 211 136 340t359 129z" />
    <glyph glyph-name="zero.tf" 
d="M1049 535v364q0 184 -109 297t-287 113q-179 0 -287 -113t-108 -297v-364q0 -184 109 -297t287 -113t286 113q109 113 109 297zM653 1462q260 0 419 -154t159 -409v-364q0 -254 -159 -409t-419 -155t-419 155t-158 409v364q0 254 158 409q159 154 419 154z" />
    <glyph glyph-name="one.tf" 
d="M150 0v141h473v1139h-390v154h570v-1293h414v-141h-1067z" />
    <glyph glyph-name="two.tf" 
d="M201 0v90l575 606q195 199 195 357q0 117 -86 189t-223 73q-138 0 -224 -73t-102 -195h-180q10 188 145 302q135 113 352 113t358 -110q140 -112 140 -304t-231 -430l-451 -477h707v-141h-975z" />
    <glyph glyph-name="three.tf" 
d="M1178 387q0 -188 -138 -302t-361 -114q-221 -1 -365 99t-169 276h179q23 -102 114 -166q92 -63 239 -63q147 1 239 75t92 200t-94 203t-252 77h-173v139l418 469h-719v154h926v-140l-426 -483q226 -6 358 -121t132 -303z" />
    <glyph glyph-name="four.tf" 
d="M842 449v841l-576 -841h576zM842 0v301h-787v109l693 1024h270v-985h229v-148h-229v-301h-176z" />
    <glyph glyph-name="five.tf" 
d="M659 887q221 0 361 -125t141 -327q0 -202 -146 -333q-145 -131 -373 -131q-228 1 -376 107t-180 297h178q29 -119 126 -189t251 -70t252 89q98 88 98 228t-98 223t-266 83t-299 -106l-140 69l127 732h754v-154h-614l-84 -463q134 70 288 70z" />
    <glyph glyph-name="six.tf" 
d="M1032 450q0 152 -103 244t-268 92t-269 -94t-105 -244t103 -244q104 -93 270 -93t269 94t103 245zM662 936q248 0 398 -133t150 -347t-152 -350q-154 -135 -398 -135t-397 134t-152 350q0 156 122 327l480 652h211l-373 -512q50 14 111 14z" />
    <glyph glyph-name="seven.tf" 
d="M154 1434h1013v-105l-667 -1329h-203l641 1274h-784v160z" />
    <glyph glyph-name="eight.tf" 
d="M653 115q160 1 262 77q103 76 103 206t-104 208t-261 78q-158 0 -260 -78t-102 -208t101 -206t261 -77zM653 803q141 0 231 75q89 74 89 190t-89 188q-88 72 -230 71q-142 0 -231 -72q-89 -71 -89 -187t89 -190t230 -75zM653 -29q-255 0 -407 115t-152 303q0 133 82 227
t215 142q-109 45 -171 130t-62 189q0 173 138 279t357 106t359 -106t139 -279q1 -104 -63 -189t-173 -130q135 -48 217 -142t82 -227q0 -188 -154 -303t-407 -115z" />
    <glyph glyph-name="nine.tf" 
d="M660 647q165 0 270 94q104 94 104 244t-104 244t-270 94t-270 -94q-103 -94 -103 -245t104 -244t269 -93zM660 1462q245 0 398 -134t152 -349q0 -156 -123 -328l-481 -651h-211l375 512q-55 -14 -111 -14q-249 0 -399 133t-150 347t153 349q152 135 397 135z" />
    <glyph glyph-name="zero.tf.zero" 
d="M1049 535v364q0 102 -33 176l-617 -868q104 -82 268 -82t273 113t109 297zM258 899v-364q0 -104 37 -189l620 875q-109 88 -275 88t-274 -113t-108 -297zM653 1462q260 0 419 -154t159 -409v-364q0 -254 -159 -409t-419 -155t-419 155t-158 409v364q0 254 158 409
q159 154 419 154z" />
    <glyph glyph-name="zero.tosf" 
d="M653 125q145 0 234 86q88 86 88 229v224q0 143 -88 230q-89 87 -233 87t-232 -87t-88 -230v-224q0 -143 87 -229t232 -86zM653 -29q-223 0 -358 129t-135 340v224q0 211 135 340t358 129t359 -129t137 -340v-224q-1 -211 -137 -340t-359 -129z" />
    <glyph glyph-name="one.tosf" 
d="M150 0v141h473v817h-390v154h570v-971h414v-141h-1067z" />
    <glyph glyph-name="two.tosf" 
d="M180 0v90l457 309q230 154 277 245q26 48 26 97q0 113 -81 179t-217 66t-222 -77q-86 -76 -98 -196h-177q13 193 153 307t351 113q211 0 342 -108t131 -288q0 -197 -334 -420l-262 -176h621v-141h-967z" />
    <glyph glyph-name="three.tosf" 
d="M1167 95q0 -179 -138 -294t-361 -115t-366 98q-142 97 -163 277h174q17 -102 109 -164q92 -63 241 -63t241 74t93 192q0 118 -96 191q-96 74 -250 74h-157v139l415 454h-716v154h925v-139l-426 -469q215 -10 345 -120t130 -289z" />
    <glyph glyph-name="four.tosf" 
d="M842 147v822l-576 -822h576zM1247 147v-147h-229v-301h-176v301h-787v111l690 1001h273v-965h229z" />
    <glyph glyph-name="five.tosf" 
d="M682 604q215 0 358 -123q144 -123 144 -327t-146 -334q-146 -131 -374 -131q-228 -1 -375 107t-180 298h178q27 -118 125 -188t252 -70t252 87t98 227t-98 225q-98 84 -267 84q-168 0 -297 -107l-139 68l119 692h751v-154h-614l-76 -426q133 72 289 72z" />
    <glyph glyph-name="six.tosf" 
d="M653 111q166 0 270 94q103 94 103 245q0 152 -103 244t-269 92t-270 -94q-103 -94 -103 -244t103 -243q103 -94 269 -94zM655 936q248 0 398 -133q149 -133 149 -347t-152 -350q-153 -135 -397 -135q-245 0 -397 134t-152 350q0 156 121 327l451 611h213l-354 -482
q50 25 120 25z" />
    <glyph glyph-name="seven.tosf" 
d="M141 1112h1014v-104l-668 -1295h-202l643 1239h-787v160z" />
    <glyph glyph-name="eight.tosf" 
d="M653 113q160 1 262 77q103 76 103 204t-104 205t-261 77q-158 0 -260 -77t-102 -205t101 -204t261 -77zM653 795q141 0 231 74q89 75 89 189t-89 184q-88 70 -230 71q-142 0 -231 -71q-89 -70 -89 -184t89 -188t230 -75zM653 -29q-255 0 -407 114t-152 300q0 131 82 224
t215 141q-109 45 -171 130t-62 187q0 170 138 276q138 107 357 107t359 -106t139 -277q1 -102 -63 -187t-173 -130q135 -46 217 -140t82 -225q0 -186 -154 -300t-407 -114z" />
    <glyph glyph-name="nine.tosf" 
d="M281 653q0 -150 104 -243t269 -93q164 1 268 95t104 244t-103 243q-103 94 -269 94t-269 -95q-104 -95 -104 -245zM651 168q-247 0 -397 133t-150 347t152 350t398 135q245 -1 398 -135t152 -349q0 -154 -123 -327l-450 -613h-213l354 484q-51 -25 -121 -25z" />
    <glyph glyph-name="zero.tosf.zero" 
d="M975 440v224q0 59 -14 102l-553 -541q90 -100 240 -100t239 86q88 86 88 229zM334 664v-224q0 -31 8 -84l547 535q-87 90 -233 90t-234 -87t-88 -230zM653 1133q223 0 359 -129t137 -340v-224q0 -211 -136 -340q-135 -129 -359 -129t-359 129t-135 340v224q0 211 135 340
t358 129z" />
    <glyph glyph-name="zero.zero" horiz-adv-x="1411" 
d="M1102 535v364q0 92 -33 178l-616 -870q100 -82 266 -82q167 0 275 113t108 297zM309 899v-364q0 -104 37 -189l621 875q-104 88 -271 88t-277 -113t-110 -297zM707 1462q261 0 419 -154t158 -409v-364q0 -254 -159 -409t-419 -155t-419 155q-160 155 -160 409v364
q0 255 160 409t420 154z" />
    <glyph glyph-name="zero.dnom" horiz-adv-x="825" 
d="M610 313v164q0 97 -54 155t-143 58t-143 -58t-55 -155v-164q0 -96 55 -154q56 -59 144 -59t142 60t54 153zM414 809q152 0 244 -91t92 -241v-164q0 -151 -92 -241t-244 -90t-245 91t-93 240v164q0 150 93 241t245 91z" />
    <glyph glyph-name="one.dnom" horiz-adv-x="501" 
d="M270 0v672h-225v116h356v-788h-131z" />
    <glyph glyph-name="two.dnom" horiz-adv-x="772" 
d="M96 2v66l299 286q3 4 23 22t25 24l22 22q78 78 78 159q0 43 -41 79t-110 36q-70 0 -114 -37t-53 -98h-131q10 111 92 179t209 69q127 0 206 -65t79 -169q0 -72 -44 -135t-126 -143l-195 -188h379v-107h-598z" />
    <glyph glyph-name="three.dnom" horiz-adv-x="802" 
d="M711 217q0 -101 -86 -169q-85 -68 -219 -66q-134 0 -220 60t-102 165h135q29 -113 187 -113q78 0 126 37t48 94t-48 95t-126 38h-101v105l207 209h-391v116h573v-100l-227 -233q111 -13 177 -75t67 -163z" />
    <glyph glyph-name="four.dnom" horiz-adv-x="868" 
d="M532 276v371l-305 -371h305zM793 276v-114h-127v-162h-134v162h-462v88l434 538h162v-512h127z" />
    <glyph glyph-name="five.dnom" horiz-adv-x="815" 
d="M408 508q139 0 224 -71t85 -189t-87 -192q-86 -74 -228 -74t-228 64t-102 169h135q14 -57 66 -89t131 -32t131 43q51 43 51 111t-49 108t-138 41q-89 0 -155 -55l-109 41l45 405h496v-116h-383l-23 -193q68 29 138 29z" />
    <glyph glyph-name="six.dnom" horiz-adv-x="802" 
d="M399 88q88 0 143 47q54 47 54 123t-54 123t-142 47t-142 -47q-53 -47 -53 -123t53 -123t141 -47zM410 539q141 0 231 -75t90 -201t-92 -204q-91 -77 -237 -77t-239 78t-93 200q0 86 80 197l247 331h160l-188 -251q14 2 41 2z" />
    <glyph glyph-name="seven.dnom" horiz-adv-x="688" 
d="M41 668v120h610v-79l-379 -709h-153l356 668h-434z" />
    <glyph glyph-name="eight.dnom" horiz-adv-x="845" 
d="M424 90q82 0 133 38t51 99t-51 99t-134 36q-83 0 -133 -36t-50 -98t51 -100t133 -38zM424 453q76 1 120 35t44 90t-47 91q-47 36 -118 36t-117 -36t-46 -91t44 -90t120 -35zM424 -18q-150 0 -242 66t-92 171q0 137 152 199q-117 52 -117 160t85 168t214 60t213 -60
t84 -168t-117 -160q154 -61 154 -199q0 -105 -92 -171t-242 -66z" />
    <glyph glyph-name="nine.dnom" horiz-adv-x="802" 
d="M403 362q87 0 141 46t54 124q0 76 -53 123t-141 47t-143 -47q-54 -47 -54 -124t54 -123t142 -46zM402 807q144 0 238 -78t93 -199q0 -88 -78 -196l-249 -334h-160l188 254q-14 -2 -41 -2q-139 0 -229 75t-90 201t92 202q92 77 236 77z" />
    <glyph glyph-name="zero.numr" horiz-adv-x="825" 
d="M610 956v164q0 96 -54 154t-143 59q-89 0 -143 -58t-55 -155v-164q0 -96 55 -154q56 -58 144 -58t142 58q54 60 54 154zM414 1452q152 0 244 -91t92 -241v-164q0 -150 -92 -240t-244 -89q-152 0 -245 90t-93 239v164q0 150 93 241t245 91z" />
    <glyph glyph-name="one.numr" horiz-adv-x="501" 
d="M270 647v672h-225v117h356v-789h-131z" />
    <glyph glyph-name="two.numr" horiz-adv-x="772" 
d="M96 645v66l299 288q53 49 75 71t47 63q26 41 26 89t-41 82q-41 36 -110 36q-70 0 -114 -38q-44 -36 -53 -98h-131q10 112 92 180t209 68t206 -64t79 -169q0 -71 -44 -135t-126 -144l-195 -188h379v-107h-598z" />
    <glyph glyph-name="three.numr" horiz-adv-x="802" 
d="M711 864q0 -100 -86 -168q-85 -68 -219 -68t-220 61q-86 60 -102 165h135q13 -51 61 -83t125 -32t125 37t50 95q0 59 -48 97t-126 38h-101v104l207 209h-391v117h573v-101l-229 -235q113 -12 179 -74t67 -162z" />
    <glyph glyph-name="four.numr" horiz-adv-x="868" 
d="M532 922v372l-305 -372h305zM793 922v-113h-127v-162h-134v162h-462v88l434 539h162v-514h127z" />
    <glyph glyph-name="five.numr" horiz-adv-x="815" 
d="M408 1155q139 0 224 -71q85 -70 85 -188t-87 -193q-86 -75 -228 -75t-228 66q-86 64 -102 168h135q14 -57 66 -89t132 -32t131 43q50 43 50 111t-50 109q-50 40 -136 40t-156 -55l-109 39l45 408h496v-117h-383l-23 -193q68 29 138 29z" />
    <glyph glyph-name="six.numr" horiz-adv-x="802" 
d="M399 735q88 0 143 46q54 46 54 123t-54 124t-142 47t-142 -47q-53 -47 -53 -123t53 -123t141 -47zM410 1186q139 0 230 -76t91 -202t-92 -202q-91 -76 -237 -77q-146 0 -239 78t-93 198q0 88 80 197l247 334h162l-188 -252q12 2 39 2z" />
    <glyph glyph-name="seven.numr" horiz-adv-x="688" 
d="M41 1313v121h610v-80l-379 -709h-153l356 668h-434z" />
    <glyph glyph-name="eight.numr" horiz-adv-x="845" 
d="M424 735q82 0 133 38t51 99q0 60 -51 98t-133 38t-133 -37t-51 -99t51 -99q51 -38 133 -38zM424 1098q76 0 120 35t44 90t-46 90t-118 35t-118 -35t-46 -90t44 -90t120 -35zM424 627q-150 -1 -242 65t-92 172q0 66 40 118t112 79q-117 55 -117 163t85 168t214 60t213 -60
t84 -168t-117 -163q74 -27 114 -79t40 -118q0 -106 -92 -172t-242 -65z" />
    <glyph glyph-name="nine.numr" horiz-adv-x="802" 
d="M403 1008q88 0 142 46q53 46 53 122t-53 122t-141 48q-88 0 -143 -46q-54 -46 -54 -124q0 -76 54 -122t142 -46zM402 1452q144 0 238 -78t93 -198q0 -86 -78 -197l-249 -334h-160l186 252q-12 -2 -39 -2q-139 0 -229 76q-90 75 -90 201t92 203t236 77z" />
    <glyph glyph-name="exclamdown.case" horiz-adv-x="552" 
d="M186 0v371l15 669h153l15 -669v-371h-183zM166 1223v211h221v-211h-221z" />
    <glyph glyph-name="questiondown.case" horiz-adv-x="1202" 
d="M739 1042q-1 -90 -31 -160t-77 -109q-47 -40 -101 -81t-102 -74q-47 -33 -78 -87t-31 -121q0 -125 84 -203q85 -78 213 -78t208 60t104 159h178q-27 -172 -157 -269q-129 -97 -331 -97t-336 118t-135 310q0 84 34 154t83 112q67 59 217 169q117 86 117 197h141zM780 1233
h-221v211h221v-211z" />
    <glyph glyph-name="braceleft.case" horiz-adv-x="757" 
d="M283 246v186q0 106 -39 152t-146 47l-24 2v143l24 2q106 2 146 47q39 45 39 152v186q0 164 100 260t285 105v-162q-102 -6 -156 -59t-55 -144v-190q0 -117 -34 -178t-124 -90q90 -29 124 -91t34 -178v-190q0 -90 54 -144t157 -59v-162q-184 9 -284 105t-101 260z" />
    <glyph glyph-name="braceright.case" horiz-adv-x="757" 
d="M301 246v190q0 117 35 178t125 91q-90 29 -125 90t-35 178v190q0 89 -54 143t-157 60v162q184 -8 284 -104t101 -261v-186q0 -105 40 -151t147 -48l24 -2v-143l-24 -2q-106 -2 -146 -47t-41 -152v-186q-1 -164 -101 -260t-284 -105v162q102 6 157 59q54 53 54 144z" />
    <glyph glyph-name="bracketleft.case" horiz-adv-x="751" 
d="M184 -96v1591h478v-158h-304v-1276h304v-157h-478z" />
    <glyph glyph-name="bracketright.case" horiz-adv-x="751" 
d="M90 -96v157h303v1276h-303v158h477v-1591h-477z" />
    <glyph glyph-name="parenleft.case" horiz-adv-x="729" 
d="M127 694q0 254 96 435t324 368l112 -106q-195 -170 -271 -323t-77 -374q0 -222 77 -374t271 -320l-112 -109q-227 185 -323 367t-97 436z" />
    <glyph glyph-name="parenright.case" horiz-adv-x="729" 
d="M420 694q0 218 -78 373q-78 154 -272 324l112 106q228 -185 324 -367t96 -436t-96 -436t-324 -367l-112 109q195 168 272 322q78 154 78 372z" />
    <glyph glyph-name="emdash.case" horiz-adv-x="2150" 
d="M221 604v166h1708v-166h-1708z" />
    <glyph glyph-name="endash.case" horiz-adv-x="1521" 
d="M221 604v166h1079v-166h-1079z" />
    <glyph glyph-name="hyphen.case" horiz-adv-x="1165" 
d="M221 602v166h723v-166h-723z" />
    <glyph glyph-name="guillemotleft.case" horiz-adv-x="921" 
d="M838 995l-230 -307l230 -307h-170l-222 291v33l222 290h170zM473 995l-227 -307l227 -307h-170l-219 291v33l219 290h170z" />
    <glyph glyph-name="guillemotright.case" horiz-adv-x="921" 
d="M446 995h170l222 -290v-33l-222 -291h-170l230 307zM84 995h170l219 -290v-33l-219 -291h-170l227 307z" />
    <glyph glyph-name="guilsinglleft.case" horiz-adv-x="557" 
d="M473 995l-227 -307l227 -307h-170l-219 291v33l219 290h170z" />
    <glyph glyph-name="guilsinglright.case" horiz-adv-x="557" 
d="M84 995h170l219 -290v-33l-219 -291h-170l227 307z" />
    <glyph glyph-name="cent.osf" horiz-adv-x="1234" 
d="M643 121q119 0 198 56t103 147h176q-27 -142 -131 -234t-262 -113v-245h-160v243q-205 23 -329 161t-123 347q0 209 124 348t328 162v252h160v-254q156 -20 261 -112t132 -236h-176q-25 90 -103 148q-79 57 -198 57q-158 0 -256 -102t-98 -263q0 -162 98 -262t256 -100z
" />
    <glyph glyph-name="dollar.osf" horiz-adv-x="1411" 
d="M371 1063q0 -84 51 -137t132 -78t179 -41q245 -40 374 -99q81 -38 132 -117t51 -196q0 -173 -127 -285t-338 -135v-237h-157v235q-240 15 -386 141t-167 335h178q25 -152 139 -238t295 -86q180 0 279 70q98 70 98 176q0 105 -69 163t-171 76t-222 44t-222 58t-171 118
t-69 223q0 173 132 285t356 122v240h157v-244q199 -27 323 -133t144 -276h-182q-25 125 -123 197t-261 71t-259 -71t-96 -181z" />
    <glyph glyph-name="Euro.osf" horiz-adv-x="1896" 
d="M1060 137q196 1 333 99t186 270h188q-49 -244 -245 -388t-468 -144q-274 0 -472 142q-198 144 -263 388h-233v121h211q-4 61 -4 93t4 93h-211v121h233q66 244 264 387t471 143t469 -144t244 -386h-188q-49 170 -186 268t-333 98t-341 -98t-207 -268h680l-29 -121h-680
q-6 -45 -6 -92t6 -94h645l-26 -121h-590q60 -170 206 -268t342 -99z" />
    <glyph glyph-name="florin.osf" horiz-adv-x="1120" 
d="M868 1309q-82 1 -140 -59t-75 -160l-47 -334h369v-142h-389l-64 -438q-25 -178 -121 -275t-256 -98q-100 0 -217 27l27 145q104 -18 160 -18q98 0 155 59t72 160l64 438h-283v142h303l47 334q27 178 123 275t256 97q102 0 215 -28l-27 -148q-89 23 -172 23z" />
    <glyph glyph-name="sterling.osf" horiz-adv-x="1349" 
d="M86 0v145h158v447h-158v145h158v250q0 213 140 344t364 131t364 -112q139 -112 154 -295h-174q-29 127 -116 195q-88 68 -230 67q-142 0 -235 -90t-93 -240v-250h500v-145h-500v-447h831v-145h-1163z" />
    <glyph glyph-name="yen.osf" horiz-adv-x="1441" 
d="M1210 561v-125h-395v-129h395v-125h-395v-182h-184v182h-400v125h400v129h-400v125h359l-565 873h202l494 -768l496 768h202l-563 -873h354z" />
    <glyph glyph-name="cent.tf" 
d="M604 -268v243q-205 23 -330 161t-124 347q0 209 124 347q125 138 330 161v254h158v-254q156 -20 262 -112t133 -236h-178q-23 90 -101 148q-79 57 -198 57q-158 0 -256 -102t-98 -263q0 -162 98 -262t256 -100q119 0 198 56t101 147h178q-27 -142 -133 -234t-262 -113
v-245h-158z" />
    <glyph glyph-name="dollar.tf" 
d="M319 1063q-1 -84 51 -137t133 -78t179 -41q245 -40 374 -99q81 -38 132 -117t51 -196q0 -173 -126 -285t-337 -135v-237h-160v235q-240 15 -386 141t-167 335h181q24 -152 138 -238t295 -86t279 70t98 176q0 105 -68 163q-69 58 -171 76t-223 44t-223 58t-171 118
t-69 223q0 173 132 285t355 122v240h160v-246q197 -24 321 -132t146 -275h-182q-25 125 -124 197t-262 71t-259 -71t-97 -181z" />
    <glyph glyph-name="Euro.tf" 
d="M780 125q197 0 285 121h215q-141 -274 -500 -275q-238 -1 -402 143t-218 390h-119v121h102q-4 61 -4 93t4 93h-102v121h121q53 246 217 388t401 142q358 0 500 -274h-215q-88 121 -285 121q-160 -1 -274 -101t-158 -276h639l-26 -121h-633q-4 -61 -4 -93t4 -93h598
l-27 -121h-551q44 -176 158 -278t274 -101z" />
    <glyph glyph-name="florin.tf" 
d="M1025 1309q-83 1 -141 -59t-73 -160l-47 -334h369v-142h-390l-63 -438q-25 -178 -122 -275t-257 -98q-102 0 -215 27l25 145q104 -18 159 -18q98 0 157 59q58 59 73 160l63 438h-282v142h303l47 334q25 178 122 275t257 97q102 0 215 -28l-27 -148q-90 23 -173 23z" />
    <glyph glyph-name="sterling.tf" 
d="M1069 1055q-59 262 -343 262q-142 0 -236 -90q-93 -90 -93 -240v-250h498v-145h-498v-447h830v-145h-1161v145h155v447h-155v145h155v250q0 213 141 344q142 131 366 131t363 -111q138 -112 152 -296h-174z" />
    <glyph glyph-name="yen.tf" 
d="M1143 561v-125h-398v-129h398v-125h-398v-182h-184v182h-397v125h397v129h-397v125h360l-499 873h202l426 -768l426 768h201l-498 -873h361z" />
    <glyph glyph-name="cent.tosf" 
d="M602 -268v243q-205 23 -329 161t-123 347q0 209 123 347q124 138 329 161v254h160v-254q156 -20 261 -112t132 -236h-176q-25 90 -103 148q-79 57 -198 57q-158 0 -256 -102t-98 -263q0 -162 98 -262t256 -100q119 0 198 56t103 147h176q-27 -142 -132 -234t-261 -113
v-245h-160z" />
    <glyph glyph-name="dollar.tosf" 
d="M319 1063q-1 -84 51 -137t133 -78t179 -41q245 -40 374 -99q81 -38 132 -117t51 -196q0 -173 -126 -285t-337 -135v-237h-160v235q-240 15 -386 141t-167 335h181q24 -152 138 -238t295 -86t279 70t98 176q0 105 -68 163q-69 58 -171 76t-223 44t-223 58t-171 118
t-69 223q0 173 132 285t355 122v240h160v-246q197 -24 321 -132t146 -275h-182q-25 125 -124 197t-262 71t-259 -71t-97 -181z" />
    <glyph glyph-name="Euro.tosf" 
d="M780 125q197 0 285 121h215q-141 -274 -500 -275q-238 -1 -402 143t-218 390h-119v121h102q-4 61 -4 93t4 93h-102v121h121q53 246 217 388t401 142q358 0 500 -274h-215q-88 121 -285 121q-160 -1 -274 -101t-158 -276h639l-26 -121h-633q-4 -61 -4 -93t4 -93h598
l-27 -121h-551q44 -176 158 -278t274 -101z" />
    <glyph glyph-name="florin.tosf" 
d="M1025 1309q-83 1 -141 -59t-73 -160l-47 -334h369v-142h-390l-63 -438q-25 -178 -122 -275t-257 -98q-102 0 -215 27l25 145q104 -18 159 -18q98 0 157 59q58 59 73 160l63 438h-282v142h303l47 334q25 178 122 275t257 97q102 0 215 -28l-27 -148q-90 23 -173 23z" />
    <glyph glyph-name="sterling.tosf" 
d="M1069 1055q-59 262 -343 262q-142 0 -236 -90q-93 -90 -93 -240v-250h498v-145h-498v-447h830v-145h-1161v145h155v447h-155v145h155v250q0 213 141 344q142 131 366 131t363 -111q138 -112 152 -296h-174z" />
    <glyph glyph-name="yen.tosf" 
d="M1143 561v-125h-398v-129h398v-125h-398v-182h-184v182h-397v125h397v129h-397v125h360l-499 873h202l426 -768l426 768h201l-498 -873h361z" />
    <glyph glyph-name="at.case" horiz-adv-x="2138" 
d="M768 683q0 -121 79 -199t202 -78t197 76t75 201q0 124 -75 202q-76 78 -198 78t-201 -79t-79 -201zM1071 -150q-385 0 -652 246t-267 597t269 597t660 246t647 -228t257 -585q-1 -201 -95 -324t-256 -123q-96 0 -168 48t-104 125q-47 -83 -138 -131t-198 -48
q-182 0 -300 117t-118 297t118 296t300 116q90 0 170 -38t121 -100h4v105h158v-447q0 -215 155 -215q96 0 157 87q60 87 60 233q0 301 -220 498t-549 197t-561 -210q-232 -209 -232 -512t226 -513t554 -210q270 0 496 162l71 -106q-254 -177 -565 -177z" />
    <glyph glyph-name="caron.alt" horiz-adv-x="403" 
d="M102 1077l19 387h180l-63 -387h-136z" />
    <glyph glyph-name="acute.cap" horiz-adv-x="571" 
d="M106 1581l-4 6l172 295h195l-205 -301h-158z" />
    <glyph glyph-name="breve.cap" horiz-adv-x="835" 
d="M418 1593q-145 0 -229 82q-83 82 -87 211h129q7 -80 55 -130t132 -50t132 50t54 130h129q-4 -129 -87 -211t-228 -82z" />
    <glyph glyph-name="caron.cap" horiz-adv-x="913" 
d="M369 1579l-267 301h168l187 -194l184 194h170l-266 -301h-176z" />
    <glyph glyph-name="circumflex.cap" horiz-adv-x="913" 
d="M102 1579l267 301h176l266 -301h-170l-184 195l-187 -195h-168z" />
    <glyph glyph-name="dieresis.cap" horiz-adv-x="837" 
d="M512 1606v219h223v-219h-223zM102 1606v219h224v-219h-224z" />
    <glyph glyph-name="dotaccent.cap" horiz-adv-x="428" 
d="M102 1825h224v-219h-224v219z" />
    <glyph glyph-name="grave.cap" horiz-adv-x="571" 
d="M465 1581h-158l-205 301h195l172 -295z" />
    <glyph glyph-name="hungarumlaut.cap" horiz-adv-x="835" 
d="M406 1591l-5 6l150 293h182l-182 -299h-145zM106 1591l-4 6l150 293h182l-182 -299h-146z" />
    <glyph glyph-name="macron.cap" horiz-adv-x="811" 
d="M102 1608v135h607v-135h-607z" />
    <glyph glyph-name="ring.cap" horiz-adv-x="647" 
d="M324 1700q51 0 85 31q33 31 33 79t-34 80q-35 31 -84 31t-83 -31t-34 -80q0 -50 33 -80t84 -30zM326 1610q-98 0 -161 56q-62 56 -63 144q0 88 62 144t162 57q98 0 158 -56q60 -57 60 -145t-60 -144t-158 -56z" />
    <glyph glyph-name="tilde.cap" horiz-adv-x="911" 
d="M616 1620q-80 0 -172 57t-125 58q-68 0 -75 -82h-142q4 96 60 155q56 60 139 60q84 0 171 -56t124 -55q70 0 74 82h139q2 -94 -55 -157q-58 -62 -138 -62z" />
    <glyph glyph-name="IJacute" horiz-adv-x="1828" 
d="M1139.5 -29q-234.5 0 -379 117t-168.5 324h180q25 -129 116 -205t249 -76t251 105.5t93 275.5v764h-697v158h881v-928q0 -250 -145.5 -392.5t-380 -142.5zM184 0v1434h181v-1434h-181zM1130 1581l-4 6l172 295h195l-205 -301h-158zM190 1581l-4 6l172 295h195l-205 -301
h-158z" />
    <glyph glyph-name="ijacute" horiz-adv-x="1085" 
d="M498 -496v144l16 2q115 6 164 57t49 182v1080h174v-1061q0 -213 -88 -308.5t-281 -95.5h-34zM184 0v969h174v-969h-174zM727 1151l-4 6l172 293h195l-205 -299h-158zM182 1151l-4 6l172 293h195l-205 -299h-158z" />
    <glyph glyph-name="ijacute.ss07" horiz-adv-x="1085" 
d="M727 -467v1436h174v-1436h-174zM184 0v969h174v-969h-174zM713 1151l-4 6l172 293h194l-205 -299h-157zM168 1151l-2 6l172 293h194l-204 -299h-160z" />
    </font>
</defs>
</svg>
