<?xml version="1.0" standalone="no"?>
<!DOCTYPE svg PUBLIC "-//W3C//DTD SVG 1.1//EN" "http://www.w3.org/Graphics/SVG/1.1/DTD/svg11.dtd" >
<svg xmlns="http://www.w3.org/2000/svg">
<metadata>
Created by FontPrep 20130207 at Thu Jul 13 16:37:42 2017
 By Lizzy Knight
Copyright (c) 2017 by Salvador Rodri'guez. All rights reserved.
</metadata>
<defs>
<font id="f94d10cdf931df376f4c4b5e3c89241b" horiz-adv-x='1024' >
  <font-face 
    font-family="SonnyGothic-BookItalic"
    font-weight="300"
    font-style="italic"
    font-stretch="normal"
    units-per-em="2048"
    panose-1="0 0 4 0 0 0 0 0 0 0"
    ascent="1638"
    descent="-410"
    x-height="969"
    cap-height="1434"
    bbox="-432 -518 3203 2025"
    underline-thickness="102"
    underline-position="-102"
    slope="-8.60001"
    unicode-range="U+0020-FB02"
  />
<missing-glyph horiz-adv-x="1447" 
d="M326 121h688l-688 1227v-1227zM1124 1393h-690l690 -1231v1231zM205 1513h1038v-1513h-1038v1513z" />
    <glyph glyph-name="fi" unicode="fi" horiz-adv-x="1318" 
d="M961 0l145 969h176l-147 -969h-174zM1157 1335l37 242h182l-37 -242h-182zM905 1454q-115 0 -193 -60t-94 -163l-38 -262h338l-23 -142h-336l-127 -827h-174l125 827h-248l23 142h248l38 262q27 168 152 271t305 104q68 0 109 -13l-23 -149q-45 10 -82 10z" />
    <glyph glyph-name="fl" unicode="fl" horiz-adv-x="1284" 
d="M942 0l238 1577h174l-238 -1577h-174zM905 1454q-115 0 -193 -60t-94 -163l-38 -262h338l-23 -142h-336l-127 -827h-174l125 827h-248l23 142h248l38 262q27 168 152 271t305 104q68 0 109 -13l-23 -149q-45 10 -82 10z" />
    <glyph glyph-name="f_f" unicode="ff" horiz-adv-x="1552" 
d="M1681 1454q-115 0 -193 -60t-93 -163l-39 -262h338l-23 -142h-336l-127 -827h-174l125 827h-248l23 142h248l39 262q27 168 151 271q125 103 305 104q68 0 109 -13l-23 -149q-45 10 -82 10zM905 1454q-115 0 -193 -60t-94 -163l-38 -262h338l-23 -142h-336l-127 -827
h-174l125 827h-248l23 142h248l38 262q27 168 152 271t305 104q68 0 109 -13l-23 -149q-45 10 -82 10z" />
    <glyph glyph-name="f_f_i" unicode="ffi" horiz-adv-x="2095" 
d="M1737 0l145 969h176l-147 -969h-174zM1933 1335l37 242h182l-36 -242h-183zM1681 1454q-115 0 -193 -60t-93 -163l-39 -262h338l-23 -142h-336l-127 -827h-174l125 827h-248l23 142h248l39 262q27 168 151 271q125 103 305 104q68 0 109 -13l-23 -149q-45 10 -82 10z
M905 1454q-115 0 -193 -60t-94 -163l-38 -262h338l-23 -142h-336l-127 -827h-174l125 827h-248l23 142h248l38 262q27 168 152 271t305 104q68 0 109 -13l-23 -149q-45 10 -82 10z" />
    <glyph glyph-name="f_f_l" unicode="ffl" horiz-adv-x="2060" 
d="M1718 0l238 1577h174l-238 -1577h-174zM1681 1454q-115 0 -193 -60t-93 -163l-39 -262h338l-23 -142h-336l-127 -827h-174l125 827h-248l23 142h248l39 262q27 168 151 271q125 103 305 104q68 0 109 -13l-23 -149q-45 10 -82 10zM905 1454q-115 0 -193 -60t-94 -163
l-38 -262h338l-23 -142h-336l-127 -827h-174l125 827h-248l23 142h248l38 262q27 168 152 271t305 104q68 0 109 -13l-23 -149q-45 10 -82 10z" />
    <glyph glyph-name=".notdef" horiz-adv-x="1447" 
d="M326 121h688l-688 1227v-1227zM1124 1393h-690l690 -1231v1231zM205 1513h1038v-1513h-1038v1513z" />
    <glyph glyph-name=".null" horiz-adv-x="0" 
 />
    <glyph glyph-name="nonmarkingreturn" horiz-adv-x="681" 
 />
    <glyph glyph-name="space" unicode=" " horiz-adv-x="546" 
 />
    <glyph glyph-name="exclam" unicode="!" horiz-adv-x="552" 
d="M199 211h221l-33 -211h-221zM260 393l86 670l57 371h183l-58 -371l-114 -670h-154z" />
    <glyph glyph-name="quotedbl" unicode="&#x22;" horiz-adv-x="686" 
d="M594 1010l49 391l25 176h149l-24 -176l-68 -391h-131zM266 1010l49 391l27 176h150l-25 -176l-70 -391h-131z" />
    <glyph glyph-name="numbersign" unicode="#" horiz-adv-x="1609" 
d="M635 571h414l141 293h-416zM774 0l205 426h-416l-205 -426h-180l207 426h-238l23 145h285l141 293h-262l24 148h308l202 422h183l-203 -422h414l202 422h183l-205 -422h237l-22 -148h-287l-139 -293h260l-23 -145h-309l-207 -426h-178z" />
    <glyph glyph-name="dollar" unicode="$" horiz-adv-x="1411" 
d="M918 1315q-170 0 -280 -80t-110 -203q0 -96 85 -147t207 -71t244 -49q122 -27 207 -103t85 -209q0 -197 -148 -326t-385 -152l-37 -237h-157l35 235q-238 17 -365 143t-117 333h180q2 -152 102 -238t290 -86q188 0 300 80t111 207q0 72 -46 118t-119 67q-73 22 -229 50
t-272 80q-73 33 -119 101t-46 167q0 197 152 326q153 129 401 141l37 238h157l-37 -244q195 -26 303 -134t103 -275h-182q-4 125 -92 197t-258 71z" />
    <glyph glyph-name="percent" unicode="%" horiz-adv-x="2342" 
d="M1775 96q125 0 219 88q93 88 93 202t-66 180q-65 65 -191 65t-217 -88q-91 -87 -91 -203t64 -180t189 -64zM1745 -29q-164 0 -262 91t-99 245q0 199 138 324t342 125q162 0 261 -92t99 -244q0 -199 -138 -324t-341 -125zM784 1337q-126 0 -218 -87q-92 -86 -93 -202
t65 -180t192 -65q126 0 217 88q91 87 91 203t-64 180q-64 63 -190 63zM602 0l1225 1434h131l-1223 -1434h-133zM696 678q-162 0 -261 92t-99 244q0 200 138 324t341 124q162 0 261 -91t100 -245q0 -200 -138 -324t-342 -124z" />
    <glyph glyph-name="ampersand" unicode="&#x26;" horiz-adv-x="1429" 
d="M575 119q207 0 340 162l-335 374q-111 -53 -178 -137q-66 -84 -66 -181t64 -157t175 -61zM350 1063q0 168 137 284q137 115 341 115t309 -103q104 -103 77 -272h-172q14 103 -47 165t-182 62t-201 -71q-80 -72 -80 -178t127 -248l349 -385q39 88 57 205h174
q-31 -197 -113 -334l275 -303h-234l-147 164q-182 -193 -469 -193q-184 -1 -293 95q-108 96 -108 242t91 266t240 190q-131 131 -131 299z" />
    <glyph glyph-name="quotesingle" unicode="'" horiz-adv-x="358" 
d="M266 1010l49 391l27 176h150l-25 -176l-70 -391h-131z" />
    <glyph glyph-name="parenleft" unicode="(" horiz-adv-x="753" 
d="M393 483q0 -352 269 -628l-127 -109q-322 303 -322 721q0 317 134 557t452 473l96 -108q-283 -223 -393 -425t-109 -481z" />
    <glyph glyph-name="parenright" unicode=")" horiz-adv-x="753" 
d="M551 760q0 350 -270 629l127 108q324 -305 323 -721q0 -317 -135 -557t-453 -473l-96 109q285 223 394 426q110 203 110 479z" />
    <glyph glyph-name="asterisk" unicode="*" horiz-adv-x="866" 
d="M506 836l35 227l-250 -123l-31 94l236 119l-201 117l59 94l213 -125l35 223h105l-33 -223l250 125l30 -94l-235 -117l201 -119l-60 -94l-213 123l-35 -227h-106z" />
    <glyph glyph-name="plus" unicode="+" horiz-adv-x="1476" 
d="M684 201l59 387h-419l22 153h420l59 387h170l-59 -387h420l-23 -153h-420l-59 -387h-170z" />
    <glyph glyph-name="comma" unicode="," horiz-adv-x="387" 
d="M115 209h223l-25 -152q-20 -141 -89 -210t-214 -103l-8 82q88 32 125 64t53 110h-96z" />
    <glyph glyph-name="hyphen" unicode="-" horiz-adv-x="1165" 
d="M293 469l22 164h725l-24 -164h-723z" />
    <glyph glyph-name="period" unicode="." horiz-adv-x="387" 
d="M115 211h223l-33 -211h-221z" />
    <glyph glyph-name="slash" unicode="/" horiz-adv-x="868" 
d="M215 -328h-168l848 1831h170z" />
    <glyph glyph-name="zero" unicode="0" horiz-adv-x="1411" 
d="M904 1309q-180 0 -304 -113q-125 -113 -154 -297l-55 -364q-29 -184 63 -297t271 -113q178 0 303 113t154 297l55 364q29 184 -62 297t-271 113zM928 1462q260 0 395 -154t96 -409l-55 -364q-39 -254 -220 -409q-182 -155 -442 -155t-396 155t-97 409l55 364
q39 254 221 409q183 154 443 154z" />
    <glyph glyph-name="one" unicode="1" horiz-adv-x="768" 
d="M395 0l195 1280h-389l22 154h570l-218 -1434h-180z" />
    <glyph glyph-name="two" unicode="2" horiz-adv-x="1202" 
d="M1057 1085q0 101 -74 165t-205 64t-228 -72q-97 -73 -132 -195h-180q41 188 192 302q152 113 359 113t329 -95t121 -263q0 -123 -75 -237t-226 -249l-524 -477h708l-22 -141h-975l12 90l668 606q252 221 252 389z" />
    <glyph glyph-name="three" unicode="3" horiz-adv-x="1208" 
d="M1186 444q0 -209 -162 -341t-394 -132q-232 -1 -362 99q-129 100 -127 276h178q7 -102 89 -166t238 -63q156 0 260 86q106 86 106 211q0 126 -82 192t-225 66h-170l20 139l489 469h-718l24 154h924l-21 -140l-501 -483q206 -4 320 -102t114 -265z" />
    <glyph glyph-name="four" unicode="4" horiz-adv-x="1380" 
d="M377 449h575l129 841zM885 0l47 301h-789l17 109l848 1024h270l-150 -985h230l-23 -148h-229l-45 -301h-176z" />
    <glyph glyph-name="five" unicode="5" horiz-adv-x="1265" 
d="M784 887q201 0 321 -108t120 -279q0 -227 -172 -378q-171 -151 -411 -151t-372 108q-131 108 -135 296h178q9 -119 97 -189t250 -70t278 102q115 101 115 257q0 121 -85 193t-245 72t-307 -107l-127 69l235 732h754l-23 -154h-614l-156 -463q145 70 299 70z" />
    <glyph glyph-name="six" unicode="6" horiz-adv-x="1327" 
d="M352 403q0 -133 89 -213t256 -79q167 -1 289 109t122 276q0 129 -89 210t-237 80q-184 0 -307 -108t-123 -275zM807 936q223 0 352 -115t129 -299q0 -240 -178 -396t-451 -155q-221 0 -352 116t-131 305t178 390l578 652h213l-453 -512q52 14 115 14z" />
    <glyph glyph-name="seven" unicode="7" horiz-adv-x="1085" 
d="M246 1434h1011l-14 -105l-870 -1329h-203l836 1274h-785z" />
    <glyph glyph-name="eight" unicode="8" horiz-adv-x="1347" 
d="M706 115q160 0 278 88t118 231q0 114 -91 182t-249 68t-276 -88t-117 -231q0 -117 88 -183q89 -66 249 -67zM514 1048q0 -114 77 -180t219 -65q142 0 244 85q103 84 103 198t-78 178q-77 64 -219 63q-142 0 -244 -82q-102 -83 -102 -197zM692 -29q-254 1 -388 101
q-136 100 -136 259t99 265t259 162q-88 40 -139 114t-51 166q0 184 161 304t380 120t340 -93t120 -247q1 -119 -77 -216t-209 -148q113 -43 181 -125t66 -197q0 -205 -176 -335t-430 -130z" />
    <glyph glyph-name="nine" unicode="9" horiz-adv-x="1327" 
d="M436 938q0 -129 88 -210t256 -81q166 0 289 109t123 274q0 133 -89 213t-256 80t-289 -110t-122 -275zM885 1462q221 0 352 -116t131 -304q0 -190 -178 -391l-580 -651h-211l453 512q-57 -14 -115 -14q-223 0 -352 114t-129 299q0 240 178 396q179 155 451 155z" />
    <glyph glyph-name="colon" unicode=":" horiz-adv-x="387" 
d="M115 211h223l-33 -211h-221zM229 969h224l-35 -211h-221z" />
    <glyph glyph-name="semicolon" unicode=";" horiz-adv-x="387" 
d="M115 209h223l-25 -152q-20 -141 -89 -210t-214 -103l-8 82q88 32 125 64t53 110h-96zM229 969h224l-35 -211h-221z" />
    <glyph glyph-name="less" unicode="&#x3c;" horiz-adv-x="1177" 
d="M1047 131l-854 408l24 163l977 408l-25 -166l-772 -323l674 -324z" />
    <glyph glyph-name="equal" unicode="=" horiz-adv-x="1513" 
d="M293 389l22 154h1047l-23 -154h-1046zM352 788l25 154h1046l-24 -154h-1047z" />
    <glyph glyph-name="greater" unicode="&#x3e;" horiz-adv-x="1177" 
d="M170 131l27 166l770 324l-672 323l24 166l855 -408l-23 -163z" />
    <glyph glyph-name="question" unicode="?" horiz-adv-x="1202" 
d="M455 211h221l-33 -211h-221zM781 1315q-124 -1 -214 -61t-127 -158h-178q54 172 198 269t336 97t306 -101t112 -269q0 -115 -52 -203q-52 -89 -130 -143t-156 -102q-195 -119 -212 -243h-142q16 109 74 188t131 124q71 45 141 87q167 101 174 255q8 117 -64 189t-197 71z
" />
    <glyph glyph-name="at" unicode="@" horiz-adv-x="2138" 
d="M838 453q0 -121 66 -187t189 -67q123 0 215 92q91 93 91 213q1 120 -63 186t-187 66t-217 -91t-94 -212zM1002 -354q-332 0 -559 213q-226 213 -226 530q-1 252 147 470t393 345t519 127q358 -1 577 -199t220 -511q0 -242 -120 -397t-308 -154q-96 0 -161 47t-85 125
q-61 -82 -159 -129t-204 -47q-164 0 -263 98t-99 256q0 201 141 335t346 134q90 0 164 -38t107 -97h4l14 104h158l-68 -448q-16 -109 12 -161t111 -52q115 1 195 113t79 292q0 266 -189 437t-491 171q-227 0 -436 -105t-339 -293t-130 -411q0 -270 194 -453
q194 -184 476 -184t532 162l56 -104q-276 -176 -608 -176z" />
    <glyph glyph-name="A" unicode="A" horiz-adv-x="1613" 
d="M586 555h612l-203 670h-4zM55 0l885 1434h170l446 -1434h-192l-121 395h-749l-242 -395h-197z" />
    <glyph glyph-name="B" unicode="B" horiz-adv-x="1499" 
d="M860 152q176 0 290 75.5t114 204.5q0 100 -82 157.5t-228 57.5h-491l-74 -495h471zM903 801q176 0 283.5 80t107.5 204q0 90 -74.5 143.5t-211.5 53.5h-449l-74 -481h418zM1051 1434q197 0 309.5 -85t112.5 -224.5t-82 -236.5t-224 -140v-7q135 -23 207 -104.5t72 -202.5
q0 -197 -170 -315.5t-436 -118.5h-656l217 1434h650z" />
    <glyph glyph-name="C" unicode="C" horiz-adv-x="1730" 
d="M899 137q211 0 363.5 98.5t228.5 270.5h188q-88 -244 -305 -388.5t-500.5 -144.5t-466 176.5t-182.5 462.5q0 367 256 608.5t637 241.5q264 0 437.5 -144t187.5 -386h-189q-23 170 -144.5 268t-315.5 98q-289 0 -484.5 -189t-195.5 -476q0 -221 137 -358.5t348 -137.5z
" />
    <glyph glyph-name="D" unicode="D" horiz-adv-x="1615" 
d="M707 158q311 0 510.5 178t199.5 461q0 217 -146.5 348t-396.5 131h-315l-170 -1118h318zM918 1434q317 0 502.5 -167t185.5 -448q0 -362 -254 -590.5t-652 -228.5h-516l217 1434h517z" />
    <glyph glyph-name="E" unicode="E" horiz-adv-x="1339" 
d="M1415 1276h-856l-74 -485h770l-24 -160h-770l-72 -473h856l-22 -158h-1039l217 1434h1039z" />
    <glyph glyph-name="F" unicode="F" horiz-adv-x="1273" 
d="M184 0l217 1434h1018l-22 -158h-838l-80 -520h746l-25 -160h-745l-90 -596h-181z" />
    <glyph glyph-name="G" unicode="G" horiz-adv-x="1742" 
d="M902.5 -29q-316.5 0 -497 176.5t-180.5 462.5q0 367 257 609.5t634 242.5q270 0 441.5 -136t195.5 -355h-192q-31 156 -158 241.5t-309 85.5q-285 0 -482.5 -190t-197.5 -473q0 -221 136 -359.5t358 -138.5t383 126t212 319h-557l23 157h753q-49 -352 -276 -560
t-543.5 -208z" />
    <glyph glyph-name="H" unicode="H" horiz-adv-x="1583" 
d="M184 0l217 1434h181l-99 -646h854l99 646h182l-217 -1434h-182l96 629h-854l-96 -629h-181z" />
    <glyph glyph-name="I" unicode="I" horiz-adv-x="548" 
d="M184 0l217 1434h181l-217 -1434h-181z" />
    <glyph glyph-name="J" unicode="J" horiz-adv-x="1280" 
d="M586.5 -29q-234.5 0 -362.5 117t-120 324h181q4 -129 85 -205t238.5 -76t266 105.5t135.5 275.5l116 764h-698l25 158h880l-139 -928q-39 -250 -206 -392.5t-401.5 -142.5z" />
    <glyph glyph-name="K" unicode="K" horiz-adv-x="1509" 
d="M1602 1434l-902 -717l764 -717h-245l-748 702l-106 -702h-181l217 1434h181l-109 -717l899 717h230z" />
    <glyph glyph-name="L" unicode="L" horiz-adv-x="1239" 
d="M389 154h809l-22 -154h-992l217 1434h181z" />
    <glyph glyph-name="M" unicode="M" horiz-adv-x="2209" 
d="M72 0l600 1434h207l262 -1174h6l616 1174h209l166 -1434h-190l-140 1165h-8l-606 -1165h-178l-260 1165h-6l-488 -1165h-190z" />
    <glyph glyph-name="N" unicode="N" horiz-adv-x="1632" 
d="M1485 1434h182l-217 -1434h-152l-763 1122l-170 -1122h-181l217 1434h146l766 -1137z" />
    <glyph glyph-name="O" unicode="O" horiz-adv-x="1794" 
d="M918 133q283 0 481 190.5t198 475.5q0 223 -139 362t-364 139q-283 0 -482.5 -191t-199.5 -474q0 -221 140.5 -361.5t365.5 -140.5zM893 -29q-299 0 -483.5 180.5t-184.5 462.5q0 358 261.5 603t631.5 245q299 0 482.5 -179t183.5 -464q0 -358 -260 -603t-631 -245z" />
    <glyph glyph-name="P" unicode="P" horiz-adv-x="1349" 
d="M801 645q188 0 318 99t130 262q0 122 -99 196t-253 74h-338l-96 -631h338zM938 1434q227 0 360 -115t134 -293q0 -244 -190 -391t-460 -148h-344l-73 -487h-181l217 1434h537z" />
    <glyph glyph-name="Q" unicode="Q" horiz-adv-x="1794" 
d="M412 635q0 -221 140 -361t366 -141q284 1 482 191t197 475q0 223 -139 362t-364 139q-282 0 -482 -191t-200 -474zM1784 836q0 -268 -132 -468q-132 -202 -354 -307l271 -305l-148 -112l-323 350q-102 -23 -205 -23q-299 1 -483 181t-185 462q0 358 261 604t632 244
q298 0 482 -179t184 -447z" />
    <glyph glyph-name="R" unicode="R" horiz-adv-x="1464" 
d="M842 733q207 0 326.5 82t119.5 223q0 113 -92 175.5t-260 62.5h-377l-82 -543h365zM1468 1052q0 -179 -131 -304t-354 -160l412 -588h-226l-399 575h-317l-88 -575h-181l217 1434h576q229 0 360 -101.5t131 -280.5z" />
    <glyph glyph-name="S" unicode="S" horiz-adv-x="1421" 
d="M734 -29q-271 0 -416.5 127t-135.5 351h180q4 -152 105.5 -238t289 -86t298 79t110.5 206q0 84 -62.5 134t-154.5 67.5t-201.5 42t-201.5 52t-154.5 102.5t-62.5 191q0 203 164.5 333t421 130t395.5 -110.5t135 -304.5h-182q-6 125 -95.5 196.5t-258.5 71.5t-277.5 -80
t-108.5 -189.5t86 -160.5t208 -72.5t245 -48.5t209 -103.5t86 -211.5q0 -213 -175.5 -345.5t-446.5 -132.5z" />
    <glyph glyph-name="T" unicode="T" horiz-adv-x="1384" 
d="M1540 1434l-24 -158h-541l-193 -1276h-180l193 1276h-541l25 158h1261z" />
    <glyph glyph-name="U" unicode="U" horiz-adv-x="1597" 
d="M794.5 -29q-284.5 0 -433 177.5t-107.5 451.5l127 834h182l-127 -834q-33 -209 76 -339t307.5 -130t345 129t178.5 340l125 834h183l-125 -834q-41 -274 -244 -451.5t-487.5 -177.5z" />
    <glyph glyph-name="V" unicode="V" horiz-adv-x="1622" 
d="M727 0l-461 1434h199l379 -1205h8l741 1205h197l-893 -1434h-170z" />
    <glyph glyph-name="W" unicode="W" horiz-adv-x="2220" 
d="M545 0l-252 1434h190l201 -1168h6l545 1168h184l191 -1168l6 2l555 1166h190l-686 -1434h-192l-193 1167h-6l-547 -1167h-192z" />
    <glyph glyph-name="X" unicode="X" horiz-adv-x="1437" 
d="M45 0l660 713l-426 721h225l342 -584l520 584h225l-645 -723l445 -711h-213l-371 582l-547 -582h-215z" />
    <glyph glyph-name="Y" unicode="Y" horiz-adv-x="1449" 
d="M635 0l76 498l-465 936h203l376 -768l613 768h200l-745 -936l-74 -498h-184z" />
    <glyph glyph-name="Z" unicode="Z" horiz-adv-x="1404" 
d="M115 0l14 86l1077 1192h-872l24 156h1135l-14 -86l-1061 -1192h885l-23 -156h-1165z" />
    <glyph glyph-name="bracketleft" unicode="[" horiz-adv-x="731" 
d="M125 -258l264 1753h477l-22 -158h-303l-217 -1437h301l-23 -158h-477z" />
    <glyph glyph-name="backslash" unicode="\" horiz-adv-x="868" 
d="M555 -328l-297 1831h168l297 -1831h-168z" />
    <glyph glyph-name="bracketright" unicode="]" horiz-adv-x="731" 
d="M51 -258l25 158h301l219 1437h-303l22 158h478l-265 -1753h-477z" />
    <glyph glyph-name="asciicircum" unicode="^" horiz-adv-x="862" 
d="M727 1434l211 -525h-164l-145 398l-267 -398h-161l368 525h158z" />
    <glyph glyph-name="underscore" unicode="_" horiz-adv-x="1232" 
d="M-59 -393l22 145h1233l-22 -145h-1233z" />
    <glyph glyph-name="grave" unicode="`" horiz-adv-x="571" 
d="M639 1151h-158l-159 299h194l127 -293z" />
    <glyph glyph-name="a" unicode="a" horiz-adv-x="1325" 
d="M672.5 117q148.5 0 268.5 122.5t120 297.5q0 137 -82 226t-211 89q-166 0 -288 -123t-122 -297q0 -137 83 -226t231.5 -89zM612 -29q-190 0 -310 126t-120 319q0 242 174 411.5t412 169.5q106 0 195.5 -49t138.5 -143h4l24 164h175l-146 -969h-176l25 162h-4
q-156 -191 -392 -191z" />
    <glyph glyph-name="b" unicode="b" horiz-adv-x="1325" 
d="M702 117q166 0 288 122t122 296q0 137 -83 227t-214 90q-166 0 -286 -123t-119 -299q0 -137 80 -225t212 -88zM858 997q190 0 311 -126t121 -318q0 -242 -175 -412t-413 -170q-110 0 -196 49t-137 142h-4l-25 -162h-174l237 1577h175l-115 -772h4q68 86 173 139t218 53z
" />
    <glyph glyph-name="c" unicode="c" horiz-adv-x="1234" 
d="M626.5 -29q-198.5 0 -321.5 120t-123 317q0 256 174 422.5t439 166.5q186 0 302.5 -96t119.5 -258h-177q-8 90 -78.5 147.5t-189.5 57.5q-178 0 -296 -119t-118 -301q0 -139 82 -223t211.5 -84t217 56t124.5 147h176q-53 -162 -198.5 -257.5t-344 -95.5z" />
    <glyph glyph-name="d" unicode="d" horiz-adv-x="1325" 
d="M672.5 117q148.5 0 268.5 122.5t120 297.5q0 137 -82 226t-211 89q-166 0 -288 -123t-122 -297q0 -137 83 -226t231.5 -89zM768 997q113 0 202 -52t132 -140h4l115 772h176l-238 -1577h-176l25 162h-4q-160 -190 -392 -191q-190 0 -310 126t-120 319q0 240 174 410.5
t412 170.5z" />
    <glyph glyph-name="e" unicode="e" horiz-adv-x="1249" 
d="M767 856q-142 0 -253.5 -88t-144.5 -227h669q16 135 -56.5 225t-214.5 90zM639 -29q-209 0 -334 120t-125 319q0 254 173 420.5t416.5 166.5t360.5 -144t74 -380l-8 -59h-842q-2 -133 84 -217t226 -84q90 0 168.5 33.5t119.5 95.5h187q-66 -125 -202 -198t-298 -73z" />
    <glyph glyph-name="f" unicode="f" horiz-adv-x="776" 
d="M905 1454q-115 0 -193 -60t-94 -163l-38 -262h338l-23 -142h-336l-127 -827h-174l125 827h-248l23 142h248l38 262q27 168 152 271t305 104q68 0 109 -13l-23 -149q-45 10 -82 10z" />
    <glyph glyph-name="g" unicode="g" horiz-adv-x="1323" 
d="M670.5 117q148.5 0 269.5 122.5t121 297.5q0 137 -82 226t-211 89q-168 0 -290 -123t-122 -297q0 -137 83 -226t231.5 -89zM588 -496q-219 0 -337 99.5t-122 263.5h178q8 -100 86 -156.5t217.5 -56.5t242.5 87t126 232l29 189h-7q-74 -90 -177 -140.5t-212 -50.5
q-193 0 -312.5 125t-119.5 320q0 242 174 411.5t414 169.5q109 0 196 -50t136 -140h4l26 162h175l-152 -996q-31 -211 -188.5 -340t-376.5 -129z" />
    <glyph glyph-name="h" unicode="h" horiz-adv-x="1261" 
d="M846 997q193 0 295 -122.5t73 -317.5l-84 -557h-176l84 549q20 135 -47 216t-203 81t-241 -92t-127 -234l-80 -520h-174l237 1577h175l-115 -768h4q156 188 379 188z" />
    <glyph glyph-name="i" unicode="i" horiz-adv-x="542" 
d="M184 0l146 969h176l-148 -969h-174zM381 1335l37 242h182l-37 -242h-182z" />
    <glyph glyph-name="j" unicode="j" horiz-adv-x="542" 
d="M-121 -496l23 144l14 2q117 6 174 57t76 182l164 1080h176l-160 -1061q-33 -213 -136 -308t-296 -96h-35zM381 1335l37 242h182l-37 -242h-182z" />
    <glyph glyph-name="k" unicode="k" horiz-adv-x="1224" 
d="M166 0l237 1577h175l-164 -1094l618 486h217l-618 -486l557 -483h-238l-538 469l-72 -469h-174z" />
    <glyph glyph-name="l" unicode="l" horiz-adv-x="507" 
d="M166 0l237 1577h175l-238 -1577h-174z" />
    <glyph glyph-name="m" unicode="m" horiz-adv-x="1947" 
d="M834 997q108 0 188 -49t115 -135q160 184 397 184q197 0 297 -123t72 -317l-84 -557h-177l82 549q23 137 -38 217q-60 80 -192 80t-222 -87t-111 -233l-80 -526h-174l82 549q20 135 -39 216t-187 81t-224 -90t-119 -236l-80 -520h-174l147 969h174l-22 -154h4
q147 182 365 182z" />
    <glyph glyph-name="n" unicode="n" horiz-adv-x="1261" 
d="M844 997q195 0 297 -122.5t73 -317.5l-84 -557h-176l84 549q20 135 -47 216t-203 81t-241 -90t-127 -236l-80 -520h-174l147 969h174l-22 -154h4q66 84 168 133t207 49z" />
    <glyph glyph-name="o" unicode="o" horiz-adv-x="1304" 
d="M689.5 121q158.5 0 281.5 118.5t123 297.5q0 137 -86 223t-245 86t-282 -119t-123 -295q0 -137 86.5 -224t245 -87zM649 -29q-211 0 -339 122t-128 321q0 252 180.5 417.5t442.5 165.5q209 0 337 -122.5t128 -319.5q0 -252 -180.5 -418t-440.5 -166z" />
    <glyph glyph-name="p" unicode="p" horiz-adv-x="1325" 
d="M815 852q-166 0 -286 -124t-119 -298q0 -137 80 -225t212 -88q166 0 288 122t122 296q0 137 -83 227t-214 90zM702 -29q-112 1 -202 53t-131 138h-4l-95 -629h-176l217 1434h176l-24 -162h4q164 193 391 192q190 0 311 -127t121 -317q0 -242 -174 -412t-414 -170z" />
    <glyph glyph-name="q" unicode="q" horiz-adv-x="1325" 
d="M768 852q-166 0 -288 -123t-122 -297q0 -137 83 -226t231 -89t269 122q120 122 120 298q0 137 -82 226t-211 89zM612 -29q-190 0 -310 125t-120 318q0 242 174 412t412 171q109 0 196 -50t138 -142h4l24 164h175l-218 -1436h-174l95 629h-4q-68 -86 -174 -138t-218 -53z
" />
    <glyph glyph-name="r" unicode="r" horiz-adv-x="788" 
d="M166 0l147 969h174l-24 -168h4q121 197 321 196q49 0 99 -12l-25 -160q-45 14 -94 15q-139 0 -235.5 -101.5t-122.5 -275.5l-70 -463h-174z" />
    <glyph glyph-name="s" unicode="s" horiz-adv-x="1118" 
d="M568 -29q-208 0 -321.5 90.5t-103.5 241.5h166q2 -94 80 -145.5t204 -51.5t201.5 48.5t75.5 118t-64.5 102.5t-155.5 45t-183 29.5t-156.5 71.5t-64.5 149q0 147 128 237t317 90t300 -83t103 -224h-166q0 80 -74 128t-181.5 48t-179 -44t-71.5 -111t63.5 -99t154.5 -44.5
t182 -31t154.5 -73.5t63.5 -154q0 -154 -132 -246t-340 -92z" />
    <glyph glyph-name="t" unicode="t" horiz-adv-x="851" 
d="M598 -29q-168 0 -248 98.5t-53 276.5l72 481h-238l23 142h237l49 327h176l-49 -327h326l-23 -142h-325l-72 -477q-37 -225 172 -225q31 0 121 8l-23 -145q-67 -17 -145 -17z" />
    <glyph glyph-name="u" unicode="u" horiz-adv-x="1224" 
d="M607 -29q-214 0 -329.5 121t-84.5 318l83 559h175l-82 -549q-20 -135 53.5 -217t209.5 -82t233.5 82t117.5 217l82 549h176l-84 -559q-31 -197 -183.5 -318t-366.5 -121z" />
    <glyph glyph-name="v" unicode="v" horiz-adv-x="1236" 
d="M539 0l-328 969h188l250 -760h4l482 760h186l-621 -969h-161z" />
    <glyph glyph-name="w" unicode="w" horiz-adv-x="1689" 
d="M444 0l-233 969h190l158 -707h4l355 707h153l137 -707h4l375 707h187l-525 -969h-155l-140 700h-4l-350 -700h-156z" />
    <glyph glyph-name="x" unicode="x" horiz-adv-x="1165" 
d="M59 0l482 487l-326 482h217l244 -365l356 365h215l-475 -484l334 -485h-209l-256 369l-371 -369h-211z" />
    <glyph glyph-name="y" unicode="y" horiz-adv-x="1314" 
d="M1204 969h187l-891 -1436h-191l271 428l-363 1008h189l290 -815h4z" />
    <glyph glyph-name="z" unicode="z" horiz-adv-x="1060" 
d="M90 0l12 82l744 747h-608l22 140h858l-16 -95l-735 -735h624l-22 -139h-879z" />
    <glyph glyph-name="braceleft" unicode="{" horiz-adv-x="757" 
d="M627 -274q-182 8 -269 104q-86 96 -61 260l39 262q16 106 -15 152q-32 45 -139 49l-24 2l20 143l25 2q106 2 152 48t65 151l39 264q25 164 139 260q115 96 301 105l-25 -162q-102 -6 -165 -60t-76 -143l-41 -268q-18 -117 -62 -178t-137 -90q86 -29 112 -91t7 -180
l-41 -266q-14 -88 32 -142t148 -61z" />
    <glyph glyph-name="bar" unicode="|" horiz-adv-x="649" 
d="M193 -328l274 1823h166l-275 -1823h-165z" />
    <glyph glyph-name="braceright" unicode="}" horiz-adv-x="757" 
d="M49 -274l25 161q102 7 164 61t75 142l43 266q18 118 62 180t137 91q-86 29 -112 90t-7 178l41 268q14 89 -32 143t-148 60l25 162q182 -8 267 -104t62 -261l-39 -264q-16 -104 17 -150t137 -49l25 -2l-21 -143l-25 -2q-109 -4 -155 -49t-62 -152l-41 -262
q-23 -164 -137 -260t-301 -104z" />
    <glyph glyph-name="asciitilde" unicode="~" horiz-adv-x="983" 
d="M757 571q-92 0 -188 69t-134 69q-39 0 -65 -27t-34 -70h-154q14 111 88 178t176 66q62 0 122 -35t108 -69t87 -35q37 1 65 27t34 69h154q-16 -109 -92 -175t-167 -67z" />
    <glyph glyph-name="exclamdown" unicode="&#xa1;" horiz-adv-x="552" 
d="M287 575h153l-86 -669l-55 -371h-182l55 371zM281 758l32 211h222l-33 -211h-221z" />
    <glyph glyph-name="cent" unicode="&#xa2;" horiz-adv-x="1234" 
d="M358 428q0 -139 82 -223t212 -84q128 0 216 56t125 147h176q-47 -142 -167 -234t-279 -113l-37 -245h-158l35 243q-178 19 -279 137t-102 296q0 238 151 400t386 185l37 252h159l-38 -254q153 -20 245 -112t95 -236h-177q-8 90 -78 148q-71 57 -190 57q-178 0 -296 -119
t-118 -301z" />
    <glyph glyph-name="sterling" unicode="&#xa3;" horiz-adv-x="1349" 
d="M971 1462q223 0 346 -112t108 -295h-176q-8 127 -84 195q-77 68 -219 67q-142 0 -250 -90t-127 -240l-39 -250h498l-20 -145h-500l-68 -447h832l-23 -145h-1163l23 145h157l68 447h-158l23 145h155l39 250q33 213 194 344t384 131z" />
    <glyph glyph-name="currency" unicode="&#xa4;" horiz-adv-x="1181" 
d="M655 336q125 0 217 88t92 204t-64 178q-64 64 -190 64t-218 -87t-92 -203t64 -180q66 -64 191 -64zM262 549q0 164 113 289l-84 98l127 111l90 -109q102 57 233 57t215 -57l123 109l95 -111l-113 -98q41 -70 41 -179q0 -160 -113 -288l84 -99l-127 -110l-90 106
q-110 -57 -234 -57t-214 57l-123 -106l-95 110l115 99q-43 68 -43 178z" />
    <glyph glyph-name="yen" unicode="&#xa5;" horiz-adv-x="1441" 
d="M1636 1434l-694 -873h354l-20 -125h-395l-19 -129h395l-18 -125h-395l-29 -182h-184l28 182h-399l19 125h399l18 129h-399l20 125h359l-434 873h202l377 -768l613 768h202z" />
    <glyph glyph-name="brokenbar" unicode="&#xa6;" horiz-adv-x="649" 
d="M193 -328l120 807h166l-121 -807h-165zM346 688l121 807h166l-121 -807h-166z" />
    <glyph glyph-name="section" unicode="&#xa7;" horiz-adv-x="1173" 
d="M993 522q0 68 -64 116q-65 48 -201 104t-189 87q-82 -10 -130 -56q-49 -47 -49 -109t46 -109t100 -73t150 -66t143 -64q86 12 140 56q54 46 54 114zM332 76q4 -203 235 -203q113 0 184 54q71 55 71 131t-66 126t-160 88q-94 37 -188 80t-160 116t-66 171q0 211 238 293
q-72 76 -72 172q0 154 129 256t323 102t300 -89t104 -261h-188q2 100 -58 152t-172 51q-110 -1 -182 -57t-72 -132t66 -129t160 -92t187 -82t159 -113t66 -168q0 -97 -68 -176t-176 -110q78 -72 78 -174q0 -162 -127 -260t-321 -98t-304 92q-109 92 -109 260h189z" />
    <glyph glyph-name="dieresis" unicode="&#xa8;" horiz-adv-x="837" 
d="M725 1409h223l-33 -221h-223zM315 1409h224l-33 -221h-223z" />
    <glyph glyph-name="copyright" unicode="&#xa9;" horiz-adv-x="1837" 
d="M966 348q-142 0 -238 91q-95 91 -95 231q0 174 134 295t320 120q133 0 224 -70q90 -71 110 -200h-141q-41 152 -213 152q-121 0 -210 -83q-89 -84 -89 -188t61 -166t162 -63q174 0 258 151h142q-57 -130 -170 -200t-255 -70zM932 84q315 0 542 208q226 208 226 507
q0 239 -161 395t-415 156q-315 0 -542 -208t-228 -507q0 -239 161 -395t417 -156zM915 -29q-307 -1 -497 183t-191 467q0 233 124 427t334 304t456 110q305 0 495 -183t191 -466q0 -233 -124 -427t-333 -304t-455 -111z" />
    <glyph glyph-name="ordfeminine" unicode="&#xaa;" horiz-adv-x="772" 
d="M324 992q0 -97 161 -97q82 0 151 54t81 138h-248q-63 -1 -104 -25t-41 -70zM438 797q-110 0 -176 52t-62 139t83 138q78 51 206 52h240q21 82 -15 132t-126 50q-141 0 -189 -105h-123q29 95 119 151t220 56t195 -77t44 -207l-55 -369h-125l14 96h-4q-90 -108 -246 -108z
" />
    <glyph glyph-name="guillemotleft" unicode="&#xab;" horiz-adv-x="921" 
d="M961 823l-275 -307l182 -307h-170l-176 291l6 32l263 291h170zM598 823l-274 -307l182 -307h-170l-176 291l6 32l262 291h170z" />
    <glyph glyph-name="registered" unicode="&#xae;" horiz-adv-x="1206" 
d="M776 944q47 0 80 26t33 62t-26 58q-26 20 -64 20h-123l-25 -166h125zM811 1180q74 0 117 -38t43 -98t-41 -104q-41 -43 -107 -53l113 -162h-98l-107 152h-90l-23 -152h-77l67 455h203zM1167 972q0 160 -103 260t-276 99q-174 0 -318 -130q-144 -131 -144 -289t102 -258
t275 -99q173 0 319 129q145 128 145 288zM674 465q-197 0 -326 122t-129 300q0 217 179 375t421 157q197 0 325 -122t128 -300q0 -215 -179 -373t-419 -159z" />
    <glyph glyph-name="macron" unicode="&#xaf;" horiz-adv-x="811" 
d="M283 1192l20 137h606l-20 -137h-606z" />
    <glyph glyph-name="degree" unicode="&#xb0;" horiz-adv-x="1028" 
d="M706 1337q-100 1 -177 -69t-77 -160t56 -142t154 -53q98 0 175 70t77 160t-55 142q-53 52 -153 52zM1057 1169q0 -163 -123 -273q-122 -110 -284 -110t-251 82q-88 82 -88 228t123 257q122 109 284 109t250 -82t89 -211z" />
    <glyph glyph-name="plusminus" unicode="&#xb1;" horiz-adv-x="1476" 
d="M233 0l23 154h1008l-23 -154h-1008zM698 297l54 350h-420l22 154h420l53 350h170l-53 -350h420l-25 -154h-417l-54 -350h-170z" />
    <glyph glyph-name="uni00B2" unicode="&#xb2;" horiz-adv-x="772" 
d="M653 1749q-67 0 -117 -37t-67 -98h-133q29 112 121 180t213 68q120 0 190 -56t70 -147q0 -57 -36 -117t-73 -97q-37 -36 -106 -95l-223 -189h380l-16 -106h-598l8 65l342 289q119 94 150 138q30 44 30 93t-34 79q-35 30 -101 30z" />
    <glyph glyph-name="uni00B3" unicode="&#xb3;" horiz-adv-x="802" 
d="M907 1309q0 -119 -98 -195q-99 -76 -239 -76t-216 60t-80 166h136q4 -51 48 -83t125 -32t136 42t55 100t-41 91t-115 33h-98l15 105l239 209h-391l16 116h574l-15 -100l-266 -236q100 -12 158 -66t57 -134z" />
    <glyph glyph-name="acute" unicode="&#xb4;" horiz-adv-x="571" 
d="M279 1151v6l215 293h194l-252 -299h-157z" />
    <glyph glyph-name="paragraph" unicode="&#xb6;" horiz-adv-x="1429" 
d="M1032 -287l260 1721h183l-261 -1721h-182zM604 705q-172 0 -274 87t-103 230q1 180 139 296t349 116h301l-260 -1721h-181l150 992h-121z" />
    <glyph glyph-name="periodcentered" unicode="&#xb7;" horiz-adv-x="387" 
d="M174 596h221l-33 -211h-221z" />
    <glyph glyph-name="cedilla" unicode="&#xb8;" horiz-adv-x="493" 
d="M51 -328l168 363h176l-190 -363h-154z" />
    <glyph glyph-name="uni00B9" unicode="&#xb9;" horiz-adv-x="501" 
d="M432 1057l100 672h-225l17 116h356l-119 -788h-129z" />
    <glyph glyph-name="ordmasculine" unicode="&#xba;" horiz-adv-x="833" 
d="M352 1110q0 -94 56 -150t156 -55q100 0 178 74t79 170q0 96 -55 150q-54 55 -154 55t-180 -75t-80 -169zM948 1156q0 -144 -120 -251q-120 -108 -276 -108q-154 0 -241 81q-86 81 -86 207q0 160 121 269q122 108 276 108t240 -81t86 -225z" />
    <glyph glyph-name="guillemotright" unicode="&#xbb;" horiz-adv-x="921" 
d="M571 823h170l177 -291l-5 -32l-264 -291h-170l275 307zM209 823h170l176 -291l-6 -32l-264 -291h-170l274 307z" />
    <glyph glyph-name="onequarter" unicode="&#xbc;" horiz-adv-x="1689" 
d="M1090 276h305l55 371zM1655 276l-17 -114h-129l-24 -162h-131l24 162h-465l15 88l514 538h162l-78 -512h129zM184 0l1221 1434h131l-1221 -1434h-131zM369 647l102 672h-227l18 117h356l-118 -789h-131z" />
    <glyph glyph-name="onehalf" unicode="&#xbd;" horiz-adv-x="1660" 
d="M1399 809q121 0 191 -55t69 -148q0 -60 -36 -120t-73 -95t-106 -94l-223 -188h378l-16 -107h-598l10 66l344 286q6 6 37 32t39 33l32 28q24 22 31 33q6 11 24 37t18 73t-36 77q-36 29 -101 29t-117 -37t-68 -98h-131q27 111 119 179t213 69zM184 0l1221 1434h131
l-1221 -1434h-131zM369 647l102 672h-227l18 117h356l-118 -789h-131z" />
    <glyph glyph-name="threequarters" unicode="&#xbe;" horiz-adv-x="1878" 
d="M1583 276l57 371l-362 -371h305zM1716 276h127l-16 -114h-127l-27 -162h-131l25 162h-463l12 88l514 538h162zM1593 1434h131l-1220 -1434h-131zM844 899q0 -119 -98 -195t-237 -75q-140 0 -218 60t-80 165h137q4 -51 47 -83t124 -32t137 42q56 41 56 99t-41 92
q-42 34 -114 34h-100l16 104l240 209h-394l19 117h573l-14 -101l-264 -233q99 -12 155 -68t56 -135z" />
    <glyph glyph-name="questiondown" unicode="&#xbf;" horiz-adv-x="1202" 
d="M568 -346q124 0 214 60t127 159h178q-55 -172 -199 -270q-144 -99 -335 -99t-307 102t-115 271q0 115 53 203t130 142t157 102q194 118 213 243h141q-16 -111 -74 -189t-129 -124q-71 -45 -141 -86q-167 -98 -174 -254q-10 -116 63 -188q74 -72 198 -72zM893 758h-221
l33 211h223z" />
    <glyph glyph-name="Agrave" unicode="&#xc0;" horiz-adv-x="1613" 
d="M586 555h612l-203 670h-4zM55 0l885 1434h170l446 -1434h-192l-121 395h-749l-242 -395h-197zM1130 1581h-157l-160 301h195l127 -295z" />
    <glyph glyph-name="Aacute" unicode="&#xc1;" horiz-adv-x="1613" 
d="M586 555h612l-203 670h-4zM55 0l885 1434h170l446 -1434h-192l-121 395h-749l-242 -395h-197zM993 1581l-4 6l217 295h195l-250 -301h-158z" />
    <glyph glyph-name="Acircumflex" unicode="&#xc2;" horiz-adv-x="1613" 
d="M586 555h612l-203 670h-4zM55 0l885 1434h170l446 -1434h-192l-121 395h-749l-242 -395h-197zM692 1579l312 301h174l221 -301h-168l-156 195l-215 -195h-168z" />
    <glyph glyph-name="Atilde" unicode="&#xc3;" horiz-adv-x="1613" 
d="M586 555h612l-203 670h-4zM55 0l885 1434h170l446 -1434h-192l-121 395h-749l-242 -395h-197zM1211 1628q-81 0 -162.5 57.5t-114.5 57.5q-70 0 -90 -82h-142q18 96 83 155.5t149 59.5t163 -55.5t115 -55.5q70 0 84 82h142q-12 -94 -79 -156.5t-148 -62.5z" />
    <glyph glyph-name="Adieresis" unicode="&#xc4;" horiz-adv-x="1613" 
d="M586 555h612l-203 670h-4zM55 0l885 1434h170l446 -1434h-192l-121 395h-749l-242 -395h-197zM1141 1606l35 219h223l-33 -219h-225zM731 1606l35 219h223l-33 -219h-225z" />
    <glyph glyph-name="Aring" unicode="&#xc5;" horiz-adv-x="1613" 
d="M586 555h612l-203 670h-4zM55 0l885 1434h170l446 -1434h-192l-121 395h-749l-242 -395h-197zM1070 1700q50 0 90 36t40 84t-28.5 74.5t-78.5 26.5t-90 -36t-40 -84t28.5 -74.5t78.5 -26.5zM1061.5 1610q-98.5 0 -151 48t-52.5 135t73 152.5t171 65.5t150.5 -48
t52.5 -136t-72.5 -152.5t-171 -64.5z" />
    <glyph glyph-name="AE" unicode="&#xc6;" horiz-adv-x="2400" 
d="M823 555h504l98 641zM84 0l1360 1434h1055l-23 -158h-858l-74 -485h770l-24 -160h-770l-72 -473h858l-25 -158h-1036l58 395h-627l-371 -395h-221z" />
    <glyph glyph-name="Ccedilla" unicode="&#xc7;" horiz-adv-x="1730" 
d="M899 137q211 0 363.5 98.5t228.5 270.5h188q-84 -233 -288.5 -376.5t-458.5 -156.5l-158 -301h-153l143 310q-250 39 -394.5 207.5t-144.5 422.5q0 367 256 608.5t637 241.5q264 0 437.5 -144t187.5 -386h-189q-23 170 -144.5 268t-315.5 98q-289 0 -484.5 -189
t-195.5 -476q0 -221 137 -358.5t348 -137.5z" />
    <glyph glyph-name="Egrave" unicode="&#xc8;" horiz-adv-x="1339" 
d="M1415 1276h-856l-74 -485h770l-24 -160h-770l-72 -473h856l-22 -158h-1039l217 1434h1039zM1030 1581h-158l-159 301h194l127 -295z" />
    <glyph glyph-name="Eacute" unicode="&#xc9;" horiz-adv-x="1339" 
d="M1415 1276h-856l-74 -485h770l-24 -160h-770l-72 -473h856l-22 -158h-1039l217 1434h1039zM860 1581l-4 6l217 295h195l-250 -301h-158z" />
    <glyph glyph-name="Ecircumflex" unicode="&#xca;" horiz-adv-x="1339" 
d="M1415 1276h-856l-74 -485h770l-24 -160h-770l-72 -473h856l-22 -158h-1039l217 1434h1039zM592 1579l311 301h174l221 -301h-168l-155 195l-215 -195h-168z" />
    <glyph glyph-name="Edieresis" unicode="&#xcb;" horiz-adv-x="1339" 
d="M1415 1276h-856l-74 -485h770l-24 -160h-770l-72 -473h856l-22 -158h-1039l217 1434h1039zM1040 1606l35 219h223l-32 -219h-226zM631 1606l35 219h223l-33 -219h-225z" />
    <glyph glyph-name="Igrave" unicode="&#xcc;" horiz-adv-x="548" 
d="M184 0l217 1434h181l-217 -1434h-181zM600 1581h-158l-159 301h194l127 -295z" />
    <glyph glyph-name="Iacute" unicode="&#xcd;" horiz-adv-x="548" 
d="M184 0l217 1434h181l-217 -1434h-181zM430 1581l-4 6l217 295h195l-250 -301h-158z" />
    <glyph glyph-name="Icircumflex" unicode="&#xce;" horiz-adv-x="548" 
d="M184 0l217 1434h181l-217 -1434h-181zM162 1579l311 301h174l221 -301h-168l-155 195l-215 -195h-168z" />
    <glyph glyph-name="Idieresis" unicode="&#xcf;" horiz-adv-x="548" 
d="M184 0l217 1434h181l-217 -1434h-181zM610 1606l35 219h223l-32 -219h-226zM201 1606l35 219h223l-33 -219h-225z" />
    <glyph glyph-name="Eth" unicode="&#xd0;" horiz-adv-x="1615" 
d="M707 158q311 0 510.5 178t199.5 461q0 217 -146.5 348t-396.5 131h-315l-74 -479h369l-23 -158h-368l-74 -481h318zM918 1434q317 0 502.5 -167t185.5 -448q0 -362 -254 -590.5t-652 -228.5h-516l97 639h-142l23 158h143l96 637h517z" />
    <glyph glyph-name="Ntilde" unicode="&#xd1;" horiz-adv-x="1632" 
d="M1485 1434h182l-217 -1434h-152l-763 1122l-170 -1122h-181l217 1434h146l766 -1137zM1221 1628q-81 0 -162.5 57.5t-114.5 57.5q-70 0 -90 -82h-141q18 96 82.5 155.5t148.5 59.5t163 -55.5t116 -55.5q70 0 84 82h141q-12 -94 -79 -156.5t-148 -62.5z" />
    <glyph glyph-name="Ograve" unicode="&#xd2;" horiz-adv-x="1794" 
d="M918 133q283 0 481 190.5t198 475.5q0 223 -139 362t-364 139q-283 0 -482.5 -191t-199.5 -474q0 -221 140.5 -361.5t365.5 -140.5zM893 -29q-299 0 -483.5 180.5t-184.5 462.5q0 358 261.5 603t631.5 245q299 0 482.5 -179t183.5 -464q0 -358 -260 -603t-631 -245z
M1221 1581h-158l-160 301h195l127 -295z" />
    <glyph glyph-name="Oacute" unicode="&#xd3;" horiz-adv-x="1794" 
d="M918 133q283 0 481 190.5t198 475.5q0 223 -139 362t-364 139q-283 0 -482.5 -191t-199.5 -474q0 -221 140.5 -361.5t365.5 -140.5zM893 -29q-299 0 -483.5 180.5t-184.5 462.5q0 358 261.5 603t631.5 245q299 0 482.5 -179t183.5 -464q0 -358 -260 -603t-631 -245z
M1051 1581l-4 6l217 295h194l-250 -301h-157z" />
    <glyph glyph-name="Ocircumflex" unicode="&#xd4;" horiz-adv-x="1794" 
d="M918 133q283 0 481 190.5t198 475.5q0 223 -139 362t-364 139q-283 0 -482.5 -191t-199.5 -474q0 -221 140.5 -361.5t365.5 -140.5zM893 -29q-299 0 -483.5 180.5t-184.5 462.5q0 358 261.5 603t631.5 245q299 0 482.5 -179t183.5 -464q0 -358 -260 -603t-631 -245z
M782 1579l312 301h174l221 -301h-168l-156 195l-215 -195h-168z" />
    <glyph glyph-name="Otilde" unicode="&#xd5;" horiz-adv-x="1794" 
d="M918 133q283 0 481 190.5t198 475.5q0 223 -139 362t-364 139q-283 0 -482.5 -191t-199.5 -474q0 -221 140.5 -361.5t365.5 -140.5zM893 -29q-299 0 -483.5 180.5t-184.5 462.5q0 358 261.5 603t631.5 245q299 0 482.5 -179t183.5 -464q0 -358 -260 -603t-631 -245z
M1301 1628q-81 0 -162.5 57.5t-114.5 57.5q-70 0 -90 -82h-141q18 96 82.5 155.5t148.5 59.5t163 -55.5t116 -55.5q70 0 83 82h142q-12 -94 -79 -156.5t-148 -62.5z" />
    <glyph glyph-name="Odieresis" unicode="&#xd6;" horiz-adv-x="1794" 
d="M918 133q283 0 481 190.5t198 475.5q0 223 -139 362t-364 139q-283 0 -482.5 -191t-199.5 -474q0 -221 140.5 -361.5t365.5 -140.5zM893 -29q-299 0 -483.5 180.5t-184.5 462.5q0 358 261.5 603t631.5 245q299 0 482.5 -179t183.5 -464q0 -358 -260 -603t-631 -245z
M1231 1606l35 219h223l-33 -219h-225zM821 1606l35 219h223l-32 -219h-226z" />
    <glyph glyph-name="multiply" unicode="&#xd7;" horiz-adv-x="1419" 
d="M403 215l-94 107l385 329l-276 316l133 114l278 -315l385 326l93 -107l-385 -328l276 -317l-131 -115l-279 318z" />
    <glyph glyph-name="Oslash" unicode="&#xd8;" horiz-adv-x="1794" 
d="M918 133q283 0 481 190.5t198 475.5q0 180 -92 307l-907 -873q134 -100 320 -100zM412 635q0 -182 94 -307l907 872q-133 100 -319 100q-283 0 -482.5 -191t-199.5 -474zM893 -29q-252 0 -428 133l-131 -124l-98 88l133 127q-143 172 -144 419q0 358 261.5 603t631.5 245
q252 0 428 -133l131 125l99 -88l-134 -129q141 -170 142 -418q0 -358 -260 -603t-631 -245z" />
    <glyph glyph-name="Ugrave" unicode="&#xd9;" horiz-adv-x="1597" 
d="M794.5 -29q-284.5 0 -433 177.5t-107.5 451.5l127 834h182l-127 -834q-33 -209 76 -339t307.5 -130t345 129t178.5 340l125 834h183l-125 -834q-41 -274 -244 -451.5t-487.5 -177.5zM1122 1581h-157l-160 301h194l127 -295z" />
    <glyph glyph-name="Uacute" unicode="&#xda;" horiz-adv-x="1597" 
d="M794.5 -29q-284.5 0 -433 177.5t-107.5 451.5l127 834h182l-127 -834q-33 -209 76 -339t307.5 -130t345 129t178.5 340l125 834h183l-125 -834q-41 -274 -244 -451.5t-487.5 -177.5zM952 1581l-4 6l217 295h195l-250 -301h-158z" />
    <glyph glyph-name="Ucircumflex" unicode="&#xdb;" horiz-adv-x="1597" 
d="M794.5 -29q-284.5 0 -433 177.5t-107.5 451.5l127 834h182l-127 -834q-33 -209 76 -339t307.5 -130t345 129t178.5 340l125 834h183l-125 -834q-41 -274 -244 -451.5t-487.5 -177.5zM684 1579l311 301h174l222 -301h-168l-156 195l-215 -195h-168z" />
    <glyph glyph-name="Udieresis" unicode="&#xdc;" horiz-adv-x="1597" 
d="M794.5 -29q-284.5 0 -433 177.5t-107.5 451.5l127 834h182l-127 -834q-33 -209 76 -339t307.5 -130t345 129t178.5 340l125 834h183l-125 -834q-41 -274 -244 -451.5t-487.5 -177.5zM1133 1606l34 219h224l-33 -219h-225zM723 1606l35 219h223l-33 -219h-225z" />
    <glyph glyph-name="Yacute" unicode="&#xdd;" horiz-adv-x="1449" 
d="M635 0l76 498l-465 936h203l376 -768l613 768h200l-745 -936l-74 -498h-184zM881 1581l-4 6l217 295h194l-250 -301h-157z" />
    <glyph glyph-name="Thorn" unicode="&#xde;" horiz-adv-x="1349" 
d="M766 414q188 0 318 99t130 263q0 123 -99 196t-253 72h-338l-96 -630h338zM903 1204q227 0 361 -114q133 -115 133 -293q-1 -244 -191 -391t-458 -148h-342l-41 -258h-181l217 1434h181l-35 -230h356z" />
    <glyph glyph-name="germandbls" unicode="&#xdf;" horiz-adv-x="1282" 
d="M1233 469q0 -217 -154 -357t-387 -141q-106 0 -209 39l23 152q86 -37 184 -37q156 0 260 94q104 95 104 225t-76 198q-77 68 -208 69h-59l20 139l189 211q117 123 116 231q0 76 -61 120t-172 44t-194 -64t-97 -167l-186 -1225h-174l184 1225q27 174 161 277
q134 104 319 104q184 0 288 -79t104 -221t-155 -305l-152 -163q156 -20 244 -118t88 -251z" />
    <glyph glyph-name="agrave" unicode="&#xe0;" horiz-adv-x="1325" 
d="M672.5 117q148.5 0 268.5 122.5t120 297.5q0 137 -82 226t-211 89q-166 0 -288 -123t-122 -297q0 -137 83 -226t231.5 -89zM612 -29q-190 0 -310 126t-120 319q0 242 174 411.5t412 169.5q106 0 195.5 -49t138.5 -143h4l24 164h175l-146 -969h-176l25 162h-4
q-156 -191 -392 -191zM915 1151h-157l-160 299h195l127 -293z" />
    <glyph glyph-name="aacute" unicode="&#xe1;" horiz-adv-x="1325" 
d="M672.5 117q148.5 0 268.5 122.5t120 297.5q0 137 -82 226t-211 89q-166 0 -288 -123t-122 -297q0 -137 83 -226t231.5 -89zM612 -29q-190 0 -310 126t-120 319q0 242 174 411.5t412 169.5q106 0 195.5 -49t138.5 -143h4l24 164h175l-146 -969h-176l25 162h-4
q-156 -191 -392 -191zM741 1151v6l215 293h195l-252 -299h-158z" />
    <glyph glyph-name="acircumflex" unicode="&#xe2;" horiz-adv-x="1325" 
d="M672.5 117q148.5 0 268.5 122.5t120 297.5q0 137 -82 226t-211 89q-166 0 -288 -123t-122 -297q0 -137 83 -226t231.5 -89zM612 -29q-190 0 -310 126t-120 319q0 242 174 411.5t412 169.5q106 0 195.5 -49t138.5 -143h4l24 164h175l-146 -969h-176l25 162h-4
q-156 -191 -392 -191zM475 1137l311 299h177l221 -299h-170l-156 194l-215 -194h-168z" />
    <glyph glyph-name="atilde" unicode="&#xe3;" horiz-adv-x="1325" 
d="M672.5 117q148.5 0 268.5 122.5t120 297.5q0 137 -82 226t-211 89q-166 0 -288 -123t-122 -297q0 -137 83 -226t231.5 -89zM612 -29q-190 0 -310 126t-120 319q0 242 174 411.5t412 169.5q106 0 195.5 -49t138.5 -143h4l24 164h175l-146 -969h-176l25 162h-4
q-156 -191 -392 -191zM995 1180q-80 0 -162.5 56t-115.5 56q-70 0 -90 -80h-142q18 96 83 155.5t149 59.5t164 -55t114 -55q72 0 86 82h142q-14 -96 -81 -157.5t-147 -61.5z" />
    <glyph glyph-name="adieresis" unicode="&#xe4;" horiz-adv-x="1325" 
d="M672.5 117q148.5 0 268.5 122.5t120 297.5q0 137 -82 226t-211 89q-166 0 -288 -123t-122 -297q0 -137 83 -226t231.5 -89zM612 -29q-190 0 -310 126t-120 319q0 242 174 411.5t412 169.5q106 0 195.5 -49t138.5 -143h4l24 164h175l-146 -969h-176l25 162h-4
q-156 -191 -392 -191zM963 1409h223l-33 -221h-223zM553 1409h223l-33 -221h-223z" />
    <glyph glyph-name="aring" unicode="&#xe5;" horiz-adv-x="1325" 
d="M672.5 117q148.5 0 268.5 122.5t120 297.5q0 137 -82 226t-211 89q-166 0 -288 -123t-122 -297q0 -137 83 -226t231.5 -89zM612 -29q-190 0 -310 126t-120 319q0 242 174 411.5t412 169.5q106 0 195.5 -49t138.5 -143h4l24 164h175l-146 -969h-176l25 162h-4
q-156 -191 -392 -191zM847 1219q50 0 91 35.5t41 85t-28.5 76t-79 26.5t-91.5 -37t-41 -85t29 -74.5t79 -26.5zM839.5 1130q-98.5 0 -151.5 47.5t-53 135.5t72.5 152.5t172 64.5t150.5 -48t51 -135t-71.5 -152t-170 -65z" />
    <glyph glyph-name="ae" unicode="&#xe6;" horiz-adv-x="1996" 
d="M541 109q150 0 258 89t129 224h-400q-98 0 -159.5 -45t-61.5 -116t64 -111.5t170 -40.5zM1515.5 856q-143.5 0 -254 -88t-145.5 -227h670q18 133 -54.5 224t-216 91zM1534 997q227 0 344 -144t76 -380l-10 -59h-842q0 -135 85 -218t224 -83q201 0 289 129h188
q-66 -125 -202 -198t-290 -73q-304 0 -419 224q-78 -104 -207 -164t-287 -60t-252 75t-94 206t111.5 213t300.5 82h395l4 28q41 279 -229 279q-221 0 -285 -164h-176q37 139 168 223t315 84q268 0 355 -174q170 174 438 174z" />
    <glyph glyph-name="ccedilla" unicode="&#xe7;" horiz-adv-x="1234" 
d="M652 121q129 0 216.5 56t124.5 147h176q-51 -152 -182 -246t-303 -105l-158 -301h-153l143 312q-156 33 -245 145.5t-89 278.5q0 256 174 422.5t439 166.5q186 0 302.5 -96t119.5 -258h-177q-8 90 -78.5 147.5t-189.5 57.5q-178 0 -296 -119t-118 -301q0 -139 82.5 -223
t211.5 -84z" />
    <glyph glyph-name="egrave" unicode="&#xe8;" horiz-adv-x="1249" 
d="M767 856q-142 0 -253.5 -88t-144.5 -227h669q16 135 -56.5 225t-214.5 90zM639 -29q-209 0 -334 120t-125 319q0 254 173 420.5t416.5 166.5t360.5 -144t74 -380l-8 -59h-842q-2 -133 84 -217t226 -84q90 0 168.5 33.5t119.5 95.5h187q-66 -125 -202 -198t-298 -73z
M883 1151h-158l-160 299h195l127 -293z" />
    <glyph glyph-name="eacute" unicode="&#xe9;" horiz-adv-x="1249" 
d="M767 856q-142 0 -253.5 -88t-144.5 -227h669q16 135 -56.5 225t-214.5 90zM639 -29q-209 0 -334 120t-125 319q0 254 173 420.5t416.5 166.5t360.5 -144t74 -380l-8 -59h-842q-2 -133 84 -217t226 -84q90 0 168.5 33.5t119.5 95.5h187q-66 -125 -202 -198t-298 -73z
M709 1151v6l215 293h194l-252 -299h-157z" />
    <glyph glyph-name="ecircumflex" unicode="&#xea;" horiz-adv-x="1249" 
d="M767 856q-142 0 -253.5 -88t-144.5 -227h669q16 135 -56.5 225t-214.5 90zM639 -29q-209 0 -334 120t-125 319q0 254 173 420.5t416.5 166.5t360.5 -144t74 -380l-8 -59h-842q-2 -133 84 -217t226 -84q90 0 168.5 33.5t119.5 95.5h187q-66 -125 -202 -198t-298 -73z
M442 1137l312 299h176l221 -299h-170l-156 194l-215 -194h-168z" />
    <glyph glyph-name="edieresis" unicode="&#xeb;" horiz-adv-x="1249" 
d="M767 856q-142 0 -253.5 -88t-144.5 -227h669q16 135 -56.5 225t-214.5 90zM639 -29q-209 0 -334 120t-125 319q0 254 173 420.5t416.5 166.5t360.5 -144t74 -380l-8 -59h-842q-2 -133 84 -217t226 -84q90 0 168.5 33.5t119.5 95.5h187q-66 -125 -202 -198t-298 -73z
M930 1409h223l-33 -221h-223zM520 1409h223l-32 -221h-224z" />
    <glyph glyph-name="igrave" unicode="&#xec;" horiz-adv-x="542" 
d="M184 0l146 969h176l-148 -969h-174zM528 1151h-157l-160 299h195l126 -293z" />
    <glyph glyph-name="iacute" unicode="&#xed;" horiz-adv-x="542" 
d="M184 0l146 969h176l-148 -969h-174zM354 1151v6l215 293h195l-252 -299h-158z" />
    <glyph glyph-name="icircumflex" unicode="&#xee;" horiz-adv-x="542" 
d="M184 0l146 969h176l-148 -969h-174zM88 1137l311 299h176l222 -299h-170l-156 194l-215 -194h-168z" />
    <glyph glyph-name="idieresis" unicode="&#xef;" horiz-adv-x="542" 
d="M184 0l146 969h176l-148 -969h-174zM575 1409h224l-33 -221h-223zM166 1409h223l-33 -221h-223z" />
    <glyph glyph-name="eth" unicode="&#xf0;" horiz-adv-x="1271" 
d="M1090 522q0 133 -88 219t-244 86q-158 -1 -279 -117t-121 -268t86 -236q86 -85 242 -85q154 0 279 117t125 284zM1272 610q0 -285 -182 -462t-441 -177q-211 0 -340 121t-129 316q0 244 178 406t439 163q147 0 250 -92q-72 176 -205 295l-359 -119l-28 113l274 90
q-90 59 -233 116l190 70q125 -45 232 -123l202 68l27 -113l-129 -43q254 -258 254 -629z" />
    <glyph glyph-name="ntilde" unicode="&#xf1;" horiz-adv-x="1261" 
d="M844 997q195 0 297 -122.5t73 -317.5l-84 -557h-176l84 549q20 135 -47 216t-203 81t-241 -90t-127 -236l-80 -520h-174l147 969h174l-22 -154h4q66 84 168 133t207 49zM993 1180q-80 0 -162.5 56t-115.5 56q-70 0 -90 -80h-142q18 96 83 155.5t149 59.5t163.5 -55
t114.5 -55q72 0 86 82h142q-14 -96 -81 -157.5t-147 -61.5z" />
    <glyph glyph-name="ograve" unicode="&#xf2;" horiz-adv-x="1304" 
d="M689.5 121q158.5 0 281.5 118.5t123 297.5q0 137 -86 223t-245 86t-282 -119t-123 -295q0 -137 86.5 -224t245 -87zM649 -29q-211 0 -339 122t-128 321q0 252 180.5 417.5t442.5 165.5q209 0 337 -122.5t128 -319.5q0 -252 -180.5 -418t-440.5 -166zM911 1151h-157
l-160 299h194l127 -293z" />
    <glyph glyph-name="oacute" unicode="&#xf3;" horiz-adv-x="1304" 
d="M689.5 121q158.5 0 281.5 118.5t123 297.5q0 137 -86 223t-245 86t-282 -119t-123 -295q0 -137 86.5 -224t245 -87zM649 -29q-211 0 -339 122t-128 321q0 252 180.5 417.5t442.5 165.5q209 0 337 -122.5t128 -319.5q0 -252 -180.5 -418t-440.5 -166zM737 1151v6l215 293
h195l-252 -299h-158z" />
    <glyph glyph-name="ocircumflex" unicode="&#xf4;" horiz-adv-x="1304" 
d="M689.5 121q158.5 0 281.5 118.5t123 297.5q0 137 -86 223t-245 86t-282 -119t-123 -295q0 -137 86.5 -224t245 -87zM649 -29q-211 0 -339 122t-128 321q0 252 180.5 417.5t442.5 165.5q209 0 337 -122.5t128 -319.5q0 -252 -180.5 -418t-440.5 -166zM471 1137l311 299
h176l222 -299h-170l-156 194l-215 -194h-168z" />
    <glyph glyph-name="otilde" unicode="&#xf5;" horiz-adv-x="1304" 
d="M689.5 121q158.5 0 281.5 118.5t123 297.5q0 137 -86 223t-245 86t-282 -119t-123 -295q0 -137 86.5 -224t245 -87zM649 -29q-211 0 -339 122t-128 321q0 252 180.5 417.5t442.5 165.5q209 0 337 -122.5t128 -319.5q0 -252 -180.5 -418t-440.5 -166zM991 1180
q-80 0 -163 56t-115 56q-70 0 -90 -80h-142q18 96 83 155.5t149 59.5t163.5 -55t114.5 -55q72 0 86 82h142q-14 -96 -81 -157.5t-147 -61.5z" />
    <glyph glyph-name="odieresis" unicode="&#xf6;" horiz-adv-x="1304" 
d="M689.5 121q158.5 0 281.5 118.5t123 297.5q0 137 -86 223t-245 86t-282 -119t-123 -295q0 -137 86.5 -224t245 -87zM649 -29q-211 0 -339 122t-128 321q0 252 180.5 417.5t442.5 165.5q209 0 337 -122.5t128 -319.5q0 -252 -180.5 -418t-440.5 -166zM958 1409h224
l-33 -221h-223zM549 1409h223l-33 -221h-223z" />
    <glyph glyph-name="divide" unicode="&#xf7;" horiz-adv-x="1474" 
d="M686 389h223l-32 -211h-224zM324 588l22 153h1008l-23 -153h-1007zM803 1157h221l-31 -211h-223z" />
    <glyph glyph-name="oslash" unicode="&#xf8;" horiz-adv-x="1304" 
d="M1094 537q0 102 -47 174l-562 -537q76 -53 187 -53q176 0 299 119t123 297zM358 432q0 -100 48 -176l559 539q-76 51 -185 51q-176 0 -299 -119t-123 -295zM1270 555q0 -252 -180.5 -418t-440.5 -166q-172 0 -291 82l-94 -90l-84 76l96 92q-94 113 -94 283
q0 252 180.5 417.5t442.5 165.5q170 0 287 -82l94 91l86 -78l-94 -90q92 -117 92 -283z" />
    <glyph glyph-name="ugrave" unicode="&#xf9;" horiz-adv-x="1224" 
d="M607 -29q-214 0 -329.5 121t-84.5 318l83 559h175l-82 -549q-20 -135 53.5 -217t209.5 -82t233.5 82t117.5 217l82 549h176l-84 -559q-31 -197 -183.5 -318t-366.5 -121zM870 1151h-157l-160 299h195l126 -293z" />
    <glyph glyph-name="uacute" unicode="&#xfa;" horiz-adv-x="1224" 
d="M607 -29q-214 0 -329.5 121t-84.5 318l83 559h175l-82 -549q-20 -135 53.5 -217t209.5 -82t233.5 82t117.5 217l82 549h176l-84 -559q-31 -197 -183.5 -318t-366.5 -121zM696 1151v6l215 293h195l-252 -299h-158z" />
    <glyph glyph-name="ucircumflex" unicode="&#xfb;" horiz-adv-x="1224" 
d="M607 -29q-214 0 -329.5 121t-84.5 318l83 559h175l-82 -549q-20 -135 53.5 -217t209.5 -82t233.5 82t117.5 217l82 549h176l-84 -559q-31 -197 -183.5 -318t-366.5 -121zM430 1137l311 299h177l221 -299h-170l-156 194l-215 -194h-168z" />
    <glyph glyph-name="udieresis" unicode="&#xfc;" horiz-adv-x="1224" 
d="M607 -29q-214 0 -329.5 121t-84.5 318l83 559h175l-82 -549q-20 -135 53.5 -217t209.5 -82t233.5 82t117.5 217l82 549h176l-84 -559q-31 -197 -183.5 -318t-366.5 -121zM918 1409h223l-33 -221h-223zM508 1409h223l-33 -221h-223z" />
    <glyph glyph-name="yacute" unicode="&#xfd;" horiz-adv-x="1314" 
d="M1204 969h187l-891 -1436h-191l271 428l-363 1008h189l290 -815h4zM741 1151v6l215 293h195l-252 -299h-158z" />
    <glyph glyph-name="thorn" unicode="&#xfe;" horiz-adv-x="1325" 
d="M702 117q166 0 288 122t122 296q0 137 -83 227t-214 90q-166 0 -286 -123t-119 -299q0 -137 80 -225t212 -88zM862 997q188 0 308 -125t120 -317q0 -246 -176 -416t-407 -170q-111 0 -199 51t-137 144h-4l-97 -631h-176l309 2044h175l-115 -772h4q76 92 180 142t215 50z
" />
    <glyph glyph-name="ydieresis" unicode="&#xff;" horiz-adv-x="1314" 
d="M1204 969h187l-891 -1436h-191l271 428l-363 1008h189l290 -815h4zM1186 1409l-33 -221h-223l33 221h223zM776 1409l-33 -221h-223l33 221h223z" />
    <glyph glyph-name="Amacron" unicode="&#x100;" horiz-adv-x="1613" 
d="M586 555h612l-203 670h-4zM55 0l885 1434h170l446 -1434h-192l-121 395h-749l-242 -395h-197zM748 1608l20 135h604l-20 -135h-604z" />
    <glyph glyph-name="amacron" unicode="&#x101;" horiz-adv-x="1325" 
d="M672.5 117q148.5 0 268.5 122.5t120 297.5q0 137 -82 226t-211 89q-166 0 -288 -123t-122 -297q0 -137 83 -226t231.5 -89zM612 -29q-190 0 -310 126t-120 319q0 242 174 411.5t412 169.5q106 0 195.5 -49t138.5 -143h4l24 164h175l-146 -969h-176l25 162h-4
q-156 -191 -392 -191zM535 1192l20 137h606l-20 -137h-606z" />
    <glyph glyph-name="Abreve" unicode="&#x102;" horiz-adv-x="1613" 
d="M586 555h612l-203 670h-4zM55 0l885 1434h170l446 -1434h-192l-121 395h-749l-242 -395h-197zM1048.5 1593q-145.5 0 -217 82t-55.5 211h131q-6 -80 34 -130t125 -50t138.5 49t73.5 131h129q-23 -129 -118 -211t-240.5 -82z" />
    <glyph glyph-name="abreve" unicode="&#x103;" horiz-adv-x="1325" 
d="M672.5 117q148.5 0 268.5 122.5t120 297.5q0 137 -82 226t-211 89q-166 0 -288 -123t-122 -297q0 -137 83 -226t231.5 -89zM612 -29q-190 0 -310 126t-120 319q0 242 174 411.5t412 169.5q106 0 195.5 -49t138.5 -143h4l24 164h175l-146 -969h-176l25 162h-4
q-156 -191 -392 -191zM827.5 1128q-145.5 0 -216 82t-54.5 211h131q-6 -82 33 -131t124 -49t140.5 49t73.5 131h129q-23 -129 -119 -211t-241.5 -82z" />
    <glyph glyph-name="Aogonek" unicode="&#x104;" horiz-adv-x="1613" 
d="M586 555h612l-203 670h-4zM1481 -248q27 0 80 8l-2 -125q-57 -16 -147 -16t-161 50t-71 136q0 150 174 226l-111 364h-749l-242 -395h-197l885 1434h170l446 -1434h-24q-197 -47 -197 -156q1 -92 146 -92z" />
    <glyph glyph-name="aogonek" unicode="&#x105;" horiz-adv-x="1325" 
d="M672.5 117q148.5 0 268.5 122.5t120 297.5q0 137 -82 226t-211 89q-166 0 -288 -123t-122 -297q0 -137 83 -226t231.5 -89zM963 -156q0 -92 145 -92q27 0 80 8l-2 -125q-57 -16 -146.5 -16t-161 50t-71.5 136q0 150 180 228l21 129h-4q-156 -190 -392 -191
q-190 0 -310 126t-120 319q0 242 174 411.5t412 169.5q106 0 195.5 -49t138.5 -143h4l24 164h175l-146 -969q-196 -47 -196 -156z" />
    <glyph glyph-name="Cacute" unicode="&#x106;" horiz-adv-x="1730" 
d="M899 137q211 0 363.5 98.5t228.5 270.5h188q-88 -244 -305 -388.5t-500.5 -144.5t-466 176.5t-182.5 462.5q0 367 256 608.5t637 241.5q264 0 437.5 -144t187.5 -386h-189q-23 170 -144.5 268t-315.5 98q-289 0 -484.5 -189t-195.5 -476q0 -221 137 -358.5t348 -137.5z
M1018 1581l-4 6l217 295h194l-249 -301h-158z" />
    <glyph glyph-name="cacute" unicode="&#x107;" horiz-adv-x="1234" 
d="M626.5 -29q-198.5 0 -321.5 120t-123 317q0 256 174 422.5t439 166.5q186 0 302.5 -96t119.5 -258h-177q-8 90 -78.5 147.5t-189.5 57.5q-178 0 -296 -119t-118 -301q0 -139 82 -223t211.5 -84t217 56t124.5 147h176q-53 -162 -198.5 -257.5t-344 -95.5zM698 1151v6
l215 293h195l-252 -299h-158z" />
    <glyph glyph-name="Cdotaccent" unicode="&#x10a;" horiz-adv-x="1730" 
d="M899 137q211 0 363.5 98.5t228.5 270.5h188q-88 -244 -305 -388.5t-500.5 -144.5t-466 176.5t-182.5 462.5q0 367 256 608.5t637 241.5q264 0 437.5 -144t187.5 -386h-189q-23 170 -144.5 268t-315.5 98q-289 0 -484.5 -189t-195.5 -476q0 -221 137 -358.5t348 -137.5z
M1028 1825h223l-32 -219h-226z" />
    <glyph glyph-name="cdotaccent" unicode="&#x10b;" horiz-adv-x="1234" 
d="M626.5 -29q-198.5 0 -321.5 120t-123 317q0 256 174 422.5t439 166.5q186 0 302.5 -96t119.5 -258h-177q-8 90 -78.5 147.5t-189.5 57.5q-178 0 -296 -119t-118 -301q0 -139 82 -223t211.5 -84t217 56t124.5 147h176q-53 -162 -198.5 -257.5t-344 -95.5zM715 1409h223
l-33 -221h-223z" />
    <glyph glyph-name="Ccaron" unicode="&#x10c;" horiz-adv-x="1730" 
d="M899 137q211 0 363.5 98.5t228.5 270.5h188q-88 -244 -305 -388.5t-500.5 -144.5t-466 176.5t-182.5 462.5q0 367 256 608.5t637 241.5q264 0 437.5 -144t187.5 -386h-189q-23 170 -144.5 268t-315.5 98q-289 0 -484.5 -189t-195.5 -476q0 -221 137 -358.5t348 -137.5z
M1016 1579l-221 301h168l155 -194l215 194h168l-311 -301h-174z" />
    <glyph glyph-name="ccaron" unicode="&#x10d;" horiz-adv-x="1234" 
d="M626.5 -29q-198.5 0 -321.5 120t-123 317q0 256 174 422.5t439 166.5q186 0 302.5 -96t119.5 -258h-177q-8 90 -78.5 147.5t-189.5 57.5q-178 0 -296 -119t-118 -301q0 -139 82 -223t211.5 -84t217 56t124.5 147h176q-53 -162 -198.5 -257.5t-344 -95.5zM698 1137
l-221 299h168l156 -195l215 195h168l-310 -299h-176z" />
    <glyph glyph-name="Dcaron" unicode="&#x10e;" horiz-adv-x="1615" 
d="M707 158q311 0 510.5 178t199.5 461q0 217 -146.5 348t-396.5 131h-315l-170 -1118h318zM918 1434q317 0 502.5 -167t185.5 -448q0 -362 -254 -590.5t-652 -228.5h-516l217 1434h517zM961 1579l-222 301h168l156 -194l215 194h168l-311 -301h-174z" />
    <glyph glyph-name="dcaron" unicode="&#x10f;" horiz-adv-x="1325" 
d="M672.5 117q148.5 0 268.5 122.5t120 297.5q0 137 -82 226t-211 89q-166 0 -288 -123t-122 -297q0 -137 83 -226t231.5 -89zM1524 1190l75 387h181l-121 -387h-135zM768 997q113 0 202 -52t132 -140h4l115 772h176l-238 -1577h-176l25 162h-4q-160 -190 -392 -191
q-190 0 -310 126t-120 319q0 240 174 410.5t412 170.5z" />
    <glyph glyph-name="Dcroat" unicode="&#x110;" horiz-adv-x="1615" 
d="M707 158q311 0 510.5 178t199.5 461q0 217 -146.5 348t-396.5 131h-315l-74 -479h369l-23 -158h-368l-74 -481h318zM918 1434q317 0 502.5 -167t185.5 -448q0 -362 -254 -590.5t-652 -228.5h-516l97 639h-142l23 158h143l96 637h517z" />
    <glyph glyph-name="dcroat" unicode="&#x111;" horiz-adv-x="1447" 
d="M672.5 117q148.5 0 268.5 122.5t120 297.5q0 137 -82 226t-211 89q-166 0 -288 -123t-122 -297q0 -137 83 -226t231.5 -89zM182 416q0 240 174 410.5t412 170.5q113 0 202 -52t132 -140h4l53 358h-407l22 140h406l41 274h176l-41 -274h88l-23 -140h-86l-176 -1163h-176
l25 162h-4q-160 -190 -392 -191q-190 0 -310 126t-120 319z" />
    <glyph glyph-name="Emacron" unicode="&#x112;" horiz-adv-x="1339" 
d="M1415 1276h-856l-74 -485h770l-24 -160h-770l-72 -473h856l-22 -158h-1039l217 1434h1039zM647 1608l21 135h604l-21 -135h-604z" />
    <glyph glyph-name="emacron" unicode="&#x113;" horiz-adv-x="1249" 
d="M767 856q-142 0 -253.5 -88t-144.5 -227h669q16 135 -56.5 225t-214.5 90zM639 -29q-209 0 -334 120t-125 319q0 254 173 420.5t416.5 166.5t360.5 -144t74 -380l-8 -59h-842q-2 -133 84 -217t226 -84q90 0 168.5 33.5t119.5 95.5h187q-66 -125 -202 -198t-298 -73z
M502 1192l20 137h606l-20 -137h-606z" />
    <glyph glyph-name="Edotaccent" unicode="&#x116;" horiz-adv-x="1339" 
d="M1415 1276h-856l-74 -485h770l-24 -160h-770l-72 -473h856l-22 -158h-1039l217 1434h1039zM870 1825h224l-33 -219h-225z" />
    <glyph glyph-name="edotaccent" unicode="&#x117;" horiz-adv-x="1249" 
d="M767 856q-142 0 -253.5 -88t-144.5 -227h669q16 135 -56.5 225t-214.5 90zM639 -29q-209 0 -334 120t-125 319q0 254 173 420.5t416.5 166.5t360.5 -144t74 -380l-8 -59h-842q-2 -133 84 -217t226 -84q90 0 168.5 33.5t119.5 95.5h187q-66 -125 -202 -198t-298 -73z
M725 1409h223l-33 -221h-223z" />
    <glyph glyph-name="Eogonek" unicode="&#x118;" horiz-adv-x="1339" 
d="M948 -156q0 -92 146 -92q27 0 80 8l-3 -125q-57 -16 -146 -16t-160.5 50t-71.5 136q0 123 116 195h-725l217 1434h1039l-25 -158h-856l-74 -485h770l-24 -160h-770l-72 -473h856l-22 -158h-78q-197 -47 -197 -156z" />
    <glyph glyph-name="eogonek" unicode="&#x119;" horiz-adv-x="1249" 
d="M767 856q-142 0 -254 -88t-144 -227h669q16 135 -56.5 225t-214.5 90zM769.5 997q243.5 0 360.5 -144t74 -380l-8 -59h-842q-2 -133 84 -217t226 -84q90 0 168.5 33.5t119.5 95.5h187q-88 -162 -283 -234h-4q-8 -4 -57 -18q-135 -49 -135.5 -139t145.5 -91q27 0 80 9
l-2 -125q-57 -16 -146.5 -16.5t-161 50t-71.5 141.5t71 156q-182 18 -288.5 135t-106.5 300q0 254 173 420.5t416.5 166.5z" />
    <glyph glyph-name="Ecaron" unicode="&#x11a;" horiz-adv-x="1339" 
d="M1415 1276h-856l-74 -485h770l-24 -160h-770l-72 -473h856l-22 -158h-1039l217 1434h1039zM858 1579l-221 301h168l156 -194l215 194h167l-311 -301h-174z" />
    <glyph glyph-name="ecaron" unicode="&#x11b;" horiz-adv-x="1249" 
d="M767 856q-142 0 -253.5 -88t-144.5 -227h669q16 135 -56.5 225t-214.5 90zM639 -29q-209 0 -334 120t-125 319q0 254 173 420.5t416.5 166.5t360.5 -144t74 -380l-8 -59h-842q-2 -133 84 -217t226 -84q90 0 168.5 33.5t119.5 95.5h187q-66 -125 -202 -198t-298 -73z
M709 1137l-222 299h168l156 -195l215 195h168l-309 -299h-176z" />
    <glyph glyph-name="Gbreve" unicode="&#x11e;" horiz-adv-x="1742" 
d="M902.5 -29q-316.5 0 -497 176.5t-180.5 462.5q0 367 257 609.5t634 242.5q270 0 441.5 -136t195.5 -355h-192q-31 156 -158 241.5t-309 85.5q-285 0 -482.5 -190t-197.5 -473q0 -221 136 -359.5t358 -138.5t383 126t212 319h-557l23 157h753q-49 -352 -276 -560
t-543.5 -208zM1124.5 1593q-145.5 0 -217 82t-55.5 211h131q-6 -80 34 -130t125 -50t138.5 49t73.5 131h129q-23 -129 -118 -211t-240.5 -82z" />
    <glyph glyph-name="gbreve" unicode="&#x11f;" horiz-adv-x="1323" 
d="M670.5 117q148.5 0 269.5 122.5t121 297.5q0 137 -82 226t-211 89q-168 0 -290 -123t-122 -297q0 -137 83 -226t231.5 -89zM588 -496q-219 0 -337 99.5t-122 263.5h178q8 -100 86 -156.5t217.5 -56.5t242.5 87t126 232l29 189h-7q-74 -90 -177 -140.5t-212 -50.5
q-193 0 -312.5 125t-119.5 320q0 242 174 411.5t414 169.5q109 0 196 -50t136 -140h4l26 162h175l-152 -996q-31 -211 -188.5 -340t-376.5 -129zM821.5 1128q-145.5 0 -216 82t-54.5 211h131q-6 -82 33 -131t124 -49t140.5 49t73.5 131h129q-23 -129 -119 -211t-241.5 -82z
" />
    <glyph glyph-name="Gdotaccent" unicode="&#x120;" horiz-adv-x="1742" 
d="M902.5 -29q-316.5 0 -497 176.5t-180.5 462.5q0 367 257 609.5t634 242.5q270 0 441.5 -136t195.5 -355h-192q-31 156 -158 241.5t-309 85.5q-285 0 -482.5 -190t-197.5 -473q0 -221 136 -359.5t358 -138.5t383 126t212 319h-557l23 157h753q-49 -352 -276 -560
t-543.5 -208zM1047 1825h223l-33 -219h-225z" />
    <glyph glyph-name="gdotaccent" unicode="&#x121;" horiz-adv-x="1323" 
d="M670.5 117q148.5 0 269.5 122.5t121 297.5q0 137 -82 226t-211 89q-168 0 -290 -123t-122 -297q0 -137 83 -226t231.5 -89zM588 -496q-219 0 -337 99.5t-122 263.5h178q8 -100 86 -156.5t217.5 -56.5t242.5 87t126 232l29 189h-7q-74 -90 -177 -140.5t-212 -50.5
q-193 0 -312.5 125t-119.5 320q0 242 174 411.5t414 169.5q109 0 196 -50t136 -140h4l26 162h175l-152 -996q-31 -211 -188.5 -340t-376.5 -129zM752 1409h223l-33 -221h-223z" />
    <glyph glyph-name="Gcommaaccent" unicode="&#x122;" horiz-adv-x="1742" 
d="M762 -125h219l-16 -113q-18 -127 -77 -186t-206 -94l-10 84q88 31 117.5 56.5t39.5 82.5h-94zM902.5 -29q-316.5 0 -497 176.5t-180.5 462.5q0 367 257 609.5t634 242.5q270 0 441.5 -136t195.5 -355h-192q-31 156 -158 241.5t-309 85.5q-285 0 -482.5 -190t-197.5 -473
q0 -221 136 -359.5t358 -138.5t383 126t212 319h-557l23 157h753q-49 -352 -276 -560t-543.5 -208z" />
    <glyph glyph-name="gcommaaccent" unicode="&#x123;" horiz-adv-x="1331" 
d="M670.5 117q148.5 0 269.5 122.5t121 297.5q0 137 -82 226t-211 89q-168 0 -290 -123t-122 -297q0 -137 83 -226t231.5 -89zM588 -496q-219 0 -337 99.5t-122 263.5h178q8 -100 86 -156.5t217.5 -56.5t242.5 87t126 232l29 189h-7q-74 -90 -177 -140.5t-212 -50.5
q-193 0 -312.5 125t-119.5 320q0 242 174 411.5t414 169.5q109 0 196 -50t136 -140h4l26 162h175l-152 -996q-31 -211 -188.5 -340t-376.5 -129zM940 1188h-219l16 112q18 127 76.5 186.5t206.5 94.5l10 -84q-88 -31 -117.5 -56.5t-40.5 -82.5h95z" />
    <glyph glyph-name="Hbar" unicode="&#x126;" horiz-adv-x="1583" 
d="M483 788h854l39 250h-854zM1436 1434h182l-217 -1434h-182l96 629h-854l-96 -629h-181l217 1434h181l-39 -252h854z" />
    <glyph glyph-name="hbar" unicode="&#x127;" horiz-adv-x="1415" 
d="M846 997q193 0 295 -122.5t73 -317.5l-84 -557h-176l84 549q20 135 -47 216t-203 81t-241 -92t-127 -234l-80 -520h-174l180 1192h-108l18 121h109l38 264h175l-39 -264h364l-18 -121h-365l-57 -383h4q156 188 379 188z" />
    <glyph glyph-name="Itilde" unicode="&#x128;" horiz-adv-x="548" 
d="M184 0l217 1434h181l-217 -1434h-181zM681 1628q-81 0 -163 57.5t-115 57.5q-70 0 -90 -82h-141q18 96 82.5 155.5t149 59.5t163 -55.5t115.5 -55.5q70 0 84 82h141q-12 -94 -78.5 -156.5t-147.5 -62.5z" />
    <glyph glyph-name="itilde" unicode="&#x129;" horiz-adv-x="542" 
d="M184 0l146 969h176l-148 -969h-174zM608 1180q-80 0 -163 56t-115 56q-70 0 -90 -80h-142q18 96 83 155.5t149 59.5t163.5 -55t114.5 -55q72 0 86 82h142q-14 -96 -81 -157.5t-147 -61.5z" />
    <glyph glyph-name="Imacron" unicode="&#x12a;" horiz-adv-x="548" 
d="M184 0l217 1434h181l-217 -1434h-181zM217 1608l21 135h604l-21 -135h-604z" />
    <glyph glyph-name="imacron" unicode="&#x12b;" horiz-adv-x="542" 
d="M184 0l146 969h176l-148 -969h-174zM147 1192l21 137h606l-20 -137h-607z" />
    <glyph glyph-name="Iogonek" unicode="&#x12e;" horiz-adv-x="548" 
d="M164 -156q0 -92 145 -92q27 0 80 8l-2 -125q-57 -16 -147 -16t-161 50t-71 136q0 150 180 228l213 1401h181l-217 -1434h-5q-196 -47 -196 -156z" />
    <glyph glyph-name="iogonek" unicode="&#x12f;" horiz-adv-x="542" 
d="M307 -248q27 0 80 8l-2 -125q-57 -16 -146.5 -16t-161 50t-71.5 136q0 150 184 230l140 934h176l-148 -969q-197 -47 -196 -156q0 -92 145 -92zM418 1577h182l-37 -242h-182z" />
    <glyph glyph-name="Idotaccent" unicode="&#x130;" horiz-adv-x="548" 
d="M184 0l217 1434h181l-217 -1434h-181zM440 1825h224l-33 -219h-225z" />
    <glyph glyph-name="dotlessi" unicode="&#x131;" horiz-adv-x="542" 
d="M184 0l146 969h176l-148 -969h-174z" />
    <glyph glyph-name="IJ" unicode="&#x132;" horiz-adv-x="1828" 
d="M1135.5 -29q-234.5 0 -362.5 117t-120 324h181q4 -129 84.5 -205t238.5 -76t266.5 105.5t135.5 275.5l116 764h-698l24 158h881l-139 -928q-39 -250 -206 -392.5t-401.5 -142.5zM184 0l217 1434h181l-217 -1434h-181z" />
    <glyph glyph-name="ij" unicode="&#x133;" horiz-adv-x="1085" 
d="M457 -496h-35l22 144l15 2q117 6 174 57t76 182l163 1080h177l-160 -1061q-33 -213 -136.5 -308.5t-295.5 -95.5zM184 0l146 969h176l-148 -969h-174zM924 1335l37 242h182l-37 -242h-182zM381 1335l37 242h182l-37 -242h-182z" />
    <glyph glyph-name="Kcommaaccent" unicode="&#x136;" horiz-adv-x="1509" 
d="M594 -295l27 170h219l-17 -113q-18 -127 -76.5 -186t-205.5 -94l-11 84q88 31 118 56.5t40 82.5h-94zM1602 1434l-902 -717l764 -717h-245l-748 702l-106 -702h-181l217 1434h181l-109 -717l899 717h230z" />
    <glyph glyph-name="kcommaaccent" unicode="&#x137;" horiz-adv-x="1224" 
d="M465 -125h219l-16 -113q-18 -127 -77 -186t-206 -94l-10 84q88 31 117.5 56.5t39.5 82.5h-94zM166 0l237 1577h175l-164 -1094l618 486h217l-618 -486l557 -483h-238l-538 469l-72 -469h-174z" />
    <glyph glyph-name="kgreenlandic" unicode="&#x138;" horiz-adv-x="1222" 
d="M166 0l147 969h174l-75 -486l620 486h217l-618 -486l557 -483h-240l-536 469l-72 -469h-174z" />
    <glyph glyph-name="Lacute" unicode="&#x139;" horiz-adv-x="1239" 
d="M389 154h809l-22 -154h-992l217 1434h181zM430 1581l-4 6l217 295h195l-250 -301h-158z" />
    <glyph glyph-name="lacute" unicode="&#x13a;" horiz-adv-x="507" 
d="M166 0l237 1577h175l-238 -1577h-174zM428 1724l-4 7l217 294h195l-250 -301h-158z" />
    <glyph glyph-name="Lcommaaccent" unicode="&#x13b;" horiz-adv-x="1239" 
d="M516 -125h219l-16 -113q-18 -127 -76.5 -186t-206.5 -94l-10 84q88 31 117.5 56.5t40.5 82.5h-95zM389 154h809l-22 -154h-992l217 1434h181z" />
    <glyph glyph-name="lcommaaccent" unicode="&#x13c;" horiz-adv-x="507" 
d="M125 -125h219l-16 -113q-18 -127 -76.5 -186t-206.5 -94l-10 84q88 31 117.5 56.5t40.5 82.5h-95zM166 0l237 1577h175l-238 -1577h-174z" />
    <glyph glyph-name="Lcaron" unicode="&#x13d;" horiz-adv-x="1239" 
d="M850 1047l76 387h180l-121 -387h-135zM389 154h809l-22 -154h-992l217 1434h181z" />
    <glyph glyph-name="lcaron" unicode="&#x13e;" horiz-adv-x="507" 
d="M684 1190l76 387h180l-121 -387h-135zM166 0l237 1577h175l-238 -1577h-174z" />
    <glyph glyph-name="Ldot" unicode="&#x13f;" horiz-adv-x="1239" 
d="M827 821h222l-33 -211h-221zM389 154h809l-22 -154h-992l217 1434h181z" />
    <glyph glyph-name="ldot" unicode="&#x140;" horiz-adv-x="507" 
d="M557 659h221l-33 -210h-221zM166 0l237 1577h175l-238 -1577h-174z" />
    <glyph glyph-name="Lslash" unicode="&#x141;" horiz-adv-x="1239" 
d="M389 154h809l-22 -154h-992l80 530l-164 -69l21 147l166 70l114 756h181l-103 -674l373 155l-23 -149l-370 -156z" />
    <glyph glyph-name="lslash" unicode="&#x142;" horiz-adv-x="507" 
d="M639 948l-27 -172l-166 -69l-106 -707h-174l94 627l-162 -68l27 170l162 70l116 778h175l-105 -700z" />
    <glyph glyph-name="Nacute" unicode="&#x143;" horiz-adv-x="1632" 
d="M1485 1434h182l-217 -1434h-152l-763 1122l-170 -1122h-181l217 1434h146l766 -1137zM971 1581l-4 6l217 295h194l-250 -301h-157z" />
    <glyph glyph-name="nacute" unicode="&#x144;" horiz-adv-x="1261" 
d="M844 997q195 0 297 -122.5t73 -317.5l-84 -557h-176l84 549q20 135 -47 216t-203 81t-241 -90t-127 -236l-80 -520h-174l147 969h174l-22 -154h4q66 84 168 133t207 49zM739 1151v6l215 293h195l-252 -299h-158z" />
    <glyph glyph-name="Ncommaaccent" unicode="&#x145;" horiz-adv-x="1632" 
d="M705 -125h219l-17 -113q-18 -127 -76.5 -186t-205.5 -94l-11 84q88 31 118 56.5t40 82.5h-94zM1485 1434h182l-217 -1434h-152l-763 1122l-170 -1122h-181l217 1434h146l766 -1137z" />
    <glyph glyph-name="ncommaaccent" unicode="&#x146;" horiz-adv-x="1261" 
d="M526 -125h219l-16 -113q-18 -127 -76.5 -186t-206.5 -94l-10 84q88 31 118 56.5t40 82.5h-94zM844 997q195 0 297 -122.5t73 -317.5l-84 -557h-176l84 549q20 135 -47 216t-203 81t-241 -90t-127 -236l-80 -520h-174l147 969h174l-22 -154h4q66 84 168 133t207 49z" />
    <glyph glyph-name="Ncaron" unicode="&#x147;" horiz-adv-x="1632" 
d="M1485 1434h182l-217 -1434h-152l-763 1122l-170 -1122h-181l217 1434h146l766 -1137zM969 1579l-221 301h167l156 -194l215 194h168l-311 -301h-174z" />
    <glyph glyph-name="ncaron" unicode="&#x148;" horiz-adv-x="1261" 
d="M844 997q195 0 297 -122.5t73 -317.5l-84 -557h-176l84 549q20 135 -47 216t-203 81t-241 -90t-127 -236l-80 -520h-174l147 969h174l-22 -154h4q66 84 168 133t207 49zM739 1137l-221 299h168l156 -195l215 195h168l-310 -299h-176z" />
    <glyph glyph-name="Eng" unicode="&#x14a;" horiz-adv-x="1632" 
d="M834 -496q-127 0 -236 41l47 148q94 -29 195 -29q176 0 288 98t144 277l-737 1083l-170 -1122h-181l217 1434h146l764 -1135l10 63l2 -2l162 1074h182l-213 -1395q-80 -535 -620 -535z" />
    <glyph glyph-name="eng" unicode="&#x14b;" horiz-adv-x="1261" 
d="M788 846q-136 0 -240 -90t-128 -236l-80 -520h-174l147 969h174l-22 -154h4q66 84 168 133t207 49q195 0 297 -123t73 -317l-98 -649q-33 -213 -135 -308t-295 -96h-35l21 144l16 2q117 6 174 57t76 182l100 660q20 135 -47 216t-203 81z" />
    <glyph glyph-name="Omacron" unicode="&#x14c;" horiz-adv-x="1794" 
d="M918 133q283 0 481 190.5t198 475.5q0 223 -139 362t-364 139q-283 0 -482.5 -191t-199.5 -474q0 -221 140.5 -361.5t365.5 -140.5zM893 -29q-299 0 -483.5 180.5t-184.5 462.5q0 358 261.5 603t631.5 245q299 0 482.5 -179t183.5 -464q0 -358 -260 -603t-631 -245z
M838 1608l20 135h604l-20 -135h-604z" />
    <glyph glyph-name="omacron" unicode="&#x14d;" horiz-adv-x="1304" 
d="M689.5 121q158.5 0 281.5 118.5t123 297.5q0 137 -86 223t-245 86t-282 -119t-123 -295q0 -137 86.5 -224t245 -87zM649 -29q-211 0 -339 122t-128 321q0 252 180.5 417.5t442.5 165.5q209 0 337 -122.5t128 -319.5q0 -252 -180.5 -418t-440.5 -166zM530 1192l21 137h606
l-20 -137h-607z" />
    <glyph glyph-name="Ohungarumlaut" unicode="&#x150;" horiz-adv-x="1794" 
d="M918 133q283 0 481 190.5t198 475.5q0 223 -139 362t-364 139q-283 0 -482.5 -191t-199.5 -474q0 -221 140.5 -361.5t365.5 -140.5zM893 -29q-299 0 -483.5 180.5t-184.5 462.5q0 358 261.5 603t631.5 245q299 0 482.5 -179t183.5 -464q0 -358 -260 -603t-631 -245z
M1217 1604l-3 6l193 293h184l-229 -299h-145zM918 1604l-3 6l193 293h184l-229 -299h-145z" />
    <glyph glyph-name="ohungarumlaut" unicode="&#x151;" horiz-adv-x="1304" 
d="M689.5 121q158.5 0 281.5 118.5t123 297.5q0 137 -86 223t-245 86t-282 -119t-123 -295q0 -137 86.5 -224t245 -87zM649 -29q-211 0 -339 122t-128 321q0 252 180.5 417.5t442.5 165.5q209 0 337 -122.5t128 -319.5q0 -252 -180.5 -418t-440.5 -166zM905 1151v6l193 293
h182l-229 -299h-146zM606 1151v6l193 293h182l-229 -299h-146z" />
    <glyph glyph-name="OE" unicode="&#x152;" horiz-adv-x="2189" 
d="M940 158h117l168 1118h-115q-311 0 -518 -179t-207 -454q-1 -217 151 -351t404 -134zM899 0q-324 0 -514 170t-190 448q0 356 262 586t659 230h1172l-25 -158h-856l-74 -485h770l-24 -160h-770l-72 -473h858l-24 -158h-1172z" />
    <glyph glyph-name="oe" unicode="&#x153;" horiz-adv-x="2150" 
d="M358 432q0 -137 86 -224t231 -87q144 0 259 88t147 227q4 51 13 99v2q0 137 -86 223t-245 86t-282 -119t-123 -295zM1667 856q-143 0 -253 -88t-144 -227h667q18 133 -54 224q-73 91 -216 91zM1686 997q227 0 345 -144t74 -380l-10 -59h-842q0 -133 86 -217t226 -84
q90 -1 169 33t119 96h187q-66 -125 -202 -198t-288 -73q-152 1 -256 57t-159 156q-86 -100 -213 -156t-273 -57q-211 0 -339 122t-128 321q0 252 180 418t443 165q137 0 243 -55t164 -156q175 211 474 211z" />
    <glyph glyph-name="Racute" unicode="&#x154;" horiz-adv-x="1464" 
d="M842 733q207 0 326.5 82t119.5 223q0 113 -92 175.5t-260 62.5h-377l-82 -543h365zM1468 1052q0 -179 -131 -304t-354 -160l412 -588h-226l-399 575h-317l-88 -575h-181l217 1434h576q229 0 360 -101.5t131 -280.5zM1034 1581h-157l-5 6l218 295h194z" />
    <glyph glyph-name="racute" unicode="&#x155;" horiz-adv-x="788" 
d="M166 0l147 969h174l-24 -168h4q121 197 321 196q49 0 99 -12l-25 -160q-45 14 -94 15q-139 0 -235.5 -101.5t-122.5 -275.5l-70 -463h-174zM492 1151v6l215 293h194l-252 -299h-157z" />
    <glyph glyph-name="Rcommaaccent" unicode="&#x156;" horiz-adv-x="1464" 
d="M567 -295l27 170h219l-16 -113q-18 -127 -76.5 -186t-206.5 -94l-10 84q88 31 117.5 56.5t40.5 82.5h-95zM842 733q207 0 326.5 82t119.5 223q0 113 -92 175.5t-260 62.5h-377l-82 -543h365zM1468 1052q0 -179 -131 -304t-354 -160l412 -588h-226l-399 575h-317l-88 -575
h-181l217 1434h576q229 0 360 -101.5t131 -280.5z" />
    <glyph glyph-name="rcommaaccent" unicode="&#x157;" horiz-adv-x="788" 
d="M127 -125h219l-16 -113q-18 -127 -76.5 -186t-206.5 -94l-10 84q88 31 117.5 56.5t40.5 82.5h-95zM166 0l147 969h174l-24 -168h4q121 197 321 196q49 0 99 -12l-25 -160q-45 14 -94 15q-139 0 -235.5 -101.5t-122.5 -275.5l-70 -463h-174z" />
    <glyph glyph-name="Rcaron" unicode="&#x158;" horiz-adv-x="1464" 
d="M842 733q207 0 326.5 82t119.5 223q0 113 -92 175.5t-260 62.5h-377l-82 -543h365zM1468 1052q0 -179 -131 -304t-354 -160l412 -588h-226l-399 575h-317l-88 -575h-181l217 1434h576q229 0 360 -101.5t131 -280.5zM1049 1579h-175l-221 301h168l156 -194l215 194h168z
" />
    <glyph glyph-name="rcaron" unicode="&#x159;" horiz-adv-x="788" 
d="M166 0l147 969h174l-24 -168h4q121 197 321 196q49 0 99 -12l-25 -160q-45 14 -94 15q-139 0 -235.5 -101.5t-122.5 -275.5l-70 -463h-174zM492 1137l-222 299h168l156 -195l215 195h168l-309 -299h-176z" />
    <glyph glyph-name="Sacute" unicode="&#x15a;" horiz-adv-x="1421" 
d="M734 -29q-271 0 -416.5 127t-135.5 351h180q4 -152 105.5 -238t289 -86t298 79t110.5 206q0 84 -62.5 134t-154.5 67.5t-201.5 42t-201.5 52t-154.5 102.5t-62.5 191q0 203 164.5 333t421 130t395.5 -110.5t135 -304.5h-182q-6 125 -95.5 196.5t-258.5 71.5t-277.5 -80
t-108.5 -189.5t86 -160.5t208 -72.5t245 -48.5t209 -103.5t86 -211.5q0 -213 -175.5 -345.5t-446.5 -132.5zM864 1581l-4 6l217 295h195l-250 -301h-158z" />
    <glyph glyph-name="sacute" unicode="&#x15b;" horiz-adv-x="1118" 
d="M568 -29q-208 0 -321.5 90.5t-103.5 241.5h166q2 -94 80 -145.5t204 -51.5t201.5 48.5t75.5 118t-64.5 102.5t-155.5 45t-183 29.5t-156.5 71.5t-64.5 149q0 147 128 237t317 90t300 -83t103 -224h-166q0 80 -74 128t-181.5 48t-179 -44t-71.5 -111t63.5 -99t154.5 -44.5
t182 -31t154.5 -73.5t63.5 -154q0 -154 -132 -246t-340 -92zM645 1151v6l215 293h195l-252 -299h-158z" />
    <glyph glyph-name="Scedilla" unicode="&#x15e;" horiz-adv-x="1421" 
d="M908 1315q-169 0 -277.5 -80t-108.5 -189.5t86 -160.5t208 -72.5t245 -48.5t209 -103.5t86 -211.5q0 -203 -161 -334t-415 -142l-157 -301h-154l141 308q-213 27 -324.5 149.5t-103.5 319.5h180q4 -152 105.5 -238t289 -86t298 79t110.5 206q0 84 -62.5 134t-154.5 67.5
t-201.5 42t-201.5 52t-154.5 102.5t-62.5 191q0 203 164.5 333t421 130t395.5 -110.5t135 -304.5h-182q-6 125 -95.5 196.5t-258.5 71.5z" />
    <glyph glyph-name="scedilla" unicode="&#x15f;" horiz-adv-x="1118" 
d="M672.5 866q-107.5 0 -179 -44t-71.5 -111t63.5 -99t154.5 -44.5t182 -31t154.5 -73.5t63.5 -154q0 -141 -112.5 -231t-296.5 -105l-158 -301h-154l142 305q-158 23 -242 109t-76 217h166q2 -94 80 -145.5t204 -51.5t201.5 48.5t75.5 118t-64.5 102.5t-155.5 45t-183 29.5
t-156.5 71.5t-64.5 149q0 147 128 237t317 90t300 -83t103 -224h-166q0 80 -74 128t-181.5 48z" />
    <glyph glyph-name="Scaron" unicode="&#x160;" horiz-adv-x="1421" 
d="M734 -29q-271 0 -416.5 127t-135.5 351h180q4 -152 105.5 -238t289 -86t298 79t110.5 206q0 84 -62.5 134t-154.5 67.5t-201.5 42t-201.5 52t-154.5 102.5t-62.5 191q0 203 164.5 333t421 130t395.5 -110.5t135 -304.5h-182q-6 125 -95.5 196.5t-258.5 71.5t-277.5 -80
t-108.5 -189.5t86 -160.5t208 -72.5t245 -48.5t209 -103.5t86 -211.5q0 -213 -175.5 -345.5t-446.5 -132.5zM862 1579l-221 301h168l156 -194l215 194h168l-312 -301h-174z" />
    <glyph glyph-name="scaron" unicode="&#x161;" horiz-adv-x="1118" 
d="M568 -29q-208 0 -321.5 90.5t-103.5 241.5h166q2 -94 80 -145.5t204 -51.5t201.5 48.5t75.5 118t-64.5 102.5t-155.5 45t-183 29.5t-156.5 71.5t-64.5 149q0 147 128 237t317 90t300 -83t103 -224h-166q0 80 -74 128t-181.5 48t-179 -44t-71.5 -111t63.5 -99t154.5 -44.5
t182 -31t154.5 -73.5t63.5 -154q0 -154 -132 -246t-340 -92zM645 1137l-221 299h168l156 -195l215 195h167l-309 -299h-176z" />
    <glyph glyph-name="uni0162" unicode="&#x162;" horiz-adv-x="1384" 
d="M279 1434h1261l-24 -158h-541l-187 -1241l-2 -2l-4 -33h-12l-172 -328h-154l160 346l191 1258h-541z" />
    <glyph glyph-name="uni0163" unicode="&#x163;" horiz-adv-x="851" 
d="M645 125q31 0 121 8l-23 -145q-68 -16 -145 -17h-16l-158 -299h-154l156 336q-170 88 -129 338l72 481h-238l23 142h237l49 327h176l-49 -327h326l-23 -142h-325l-72 -477q-37 -225 172 -225z" />
    <glyph glyph-name="Tcaron" unicode="&#x164;" horiz-adv-x="1384" 
d="M1540 1434l-24 -158h-541l-193 -1276h-180l193 1276h-541l25 158h1261zM844 1579l-221 301h168l155 -194l215 194h168l-311 -301h-174z" />
    <glyph glyph-name="tcaron" unicode="&#x165;" horiz-adv-x="851" 
d="M598 -29q-168 0 -248 98.5t-53 276.5l72 481h-238l23 142h237l49 327h176l-49 -327h326l-23 -142h-325l-72 -477q-37 -225 172 -225q31 0 121 8l-23 -145q-67 -17 -145 -17zM750 1155l75 387h181l-121 -387h-135z" />
    <glyph glyph-name="Tbar" unicode="&#x166;" horiz-adv-x="1384" 
d="M1516 1276h-541l-43 -283h383l-23 -143h-381l-129 -850h-180l129 850h-381l21 143h381l43 283h-541l25 158h1261z" />
    <glyph glyph-name="tbar" unicode="&#x167;" horiz-adv-x="935" 
d="M645 125q31 0 121 8l-23 -145q-68 -16 -145 -17q-168 0 -248 98.5t-53 276.5l27 184h-238l18 121h238l27 176h-238l23 142h237l49 327h176l-49 -327h326l-23 -142h-325l-27 -176h326l-19 -121h-325l-27 -180q-37 -225 172 -225z" />
    <glyph glyph-name="Utilde" unicode="&#x168;" horiz-adv-x="1597" 
d="M794.5 -29q-284.5 0 -433 177.5t-107.5 451.5l127 834h182l-127 -834q-33 -209 76 -339t307.5 -130t345 129t178.5 340l125 834h183l-125 -834q-41 -274 -244 -451.5t-487.5 -177.5zM1203 1628q-81 0 -163 57.5t-114 57.5q-70 0 -90 -82h-142q18 96 83 155.5t149 59.5
t162.5 -55.5t115.5 -55.5q70 0 84 82h142q-12 -94 -79 -156.5t-148 -62.5z" />
    <glyph glyph-name="utilde" unicode="&#x169;" horiz-adv-x="1224" 
d="M607 -29q-214 0 -329.5 121t-84.5 318l83 559h175l-82 -549q-20 -135 53.5 -217t209.5 -82t233.5 82t117.5 217l82 549h176l-84 -559q-31 -197 -183.5 -318t-366.5 -121zM950 1180q-80 0 -162.5 56t-115.5 56q-70 0 -90 -80h-142q18 96 83 155.5t149 59.5t163.5 -55
t114.5 -55q72 0 86 82h142q-14 -96 -81 -157.5t-147 -61.5z" />
    <glyph glyph-name="Umacron" unicode="&#x16a;" horiz-adv-x="1597" 
d="M794.5 -29q-284.5 0 -433 177.5t-107.5 451.5l127 834h182l-127 -834q-33 -209 76 -339t307.5 -130t345 129t178.5 340l125 834h183l-125 -834q-41 -274 -244 -451.5t-487.5 -177.5zM739 1608l21 135h604l-21 -135h-604z" />
    <glyph glyph-name="umacron" unicode="&#x16b;" horiz-adv-x="1224" 
d="M607 -29q-214 0 -329.5 121t-84.5 318l83 559h175l-82 -549q-20 -135 53.5 -217t209.5 -82t233.5 82t117.5 217l82 549h176l-84 -559q-31 -197 -183.5 -318t-366.5 -121zM489 1192l21 137h606l-20 -137h-607z" />
    <glyph glyph-name="Uring" unicode="&#x16e;" horiz-adv-x="1597" 
d="M794.5 -29q-284.5 0 -433 177.5t-107.5 451.5l127 834h182l-127 -834q-33 -209 76 -339t307.5 -130t345 129t178.5 340l125 834h183l-125 -834q-41 -274 -244 -451.5t-487.5 -177.5zM1062 1700q50 0 90 36t40 84t-28.5 74.5t-78.5 26.5t-90.5 -36t-40.5 -84t29 -74.5
t79 -26.5zM1052.5 1610q-98.5 0 -150.5 48t-52 135t72.5 152.5t171 65.5t150.5 -48t52 -136t-72.5 -152.5t-171 -64.5z" />
    <glyph glyph-name="uring" unicode="&#x16f;" horiz-adv-x="1224" 
d="M607 -29q-214 0 -329.5 121t-84.5 318l83 559h175l-82 -549q-20 -135 53.5 -217t209.5 -82t233.5 82t117.5 217l82 549h176l-84 -559q-31 -197 -183.5 -318t-366.5 -121zM802 1219q50 0 91 35.5t41 85t-28.5 76t-79 26.5t-91.5 -37t-41 -85t29 -74.5t79 -26.5z
M794.5 1130q-98.5 0 -151.5 47.5t-53 135.5t72.5 152.5t172 64.5t150.5 -48t51 -135t-71.5 -152t-170 -65z" />
    <glyph glyph-name="Uhungarumlaut" unicode="&#x170;" horiz-adv-x="1597" 
d="M794.5 -29q-284.5 0 -433 177.5t-107.5 451.5l127 834h182l-127 -834q-33 -209 76 -339t307.5 -130t345 129t178.5 340l125 834h183l-125 -834q-41 -274 -244 -451.5t-487.5 -177.5zM1118 1604l-2 6l193 293h184l-229 -299h-146zM819 1604l-2 6l193 293h184l-229 -299
h-146z" />
    <glyph glyph-name="uhungarumlaut" unicode="&#x171;" horiz-adv-x="1224" 
d="M607 -29q-214 0 -329.5 121t-84.5 318l83 559h175l-82 -549q-20 -135 53.5 -217t209.5 -82t233.5 82t117.5 217l82 549h176l-84 -559q-31 -197 -183.5 -318t-366.5 -121zM864 1151v6l193 293h182l-229 -299h-146zM565 1151v6l193 293h182l-229 -299h-146z" />
    <glyph glyph-name="Uogonek" unicode="&#x172;" horiz-adv-x="1597" 
d="M807 -156q0 -92 145 -92q27 0 80 8l-2 -125q-57 -16 -146.5 -16t-161 50t-71.5 143t80 161q-256 20 -386 194.5t-91 432.5l127 834h182l-127 -834q-33 -209 76 -339t307.5 -130t345 129t178.5 340l125 834h183l-125 -834q-35 -231 -186.5 -396t-372.5 -214
q-160 -49 -160 -146z" />
    <glyph glyph-name="uogonek" unicode="&#x173;" horiz-adv-x="1224" 
d="M731 -252q27 0 80 8l-2 -125q-57 -16 -146.5 -16t-161 50t-71.5 147.5t90 164.5q-174 25 -264 142t-63 291l83 559h175l-82 -549q-20 -135 53.5 -217t209.5 -82t233.5 82t117.5 217l82 549h176l-84 -559q-27 -164 -137.5 -277t-276.5 -147q-158 -51 -157 -146
q0 -92 145 -92z" />
    <glyph glyph-name="Wcircumflex" unicode="&#x174;" horiz-adv-x="2220" 
d="M545 0l-252 1434h190l201 -1168h6l545 1168h184l191 -1168l6 2l555 1166h190l-686 -1434h-192l-193 1167h-6l-547 -1167h-192zM995 1579l312 301h174l221 -301h-168l-156 195l-215 -195h-168z" />
    <glyph glyph-name="wcircumflex" unicode="&#x175;" horiz-adv-x="1689" 
d="M444 0l-233 969h190l158 -707h4l355 707h153l137 -707h4l375 707h187l-525 -969h-155l-140 700h-4l-350 -700h-156zM664 1137l311 299h176l221 -299h-170l-155 194l-216 -194h-167z" />
    <glyph glyph-name="Ycircumflex" unicode="&#x176;" horiz-adv-x="1449" 
d="M635 0l76 498l-465 936h203l376 -768l613 768h200l-745 -936l-74 -498h-184zM612 1579l312 301h174l221 -301h-168l-156 195l-215 -195h-168z" />
    <glyph glyph-name="ycircumflex" unicode="&#x177;" horiz-adv-x="1314" 
d="M1204 969h187l-891 -1436h-191l271 428l-363 1008h189l290 -815h4zM858 1331l-215 -194h-168l311 299h177l221 -299h-170z" />
    <glyph glyph-name="Ydieresis" unicode="&#x178;" horiz-adv-x="1449" 
d="M635 0l76 498l-465 936h203l376 -768l613 768h200l-745 -936l-74 -498h-184zM1061 1606l35 219h223l-33 -219h-225zM651 1606l35 219h223l-32 -219h-226z" />
    <glyph glyph-name="Zacute" unicode="&#x179;" horiz-adv-x="1404" 
d="M115 0l14 86l1077 1192h-872l24 156h1135l-14 -86l-1061 -1192h885l-23 -156h-1165zM858 1581l-4 6l217 295h195l-250 -301h-158z" />
    <glyph glyph-name="zacute" unicode="&#x17a;" horiz-adv-x="1060" 
d="M90 0l12 82l744 747h-608l22 140h858l-16 -95l-735 -735h624l-22 -139h-879zM614 1151v6l215 293h195l-252 -299h-158z" />
    <glyph glyph-name="Zdotaccent" unicode="&#x17b;" horiz-adv-x="1404" 
d="M115 0l14 86l1077 1192h-872l24 156h1135l-14 -86l-1061 -1192h885l-23 -156h-1165zM868 1825h224l-33 -219h-225z" />
    <glyph glyph-name="zdotaccent" unicode="&#x17c;" horiz-adv-x="1060" 
d="M90 0l12 82l744 747h-608l22 140h858l-16 -95l-735 -735h624l-22 -139h-879zM631 1409h223l-33 -221h-223z" />
    <glyph glyph-name="Zcaron" unicode="&#x17d;" horiz-adv-x="1404" 
d="M115 0l14 86l1077 1192h-872l24 156h1135l-14 -86l-1061 -1192h885l-23 -156h-1165zM856 1579l-221 301h168l155 -194l216 194h167l-311 -301h-174z" />
    <glyph glyph-name="zcaron" unicode="&#x17e;" horiz-adv-x="1060" 
d="M90 0l12 82l744 747h-608l22 140h858l-16 -95l-735 -735h624l-22 -139h-879zM614 1137l-221 299h168l156 -195l215 195h168l-309 -299h-177z" />
    <glyph glyph-name="florin" unicode="&#x192;" horiz-adv-x="1120" 
d="M1066 1309q-83 1 -150 -59t-97 -160l-98 -334h369l-23 -142h-387l-129 -438q-53 -178 -165 -275t-271 -98q-100 0 -211 27l47 145q100 -18 155 -18q197 0 263 219l129 438h-283l23 142h303l98 334q51 178 163 275t271 97q102 0 211 -28l-49 -148q-86 23 -169 23z" />
    <glyph glyph-name="uni01CA" unicode="&#x1ca;" horiz-adv-x="2912" 
d="M2219.5 -29q-234.5 0 -362.5 117t-120 324h180q4 -129 85 -205t238.5 -76t266 105.5t135.5 275.5l117 764h-699l25 158h881l-140 -928q-39 -250 -205.5 -392.5t-401 -142.5zM1485 1434h182l-217 -1434h-152l-763 1122l-170 -1122h-181l217 1434h146l766 -1137z" />
    <glyph glyph-name="uni01CC" unicode="&#x1cc;" horiz-adv-x="1804" 
d="M1176 -496h-35l22 144l15 2q117 6 174 57t75 182l164 1080h176l-159 -1061q-33 -213 -136.5 -308.5t-295.5 -95.5zM844 997q195 0 297 -122.5t73 -317.5l-84 -557h-176l84 549q20 135 -47 216t-203 81t-241 -90t-127 -236l-80 -520h-174l147 969h174l-22 -154h4
q66 84 168 133t207 49zM1642 1335l37 242h183l-37 -242h-183z" />
    <glyph glyph-name="AEacute" unicode="&#x1fc;" horiz-adv-x="2400" 
d="M823 555h504l98 641zM84 0l1360 1434h1055l-23 -158h-858l-74 -485h770l-24 -160h-770l-72 -473h858l-25 -158h-1036l58 395h-627l-371 -395h-221zM1497 1581l-4 6l217 295h195l-250 -301h-158z" />
    <glyph glyph-name="aeacute" unicode="&#x1fd;" horiz-adv-x="1996" 
d="M541 109q150 0 258 89t129 224h-400q-98 0 -159.5 -45t-61.5 -116t64 -111.5t170 -40.5zM1515.5 856q-143.5 0 -254 -88t-145.5 -227h670q18 133 -54.5 224t-216 91zM1534 997q227 0 344 -144t76 -380l-10 -59h-842q0 -135 85 -218t224 -83q201 0 289 129h188
q-66 -125 -202 -198t-290 -73q-304 0 -419 224q-78 -104 -207 -164t-287 -60t-252 75t-94 206t111.5 213t300.5 82h395l4 28q41 279 -229 279q-221 0 -285 -164h-176q37 139 168 223t315 84q268 0 355 -174q170 174 438 174zM1081 1151v6l215 293h195l-252 -299h-158z" />
    <glyph glyph-name="Oslashacute" unicode="&#x1fe;" horiz-adv-x="1794" 
d="M918 133q283 0 481 190.5t198 475.5q0 180 -92 307l-907 -873q134 -100 320 -100zM412 635q0 -182 94 -307l907 872q-133 100 -319 100q-283 0 -482.5 -191t-199.5 -474zM893 -29q-252 0 -428 133l-131 -124l-98 88l133 127q-143 172 -144 419q0 358 261.5 603t631.5 245
q252 0 428 -133l131 125l99 -88l-134 -129q141 -170 142 -418q0 -358 -260 -603t-631 -245zM1208 1581h-157l-4 6l217 295h194z" />
    <glyph glyph-name="oslashacute" unicode="&#x1ff;" horiz-adv-x="1304" 
d="M1094 537q0 102 -47 174l-562 -537q76 -53 187 -53q176 0 299 119t123 297zM358 432q0 -100 48 -176l559 539q-76 51 -185 51q-176 0 -299 -119t-123 -295zM1270 555q0 -252 -180.5 -418t-440.5 -166q-172 0 -291 82l-94 -90l-84 76l96 92q-94 113 -94 283
q0 252 180.5 417.5t442.5 165.5q170 0 287 -82l94 91l86 -78l-94 -90q92 -117 92 -283zM737 1151v6l215 293h195l-252 -299h-158z" />
    <glyph glyph-name="Scommaaccent" unicode="&#x218;" horiz-adv-x="1421" 
d="M582 -125h219l-17 -113q-18 -127 -76.5 -186t-205.5 -94l-10 84q88 31 117.5 56.5t39.5 82.5h-94zM734 -29q-271 0 -416.5 127t-135.5 351h180q4 -152 105.5 -238t289 -86t298 79t110.5 206q0 84 -62.5 134t-154.5 67.5t-201.5 42t-201.5 52t-154.5 102.5t-62.5 191
q0 203 164.5 333t421 130t395.5 -110.5t135 -304.5h-182q-6 125 -95.5 196.5t-258.5 71.5t-277.5 -80t-108.5 -189.5t86 -160.5t208 -72.5t245 -48.5t209 -103.5t86 -211.5q0 -213 -175.5 -345.5t-446.5 -132.5z" />
    <glyph glyph-name="scommaaccent" unicode="&#x219;" horiz-adv-x="1118" 
d="M432 -125h219l-16 -113q-18 -127 -76.5 -186t-206.5 -94l-10 84q88 31 117.5 56.5t40.5 82.5h-94zM568 -29q-208 0 -321.5 90.5t-103.5 241.5h166q2 -94 80 -145.5t204 -51.5t201.5 48.5t75.5 118t-64.5 102.5t-155.5 45t-183 29.5t-156.5 71.5t-64.5 149q0 147 128 237
t317 90t300 -83t103 -224h-166q0 80 -74 128t-181.5 48t-179 -44t-71.5 -111t63.5 -99t154.5 -44.5t182 -31t154.5 -73.5t63.5 -154q0 -154 -132 -246t-340 -92z" />
    <glyph glyph-name="uni021A" unicode="&#x21a;" horiz-adv-x="1384" 
d="M557 -125h219l-16 -113q-18 -127 -76.5 -186t-206.5 -94l-10 84q88 31 117.5 56.5t40.5 82.5h-95zM1540 1434l-24 -158h-541l-193 -1276h-180l193 1276h-541l25 158h1261z" />
    <glyph glyph-name="uni021B" unicode="&#x21b;" horiz-adv-x="851" 
d="M383 -125h219l-16 -113q-18 -127 -76.5 -186t-206.5 -94l-10 84q88 31 117.5 56.5t40.5 82.5h-95zM598 -29q-168 0 -248 98.5t-53 276.5l72 481h-238l23 142h237l49 327h176l-49 -327h326l-23 -142h-325l-72 -477q-37 -225 172 -225q31 0 121 8l-23 -145
q-67 -17 -145 -17z" />
    <glyph glyph-name="uni0237" unicode="&#x237;" horiz-adv-x="542" 
d="M-86 -496h-35l23 144l14 2q117 6 174 57t76 182l164 1080h176l-160 -1061q-33 -213 -136.5 -308.5t-295.5 -95.5z" />
    <glyph glyph-name="circumflex" unicode="&#x2c6;" horiz-adv-x="913" 
d="M274 1137l312 299h176l221 -299h-170l-156 194l-215 -194h-168z" />
    <glyph glyph-name="caron" unicode="&#x2c7;" horiz-adv-x="913" 
d="M541 1137l-222 299h168l156 -195l215 195h168l-309 -299h-176z" />
    <glyph glyph-name="breve" unicode="&#x2d8;" horiz-adv-x="835" 
d="M588 1128q-145 0 -216 82t-55 211h132q-5 -82 33 -131t123 -49t141 49t73 131h129q-23 -129 -119 -211t-241 -82z" />
    <glyph glyph-name="dotaccent" unicode="&#x2d9;" horiz-adv-x="428" 
d="M315 1409h224l-33 -221h-223z" />
    <glyph glyph-name="ring" unicode="&#x2da;" horiz-adv-x="647" 
d="M513 1219q50 -1 91 35t41 86t-29 76q-28 26 -78 26t-92 -37t-40 -85q0 -48 28 -75q29 -26 79 -26zM506 1130q-98 0 -152 48t-53 135q0 89 73 153t172 64t150 -48q52 -48 52 -135t-72 -152t-170 -65z" />
    <glyph glyph-name="ogonek" unicode="&#x2db;" horiz-adv-x="610" 
d="M306 -381q-90 0 -161 50q-72 50 -71 136q0 209 346 277l6 -82q-197 -47 -197 -156q0 -92 146 -92q27 0 80 8l-2 -125q-57 -16 -147 -16z" />
    <glyph glyph-name="tilde" unicode="&#x2dc;" horiz-adv-x="911" 
d="M794 1180q-80 0 -162 56t-116 56q-70 0 -90 -80h-141q18 96 83 156q64 60 148 59q84 0 164 -55t115 -55q72 0 86 82h141q-14 -95 -81 -157t-147 -62z" />
    <glyph glyph-name="hungarumlaut" unicode="&#x2dd;" horiz-adv-x="835" 
d="M578 1151v6l192 293h182l-229 -299h-145zM279 1151v6l192 293h182l-229 -299h-145z" />
    <glyph glyph-name="uni0326" unicode="&#x326;" horiz-adv-x="0" 
d="M-342 -125h219l-16 -113q-18 -127 -76.5 -186t-206.5 -94l-10 84q88 31 117.5 56.5t40.5 82.5h-95z" />
    <glyph glyph-name="Wgrave" unicode="&#x1e80;" horiz-adv-x="2220" 
d="M545 0l-252 1434h190l201 -1168h6l545 1168h184l191 -1168l6 2l555 1166h190l-686 -1434h-192l-193 1167h-6l-547 -1167h-192zM1434 1581h-158l-160 301h195l127 -295z" />
    <glyph glyph-name="wgrave" unicode="&#x1e81;" horiz-adv-x="1689" 
d="M444 0l-233 969h190l158 -707h4l355 707h153l137 -707h4l375 707h187l-525 -969h-155l-140 700h-4l-350 -700h-156zM1104 1151h-158l-160 299h195l127 -293z" />
    <glyph glyph-name="Wacute" unicode="&#x1e82;" horiz-adv-x="2220" 
d="M545 0l-252 1434h190l201 -1168h6l545 1168h184l191 -1168l6 2l555 1166h190l-686 -1434h-192l-193 1167h-6l-547 -1167h-192zM1264 1581l-4 6l217 295h194l-250 -301h-157z" />
    <glyph glyph-name="wacute" unicode="&#x1e83;" horiz-adv-x="1689" 
d="M444 0l-233 969h190l158 -707h4l355 707h153l137 -707h4l375 707h187l-525 -969h-155l-140 700h-4l-350 -700h-156zM930 1151v6l215 293h194l-252 -299h-157z" />
    <glyph glyph-name="Wdieresis" unicode="&#x1e84;" horiz-adv-x="2220" 
d="M545 0l-252 1434h190l201 -1168h6l545 1168h184l191 -1168l6 2l555 1166h190l-686 -1434h-192l-193 1167h-6l-547 -1167h-192zM1444 1606l35 219h223l-33 -219h-225zM1034 1606l35 219h223l-32 -219h-226z" />
    <glyph glyph-name="wdieresis" unicode="&#x1e85;" horiz-adv-x="1689" 
d="M444 0l-233 969h190l158 -707h4l355 707h153l137 -707h4l375 707h187l-525 -969h-155l-140 700h-4l-350 -700h-156zM1151 1409h223l-33 -221h-223zM741 1409h224l-33 -221h-223z" />
    <glyph glyph-name="uni1E9E" unicode="&#x1e9e;" horiz-adv-x="1533" 
d="M1481 442q0 -207 -177 -339t-438 -132q-156 0 -272 52l24 157q123 -55 279 -55t277 84q120 84 120 208q0 123 -101 193t-273 70h-113l22 147l514 383q-160 104 -356 104t-324 -93q-128 -94 -151 -246l-145 -971h-183l148 971q35 219 215 353q181 134 455 134t501 -151
l-26 -164l-443 -324q209 -19 328 -121t119 -260z" />
    <glyph glyph-name="Ygrave" unicode="&#x1ef2;" horiz-adv-x="1449" 
d="M635 0l76 498l-465 936h203l376 -768l613 768h200l-745 -936l-74 -498h-184zM1051 1581h-158l-160 301h195l127 -295z" />
    <glyph glyph-name="ygrave" unicode="&#x1ef3;" horiz-adv-x="1314" 
d="M1204 969h187l-891 -1436h-191l271 428l-363 1008h189l290 -815h4zM915 1151h-157l-160 299h195l127 -293z" />
    <glyph glyph-name="uni1EF8" unicode="&#x1ef8;" horiz-adv-x="1449" 
d="M635 0l76 498l-465 936h203l376 -768l613 768h200l-745 -936l-74 -498h-184zM1131 1628q-81 0 -162.5 57.5t-114.5 57.5q-70 0 -90 -82h-141q18 96 82.5 155.5t148.5 59.5t163 -55.5t116 -55.5q70 0 84 82h141q-12 -94 -79 -156.5t-148 -62.5z" />
    <glyph glyph-name="uni1EF9" unicode="&#x1ef9;" horiz-adv-x="1314" 
d="M1204 969h187l-891 -1436h-191l271 428l-363 1008h189l290 -815h4zM717 1292q-70 0 -90 -80h-142q18 96 83 155.5t149 59.5t164 -55t114 -55q72 0 86 82h142q-14 -96 -81 -157.5t-147 -61.5t-162.5 56t-115.5 56z" />
    <glyph glyph-name="endash" unicode="&#x2013;" horiz-adv-x="1521" 
d="M293 471l24 164h1080l-25 -164h-1079z" />
    <glyph glyph-name="emdash" unicode="&#x2014;" horiz-adv-x="2150" 
d="M293 471l24 164h1708l-24 -164h-1708z" />
    <glyph glyph-name="quoteleft" unicode="&#x2018;" horiz-adv-x="387" 
d="M473 1114h-223l24 150q20 141 90 210t211 103l11 -82q-88 -31 -125 -63t-53 -111h96z" />
    <glyph glyph-name="quoteright" unicode="&#x2019;" horiz-adv-x="387" 
d="M322 1577h223l-25 -150q-20 -141 -89 -211t-214 -102l-8 82q88 30 125 62t53 110h-96z" />
    <glyph glyph-name="quotesinglbase" unicode="&#x201a;" horiz-adv-x="387" 
d="M115 209h223l-25 -152q-20 -141 -89 -210t-214 -103l-8 82q88 32 125 64t53 110h-96z" />
    <glyph glyph-name="quotedblleft" unicode="&#x201c;" horiz-adv-x="761" 
d="M848 1114h-223l22 150q23 141 91 210q69 69 212 103l11 -82q-88 -31 -125 -63t-54 -111h97zM473 1114h-223l24 150q20 141 90 210t211 103l11 -82q-88 -31 -125 -63t-53 -111h96z" />
    <glyph glyph-name="quotedblright" unicode="&#x201d;" horiz-adv-x="761" 
d="M694 1577h226l-25 -150q-20 -141 -89 -211t-214 -102l-8 82q88 30 125 62t53 110h-96zM322 1577h223l-25 -150q-20 -141 -89 -211t-214 -102l-8 82q88 30 125 62t53 110h-96z" />
    <glyph glyph-name="quotedblbase" unicode="&#x201e;" horiz-adv-x="761" 
d="M489 209h222l-23 -152q-22 -141 -90 -210t-213 -103l-10 82q88 32 126 64t54 110h-98zM115 209h223l-25 -152q-20 -141 -89 -210t-214 -103l-8 82q88 32 125 64t53 110h-96z" />
    <glyph glyph-name="dagger" unicode="&#x2020;" horiz-adv-x="864" 
d="M469 655l68 447h-267l17 117h266l39 249h123l-39 -249h268l-18 -117h-267l-67 -447h-123z" />
    <glyph glyph-name="daggerdbl" unicode="&#x2021;" horiz-adv-x="864" 
d="M467 645l35 223h-266l16 115h266l23 154h-265l17 114h266l31 209h123l-31 -209h266l-16 -114h-266l-25 -154h268l-18 -115h-266l-35 -223h-123z" />
    <glyph glyph-name="bullet" unicode="&#x2022;" horiz-adv-x="686" 
d="M462 850q106 0 168 -62t62 -160q0 -100 -89 -180t-195 -79q-106 0 -168 61q-64 61 -64 161q0 99 90 179t196 80z" />
    <glyph glyph-name="uni2023" unicode="&#x2023;" horiz-adv-x="817" 
d="M188 72l144 938l502 -469z" />
    <glyph glyph-name="ellipsis" unicode="&#x2026;" horiz-adv-x="1273" 
d="M1004 211h221l-33 -211h-221zM559 211h221l-30 -211h-224zM115 211h223l-33 -211h-221z" />
    <glyph glyph-name="perthousand" unicode="&#x2030;" horiz-adv-x="3321" 
d="M2755 96q126 0 219 87q92 87 92 203t-66 180q-66 65 -190 65t-217 -88q-92 -87 -92 -203t64 -180t190 -64zM1775 96q125 0 219 88q93 88 93 202t-66 180q-65 65 -191 65t-217 -88q-91 -87 -91 -203t64 -180t189 -64zM2724 -29q-164 0 -262 91t-99 245q1 199 139 324
t341 125q162 0 261 -92t99 -244q0 -199 -138 -324t-341 -125zM1745 -29q-164 0 -262 91t-99 245q0 199 138 324t342 125q162 0 261 -92t99 -244q0 -199 -138 -324t-341 -125zM784 1337q-126 0 -218 -87q-92 -86 -93 -202t65 -180t192 -65q126 0 217 88q91 87 91 203t-64 180
q-64 63 -190 63zM602 0l1225 1434h131l-1223 -1434h-133zM696 678q-162 0 -261 92t-99 244q0 200 138 324t341 124q162 0 261 -91t100 -245q0 -200 -138 -324t-342 -124z" />
    <glyph glyph-name="guilsinglleft" unicode="&#x2039;" horiz-adv-x="557" 
d="M598 823l-274 -307l182 -307h-170l-176 291l6 32l262 291h170z" />
    <glyph glyph-name="guilsinglright" unicode="&#x203a;" horiz-adv-x="557" 
d="M209 823h170l176 -291l-6 -32l-264 -291h-170l274 307z" />
    <glyph glyph-name="fraction" unicode="&#x2044;" horiz-adv-x="1013" 
d="M-61 0l1222 1434h131l-1222 -1434h-131z" />
    <glyph glyph-name="uni2070" unicode="&#x2070;" horiz-adv-x="825" 
d="M587 1153q89 -1 153 59t77 154l25 164q14 96 -31 154t-134 58t-151 -58t-77 -154l-27 -164q-14 -94 31 -154t134 -59zM694 1862q152 0 232 -92t57 -240l-27 -164q-25 -150 -130 -240t-257 -90q-153 0 -231 90t-55 240l24 164q23 150 129 241t258 91z" />
    <glyph glyph-name="uni2074" unicode="&#x2074;" horiz-adv-x="868" 
d="M430 1331h305l56 373zM995 1331l-18 -112h-127l-25 -162h-133l25 162h-463l12 88l516 538h162l-78 -514h129z" />
    <glyph glyph-name="uni2075" unicode="&#x2075;" horiz-adv-x="815" 
d="M645 1565q125 -1 199 -61t74 -178t-102 -203t-250 -85t-225 65t-79 169h135q7 -57 55 -89t132 -32t143 49q59 50 59 116t-44 102t-126 36t-161 -55l-103 39l107 407h495l-16 -116h-383l-49 -193q63 29 139 29z" />
    <glyph glyph-name="uni2076" unicode="&#x2076;" horiz-adv-x="802" 
d="M617 1485q-87 0 -151 -54q-64 -55 -64 -131t45 -116q46 -40 135 -39q89 0 152 53q62 53 62 129t-45 117q-46 41 -134 41zM651 1595q127 1 205 -65t78 -174q0 -138 -109 -228t-253 -90t-226 68t-82 176q0 66 28 116t87 113l297 334h160l-224 -252q12 2 39 2z" />
    <glyph glyph-name="uni2077" unicode="&#x2077;" horiz-adv-x="688" 
d="M279 1057l458 667h-436l18 121h611l-12 -80l-486 -708h-153z" />
    <glyph glyph-name="uni2078" unicode="&#x2078;" horiz-adv-x="845" 
d="M603 1145q81 0 140 43t59 103t-44 93q-45 33 -128 33q-82 0 -140 -42t-58 -103t45 -94t126 -33zM506 1622q0 -115 152 -115q75 0 126 39q52 38 52 94t-40 86t-112 31q-72 0 -125 -40t-53 -95zM952 1302q0 -118 -104 -192t-256 -74t-232 58q-82 58 -82 142q1 164 187 234
q-94 47 -94 152q0 104 96 172q97 68 227 68t204 -54t73 -141q0 -135 -144 -197q125 -49 125 -168z" />
    <glyph glyph-name="uni2079" unicode="&#x2079;" horiz-adv-x="802" 
d="M660 1755q-88 0 -150 -53t-64 -129q0 -76 46 -116t134 -40t151 53q63 54 63 130t-46 116t-134 39zM309 1560q-1 124 107 214q108 88 254 88t226 -68q81 -68 81 -176q0 -64 -28 -114t-85 -115l-299 -334h-159l225 252l-41 -2q-127 -1 -204 65t-77 190z" />
    <glyph glyph-name="uni2080" unicode="&#x2080;" horiz-adv-x="825" 
d="M366 -309q88 1 152 59q62 58 78 154l27 164q14 96 -32 154t-135 58q-88 0 -152 -58t-79 -154l-24 -164q-14 -96 31 -155q46 -58 134 -58zM473 399q153 0 231 -91t56 -240l-25 -164q-23 -150 -129 -241t-258 -91t-232 91t-55 241l27 164q23 152 128 242t257 89z" />
    <glyph glyph-name="uni2081" unicode="&#x2081;" horiz-adv-x="501" 
d="M203 -410l100 672h-219l18 117h351l-119 -789h-131z" />
    <glyph glyph-name="uni2082" unicode="&#x2082;" horiz-adv-x="770" 
d="M430 287q-64 0 -115 -38t-69 -99h-131q27 112 119 180t214 68t190 -56q68 -55 69 -147q0 -57 -36 -117t-73 -97q-37 -36 -106 -96l-222 -188h379l-16 -107h-598l10 66l342 289q67 53 93 75t57 67q31 44 31 91t-37 78t-101 31z" />
    <glyph glyph-name="uni2083" unicode="&#x2083;" horiz-adv-x="802" 
d="M686 -156q0 -120 -98 -196t-240 -76t-217 60q-76 60 -78 165h135q14 -113 168 -112q84 0 141 41q56 41 56 99t-41 91t-115 33h-98l14 104l238 209h-391l18 117h574l-15 -100l-264 -234q97 -13 155 -67t58 -134z" />
    <glyph glyph-name="uni2084" unicode="&#x2084;" horiz-adv-x="868" 
d="M207 -133h305l57 371zM772 -133l-18 -115h-127l-23 -162h-133l25 162h-465l14 88l516 539h160l-76 -512h127z" />
    <glyph glyph-name="uni2085" unicode="&#x2085;" horiz-adv-x="815" 
d="M565 -150q0 138 -174 138q-86 0 -158 -56l-102 41l107 406h495l-16 -117h-385l-51 -192q74 29 143 28q125 0 199 -60t73 -163q0 -131 -101 -217t-251 -86t-225 64q-76 64 -76 169h135q6 -57 52 -89t130 -32t145 50q60 48 60 116z" />
    <glyph glyph-name="uni2086" unicode="&#x2086;" horiz-adv-x="802" 
d="M575 -137q0 155 -180 155q-88 0 -151 -54q-64 -54 -64 -129t46 -116t134 -41t152 54t63 131zM430 129q127 -1 204 -65t77 -189t-108 -214t-252 -89t-226 69t-82 175q0 63 28 113t85 118l297 332h161l-227 -252q14 2 43 2z" />
    <glyph glyph-name="uni2087" unicode="&#x2087;" horiz-adv-x="688" 
d="M57 -410l457 668h-434l18 121h611l-13 -80l-485 -709h-154z" />
    <glyph glyph-name="uni2088" unicode="&#x2088;" horiz-adv-x="845" 
d="M409 -47q-83 0 -141 -42q-58 -41 -57 -103q0 -62 45 -94t126 -33q81 0 140 43q60 43 60 103t-45 93t-128 33zM283 160q-1 -55 39 -86t115 -31t126 39t51 94t-41 87t-113 32t-124 -40q-53 -40 -53 -95zM731 -164q-1 -116 -105 -190t-254 -74t-232 58q-81 58 -81 153
q0 154 185 225q-94 45 -94 150q0 104 96 172t226 68t205 -53q75 -52 75 -142q0 -131 -146 -195q125 -55 125 -172z" />
    <glyph glyph-name="uni2089" unicode="&#x2089;" horiz-adv-x="802" 
d="M618 136q0 157 -180 157q-88 0 -151 -54q-63 -55 -63 -131t45 -116q46 -40 135 -39q89 0 152 53q62 53 62 130zM86 96q0 124 108 213q108 88 254 88q144 1 226 -67t82 -176q0 -64 -28 -114t-85 -116l-301 -334h-158l228 254q-14 -2 -41 -2q-129 0 -207 65t-78 189z" />
    <glyph glyph-name="Euro" unicode="&#x20ac;" horiz-adv-x="1896" 
d="M1084 137q192 1 344 99t229 270h188q-88 -244 -305 -388t-486 -144q-268 0 -444 144t-211 386h-237l18 121h211q0 92 23 186h-205l18 121h224q96 242 319 386q224 144 500 144t450 -144t189 -386h-189q-23 170 -145 268q-123 98 -322 98t-363 -99t-245 -267h688l-47 -121
h-686q-23 -86 -22 -178v-8h645l-45 -121h-586q37 -168 168 -268q132 -100 324 -99z" />
    <glyph glyph-name="uni2116" unicode="&#x2116;" horiz-adv-x="3000" 
d="M1784 0l20 147h1020l-22 -147h-1018zM2046 836q0 -132 87 -220t243 -88t280 117q125 117 125 285q0 135 -88 222q-89 87 -243 87t-279 -118t-125 -285zM2337 377q-209 0 -338 123t-129 317q0 244 181 409t439 165q209 0 338 -124t129 -317q0 -244 -181 -408t-439 -165z
M1485 1434h182l-217 -1434h-152l-763 1122l-170 -1122h-181l217 1434h146l766 -1137z" />
    <glyph glyph-name="trademark" unicode="&#x2122;" horiz-adv-x="1478" 
d="M1522 1434h73l-90 -598h-102l59 393l-258 -311h-53l-164 311l-57 -393h-105l90 598h74l209 -383zM256 1339l14 95h559l-16 -95h-225l-76 -503h-104l75 503h-227z" />
    <glyph glyph-name="oneeighth" unicode="&#x215b;" horiz-adv-x="1748" 
d="M1174 218q0 -60 46 -94t126 -34q81 0 141 43q59 43 59 103t-45 94q-45 32 -128 32t-141 -42t-58 -102zM1426 705q-72 0 -126 -40q-54 -39 -53 -95q0 -56 40 -86t115 -31q75 0 125 39t50 94t-40 87q-39 32 -111 32zM1694 247q0 -117 -104 -191t-254 -74t-232 58t-82 153
q0 154 184 225q-94 46 -94 150t97 172t227 67q130 0 204 -52t74 -143q0 -133 -145 -194q125 -53 125 -171zM184 0l1221 1434h131l-1221 -1434h-131zM369 647l102 672h-227l18 117h356l-118 -789h-131z" />
    <glyph glyph-name="threeeighths" unicode="&#x215c;" horiz-adv-x="1935" 
d="M1538 90q82 0 140 43t58 103t-44 94q-45 32 -128 32t-141 -41q-57 -41 -57 -103t45 -95t127 -33zM1617 705q-71 0 -125 -40q-54 -39 -54 -95t40 -87t114 -31t126 40q51 39 51 94t-40 87q-41 32 -112 32zM1886 246q0 -117 -104 -191q-104 -73 -254 -73t-233 58
q-81 58 -81 153q0 154 185 225q-94 46 -94 150t96 172t226 67q130 0 205 -52t75 -143q-1 -131 -146 -194q125 -55 125 -172zM1597 1434h132l-1221 -1434h-133zM844 899q0 -119 -98 -195t-237 -75q-140 0 -218 60t-80 165h137q4 -51 47 -83t124 -32t137 42q56 41 56 99
t-41 92q-42 34 -114 34h-100l16 104l240 209h-394l19 117h573l-14 -101l-264 -233q99 -12 155 -68t56 -135z" />
    <glyph glyph-name="fiveeighths" unicode="&#x215d;" horiz-adv-x="1941" 
d="M1539 90q81 0 140 43t59 103t-44 94q-45 32 -128 32t-142 -41q-58 -43 -58 -103t46 -94t127 -34zM1618 705q-72 0 -125 -40q-53 -39 -53 -95t40 -87t114 -31t126 40q52 39 52 94t-41 87t-113 32zM1886 247q0 -118 -103 -192q-103 -73 -253 -73t-234 58q-82 58 -82 153
q0 154 187 225q-96 46 -96 150t97 172t226 67q129 0 204 -52t75 -143q-1 -133 -144 -194q123 -53 123 -171zM1597 1434h134l-1223 -1434h-131zM856 932q0 -133 -101 -218t-251 -85q-150 1 -226 65q-77 64 -77 168h135q8 -57 55 -89t130 -32q83 -1 143 49t59 116
q0 66 -43 102t-126 36t-161 -55l-102 39l106 408h496l-16 -117h-383l-52 -193q63 29 165 29q101 -1 175 -61t74 -162z" />
    <glyph glyph-name="seveneighths" unicode="&#x215e;" horiz-adv-x="1738" 
d="M1335 90q82 0 142 43q59 43 59 103t-45 94q-45 32 -128 32t-141 -42t-58 -102q0 -62 44 -95q45 -33 127 -33zM1237 570q0 -116 153 -117q76 0 127 39q50 39 50 94t-40 87t-112 32t-125 -40q-53 -39 -53 -95zM1326 -18q-152 0 -233 58t-81 153q0 154 184 225
q-94 46 -94 150t97 172t227 67q130 0 204 -52t74 -143q0 -131 -145 -194q125 -53 125 -171q0 -117 -104 -191q-102 -74 -254 -74zM215 645l459 668h-434l18 121h610l-12 -80l-487 -709h-154zM172 0l1223 1434h131l-1221 -1434h-133z" />
    <glyph glyph-name="arrowleft" unicode="&#x2190;" horiz-adv-x="2002" 
d="M1921 862v-174h-1534l598 -600l-119 -108l-794 796l794 795l119 -111l-598 -598h1534z" />
    <glyph glyph-name="arrowup" unicode="&#x2191;" horiz-adv-x="1775" 
d="M801 -119v1534l-598 -600l-111 119l795 797l796 -797l-108 -119l-600 600v-1534h-174z" />
    <glyph glyph-name="arrowright" unicode="&#x2192;" horiz-adv-x="2002" 
d="M82 688v174h1534l-598 598l117 111l796 -795l-796 -796l-117 108l598 600h-1534z" />
    <glyph glyph-name="arrowdown" unicode="&#x2193;" horiz-adv-x="1775" 
d="M801 1731h174v-1534l600 598l108 -119l-796 -795l-795 795l111 119l598 -598v1534z" />
    <glyph glyph-name="arrowboth" unicode="&#x2194;" horiz-adv-x="2617" 
d="M1751 1571l795 -795l-795 -796l-119 108l600 600h-1845l598 -600l-119 -108l-794 796l794 795l119 -111l-598 -598h1845l-600 598z" />
    <glyph glyph-name="arrowupdn" unicode="&#x2195;" horiz-adv-x="1777" 
d="M889 -438l-797 796l111 119l598 -600v1806l-598 -598l-111 119l797 795l794 -795l-108 -119l-598 598l-2 -1806l600 598l111 -117z" />
    <glyph glyph-name="uni2196" unicode="&#x2196;" horiz-adv-x="1669" 
d="M184 1458h1127l6 -160h-848l1085 -1085l-124 -123l-1084 1084v-846l-162 6v1124z" />
    <glyph glyph-name="uni2197" unicode="&#x2197;" horiz-adv-x="1669" 
d="M238 90l-125 123l1085 1085h-848l8 160h1125l2 -1124l-164 -6v846z" />
    <glyph glyph-name="uni2198" unicode="&#x2198;" horiz-adv-x="1669" 
d="M358 90l-8 162h848l-1085 1083l125 123l1083 -1083v846l164 -4l-2 -1127h-1125z" />
    <glyph glyph-name="uni2199" unicode="&#x2199;" horiz-adv-x="1669" 
d="M184 90v1127l162 4v-846l1084 1083l124 -123l-1085 -1083h848l-6 -162h-1127z" />
    <glyph glyph-name="partialdiff" unicode="&#x2202;" horiz-adv-x="1271" 
d="M1090 522q0 133 -88 219t-244 86q-158 -1 -279 -117t-121 -268t86 -236q86 -85 242 -85q154 0 279 117t125 284zM1272 607q0 -282 -182 -459t-441 -177q-211 0 -340 121t-129 316q0 244 178 406t439 163q147 0 250 -92q-70 174 -202 293t-349 202l190 70
q270 -96 428 -328t158 -515z" />
    <glyph glyph-name="minus" unicode="&#x2212;" horiz-adv-x="1474" 
d="M324 588l22 153h1008l-23 -153h-1007z" />
    <glyph glyph-name="approxequal" unicode="&#x2248;" horiz-adv-x="983" 
d="M702 311q-59 0 -117 35q-59 35 -107 70t-84 35t-64 -27t-33 -70h-156q16 108 90 176t179 68q63 0 122 -35q58 -35 106 -69t86 -35q38 1 66 27t33 69h154q-17 -109 -93 -177t-182 -67zM766 721q-60 0 -118 35q-58 36 -106 70t-84 34t-64 -26t-34 -70h-155q16 112 89 178
t177 66q63 0 123 -35t106 -70q47 -35 85 -35t66 27t34 70h153q-14 -109 -90 -177t-182 -67z" />
    <glyph glyph-name="notequal" unicode="&#x2260;" horiz-adv-x="1513" 
d="M1399 788h-371l-211 -245h545l-23 -154h-651l-217 -254h-131l217 254h-264l22 154h371l211 245h-545l25 154h651l217 256h131l-217 -256h264z" />
    <glyph glyph-name="lessequal" unicode="&#x2264;" horiz-adv-x="1267" 
d="M111 0l22 154h1008l-23 -154h-1007zM1108 248l-860 381l24 166l975 379l-24 -166l-768 -297l678 -297z" />
    <glyph glyph-name="greaterequal" unicode="&#x2265;" horiz-adv-x="1267" 
d="M152 0l22 154h1008l-23 -154h-1007zM236 248l24 166l768 297l-678 297l25 166l860 -379l-25 -166z" />
    <glyph glyph-name="filledbox" unicode="&#x25a0;" horiz-adv-x="1802" 
d="M184 0v1434h1434v-1434h-1434z" />
    <glyph glyph-name="uni25A1" unicode="&#x25a1;" horiz-adv-x="1802" 
d="M346 162h1110v1110h-1110v-1110zM184 0v1434h1434v-1434h-1434z" />
    <glyph glyph-name="triagup" unicode="&#x25b2;" horiz-adv-x="1970" 
d="M55 0l930 1462l930 -1462h-1860z" />
    <glyph glyph-name="uni25B8" unicode="&#x25b8;" horiz-adv-x="817" 
d="M178 72v938l574 -469z" />
    <glyph glyph-name="triagdn" unicode="&#x25bc;" horiz-adv-x="1970" 
d="M985 -29l-930 1463h1860z" />
    <glyph glyph-name="uni25BD" unicode="&#x25bd;" horiz-adv-x="1970" 
d="M989 276l627 1000h-1262zM985 -29l-930 1463h1860z" />
    <glyph glyph-name="uni25C2" unicode="&#x25c2;" horiz-adv-x="817" 
d="M639 72l-573 469l573 469v-938z" />
    <glyph glyph-name="uni25C6" unicode="&#x25c6;" horiz-adv-x="1656" 
d="M829 -41l-757 758l755 758l758 -758z" />
    <glyph glyph-name="circle" unicode="&#x25cb;" horiz-adv-x="1744" 
d="M874 135q240 0 410 170t170 411q0 242 -170 412t-410 170t-412 -170q-171 -170 -171 -412t171 -412q171 -169 412 -169zM1616 716q0 -310 -216 -528t-525 -217q-309 0 -529 217q-219 218 -219 528t218 528q219 218 529 218t526 -218t216 -528z" />
    <glyph glyph-name="uni25CF" unicode="&#x25cf;" horiz-adv-x="1744" 
d="M1616 716q0 -310 -216 -528t-525 -217q-309 0 -529 217q-219 218 -219 528t218 528q219 218 529 218t526 -218t216 -528z" />
    <glyph glyph-name="uni25D0" unicode="&#x25d0;" horiz-adv-x="1744" 
d="M868 135q244 0 415 169t171 412q0 242 -171 412t-415 170v-1163zM870 -29q-309 0 -526 217q-217 218 -217 528t217 528t526 218q310 0 528 -218t218 -528t-218 -528q-219 -217 -528 -217z" />
    <glyph glyph-name="uni25D6" unicode="&#x25d6;" horiz-adv-x="1060" 
d="M877 -29q-311 0 -531 217q-219 218 -219 528t218 528t532 218v-1491z" />
    <glyph glyph-name="heart" unicode="&#x2665;" horiz-adv-x="1423" 
d="M981 1231q145 0 237 -90t91 -234q1 -92 -57 -195q-58 -102 -142 -190t-169 -164t-151 -136t-75 -87h-8q-10 27 -76 87t-150 136t-168 163t-141 191t-57 195q0 143 90 233t235 91q58 0 110 -22q52 -23 80 -47t50 -46t32 -20q9 0 42 34t92 67q59 34 135 34z" />
    <glyph glyph-name="uni2780" unicode="&#x2780;" horiz-adv-x="1837" 
d="M932 326l102 673h-221l18 115h351l-119 -788h-131zM932 84q315 0 542 208q226 208 226 507q0 239 -161 395t-415 156q-315 0 -542 -208t-228 -507q0 -239 161 -395t417 -156zM915 -29q-307 -1 -497 183t-191 467q0 233 124 427t334 304t456 110q305 0 495 -183t191 -466
q0 -233 -124 -427t-333 -304t-455 -111z" />
    <glyph glyph-name="uni2781" unicode="&#x2781;" horiz-adv-x="1837" 
d="M1068 1022q-66 0 -116 -38q-51 -38 -69 -99h-131q28 113 120 181t214 69q122 -1 190 -57q70 -56 70 -148q0 -56 -37 -118t-72 -96t-107 -95l-223 -187h379l-16 -108h-598l10 67l342 287q7 7 69 56t87 92q26 42 26 88t-36 76t-102 30zM932 84q315 0 542 208
q226 208 226 507q0 239 -161 395t-415 156q-315 0 -542 -208t-228 -507q0 -239 161 -395t417 -156zM915 -29q-307 -1 -497 183t-191 467q0 233 124 427t334 304t456 110q305 0 495 -183t191 -466q0 -233 -124 -427t-333 -304t-455 -111z" />
    <glyph glyph-name="uni2782" unicode="&#x2782;" horiz-adv-x="1837" 
d="M1319 582q0 -119 -98 -196q-99 -77 -239 -77q-140 1 -216 61t-80 165h135q4 -51 48 -82t125 -31t136 41q56 41 56 99t-41 91t-115 33h-98l14 105l238 208h-391l18 117h573l-14 -100l-264 -234q98 -12 156 -66t57 -134zM932 84q315 0 542 208q226 208 226 507
q0 239 -161 395t-415 156q-315 0 -542 -208t-228 -507q0 -239 161 -395t417 -156zM1141 1462q305 0 495 -183t191 -466q0 -233 -124 -427t-333 -304t-455 -111q-307 -1 -497 183t-191 467q0 233 124 427t334 304t456 110z" />
    <glyph glyph-name="uni2783" unicode="&#x2783;" horiz-adv-x="1837" 
d="M770 602h305l55 371zM1333 602l-16 -115h-129l-23 -161h-133l25 161h-465l14 91l516 536h162l-78 -512h127zM932 84q315 0 542 208q226 208 226 507q0 239 -161 395t-415 156q-315 0 -542 -208t-228 -507q0 -239 161 -395t417 -156zM915 -29q-307 -1 -497 183t-191 467
q0 233 124 427t334 304t456 110q305 0 495 -183t191 -466q0 -233 -124 -427t-333 -304t-455 -111z" />
    <glyph glyph-name="uni2784" unicode="&#x2784;" horiz-adv-x="1837" 
d="M1200 594q0 138 -171 137q-85 0 -159 -53l-102 39l106 405h496l-16 -114h-385l-51 -195q70 31 143 31q125 0 199 -62t73 -164q0 -131 -101 -216q-100 -85 -250 -85q-150 -1 -226 63t-78 169h135q17 -121 184 -121q84 0 144 49q59 49 59 117zM932 84q315 0 542 208
q226 208 226 507q0 239 -161 395t-415 156q-315 0 -542 -208t-228 -507q0 -239 161 -395t417 -156zM1141 1462q305 0 495 -183t191 -466q0 -233 -124 -427t-333 -304t-455 -111q-307 -1 -497 183t-191 467q0 233 124 427t334 304t456 110z" />
    <glyph glyph-name="uni2785" unicode="&#x2785;" horiz-adv-x="1837" 
d="M811 578q0 -156 181 -156q89 0 153 53q63 53 63 129t-47 117t-134 41t-151 -54t-65 -130zM1061 872q127 0 205 -66t77 -173q0 -139 -108 -229q-109 -89 -253 -89t-225 68t-81 176q0 66 27 115q28 49 85 114l297 334h162l-225 -252q12 2 39 2zM932 84q315 0 542 208
q226 208 226 507q0 239 -161 395t-415 156q-315 0 -542 -208t-228 -507q0 -239 161 -395t417 -156zM1141 1462q305 0 495 -183t191 -466q0 -233 -124 -427t-333 -304t-455 -111q-307 -1 -497 183t-191 467q0 233 124 427t334 304t456 110z" />
    <glyph glyph-name="uni2786" unicode="&#x2786;" horiz-adv-x="1837" 
d="M741 326l459 667h-434l16 121h611l-13 -78l-485 -710h-154zM932 84q315 0 542 208q226 208 226 507q0 239 -161 395t-415 156q-315 0 -542 -208t-228 -507q0 -239 161 -395t417 -156zM915 -29q-307 -1 -497 183t-191 467q0 233 124 427t334 304t456 110q305 0 495 -183
t191 -466q0 -233 -124 -427t-333 -304t-455 -111z" />
    <glyph glyph-name="uni2787" unicode="&#x2787;" horiz-adv-x="1837" 
d="M989 418q82 0 140 42q59 42 59 102t-44 93t-127 33t-141 -42t-58 -102t44 -93q45 -33 127 -33zM891 895q1 -55 39 -86t113 -31t126 39t51 95t-39 86q-40 32 -112 32t-125 -40t-53 -95zM1337 572q0 -118 -104 -190q-105 -72 -255 -73t-232 57t-80 152q0 154 184 225
q-94 43 -94 150t97 175t227 67q130 1 204 -53t74 -144q0 -131 -146 -195q125 -53 125 -171zM932 84q315 0 542 208q226 208 226 507q0 239 -161 395t-415 156q-315 0 -542 -208t-228 -507q0 -239 161 -395t417 -156zM915 -29q-307 -1 -497 183t-191 467q0 233 124 427
t334 304t456 110q305 0 495 -183t191 -466q0 -233 -124 -427t-333 -304t-455 -111z" />
    <glyph glyph-name="uni2788" unicode="&#x2788;" horiz-adv-x="1837" 
d="M1030 686q88 0 153 54t65 130t-48 116q-47 40 -135 40q-87 0 -151 -53t-64 -129t46 -117t134 -41zM715 815q-1 141 107 229t254 89q146 0 226 -68q81 -68 80 -176q0 -63 -28 -113t-84 -117l-301 -333h-158l225 252q-12 -2 -39 -3q-127 0 -205 66t-77 174zM932 84
q315 0 542 208q226 208 226 507q0 239 -161 395t-415 156q-315 0 -542 -208t-228 -507q0 -239 161 -395t417 -156zM1141 1462q305 0 495 -183t191 -466q0 -233 -124 -427t-333 -304t-455 -111q-307 -1 -497 183t-191 467q0 233 124 427t334 304t456 110z" />
    <glyph glyph-name="uni278A" unicode="&#x278a;" horiz-adv-x="1837" 
d="M932 326h131l119 788h-351l-18 -115h221zM915 -29q-307 -1 -497 183t-191 467q0 233 124 427t334 304t456 110q305 0 495 -183t191 -466q0 -233 -124 -427t-333 -304t-455 -111z" />
    <glyph glyph-name="uni278B" unicode="&#x278b;" horiz-adv-x="1837" 
d="M1346 930q0 92 -70 148t-190 56t-214 -68q-92 -69 -120 -181h131q18 61 69 99q50 38 116 38t102 -30t36 -72t-16 -74t-30 -46q-14 -15 -24 -26q-9 -11 -56 -47t-56 -47l-342 -287l-10 -67h598l16 108h-379l223 187q72 61 107 95t72 95t37 119zM915 -29q-307 -1 -497 183
t-191 467q0 233 124 427t334 304t456 110q305 0 495 -183t191 -466q0 -233 -124 -427t-333 -304t-455 -111z" />
    <glyph glyph-name="uni278C" unicode="&#x278c;" horiz-adv-x="1837" 
d="M982 309q140 0 238 77q99 77 99 194q0 76 -50 128t-136 66l-33 4l270 238l14 100h-573l-18 -117h393l-240 -208l-14 -105h98q74 0 115 -33t41 -91t-56 -99t-136 -41q-81 0 -125 31t-48 82h-135q4 -104 80 -165t216 -61zM915 -29q-307 -1 -497 183t-191 467q0 233 124 427
t334 304t456 110q305 0 495 -183t191 -466q0 -233 -124 -427t-333 -304t-455 -111z" />
    <glyph glyph-name="uni278D" unicode="&#x278d;" horiz-adv-x="1837" 
d="M770 602l360 371l-55 -371h-305zM1032 326h133l23 161h129l16 115h-127l78 512h-162l-516 -536l-14 -91h465zM915 -29q-307 -1 -497 183t-191 467q0 233 124 427t334 304t456 110q305 0 495 -183t191 -466q0 -233 -124 -427t-333 -304t-455 -111z" />
    <glyph glyph-name="uni278E" unicode="&#x278e;" horiz-adv-x="1837" 
d="M1029 731q171 1 171 -137q0 -68 -59 -117t-143 -49q-168 0 -185 121h-135q2 -104 78 -168t226 -64t250 85q101 86 101 202t-73 178q-74 61 -199 62q-68 0 -143 -31l51 195h385l16 114h-496l-106 -405l102 -39q74 53 159 53zM915 -29q-307 -1 -497 183t-191 467
q0 233 124 427t334 304t456 110q305 0 495 -183t191 -466q0 -233 -124 -427t-333 -304t-455 -111z" />
    <glyph glyph-name="uni278F" unicode="&#x278f;" horiz-adv-x="1837" 
d="M1208 604q0 -76 -64 -129t-152 -53q-89 0 -135 40t-46 116t65 130q66 54 152 54t133 -41t47 -117zM982 315q144 0 254 89q108 89 107 229q0 100 -65 165q-66 65 -174 72q-57 0 -88 -6l231 258h-162l-297 -334q-57 -66 -85 -114t-27 -115q0 -109 81 -177t225 -67zM915 -29
q-307 -1 -497 183t-191 467q0 233 124 427t334 304t456 110q305 0 495 -183t191 -466q0 -233 -124 -427t-333 -304t-455 -111z" />
    <glyph glyph-name="uni2790" unicode="&#x2790;" horiz-adv-x="1837" 
d="M741 326h154l485 710l13 78h-611l-16 -121h434zM915 -29q-307 -1 -497 183t-191 467q0 233 124 427t334 304t456 110q305 0 495 -183t191 -466q0 -233 -124 -427t-333 -304t-455 -111z" />
    <glyph glyph-name="uni2791" unicode="&#x2791;" horiz-adv-x="1837" 
d="M1188 562q0 -60 -58 -102t-141 -42q-82 0 -127 33t-45 93q1 60 59 102t141 42t127 -33t44 -93zM1221 912q1 -54 -51 -94t-127 -40t-113 31t-39 86q0 55 53 95t125 40t112 -32t40 -86zM666 518q0 -94 81 -152t231 -57q150 0 255 73q104 72 104 190t-125 171
q145 63 146 195q0 90 -75 143t-203 53t-226 -67q-98 -68 -98 -174t94 -150q-184 -72 -184 -225zM915 -29q-307 -1 -497 183t-191 467q0 233 124 427t334 304t456 110q305 0 495 -183t191 -466q0 -233 -124 -427t-333 -304t-455 -111z" />
    <glyph glyph-name="uni2792" unicode="&#x2792;" horiz-adv-x="1837" 
d="M1030 686q-88 0 -134 41t-46 117t63 129t151 53t136 -40q47 -40 47 -116t-64 -130q-65 -54 -153 -54zM1076 1133q-146 -1 -254 -89t-107 -229q0 -97 61 -159q92 -94 264 -74l-229 -256h158l301 333q57 66 85 116t27 114q0 109 -80 177t-226 67zM915 -29q-307 -1 -497 183
t-191 467q0 233 124 427t334 304t456 110q305 0 495 -183t191 -466q0 -233 -124 -427t-333 -304t-455 -111z" />
    <glyph glyph-name="uniF8FF" unicode="&#xf8ff;" horiz-adv-x="1536" 
d="M449 578h147l31 -269h10l57 269h146l57 -269h12l31 269h145v-9l-75 -379h-199l-23 123l-16 103h-10l-14 -103l-25 -123h-201l-73 379v9zM358 90h820v1249h-820v-1249zM205 -72v1573h1126v-1573h-1126z" />
    <glyph glyph-name="Jacute" horiz-adv-x="1280" 
d="M586.5 -29q-234.5 0 -362.5 117t-120 324h181q4 -129 85 -205t238.5 -76t266 105.5t135.5 275.5l116 764h-698l25 158h880l-139 -928q-39 -250 -206 -392.5t-401.5 -142.5zM821 1581l-4 6l217 295h195l-250 -301h-158z" />
    <glyph glyph-name="A.ss01" horiz-adv-x="1607" 
d="M823 555h504l98 641h-4zM84 0l1360 1434h198l-217 -1434h-180l58 395h-627l-371 -395h-221z" />
    <glyph glyph-name="Aacute.ss01" horiz-adv-x="1607" 
d="M823 555h504l98 641h-4zM84 0l1360 1434h198l-217 -1434h-180l58 395h-627l-371 -395h-221zM1485 1581l-4 6l217 295h194l-250 -301h-157z" />
    <glyph glyph-name="Abreve.ss01" horiz-adv-x="1607" 
d="M823 555h504l98 641h-4zM84 0l1360 1434h198l-217 -1434h-180l58 395h-627l-371 -395h-221zM1566.5 1593q-145.5 0 -217 82t-55.5 211h131q-6 -80 34 -130t125 -50t138.5 49t73.5 131h129q-23 -129 -118 -211t-240.5 -82z" />
    <glyph glyph-name="Acircumflex.ss01" horiz-adv-x="1607" 
d="M823 555h504l98 641h-4zM84 0l1360 1434h198l-217 -1434h-180l58 395h-627l-371 -395h-221zM1210 1579l312 301h174l221 -301h-168l-156 195l-215 -195h-168z" />
    <glyph glyph-name="Adieresis.ss01" horiz-adv-x="1607" 
d="M823 555h504l98 641h-4zM84 0l1360 1434h198l-217 -1434h-180l58 395h-627l-371 -395h-221zM1659 1606l35 219h223l-33 -219h-225zM1249 1606l35 219h223l-32 -219h-226z" />
    <glyph glyph-name="Agrave.ss01" horiz-adv-x="1607" 
d="M823 555h504l98 641h-4zM84 0l1360 1434h198l-217 -1434h-180l58 395h-627l-371 -395h-221zM1649 1581h-158l-160 301h195l127 -295z" />
    <glyph glyph-name="Amacron.ss01" horiz-adv-x="1607" 
d="M823 555h504l98 641h-4zM84 0l1360 1434h198l-217 -1434h-180l58 395h-627l-371 -395h-221zM1266 1608l20 135h604l-20 -135h-604z" />
    <glyph glyph-name="Aogonek.ss01" horiz-adv-x="1607" 
d="M823 555h504l98 641h-4zM1229 -156q0 -92 145 -92q27 0 80 8l-2 -125q-56 -16 -146 -16t-161.5 50t-71.5 136q0 147 176 226l54 364h-627l-371 -395h-221l1360 1434h198l-217 -1434q-196 -47 -196 -156z" />
    <glyph glyph-name="Aring.ss01" horiz-adv-x="1607" 
d="M823 555h504l98 641h-4zM84 0l1360 1434h198l-217 -1434h-180l58 395h-627l-371 -395h-221zM1588 1700q50 0 90 36t40 84t-28.5 74.5t-78.5 26.5t-90 -36t-40 -84t28.5 -74.5t78.5 -26.5zM1579.5 1610q-98.5 0 -151 48t-52.5 135t73 152.5t171 65.5t150.5 -48t52.5 -136
t-72.5 -152.5t-171 -64.5z" />
    <glyph glyph-name="M.ss02" horiz-adv-x="2768" 
d="M2580 1434h224l-217 -1434h-181l183 1204h-4l-1119 -1204h-221l180 1204h-4l-1116 -1204h-221l1335 1434h223l-182 -1203z" />
    <glyph glyph-name="V.ss02" horiz-adv-x="1607" 
d="M1202 0l-901 1434h221l754 -1205h4l182 1205h180l-217 -1434h-223z" />
    <glyph glyph-name="W.ss02" horiz-adv-x="2768" 
d="M2623 1434h181l-217 -1434h-224l-755 1202l-183 -1202h-223l-901 1434h221l754 -1205h4l182 1205h221l754 -1205h4z" />
    <glyph glyph-name="Wacute.ss02" horiz-adv-x="2768" 
d="M2623 1434h181l-217 -1434h-224l-755 1202l-183 -1202h-223l-901 1434h221l754 -1205h4l182 1205h221l754 -1205h4zM1667 1581h-158l-4 6l217 295h195z" />
    <glyph glyph-name="Wcircumflex.ss02" horiz-adv-x="2768" 
d="M2623 1434h181l-217 -1434h-224l-755 1202l-183 -1202h-223l-901 1434h221l754 -1205h4l182 1205h221l754 -1205h4zM1624 1774l-215 -195h-168l311 301h174l222 -301h-168z" />
    <glyph glyph-name="Wdieresis.ss02" horiz-adv-x="2768" 
d="M2623 1434h181l-217 -1434h-224l-755 1202l-183 -1202h-223l-901 1434h221l754 -1205h4l182 1205h221l754 -1205h4zM1948 1825l-33 -219h-225l34 219h224zM1538 1825l-33 -219h-225l35 219h223z" />
    <glyph glyph-name="Wgrave.ss02" horiz-adv-x="2768" 
d="M2623 1434h181l-217 -1434h-224l-755 1202l-183 -1202h-223l-901 1434h221l754 -1205h4l182 1205h221l754 -1205h4zM1679 1581h-157l-160 301h194l127 -295z" />
    <glyph glyph-name="J.ss03" horiz-adv-x="1280" 
d="M586.5 -29q-234.5 0 -362.5 117t-120 324h181q4 -129 85 -205t238.5 -76t266 105.5t135.5 275.5l139 922h184l-139 -928q-39 -250 -206 -392.5t-401.5 -142.5z" />
    <glyph glyph-name="Jacute.ss03" horiz-adv-x="1280" 
d="M586.5 -29q-234.5 0 -362.5 117t-120 324h181q4 -129 85 -205t238.5 -76t266 105.5t135.5 275.5l139 922h184l-139 -928q-39 -250 -206 -392.5t-401.5 -142.5zM1180 1581l-4 6l217 295h194l-250 -301h-157z" />
    <glyph glyph-name="A.ss04" horiz-adv-x="1607" 
d="M950 555l-401 641h-4l-99 -641h504zM1526 0h-223l-252 395h-627l-59 -395h-181l217 1434h197z" />
    <glyph glyph-name="Aacute.ss04" horiz-adv-x="1607" 
d="M950 555l-401 641h-4l-99 -641h504zM1526 0h-223l-252 395h-627l-59 -395h-181l217 1434h197zM436 1581l-4 6l217 295h195l-250 -301h-158z" />
    <glyph glyph-name="Abreve.ss04" horiz-adv-x="1607" 
d="M950 555l-401 641h-4l-99 -641h504zM1526 0h-223l-252 395h-627l-59 -395h-181l217 1434h197zM524.5 1593q-145.5 0 -217 82t-55.5 211h131q-6 -80 34 -130t125 -50t138.5 49t73.5 131h129q-23 -129 -118 -211t-240.5 -82z" />
    <glyph glyph-name="Acircumflex.ss04" horiz-adv-x="1607" 
d="M950 555l-401 641h-4l-99 -641h504zM1526 0h-223l-252 395h-627l-59 -395h-181l217 1434h197zM168 1579l311 301h174l221 -301h-167l-156 195l-215 -195h-168z" />
    <glyph glyph-name="Adieresis.ss04" horiz-adv-x="1607" 
d="M950 555l-401 641h-4l-99 -641h504zM1526 0h-223l-252 395h-627l-59 -395h-181l217 1434h197zM616 1606l35 219h223l-32 -219h-226zM207 1606l35 219h223l-33 -219h-225z" />
    <glyph glyph-name="Agrave.ss04" horiz-adv-x="1607" 
d="M950 555l-401 641h-4l-99 -641h504zM1526 0h-223l-252 395h-627l-59 -395h-181l217 1434h197zM606 1581h-157l-160 301h194l127 -295z" />
    <glyph glyph-name="Amacron.ss04" horiz-adv-x="1607" 
d="M950 555l-401 641h-4l-99 -641h504zM1526 0h-223l-252 395h-627l-59 -395h-181l217 1434h197zM223 1608l21 135h604l-21 -135h-604z" />
    <glyph glyph-name="Aogonek.ss04" horiz-adv-x="1607" 
d="M446 555h504l-401 641h-4zM1276 -156q0 -92 145 -92q27 0 80 8l-2 -125q-57 -16 -147 -16t-161 50t-71 136q0 145 166 222l-235 368h-627l-59 -395h-181l217 1434h197l928 -1434h-53q-197 -47 -197 -156z" />
    <glyph glyph-name="Aring.ss04" horiz-adv-x="1607" 
d="M950 555l-401 641h-4l-99 -641h504zM1526 0h-223l-252 395h-627l-59 -395h-181l217 1434h197zM546 1700q50 0 90 36t40 84t-29 74.5t-79 26.5t-90 -36t-40 -84t29 -74.5t79 -26.5zM536.5 1610q-98.5 0 -150.5 48t-52 135t72.5 152.5t171 65.5t150.5 -48t52 -136
t-72.5 -152.5t-171 -64.5z" />
    <glyph glyph-name="M.ss05" horiz-adv-x="2768" 
d="M1786 1434l901 -1434h-221l-754 1204h-4l-182 -1204h-223l-754 1204h-4l-180 -1204h-181l217 1434h222l757 -1203l183 1203h223z" />
    <glyph glyph-name="V.ss05" horiz-adv-x="1607" 
d="M406 0h-222l217 1434h181l-183 -1205h4l1117 1205h223z" />
    <glyph glyph-name="W.ss05" horiz-adv-x="2768" 
d="M2683 1434h221l-1335 -1434h-223l182 1202l-1122 -1202h-222l217 1434h181l-183 -1205h4l1117 1205h223l-182 -1205h4z" />
    <glyph glyph-name="Wacute.ss05" horiz-adv-x="2768" 
d="M2683 1434h221l-1335 -1434h-223l182 1202l-1122 -1202h-222l217 1434h181l-183 -1205h4l1117 1205h223l-182 -1205h4zM1726 1581h-157l-4 6l217 295h194z" />
    <glyph glyph-name="Wcircumflex.ss05" horiz-adv-x="2768" 
d="M2683 1434h221l-1335 -1434h-223l182 1202l-1122 -1202h-222l217 1434h181l-183 -1205h4l1117 1205h223l-182 -1205h4zM1683 1774l-215 -195h-168l312 301h174l221 -301h-168z" />
    <glyph glyph-name="Wdieresis.ss05" horiz-adv-x="2768" 
d="M2683 1434h221l-1335 -1434h-223l182 1202l-1122 -1202h-222l217 1434h181l-183 -1205h4l1117 1205h223l-182 -1205h4zM2007 1825l-33 -219h-225l35 219h223zM1597 1825l-32 -219h-226l35 219h223z" />
    <glyph glyph-name="Wgrave.ss05" horiz-adv-x="2768" 
d="M2683 1434h221l-1335 -1434h-223l182 1202l-1122 -1202h-222l217 1434h181l-183 -1205h4l1117 1205h223l-182 -1205h4zM1739 1581h-158l-160 301h195l127 -295z" />
    <glyph glyph-name="i.loclTRK" horiz-adv-x="542" 
d="M184 0l146 969h176l-148 -969h-174zM371 1409h223l-33 -221h-223z" />
    <glyph glyph-name="jacute" horiz-adv-x="542" 
d="M-86 -496h-35l23 144l14 2q117 6 174 57t76 182l164 1080h176l-160 -1061q-33 -213 -136.5 -308.5t-295.5 -95.5zM356 1151v6l215 293h195l-252 -299h-158z" />
    <glyph glyph-name="v.ss02" horiz-adv-x="1286" 
d="M932 0l-729 969h207l563 -754h4l115 754h174l-148 -969h-186z" />
    <glyph glyph-name="w.ss02" horiz-adv-x="2050" 
d="M885 0l-682 969h207l518 -754h4l112 754h177l516 -754h4l114 754h175l-148 -969h-184l-510 721h-4l-111 -721h-188z" />
    <glyph glyph-name="wacute.ss02" horiz-adv-x="2050" 
d="M885 0l-682 969h207l518 -754h4l112 754h177l516 -754h4l114 754h175l-148 -969h-184l-510 721h-4l-111 -721h-188zM1069 1151v6l215 293h195l-252 -299h-158z" />
    <glyph glyph-name="wcircumflex.ss02" horiz-adv-x="2050" 
d="M885 0l-682 969h207l518 -754h4l112 754h177l516 -754h4l114 754h175l-148 -969h-184l-510 721h-4l-111 -721h-188zM803 1137l311 299h176l221 -299h-170l-155 194l-215 -194h-168z" />
    <glyph glyph-name="wdieresis.ss02" horiz-adv-x="2050" 
d="M885 0l-682 969h207l518 -754h4l112 754h177l516 -754h4l114 754h175l-148 -969h-184l-510 721h-4l-111 -721h-188zM1290 1409h223l-32 -221h-224zM881 1409h223l-33 -221h-223z" />
    <glyph glyph-name="wgrave.ss02" horiz-adv-x="2050" 
d="M885 0l-682 969h207l518 -754h4l112 754h177l516 -754h4l114 754h175l-148 -969h-184l-510 721h-4l-111 -721h-188zM1243 1151h-158l-159 299h194l127 -293z" />
    <glyph glyph-name="y.ss02" horiz-adv-x="1286" 
d="M1266 969l-217 -1436h-177l72 467l-741 969h207l565 -742h4l113 742h174z" />
    <glyph glyph-name="yacute.ss02" horiz-adv-x="1286" 
d="M1266 969l-217 -1436h-177l72 467l-741 969h207l565 -742h4l113 742h174zM727 1151v6l215 293h195l-252 -299h-158z" />
    <glyph glyph-name="ycircumflex.ss02" horiz-adv-x="1286" 
d="M1266 969l-217 -1436h-177l72 467l-741 969h207l565 -742h4l113 742h174zM844 1331l-215 -194h-168l311 299h176l221 -299h-170z" />
    <glyph glyph-name="ydieresis.ss02" horiz-adv-x="1286" 
d="M1266 969l-217 -1436h-177l72 467l-741 969h207l565 -742h4l113 742h174zM1171 1409l-32 -221h-224l33 221h223zM762 1409l-33 -221h-223l33 221h223z" />
    <glyph glyph-name="ygrave.ss02" horiz-adv-x="1286" 
d="M1266 969l-217 -1436h-177l72 467l-741 969h207l565 -742h4l113 742h174zM901 1151h-158l-159 299h194l127 -293z" />
    <glyph glyph-name="uni1EF9.ss02" horiz-adv-x="1286" 
d="M1266 969l-217 -1436h-177l72 467l-741 969h207l565 -742h4l113 742h174zM702 1292q-70 0 -90 -80h-141q18 96 82.5 155.5t149 59.5t164 -55t114.5 -55q72 0 86 82h141q-14 -96 -80.5 -157.5t-146.5 -61.5t-163 56t-116 56z" />
    <glyph glyph-name="v.ss05" horiz-adv-x="1286" 
d="M166 0l147 969h174l-112 -750h4l786 750h211l-1022 -969h-188z" />
    <glyph glyph-name="w.ss05" horiz-adv-x="2050" 
d="M166 0l147 969h174l-112 -752h4l741 752h178l-114 -752h4l743 752h209l-977 -969h-186l108 721h-4l-729 -721h-186z" />
    <glyph glyph-name="wacute.ss05" horiz-adv-x="2050" 
d="M166 0l147 969h174l-112 -752h4l741 752h178l-114 -752h4l743 752h209l-977 -969h-186l108 721h-4l-729 -721h-186zM1147 1151v6l215 293h194l-251 -299h-158z" />
    <glyph glyph-name="wcircumflex.ss05" horiz-adv-x="2050" 
d="M166 0l147 969h174l-112 -752h4l741 752h178l-114 -752h4l743 752h209l-977 -969h-186l108 721h-4l-729 -721h-186zM881 1137l311 299h176l221 -299h-170l-155 194l-215 -194h-168z" />
    <glyph glyph-name="wdieresis.ss05" horiz-adv-x="2050" 
d="M166 0l147 969h174l-112 -752h4l741 752h178l-114 -752h4l743 752h209l-977 -969h-186l108 721h-4l-729 -721h-186zM1368 1409h223l-32 -221h-224zM958 1409h224l-33 -221h-223z" />
    <glyph glyph-name="wgrave.ss05" horiz-adv-x="2050" 
d="M166 0l147 969h174l-112 -752h4l741 752h178l-114 -752h4l743 752h209l-977 -969h-186l108 721h-4l-729 -721h-186zM1321 1151h-158l-159 299h194l127 -293z" />
    <glyph glyph-name="y.ss05" horiz-adv-x="1286" 
d="M1376 969l-1036 -969l-70 -467h-176l219 1436h174l-112 -738h4l788 738h209z" />
    <glyph glyph-name="yacute.ss05" horiz-adv-x="1286" 
d="M1376 969l-1036 -969l-70 -467h-176l219 1436h174l-112 -738h4l788 738h209zM725 1151v6l215 293h195l-252 -299h-158z" />
    <glyph glyph-name="ycircumflex.ss05" horiz-adv-x="1286" 
d="M1376 969l-1036 -969l-70 -467h-176l219 1436h174l-112 -738h4l788 738h209zM842 1331l-215 -194h-168l311 299h176l221 -299h-170z" />
    <glyph glyph-name="ydieresis.ss05" horiz-adv-x="1286" 
d="M1376 969l-1036 -969l-70 -467h-176l219 1436h174l-112 -738h4l788 738h209zM1169 1409l-32 -221h-224l33 221h223zM760 1409l-33 -221h-223l33 221h223z" />
    <glyph glyph-name="ygrave.ss05" horiz-adv-x="1286" 
d="M1376 969l-1036 -969l-70 -467h-176l219 1436h174l-112 -738h4l788 738h209zM899 1151h-158l-159 299h194l127 -293z" />
    <glyph glyph-name="uni1EF9.ss05" horiz-adv-x="1286" 
d="M1376 969l-1036 -969l-70 -467h-176l219 1436h174l-112 -738h4l788 738h209zM700 1292q-70 0 -90 -80h-141q18 96 82.5 155.5t149 59.5t164 -55t114.5 -55q72 0 86 82h141q-14 -96 -80.5 -157.5t-146.5 -61.5t-163 56t-116 56z" />
    <glyph glyph-name="a.ss06" horiz-adv-x="1220" 
d="M553 109q160 0 271.5 87t131.5 226h-401q-104 0 -166.5 -44t-62.5 -117t64.5 -112.5t162.5 -39.5zM152 243.5q0 130.5 117.5 217t301.5 86.5h404l4 28q18 131 -42 205t-179 74t-197 -44t-104 -120h-176q41 139 177 223t327.5 84t294 -113.5t73.5 -312.5l-86 -571h-176
l22 152h-4q-151 -181 -427 -181q-140 0 -235 71t-95 201.5z" />
    <glyph glyph-name="aacute.ss06" horiz-adv-x="1220" 
d="M553 109q160 0 271.5 87t131.5 226h-401q-104 0 -166.5 -44t-62.5 -117t64.5 -112.5t162.5 -39.5zM152 243.5q0 130.5 117.5 217t301.5 86.5h404l4 28q18 131 -42 205t-179 74t-197 -44t-104 -120h-176q41 139 177 223t327.5 84t294 -113.5t73.5 -312.5l-86 -571h-176
l22 152h-4q-151 -181 -427 -181q-140 0 -235 71t-95 201.5zM692 1151v6l215 293h195l-252 -299h-158z" />
    <glyph glyph-name="abreve.ss06" horiz-adv-x="1220" 
d="M553 109q160 0 271.5 87t131.5 226h-401q-104 0 -166.5 -44t-62.5 -117t64.5 -112.5t162.5 -39.5zM152 243.5q0 130.5 117.5 217t301.5 86.5h404l4 28q18 131 -42 205t-179 74t-197 -44t-104 -120h-176q41 139 177 223t327.5 84t294 -113.5t73.5 -312.5l-86 -571h-176
l22 152h-4q-151 -181 -427 -181q-140 0 -235 71t-95 201.5zM778.5 1128q-145.5 0 -216 82t-54.5 211h131q-6 -82 33 -131t124 -49t140.5 49t73.5 131h129q-23 -129 -119 -211t-241.5 -82z" />
    <glyph glyph-name="acircumflex.ss06" horiz-adv-x="1220" 
d="M553 109q160 0 271.5 87t131.5 226h-401q-104 0 -166.5 -44t-62.5 -117t64.5 -112.5t162.5 -39.5zM152 243.5q0 130.5 117.5 217t301.5 86.5h404l4 28q18 131 -42 205t-179 74t-197 -44t-104 -120h-176q41 139 177 223t327.5 84t294 -113.5t73.5 -312.5l-86 -571h-176
l22 152h-4q-151 -181 -427 -181q-140 0 -235 71t-95 201.5zM426 1137l311 299h176l222 -299h-170l-156 194l-215 -194h-168z" />
    <glyph glyph-name="adieresis.ss06" horiz-adv-x="1220" 
d="M553 109q160 0 271.5 87t131.5 226h-401q-104 0 -166.5 -44t-62.5 -117t64.5 -112.5t162.5 -39.5zM152 243.5q0 130.5 117.5 217t301.5 86.5h404l4 28q18 131 -42 205t-179 74t-197 -44t-104 -120h-176q41 139 177 223t327.5 84t294 -113.5t73.5 -312.5l-86 -571h-176
l22 152h-4q-151 -181 -427 -181q-140 0 -235 71t-95 201.5zM913 1409h224l-33 -221h-223zM504 1409h223l-33 -221h-223z" />
    <glyph glyph-name="agrave.ss06" horiz-adv-x="1220" 
d="M553 109q160 0 271.5 87t131.5 226h-401q-104 0 -166.5 -44t-62.5 -117t64.5 -112.5t162.5 -39.5zM152 243.5q0 130.5 117.5 217t301.5 86.5h404l4 28q18 131 -42 205t-179 74t-197 -44t-104 -120h-176q41 139 177 223t327.5 84t294 -113.5t73.5 -312.5l-86 -571h-176
l22 152h-4q-151 -181 -427 -181q-140 0 -235 71t-95 201.5zM866 1151h-157l-160 299h194l127 -293z" />
    <glyph glyph-name="amacron.ss06" horiz-adv-x="1220" 
d="M553 109q160 0 271.5 87t131.5 226h-401q-104 0 -166.5 -44t-62.5 -117t64.5 -112.5t162.5 -39.5zM152 243.5q0 130.5 117.5 217t301.5 86.5h404l4 28q18 131 -42 205t-179 74t-197 -44t-104 -120h-176q41 139 177 223t327.5 84t294 -113.5t73.5 -312.5l-86 -571h-176
l22 152h-4q-151 -181 -427 -181q-140 0 -235 71t-95 201.5zM485 1192l21 137h606l-20 -137h-607z" />
    <glyph glyph-name="aogonek.ss06" horiz-adv-x="1220" 
d="M553 109q160 0 271.5 87t131.5 226h-401q-104 0 -166.5 -44t-62.5 -117t64.5 -112.5t162.5 -39.5zM909 152q-151 -181 -427 -181q-140 0 -235 71t-95 201.5t117.5 217t301.5 86.5h404l4 28q18 131 -42 205t-179 74t-197 -44t-104 -120h-176q41 139 177 223t327.5 84
t294 -113.5t73.5 -312.5l-86 -571q-197 -47 -197 -156q0 -92 146 -92q27 0 80 8l-2 -125q-57 -16 -146.5 -16t-161 50t-71.5 136q0 150 180 228l18 119h-4z" />
    <glyph glyph-name="aring.ss06" horiz-adv-x="1220" 
d="M553 109q160 0 271.5 87t131.5 226h-401q-104 0 -166.5 -44t-62.5 -117t64.5 -112.5t162.5 -39.5zM152 243.5q0 130.5 117.5 217t301.5 86.5h404l4 28q18 131 -42 205t-179 74t-197 -44t-104 -120h-176q41 139 177 223t327.5 84t294 -113.5t73.5 -312.5l-86 -571h-176
l22 152h-4q-151 -181 -427 -181q-140 0 -235 71t-95 201.5zM798 1219q50 0 91 35.5t41 85t-29 76t-79 26.5t-91 -37t-41 -85t29 -74.5t79 -26.5zM790.5 1130q-98.5 0 -151.5 47.5t-53 135.5t72.5 152.5t172 64.5t150.5 -48t51 -135t-71.5 -152t-170 -65z" />
    <glyph glyph-name="atilde.ss06" horiz-adv-x="1220" 
d="M553 109q160 0 271.5 87t131.5 226h-401q-104 0 -166.5 -44t-62.5 -117t64.5 -112.5t162.5 -39.5zM152 243.5q0 130.5 117.5 217t301.5 86.5h404l4 28q18 131 -42 205t-179 74t-197 -44t-104 -120h-176q41 139 177 223t327.5 84t294 -113.5t73.5 -312.5l-86 -571h-176
l22 152h-4q-151 -181 -427 -181q-140 0 -235 71t-95 201.5zM946 1180q-80 0 -163 56t-115 56q-70 0 -90 -80h-142q18 96 83 155.5t149 59.5t163.5 -55t114.5 -55q72 0 86 82h142q-14 -96 -81 -157.5t-147 -61.5z" />
    <glyph glyph-name="ij.ss07" horiz-adv-x="1085" 
d="M655 -467l217 1436h177l-220 -1436h-174zM184 0l146 969h176l-148 -969h-174zM924 1335l37 242h182l-37 -242h-182zM381 1335l37 242h182l-37 -242h-182z" />
    <glyph glyph-name="j.ss07" horiz-adv-x="542" 
d="M113 -467l217 1436h176l-219 -1436h-174zM381 1335l37 242h182l-37 -242h-182z" />
    <glyph glyph-name="uni0237.ss07" horiz-adv-x="542" 
d="M113 -467l217 1436h176l-219 -1436h-174z" />
    <glyph glyph-name="jacute.ss07" horiz-adv-x="542" 
d="M113 -467l217 1436h176l-219 -1436h-174zM354 1151v6l215 293h195l-252 -299h-158z" />
    <glyph glyph-name="f.ss08" horiz-adv-x="684" 
d="M813 1454q-117 0 -195 -60t-92 -163l-39 -262h336l-20 -142h-338l-125 -827h-174l186 1231q25 168 151 271t306 104q68 0 109 -13l-23 -149q-45 10 -82 10z" />
    <glyph glyph-name="t.ss09" horiz-adv-x="737" 
d="M485 -29q-168 0 -248.5 98.5t-54.5 276.5l144 950h176l-49 -327h325l-20 -142h-328l-72 -477q-33 -225 174 -225q31 0 121 8l-22 -145q-68 -17 -146 -17z" />
    <glyph glyph-name="tbar.ss09" horiz-adv-x="798" 
d="M532 125q31 0 121 8l-22 -145q-68 -16 -146 -17q-168 0 -248.5 98.5t-54.5 276.5l144 950h176l-49 -327h325l-20 -142h-328l-27 -176h328l-18 -121h-328l-27 -180q-33 -225 174 -225z" />
    <glyph glyph-name="tcaron.ss09" horiz-adv-x="737" 
d="M485 -29q-168 0 -248.5 98.5t-54.5 276.5l144 950h176l-49 -327h325l-20 -142h-328l-72 -477q-33 -225 174 -225q31 0 121 8l-22 -145q-68 -17 -146 -17zM637 1155l76 387h180l-121 -387h-135z" />
    <glyph glyph-name="uni0163.ss09" horiz-adv-x="737" 
d="M532 125q31 0 121 8l-22 -145q-68 -16 -146 -17h-10l-158 -299h-153l153 334q-176 84 -135 340l144 950h176l-49 -327h325l-20 -142h-328l-72 -477q-33 -225 174 -225z" />
    <glyph glyph-name="uni021B.ss09" horiz-adv-x="737" 
d="M276 -125h220l-17 -113q-18 -127 -76.5 -186t-205.5 -94l-11 84q88 31 118 56.5t40 82.5h-94zM485 -29q-168 0 -248.5 98.5t-54.5 276.5l144 950h176l-49 -327h325l-20 -142h-328l-72 -477q-33 -225 174 -225q31 0 121 8l-22 -145q-68 -17 -146 -17z" />
    <glyph glyph-name="u.ss10" horiz-adv-x="1261" 
d="M563 -29q-193 0 -296 123t-74 316l83 559h175l-82 -549q-20 -137 46 -218t204 -81t243 90t125 238l80 520h174l-147 -969h-174l22 152h-4q-66 -84 -167 -132.5t-208 -48.5z" />
    <glyph glyph-name="uacute.ss10" horiz-adv-x="1261" 
d="M563 -29q-193 0 -296 123t-74 316l83 559h175l-82 -549q-20 -137 46 -218t204 -81t243 90t125 238l80 520h174l-147 -969h-174l22 152h-4q-66 -84 -167 -132.5t-208 -48.5zM702 1151v6l216 293h194l-252 -299h-158z" />
    <glyph glyph-name="ucircumflex.ss10" horiz-adv-x="1261" 
d="M563 -29q-193 0 -296 123t-74 316l83 559h175l-82 -549q-20 -137 46 -218t204 -81t243 90t125 238l80 520h174l-147 -969h-174l22 152h-4q-66 -84 -167 -132.5t-208 -48.5zM436 1137l312 299h176l221 -299h-170l-156 194l-215 -194h-168z" />
    <glyph glyph-name="udieresis.ss10" horiz-adv-x="1261" 
d="M563 -29q-193 0 -296 123t-74 316l83 559h175l-82 -549q-20 -137 46 -218t204 -81t243 90t125 238l80 520h174l-147 -969h-174l22 152h-4q-66 -84 -167 -132.5t-208 -48.5zM924 1409h223l-33 -221h-223zM514 1409h223l-32 -221h-224z" />
    <glyph glyph-name="ugrave.ss10" horiz-adv-x="1261" 
d="M563 -29q-193 0 -296 123t-74 316l83 559h175l-82 -549q-20 -137 46 -218t204 -81t243 90t125 238l80 520h174l-147 -969h-174l22 152h-4q-66 -84 -167 -132.5t-208 -48.5zM877 1151h-158l-160 299h195l127 -293z" />
    <glyph glyph-name="uhungarumlaut.ss10" horiz-adv-x="1261" 
d="M563 -29q-193 0 -296 123t-74 316l83 559h175l-82 -549q-20 -137 46 -218t204 -81t243 90t125 238l80 520h174l-147 -969h-174l22 152h-4q-66 -84 -167 -132.5t-208 -48.5zM870 1151v6l193 293h182l-229 -299h-146zM571 1151v6l193 293h182l-229 -299h-146z" />
    <glyph glyph-name="umacron.ss10" horiz-adv-x="1261" 
d="M563 -29q-193 0 -296 123t-74 316l83 559h175l-82 -549q-20 -137 46 -218t204 -81t243 90t125 238l80 520h174l-147 -969h-174l22 152h-4q-66 -84 -167 -132.5t-208 -48.5zM496 1192l20 137h606l-20 -137h-606z" />
    <glyph glyph-name="uogonek.ss10" horiz-adv-x="1261" 
d="M897 -156q0 -92 145 -92q27 0 80 8l-2 -125q-56 -16 -146 -16t-161.5 50t-71.5 136q0 150 183 230l18 117h-4q-66 -84 -167 -132.5t-208 -48.5q-193 0 -296 123t-74 316l83 559h175l-82 -549q-20 -137 46 -218t204 -81t243 90t125 238l80 520h174l-147 -969
q-197 -47 -197 -156z" />
    <glyph glyph-name="uring.ss10" horiz-adv-x="1261" 
d="M563 -29q-193 0 -296 123t-74 316l83 559h175l-82 -549q-20 -137 46 -218t204 -81t243 90t125 238l80 520h174l-147 -969h-174l22 152h-4q-66 -84 -167 -132.5t-208 -48.5zM808 1219q50 0 91 35.5t41 85t-28.5 76t-78.5 26.5t-91.5 -37t-41.5 -85t29 -74.5t79 -26.5z
M801.5 1130q-98.5 0 -152 47.5t-53.5 135.5t72.5 152.5t172 64.5t150.5 -48t51 -135t-71 -152t-169.5 -65z" />
    <glyph glyph-name="utilde.ss10" horiz-adv-x="1261" 
d="M563 -29q-193 0 -296 123t-74 316l83 559h175l-82 -549q-20 -137 46 -218t204 -81t243 90t125 238l80 520h174l-147 -969h-174l22 152h-4q-66 -84 -167 -132.5t-208 -48.5zM956 1180q-80 0 -162.5 56t-115.5 56q-70 0 -90 -80h-142q18 96 83 155.5t149 59.5t164 -55
t114 -55q72 0 86 82h142q-14 -96 -81 -157.5t-147 -61.5z" />
    <glyph glyph-name="y.ss11" horiz-adv-x="1314" 
d="M217 -496q-82 0 -154 17l25 149q59 -14 143 -14t147.5 41t125.5 139l78 125l-365 1008h189l290 -815h4l504 815h187l-736 -1186q-174 -279 -438 -279z" />
    <glyph glyph-name="yacute.ss11" horiz-adv-x="1314" 
d="M217 -496q-82 0 -154 17l25 149q59 -14 143 -14t147.5 41t125.5 139l78 125l-365 1008h189l290 -815h4l504 815h187l-736 -1186q-174 -279 -438 -279zM741 1151v6l215 293h195l-252 -299h-158z" />
    <glyph glyph-name="ycircumflex.ss11" horiz-adv-x="1314" 
d="M217 -496q-82 0 -154 17l25 149q59 -14 143 -14t147.5 41t125.5 139l78 125l-365 1008h189l290 -815h4l504 815h187l-736 -1186q-174 -279 -438 -279zM475 1137l311 299h177l221 -299h-170l-156 194l-215 -194h-168z" />
    <glyph glyph-name="ydieresis.ss11" horiz-adv-x="1314" 
d="M217 -496q-82 0 -154 17l25 149q59 -14 143 -14t147.5 41t125.5 139l78 125l-365 1008h189l290 -815h4l504 815h187l-736 -1186q-174 -279 -438 -279zM963 1409h223l-33 -221h-223zM553 1409h223l-33 -221h-223z" />
    <glyph glyph-name="ygrave.ss11" horiz-adv-x="1314" 
d="M217 -496q-82 0 -154 17l25 149q59 -14 143 -14t147.5 41t125.5 139l78 125l-365 1008h189l290 -815h4l504 815h187l-736 -1186q-174 -279 -438 -279zM915 1151h-157l-160 299h195l127 -293z" />
    <glyph glyph-name="y.ss12" horiz-adv-x="1277" 
d="M554 -496q-214 0 -332 100.5t-122 262.5h181q8 -96 81.5 -154.5t211 -58.5t236.5 79t122 222l29 197h-5q-156 -180 -381 -181q-190 0 -291.5 123t-72.5 316l84 559h174l-82 -549q-20 -137 46.5 -218t204.5 -81t242.5 90t125.5 238l79 520h172l-151 -1014
q-31 -203 -184.5 -327t-367.5 -124z" />
    <glyph glyph-name="yacute.ss12" horiz-adv-x="1277" 
d="M554 -496q-214 0 -332 100.5t-122 262.5h181q8 -96 81.5 -154.5t211 -58.5t236.5 79t122 222l29 197h-5q-156 -180 -381 -181q-190 0 -291.5 123t-72.5 316l84 559h174l-82 -549q-20 -137 46.5 -218t204.5 -81t242.5 90t125.5 238l79 520h172l-151 -1014
q-31 -203 -184.5 -327t-367.5 -124zM713 1151v6l215 293h194l-252 -299h-157z" />
    <glyph glyph-name="ycircumflex.ss12" horiz-adv-x="1277" 
d="M554 -496q-214 0 -332 100.5t-122 262.5h181q8 -96 81.5 -154.5t211 -58.5t236.5 79t122 222l29 197h-5q-156 -180 -381 -181q-190 0 -291.5 123t-72.5 316l84 559h174l-82 -549q-20 -137 46.5 -218t204.5 -81t242.5 90t125.5 238l79 520h172l-151 -1014
q-31 -203 -184.5 -327t-367.5 -124zM446 1137l312 299h176l221 -299h-170l-156 194l-215 -194h-168z" />
    <glyph glyph-name="ydieresis.ss12" horiz-adv-x="1277" 
d="M554 -496q-214 0 -332 100.5t-122 262.5h181q8 -96 81.5 -154.5t211 -58.5t236.5 79t122 222l29 197h-5q-156 -180 -381 -181q-190 0 -291.5 123t-72.5 316l84 559h174l-82 -549q-20 -137 46.5 -218t204.5 -81t242.5 90t125.5 238l79 520h172l-151 -1014
q-31 -203 -184.5 -327t-367.5 -124zM934 1409h223l-33 -221h-223zM524 1409h224l-33 -221h-223z" />
    <glyph glyph-name="ygrave.ss12" horiz-adv-x="1277" 
d="M554 -496q-214 0 -332 100.5t-122 262.5h181q8 -96 81.5 -154.5t211 -58.5t236.5 79t122 222l29 197h-5q-156 -180 -381 -181q-190 0 -291.5 123t-72.5 316l84 559h174l-82 -549q-20 -137 46.5 -218t204.5 -81t242.5 90t125.5 238l79 520h172l-151 -1014
q-31 -203 -184.5 -327t-367.5 -124zM887 1151h-158l-160 299h195l127 -293z" />
    <glyph glyph-name="germandbls.ss13" horiz-adv-x="1282" 
d="M1233 469q0 -217 -154 -357t-387 -141q-106 0 -209 39l23 152q86 -37 184 -37q156 0 260 94q104 95 104 225t-76 198q-77 68 -208 69h-59l20 139l189 211q117 123 116 231q0 76 -61 120t-172 44t-194 -64t-97 -167l-256 -1692h-174l254 1692q27 174 161 277
q134 104 319 104q184 0 288 -79t104 -221t-155 -305l-152 -163q156 -20 244 -118t88 -251z" />
    <glyph glyph-name="C_A" horiz-adv-x="2275" 
d="M1995 555l96 641h-4l-596 -641h504zM893 0q-305 0 -486 166t-182 446q0 367 257 609t636 241q238 0 400 -114l-140 -125q-117 76 -284 75q-285 0 -483 -190t-197 -473q0 -211 134 -339t357 -132l1204 1270h199l-217 -1434h-180l59 395h-629l-370 -395h-78z" />
    <glyph glyph-name="E_A" horiz-adv-x="2080" 
d="M705 158l450 473h-694l-72 -473h316zM1800 555l98 641h-4l-598 -641h504zM1917 1434h197l-218 -1434h-180l60 395h-629l-221 -237h319l-22 -158h-1039l217 1434h1039l-25 -158h-856l-74 -485h770l-10 -64z" />
    <glyph glyph-name="F_A" horiz-adv-x="2080" 
d="M1800 555l98 641h-4l-598 -641h504zM1917 1434h197l-218 -1434h-180l60 395h-629l-369 -395h-223l565 596h-665l-90 -596h-181l217 1434h967l-25 -158h-784l-80 -520h695l-19 -125z" />
    <glyph glyph-name="G_A" horiz-adv-x="2580" 
d="M2300 555l98 641h-4l-598 -641h504zM887 -29q-301 0 -481 176t-181 463q0 367 257 610t634 242q270 0 442 -136t195 -355h-192q-31 155 -158 241t-309 86q-285 0 -483 -190t-197 -473q0 -221 136 -359t358 -139q222 0 383 126t212 319h-557l23 157h753l-6 -45l701 740
h198l-217 -1434h-180l57 395h-659l-6 -4q-109 -199 -298 -309t-425 -111z" />
    <glyph glyph-name="H_T" horiz-adv-x="2375" 
d="M1661 0l217 1434h653l-24 -158h-473l-193 -1276h-180zM184 0l217 1434h181l-99 -646h854l74 488h-473l25 158h655l-217 -1434h-182l96 629h-854l-96 -629h-181z" />
    <glyph glyph-name="K_A" horiz-adv-x="2205" 
d="M1925 555l98 641h-4l-598 -641h504zM2040 1434h198l-217 -1434h-180l60 395h-629l-107 -114l299 -281h-245l-168 158l-150 -158h-221l254 268l-463 434l-106 -702h-181l217 1434h181l-109 -717l899 717h230l-902 -717l349 -328z" />
    <glyph glyph-name="L_A" horiz-adv-x="1974" 
d="M1694 555l96 641h-4l-596 -641h504zM1808 1434h199l-217 -1434h-180l59 395h-629l-227 -241h385l-22 -154h-992l217 1434h181l-193 -1280h205z" />
    <glyph glyph-name="L_L" horiz-adv-x="1245" 
d="M887 539h370l-24 -154h-549l158 1049h182zM389 154h809l-22 -154h-992l217 1434h181z" />
    <glyph glyph-name="N_T" horiz-adv-x="2424" 
d="M1927 1434h653l-24 -158h-473l-193 -1276h-180zM1012 1434h655l-217 -1434h-152l-763 1122l-170 -1122h-181l217 1434h146l766 -1137l147 979h-473z" />
    <glyph glyph-name="R_A" horiz-adv-x="2486" 
d="M2206 555l98 641h-4l-598 -641h504zM836 692q188 0 318 86t130 242q0 120 -97 188t-251 68h-377l-88 -584h365zM977 1434q227 0 358 -106t131 -296q0 -188 -125 -316t-342 -165l209 -291l1114 1174h197l-217 -1434h-180l59 395h-629l-249 -268l92 -127h-434l118 125
l-291 410h-342l-81 -535h-181l217 1434h576z" />
    <glyph glyph-name="T_H" horiz-adv-x="2375" 
d="M2228 1434h180l-217 -1434h-180l94 629h-852l-96 -629h-180l217 1434h653l-24 -158h-473l-74 -488h854zM254 1276l25 158h655l-217 -1434h-182l192 1276h-473z" />
    <glyph glyph-name="T_U" horiz-adv-x="2408" 
d="M1606 -29q-286 0 -434 177t-105 452l125 834h655l-24 -158h-473l-101 -676q-33 -209 75 -339t306 -130t345 129q146 129 179 340l127 834h181l-125 -834q-43 -276 -244 -452t-487 -177zM254 1276l25 158h655l-217 -1434h-182l192 1276h-473z" />
    <glyph glyph-name="U_T" horiz-adv-x="2408" 
d="M1911 1434h653l-24 -158h-474l-192 -1276h-180zM794 -29q-284 0 -433 177q-148 177 -107 452l127 834h182l-127 -834q-33 -209 76 -339q108 -130 304 -130t339 121t182 319l107 705h-473l24 158h656l-125 -834q-41 -274 -244 -452q-204 -178 -488 -177z" />
    <glyph glyph-name="f_b" horiz-adv-x="2101" 
d="M1479 117q165 0 287 122t122 296q0 137 -83 227t-214 90q-165 0 -285 -123t-120 -299q0 -137 81 -225t212 -88zM1634 997q190 0 312 -126t120 -318q0 -242 -175 -412t-412 -170q-109 0 -196 49t-138 142h-4l-25 -162h-174l238 1577h174l-115 -772h4q68 86 173 139t218 53
zM905 1454q-115 0 -193 -60t-94 -163l-38 -262h338l-23 -142h-336l-127 -827h-174l125 827h-248l23 142h248l38 262q27 168 152 271t305 104q68 0 109 -13l-23 -149q-45 10 -82 10z" />
    <glyph glyph-name="f_f_b" horiz-adv-x="2877" 
d="M2255 117q166 0 288 122t121 296q0 137 -82 227q-83 90 -215 90q-165 0 -285 -123t-120 -299q0 -137 81 -225t212 -88zM2410 997q190 0 312 -126t121 -318q0 -242 -175 -412t-413 -170q-109 0 -196 49t-138 142h-4l-25 -162h-174l238 1577h174l-115 -772h4q68 86 173 139
t218 53zM1681 1454q-115 0 -193 -60t-93 -163l-39 -262h338l-23 -142h-336l-127 -827h-174l125 827h-248l23 142h248l39 262q27 168 151 271q125 103 305 104q68 0 109 -13l-23 -149q-45 10 -82 10zM905 1454q-115 0 -193 -60t-94 -163l-38 -262h338l-23 -142h-336
l-127 -827h-174l125 827h-248l23 142h248l38 262q27 168 152 271t305 104q68 0 109 -13l-23 -149q-45 10 -82 10z" />
    <glyph glyph-name="f_f_f" horiz-adv-x="2328" 
d="M2458 1454q-115 0 -193 -60t-94 -163l-39 -262h338l-23 -142h-336l-126 -827h-175l125 827h-247l22 142h248l39 262q27 168 151 271q125 103 306 104q68 0 108 -13l-22 -149q-45 10 -82 10zM1681 1454q-115 0 -193 -60t-93 -163l-39 -262h338l-23 -142h-336l-127 -827
h-174l125 827h-248l23 142h248l39 262q27 168 151 271q125 103 305 104q68 0 109 -13l-23 -149q-45 10 -82 10zM905 1454q-115 0 -193 -60t-94 -163l-38 -262h338l-23 -142h-336l-127 -827h-174l125 827h-248l23 142h248l38 262q27 168 152 271t305 104q68 0 109 -13
l-23 -149q-45 10 -82 10z" />
    <glyph glyph-name="f_f_h" horiz-adv-x="2813" 
d="M2398 997q193 0 295 -123t74 -317l-84 -557h-176l84 549q20 135 -47 216q-68 81 -204 81t-240 -92t-128 -234l-80 -520h-174l238 1577h174l-115 -768h4q156 188 379 188zM1681 1454q-115 0 -193 -60t-93 -163l-39 -262h338l-23 -142h-336l-127 -827h-174l125 827h-248
l23 142h248l39 262q27 168 151 271q125 103 305 104q68 0 109 -13l-23 -149q-45 10 -82 10zM905 1454q-115 0 -193 -60t-94 -163l-38 -262h338l-23 -142h-336l-127 -827h-174l125 827h-248l23 142h248l38 262q27 168 152 271t305 104q68 0 109 -13l-23 -149q-45 10 -82 10z
" />
    <glyph glyph-name="f_f_j" horiz-adv-x="2095" 
d="M1432 -496l22 144l14 2q117 6 174 57t76 182l164 1080h176l-160 -1061q-33 -213 -136 -308t-296 -96h-34zM1933 1335l37 242h182l-36 -242h-183zM1681 1454q-115 0 -193 -60t-93 -163l-39 -262h338l-23 -142h-336l-127 -827h-174l125 827h-248l23 142h248l39 262
q27 168 151 271q125 103 305 104q68 0 109 -13l-23 -149q-45 10 -82 10zM905 1454q-115 0 -193 -60t-94 -163l-38 -262h338l-23 -142h-336l-127 -827h-174l125 827h-248l23 142h248l38 262q27 168 152 271t305 104q68 0 109 -13l-23 -149q-45 10 -82 10z" />
    <glyph glyph-name="f_f_k" horiz-adv-x="2777" 
d="M1718 0l238 1577h174l-164 -1094l619 486h217l-619 -486l557 -483h-237l-539 469l-72 -469h-174zM1681 1454q-115 0 -193 -60t-93 -163l-39 -262h338l-23 -142h-336l-127 -827h-174l125 827h-248l23 142h248l39 262q27 168 151 271q125 103 305 104q68 0 109 -13
l-23 -149q-45 10 -82 10zM905 1454q-115 0 -193 -60t-94 -163l-38 -262h338l-23 -142h-336l-127 -827h-174l125 827h-248l23 142h248l38 262q27 168 152 271t305 104q68 0 109 -13l-23 -149q-45 10 -82 10z" />
    <glyph glyph-name="f_f_thorn" horiz-adv-x="2877" 
d="M2255 117q166 0 288 122t121 296q0 137 -82 227q-83 90 -215 90q-165 0 -285 -123t-120 -299q0 -137 81 -225t212 -88zM2415 997q188 0 308 -125t120 -317q-1 -246 -177 -416t-407 -170q-111 0 -199 51t-137 144h-4l-96 -631h-176l309 2044h174l-115 -772h4
q77 92 181 142t215 50zM1681 1454q-115 0 -193 -60t-93 -163l-39 -262h338l-23 -142h-336l-127 -827h-174l125 827h-248l23 142h248l39 262q27 168 151 271q125 103 305 104q68 0 109 -13l-23 -149q-45 10 -82 10zM905 1454q-115 0 -193 -60t-94 -163l-38 -262h338l-23 -142
h-336l-127 -827h-174l125 827h-248l23 142h248l38 262q27 168 152 271t305 104q68 0 109 -13l-23 -149q-45 10 -82 10z" />
    <glyph glyph-name="f_h" horiz-adv-x="2037" 
d="M1622 997q193 0 295 -123t74 -317l-84 -557h-176l84 549q20 135 -48 216q-67 81 -203 81t-240 -92t-128 -234l-80 -520h-174l238 1577h174l-115 -768h4q156 188 379 188zM905 1454q-115 0 -193 -60t-94 -163l-38 -262h338l-23 -142h-336l-127 -827h-174l125 827h-248
l23 142h248l38 262q27 168 152 271t305 104q68 0 109 -13l-23 -149q-45 10 -82 10z" />
    <glyph glyph-name="f_j" horiz-adv-x="1318" 
d="M655 -496l23 144l14 2q117 6 174 57t76 182l164 1080h176l-160 -1061q-33 -213 -136 -308t-296 -96h-35zM1157 1335l37 242h182l-37 -242h-182zM905 1454q-115 0 -193 -60t-94 -163l-38 -262h338l-23 -142h-336l-127 -827h-174l125 827h-248l23 142h248l38 262
q27 168 152 271t305 104q68 0 109 -13l-23 -149q-45 10 -82 10z" />
    <glyph glyph-name="f_k" horiz-adv-x="2000" 
d="M942 0l238 1577h174l-164 -1094l618 486h217l-618 -486l557 -483h-238l-538 469l-72 -469h-174zM905 1454q-115 0 -193 -60t-94 -163l-38 -262h338l-23 -142h-336l-127 -827h-174l125 827h-248l23 142h248l38 262q27 168 152 271t305 104q68 0 109 -13l-23 -149
q-45 10 -82 10z" />
    <glyph glyph-name="f_thorn" horiz-adv-x="2101" 
d="M1479 117q165 0 287 122t122 296q0 137 -83 227t-214 90q-165 0 -285 -123t-120 -299q0 -137 81 -225t212 -88zM1638 997q188 0 308 -125t120 -317q0 -246 -176 -416t-407 -170q-111 0 -199 51t-137 144h-4l-96 -631h-177l310 2044h174l-115 -772h4q76 92 180 142t215 50
zM905 1454q-115 0 -193 -60t-94 -163l-38 -262h338l-23 -142h-336l-127 -827h-174l125 827h-248l23 142h248l38 262q27 168 152 271t305 104q68 0 109 -13l-23 -149q-45 10 -82 10z" />
    <glyph glyph-name="f_f_j.ss07" horiz-adv-x="2095" 
d="M1665 -467l217 1436h176l-219 -1436h-174zM1933 1335l37 242h182l-36 -242h-183zM1681 1454q-115 0 -193 -60t-93 -163l-39 -262h338l-23 -142h-336l-127 -827h-174l125 827h-248l23 142h248l39 262q27 168 151 271q125 103 305 104q68 0 109 -13l-23 -149q-45 10 -82 10
zM905 1454q-115 0 -193 -60t-94 -163l-38 -262h338l-23 -142h-336l-127 -827h-174l125 827h-248l23 142h248l38 262q27 168 152 271t305 104q68 0 109 -13l-23 -149q-45 10 -82 10z" />
    <glyph glyph-name="f_j.ss07" horiz-adv-x="1318" 
d="M889 -467l217 1436h176l-219 -1436h-174zM1157 1335l37 242h182l-37 -242h-182zM905 1454q-115 0 -193 -60t-94 -163l-38 -262h338l-23 -142h-336l-127 -827h-174l125 827h-248l23 142h248l38 262q27 168 152 271t305 104q68 0 109 -13l-23 -149q-45 10 -82 10z" />
    <glyph glyph-name="f_b.ss08" horiz-adv-x="2009" 
d="M1386 117q166 0 288 122t122 296q0 137 -83 227t-214 90q-166 0 -286 -123t-119 -299q0 -137 80 -225t212 -88zM1542 997q190 0 311 -126t121 -318q0 -242 -175 -412t-413 -170q-110 0 -196 49t-137 142h-4l-25 -162h-174l237 1577h175l-115 -772h4q68 86 173 139t218 53
zM813 1454q-117 0 -195 -60t-92 -163l-39 -262h336l-20 -142h-338l-125 -827h-174l186 1231q25 168 151 271t306 104q68 0 109 -13l-23 -149q-45 10 -82 10z" />
    <glyph glyph-name="f_f.ss08" horiz-adv-x="1368" 
d="M1497 1454q-117 0 -195 -60t-92 -163l-39 -262h336l-20 -142h-338l-125 -827h-174l186 1231q25 168 151 271t306 104q68 0 109 -13l-23 -149q-45 10 -82 10zM813 1454q-117 0 -195 -60t-92 -163l-39 -262h336l-20 -142h-338l-125 -827h-174l186 1231q25 168 151 271
t306 104q68 0 109 -13l-23 -149q-45 10 -82 10z" />
    <glyph glyph-name="f_f_b.ss08" horiz-adv-x="2693" 
d="M2071 117q165 0 287 122t122 296q0 137 -83 227t-214 90q-166 0 -286 -123t-119 -299q0 -137 81 -225t212 -88zM2226 997q190 0 311 -126t121 -318q0 -242 -175 -412t-412 -170q-109 0 -196 49t-138 142h-4l-25 -162h-174l238 1577h174l-115 -772h4q68 86 173 139t218 53
zM1497 1454q-117 0 -195 -60t-92 -163l-39 -262h336l-20 -142h-338l-125 -827h-174l186 1231q25 168 151 271t306 104q68 0 109 -13l-23 -149q-45 10 -82 10zM813 1454q-117 0 -195 -60t-92 -163l-39 -262h336l-20 -142h-338l-125 -827h-174l186 1231q25 168 151 271
t306 104q68 0 109 -13l-23 -149q-45 10 -82 10z" />
    <glyph glyph-name="f_f_f.ss08" horiz-adv-x="2052" 
d="M2181 1454q-117 0 -195 -60t-92 -163l-39 -262h336l-20 -142h-338l-125 -827h-174l186 1231q25 168 151 271t306 104q68 0 109 -13l-23 -149q-45 10 -82 10zM1497 1454q-117 0 -195 -60t-92 -163l-39 -262h336l-20 -142h-338l-125 -827h-174l186 1231q25 168 151 271
t306 104q68 0 109 -13l-23 -149q-45 10 -82 10zM813 1454q-117 0 -195 -60t-92 -163l-39 -262h336l-20 -142h-338l-125 -827h-174l186 1231q25 168 151 271t306 104q68 0 109 -13l-23 -149q-45 10 -82 10z" />
    <glyph glyph-name="f_f_h.ss08" horiz-adv-x="2629" 
d="M2214 997q193 0 295 -123t74 -317l-84 -557h-177l84 549q20 135 -47 216t-203 81t-240 -92t-128 -234l-80 -520h-174l238 1577h174l-115 -768h4q156 188 379 188zM1497 1454q-117 0 -195 -60t-92 -163l-39 -262h336l-20 -142h-338l-125 -827h-174l186 1231
q25 168 151 271t306 104q68 0 109 -13l-23 -149q-45 10 -82 10zM813 1454q-117 0 -195 -60t-92 -163l-39 -262h336l-20 -142h-338l-125 -827h-174l186 1231q25 168 151 271t306 104q68 0 109 -13l-23 -149q-45 10 -82 10z" />
    <glyph glyph-name="f_f_i.ss08" horiz-adv-x="1910" 
d="M1552 0l146 969h176l-148 -969h-174zM1749 1335l37 242h182l-37 -242h-182zM1497 1454q-117 0 -195 -60t-92 -163l-39 -262h336l-20 -142h-338l-125 -827h-174l186 1231q25 168 151 271t306 104q68 0 109 -13l-23 -149q-45 10 -82 10zM813 1454q-117 0 -195 -60t-92 -163
l-39 -262h336l-20 -142h-338l-125 -827h-174l186 1231q25 168 151 271t306 104q68 0 109 -13l-23 -149q-45 10 -82 10z" />
    <glyph glyph-name="f_f_j.ss08" horiz-adv-x="1910" 
d="M1247 -496l23 144l14 2q117 6 174 57t76 182l164 1080h176l-160 -1061q-33 -213 -136 -308t-296 -96h-35zM1749 1335l37 242h182l-37 -242h-182zM1497 1454q-117 0 -195 -60t-92 -163l-39 -262h336l-20 -142h-338l-125 -827h-174l186 1231q25 168 151 271t306 104
q68 0 109 -13l-23 -149q-45 10 -82 10zM813 1454q-117 0 -195 -60t-92 -163l-39 -262h336l-20 -142h-338l-125 -827h-174l186 1231q25 168 151 271t306 104q68 0 109 -13l-23 -149q-45 10 -82 10z" />
    <glyph glyph-name="f_f_k.ss08" horiz-adv-x="2592" 
d="M1534 0l238 1577h174l-164 -1094l618 486h217l-618 -486l557 -483h-238l-538 469l-72 -469h-174zM1497 1454q-117 0 -195 -60t-92 -163l-39 -262h336l-20 -142h-338l-125 -827h-174l186 1231q25 168 151 271t306 104q68 0 109 -13l-23 -149q-45 10 -82 10zM813 1454
q-117 0 -195 -60t-92 -163l-39 -262h336l-20 -142h-338l-125 -827h-174l186 1231q25 168 151 271t306 104q68 0 109 -13l-23 -149q-45 10 -82 10z" />
    <glyph glyph-name="f_f_l.ss08" horiz-adv-x="1875" 
d="M1534 0l238 1577h174l-238 -1577h-174zM1497 1454q-117 0 -195 -60t-92 -163l-39 -262h336l-20 -142h-338l-125 -827h-174l186 1231q25 168 151 271t306 104q68 0 109 -13l-23 -149q-45 10 -82 10zM813 1454q-117 0 -195 -60t-92 -163l-39 -262h336l-20 -142h-338
l-125 -827h-174l186 1231q25 168 151 271t306 104q68 0 109 -13l-23 -149q-45 10 -82 10z" />
    <glyph glyph-name="f_f_thorn.ss08" horiz-adv-x="2693" 
d="M2071 117q165 0 287 122t122 296q0 137 -83 227t-214 90q-166 0 -286 -123t-119 -299q0 -137 81 -225t212 -88zM2230 997q188 0 308 -125t120 -317q0 -246 -176 -416t-407 -170q-111 0 -199 51t-137 144h-4l-97 -631h-176l310 2044h174l-115 -772h4q76 92 180 142t215 50
zM1497 1454q-117 0 -195 -60t-92 -163l-39 -262h336l-20 -142h-338l-125 -827h-174l186 1231q25 168 151 271t306 104q68 0 109 -13l-23 -149q-45 10 -82 10zM813 1454q-117 0 -195 -60t-92 -163l-39 -262h336l-20 -142h-338l-125 -827h-174l186 1231q25 168 151 271
t306 104q68 0 109 -13l-23 -149q-45 10 -82 10z" />
    <glyph glyph-name="f_h.ss08" horiz-adv-x="1945" 
d="M1530 997q193 0 295 -123t73 -317l-83 -557h-177l84 549q20 135 -47 216t-203 81t-240 -92t-128 -234l-80 -520h-174l237 1577h175l-115 -768h4q156 188 379 188zM813 1454q-117 0 -195 -60t-92 -163l-39 -262h336l-20 -142h-338l-125 -827h-174l186 1231q25 168 151 271
t306 104q68 0 109 -13l-23 -149q-45 10 -82 10z" />
    <glyph glyph-name="f_j.ss08" horiz-adv-x="1226" 
d="M563 -496l23 144l14 2q117 6 174 57t76 182l164 1080h176l-160 -1061q-33 -213 -136 -308t-296 -96h-35zM1065 1335l37 242h182l-37 -242h-182zM813 1454q-117 0 -195 -60t-92 -163l-39 -262h336l-20 -142h-338l-125 -827h-174l186 1231q25 168 151 271t306 104
q68 0 109 -13l-23 -149q-45 10 -82 10z" />
    <glyph glyph-name="f_k.ss08" horiz-adv-x="1908" 
d="M850 0l237 1577h175l-164 -1094l618 486h217l-618 -486l557 -483h-238l-538 469l-72 -469h-174zM813 1454q-117 0 -195 -60t-92 -163l-39 -262h336l-20 -142h-338l-125 -827h-174l186 1231q25 168 151 271t306 104q68 0 109 -13l-23 -149q-45 10 -82 10z" />
    <glyph glyph-name="f_thorn.ss08" horiz-adv-x="2009" 
d="M1386 117q166 0 288 122t122 296q0 137 -83 227t-214 90q-166 0 -286 -123t-119 -299q0 -137 80 -225t212 -88zM1546 997q188 0 308 -125t120 -317q0 -246 -176 -416t-407 -170q-111 0 -199 51t-137 144h-4l-97 -631h-176l309 2044h175l-115 -772h4q76 92 180 142t215 50
zM813 1454q-117 0 -195 -60t-92 -163l-39 -262h336l-20 -142h-338l-125 -827h-174l186 1231q25 168 151 271t306 104q68 0 109 -13l-23 -149q-45 10 -82 10z" />
    <glyph glyph-name="fi.ss08" horiz-adv-x="1226" 
d="M868 0l146 969h176l-148 -969h-174zM1065 1335l37 242h182l-37 -242h-182zM813 1454q-117 0 -195 -60t-92 -163l-39 -262h336l-20 -142h-338l-125 -827h-174l186 1231q25 168 151 271t306 104q68 0 109 -13l-23 -149q-45 10 -82 10z" />
    <glyph glyph-name="fl.ss08" horiz-adv-x="1191" 
d="M850 0l237 1577h175l-238 -1577h-174zM813 1454q-117 0 -195 -60t-92 -163l-39 -262h336l-20 -142h-338l-125 -827h-174l186 1231q25 168 151 271t306 104q68 0 109 -13l-23 -149q-45 10 -82 10z" />
    <glyph glyph-name="zero.closecirc" horiz-adv-x="1837" 
d="M982 426q-89 0 -134 58t-31 155l25 164q16 96 80 154q64 59 151 59q88 0 134 -58t32 -155l-27 -164q-16 -96 -78 -155q-63 -58 -152 -58zM965 307q152 0 257 91t130 241l24 164q25 151 -54 241q-78 90 -230 90t-257 -90q-105 -92 -130 -241l-27 -164q-23 -150 56 -241
t231 -91zM915 -29q-307 -1 -497 183t-191 467q0 233 124 427t334 304t456 110q305 0 495 -183t191 -466q0 -233 -124 -427t-333 -304t-455 -111z" />
    <glyph glyph-name="zero.opencirc" horiz-adv-x="1837" 
d="M982 426q89 0 152 58q62 58 78 155l27 164q14 96 -32 154q-46 59 -134 59t-150 -58t-79 -155l-27 -164q-14 -97 31 -155t134 -58zM965 307q-152 0 -231 91t-56 241l27 164q23 151 129 241t258 90t230 -90q78 -92 54 -241l-24 -164q-23 -150 -129 -241t-258 -91zM932 84
q315 0 542 208q226 208 226 507q0 239 -161 395t-415 156q-315 0 -542 -208t-228 -507q0 -239 161 -395t417 -156zM915 -29q-307 -1 -497 183t-191 467q0 233 124 427t334 304t456 110q305 0 495 -183t191 -466q0 -233 -124 -427t-333 -304t-455 -111z" />
    <glyph glyph-name="zero.osf" horiz-adv-x="1218" 
d="M629 125q145 0 245 86t121 229l35 224q23 143 -53 230t-219 87q-142 0 -244 -87t-125 -230l-35 -224q-20 -143 55 -229t220 -86zM606 -29q-223 0 -340 129t-86 340l35 224q33 211 187 340q155 129 378 129t340 -129t84 -340l-35 -224q-31 -211 -185 -340t-378 -129z" />
    <glyph glyph-name="one.osf" horiz-adv-x="706" 
d="M395 0l146 958h-389l22 154h569l-168 -1112h-180z" />
    <glyph glyph-name="two.osf" horiz-adv-x="1189" 
d="M997 774q0 98 -70 155q-71 56 -200 56t-226 -76t-130 -196h-176q43 193 199 307t357 113q201 1 315 -93t114 -240t-106 -256t-296 -227l-289 -176h621l-23 -141h-966l14 90l504 309q66 39 83 51q18 12 76 50t81 62q89 91 103 132q15 41 15 80z" />
    <glyph glyph-name="three.osf" horiz-adv-x="1206" 
d="M1139 150q0 -203 -161 -333q-162 -130 -396 -130t-361 97t-123 277h176q4 -102 85 -164q81 -63 237 -63t264 84t107 200q0 116 -84 182q-84 65 -226 65h-157l20 139h2l484 454h-717l24 154h924l-20 -139l-498 -469q195 -8 307 -104t113 -250z" />
    <glyph glyph-name="four.osf" horiz-adv-x="1380" 
d="M332 147h575l125 822zM1311 147l-21 -147h-229l-47 -301h-174l45 301h-787l17 111l841 1001h273l-148 -965h230z" />
    <glyph glyph-name="five.osf" horiz-adv-x="1259" 
d="M1184 217q0 -227 -173 -378t-413 -151t-370 108t-136 298h178q10 -118 98 -188t250 -70t277 100t115 259q0 119 -85 191t-246 73q-161 0 -304 -107l-129 68l221 692h754l-23 -154h-614l-140 -423q145 70 297 69q195 0 319 -106t124 -281z" />
    <glyph glyph-name="six.osf" horiz-adv-x="1327" 
d="M354 403q0 -133 88 -213t255 -79q167 -1 289 109t122 276q0 129 -89 210t-237 80q-184 0 -306 -108t-122 -275zM807 936q223 0 352 -115t129 -299q0 -240 -178 -396t-451 -155q-221 0 -352 116t-131 304q0 115 47 204t131 187l543 611h213l-426 -482q55 25 123 25z" />
    <glyph glyph-name="seven.osf" horiz-adv-x="1085" 
d="M197 1112h1011l-14 -104l-864 -1295h-201l827 1239h-784z" />
    <glyph glyph-name="eight.osf" horiz-adv-x="1347" 
d="M706 113q160 0 278 87t118 230q0 114 -91 180t-249 66t-276 -86t-118 -216t89 -195q89 -66 249 -66zM512 1038q0 -114 77 -178t219 -65q142 0 245 85q104 85 104 196q0 112 -78 174q-79 62 -221 62t-244 -80t-102 -194zM692 -29q-254 -1 -388 99q-136 100 -136 256
t98 262t258 162q-88 38 -138 112t-50 166q0 182 160 302t379 120t339 -93t121 -245q0 -119 -77 -215t-207 -147q111 -43 179 -124t66 -194q0 -203 -175 -332t-429 -129z" />
    <glyph glyph-name="nine.osf" horiz-adv-x="1327" 
d="M385 608q-1 -129 89 -210t256 -81t287 109q122 109 122 274q0 131 -89 212t-254 81q-165 1 -288 -109t-123 -276zM834 1133q221 0 352 -116t131 -304q0 -115 -47 -206t-131 -185l-543 -613h-213l422 479q-59 -20 -119 -20q-223 0 -352 114t-129 300q-1 240 179 396
t450 155z" />
    <glyph glyph-name="zero.osf.zero" horiz-adv-x="1218" 
d="M624 125q150 0 250 86t121 229l35 224q8 51 2 100l-633 -541q75 -98 225 -98zM760 981q-144 0 -246 -87t-125 -230l-35 -224q-6 -51 -4 -86l629 537q-74 90 -219 90zM780 1133q223 0 340 -129t84 -340l-35 -224q-31 -211 -185 -340t-378 -129q-223 0 -340 129t-86 340
l35 224q33 211 187 340q155 129 378 129z" />
    <glyph glyph-name="zero.tf" 
d="M852 1309q-178 0 -305 -113t-154 -297l-55 -364q-29 -184 63 -297q93 -113 271 -113t305 113q126 113 153 297l56 364q28 184 -64 297t-270 113zM874 1462q260 0 397 -154q136 -155 97 -409l-55 -364q-41 -254 -222 -409t-441 -155t-397 155q-136 155 -97 409l55 364
q39 255 221 409t442 154z" />
    <glyph glyph-name="one.tf" 
d="M150 0l22 141h473l172 1139h-389l23 154h569l-195 -1293h414l-22 -141h-1067z" />
    <glyph glyph-name="two.tf" 
d="M1133 1085q0 101 -74 165t-205 64t-228 -72q-97 -73 -132 -195h-181q41 188 193 302q152 113 359 113t329 -95t121 -263q0 -123 -75 -237t-226 -249l-525 -477h709l-22 -141h-975l12 90l668 606q252 221 252 389z" />
    <glyph glyph-name="three.tf" 
d="M1243 444q0 -209 -162 -341t-394 -132q-232 -1 -361 99t-127 276h178q4 -102 87 -166q84 -64 238 -63q154 0 261 86q106 86 106 211q0 126 -82 192t-225 66h-170l20 139l488 469h-717l23 154h925l-20 -140l-502 -483q203 -4 319 -103t115 -264z" />
    <glyph glyph-name="four.tf" 
d="M334 449h575l129 841zM842 0l47 301h-787l15 109l848 1024h270l-150 -985h230l-21 -148h-231l-45 -301h-176z" />
    <glyph glyph-name="five.tf" 
d="M793 887q199 0 319 -108t121 -279q0 -227 -173 -378q-174 -151 -412 -151q-238 1 -370 107t-137 297h178q9 -119 97 -189t250 -70t279 102q116 101 116 257q0 121 -86 193t-247 72t-304 -107l-131 69l239 732h754l-22 -154h-617l-153 -463q150 70 299 70z" />
    <glyph glyph-name="six.tf" 
d="M348 403q0 -133 90 -213t256 -79q166 -1 289 109t123 276q0 129 -89 210t-237 80q-186 0 -309 -108t-123 -275zM803 936q223 0 352 -115t129 -299q0 -240 -178 -396t-449 -155q-221 0 -353 116t-132 303t178 392l578 652h213l-453 -512q56 14 115 14z" />
    <glyph glyph-name="seven.tf" 
d="M371 1434h1013l-16 -105l-868 -1329h-203l836 1274h-787z" />
    <glyph glyph-name="eight.tf" 
d="M686 115q160 0 278 88t117 231q0 114 -91 182q-90 68 -248 68t-276 -88t-118 -218t88 -197q90 -66 250 -66zM788 803q142 0 245 85q103 84 103 198t-77 178t-219 63q-142 0 -244 -82q-102 -83 -102 -197t76 -180q76 -65 218 -65zM1278 436q0 -205 -176 -335t-430 -130
q-254 1 -389 101t-135 259t98 265q100 106 260 162q-88 40 -139 114t-52 166q0 184 161 304t380 120t340 -93t121 -247q0 -119 -78 -216t-209 -148q112 -43 180 -125t68 -197z" />
    <glyph glyph-name="nine.tf" 
d="M432 938q0 -129 90 -210t254 -81q166 0 289 109t123 274q0 133 -89 213t-256 80t-289 -110t-122 -275zM881 1462q221 0 352 -116t131 -304q0 -190 -178 -391l-580 -651h-211l453 512q-47 -14 -113 -14q-225 0 -354 114t-129 299q0 240 178 396q179 155 451 155z" />
    <glyph glyph-name="zero.tf.zero" 
d="M685 125q165 0 292 113t153 297l56 364q16 100 -6 178l-750 -868q90 -84 255 -84zM840 1309q-166 0 -293 -113t-154 -297l-55 -364q-14 -100 8 -191l754 877q-94 88 -260 88zM874 1462q260 0 397 -154q136 -155 97 -409l-55 -364q-41 -254 -222 -409t-441 -155t-397 155
q-136 155 -97 409l55 364q39 255 221 409t442 154z" />
    <glyph glyph-name="zero.tosf" 
d="M671 125q144 0 245 86t124 229l35 224q20 143 -54 230q-75 87 -219 87t-244 -87t-124 -230l-35 -224q-20 -143 54 -229t218 -86zM649 -29q-223 0 -340 129t-84 340l35 224q31 211 185 340q155 129 378 129t340 -129t86 -340l-35 -224q-34 -211 -188 -340t-377 -129z" />
    <glyph glyph-name="one.tosf" 
d="M150 0l22 141h473l123 817h-389l22 154h570l-146 -971h414l-22 -141h-1067z" />
    <glyph glyph-name="two.tosf" 
d="M1055 774q0 98 -70 154q-69 56 -199 57q-130 0 -226 -76t-130 -196h-176q43 193 199 307q155 114 357 113q202 1 316 -93t113 -240q0 -146 -105 -256t-296 -227l-289 -176h620l-22 -141h-967l13 90l505 309q274 169 327 266q30 52 30 109z" />
    <glyph glyph-name="three.tosf" 
d="M1188 150q0 -203 -161 -333t-395 -130t-363 97q-128 97 -122 277h175q4 -102 85 -164q81 -63 237 -63t264 84t108 200t-84 182q-84 65 -225 65h-158l20 139h2l484 454h-717l22 154h926l-20 -139l-498 -469q196 -8 308 -104t112 -250z" />
    <glyph glyph-name="four.tosf" 
d="M289 147h575l125 822zM1268 147l-21 -147h-229l-47 -301h-176l47 301h-787l17 111l841 1001h273l-148 -965h230z" />
    <glyph glyph-name="five.tosf" 
d="M648 -164q163 0 278 100t114 259q0 119 -85 191t-245 73q-160 0 -304 -107l-130 68l224 692h751l-22 -154h-615l-139 -423q145 70 297 69q195 0 319 -106t123 -281q0 -227 -173 -378t-413 -151t-369 108q-130 108 -136 298h178q10 -118 97 -188t250 -70z" />
    <glyph glyph-name="six.tosf" 
d="M344 403q0 -133 88 -213t255 -79q167 -1 289 109t122 276q0 129 -89 210t-237 80q-184 0 -306 -108t-122 -275zM797 936q223 0 352 -115t129 -299q0 -240 -178 -396t-451 -155q-221 0 -352 116t-131 304q0 115 47 204t131 187l543 611h213l-426 -482q55 25 123 25z" />
    <glyph glyph-name="seven.tosf" 
d="M309 1112h1014l-16 -104l-863 -1295h-202l829 1239h-786z" />
    <glyph glyph-name="eight.tosf" 
d="M348 376q0 -128 90 -196q90 -67 248 -67q160 0 278 87t117 230q0 114 -91 180q-90 66 -248 66t-276 -86t-118 -214zM786 795q142 0 246 85t104 196q0 112 -77 174q-79 62 -221 62t-244 -80t-102 -194t76 -179q76 -64 218 -64zM1276 432q0 -203 -176 -332t-428 -129
q-254 -1 -389 99t-135 256t98 262t258 162q-88 38 -138 112t-51 166q0 182 160 302t379 120t340 -93t121 -245q0 -119 -77 -215t-208 -147q110 -43 178 -124t68 -194z" />
    <glyph glyph-name="nine.tosf" 
d="M718 317q166 0 290 109q123 109 122 274q0 131 -89 212t-255 81q-166 1 -288 -109q-123 -110 -123 -276q0 -129 89 -210q88 -81 254 -81zM823 1133q221 0 353 -116q132 -117 131 -307q0 -190 -177 -388l-542 -613h-213l428 484q-57 -25 -127 -25q-223 0 -351 114
t-128 300q0 240 178 396t448 155z" />
    <glyph glyph-name="zero.tosf.zero" 
d="M666 125q148 0 250 86q101 86 124 229l35 224q8 53 2 102l-635 -543q76 -98 224 -98zM802 981q-144 0 -244 -87t-124 -230l-35 -224q-6 -51 -4 -86l629 537q-78 90 -222 90zM823 1133q223 0 340 -129t86 -340l-35 -224q-34 -211 -188 -340t-377 -129t-340 129t-84 340
l35 224q31 211 185 340q155 129 378 129z" />
    <glyph glyph-name="zero.zero" horiz-adv-x="1411" 
d="M737 125q166 0 291 113t154 297l55 364q14 96 -4 178l-750 -870q88 -82 254 -82zM894 1309q-169 0 -294 -113t-154 -297l-55 -364q-16 -106 8 -189l752 875q-88 88 -257 88zM928 1462q260 0 395 -154t96 -409l-55 -364q-39 -254 -220 -409q-182 -155 -442 -155t-396 155
t-97 409l55 364q39 254 221 409q183 154 443 154z" />
    <glyph glyph-name="zero.dnom" horiz-adv-x="825" 
d="M518 690q-90 0 -153 -58t-78 -155l-25 -164q-14 -94 32 -153q46 -60 134 -60t152 58t77 155l27 164q14 97 -31 155t-135 58zM535 809q153 0 231 -91t55 -241l-24 -164q-23 -151 -128 -241t-257 -90t-231 91t-56 240l25 164q23 150 128 241t257 91z" />
    <glyph glyph-name="one.dnom" horiz-adv-x="501" 
d="M270 0l103 672h-226l17 116h356l-119 -788h-131z" />
    <glyph glyph-name="two.dnom" horiz-adv-x="772" 
d="M510 809q120 0 190 -55t70 -148q0 -60 -36 -120t-72 -95t-107 -94l-223 -188h379l-17 -107h-598l10 66l345 286q7 6 37 32t38 33l32 28q24 22 31 33t25 37t17 73q0 47 -36 77q-37 29 -101 29t-116 -37t-69 -98h-131q27 111 119 179t213 69z" />
    <glyph glyph-name="three.dnom" horiz-adv-x="802" 
d="M420 94q84 0 139 41t55 99t-41 92q-41 33 -112 32h-101l15 105l239 209h-391l17 116h573l-14 -100l-262 -233q98 -13 154 -67t57 -134q0 -119 -98 -196q-98 -76 -240 -76q-140 0 -216 60t-79 165h135q14 -113 170 -113z" />
    <glyph glyph-name="four.dnom" horiz-adv-x="868" 
d="M270 276h305l56 371zM834 276l-17 -114h-127l-24 -162h-134l27 162h-465l12 88l517 538h159l-75 -512h127z" />
    <glyph glyph-name="five.dnom" horiz-adv-x="815" 
d="M485 508q125 0 199 -60t74 -163q0 -133 -102 -218t-250 -85t-225 64t-77 169h136q6 -57 53 -89t130 -32t143 49t60 117t-43 102q-44 35 -129 35t-159 -55l-102 41l106 405h496l-15 -116h-385l-53 -193q74 29 143 29z" />
    <glyph glyph-name="six.dnom" horiz-adv-x="802" 
d="M422 88q88 0 151 54t63 130t-45 116q-46 40 -134 40q-87 0 -151 -54t-64 -130t46 -116t134 -40zM492 539q128 0 204 -65q76 -66 76 -190t-108 -213t-252 -89t-225 68t-81 175q0 66 27 116t84 116l299 331h160l-227 -251q14 2 43 2z" />
    <glyph glyph-name="seven.dnom" horiz-adv-x="688" 
d="M119 0l456 668h-434l19 120h610l-12 -79l-486 -709h-153z" />
    <glyph glyph-name="eight.dnom" horiz-adv-x="845" 
d="M444 90q82 0 141 43q58 43 58 103t-45 94q-45 32 -128 32t-140 -42q-58 -42 -58 -102q0 -62 45 -95t127 -33zM344 570q0 -56 40 -86t115 -31q75 0 126 39t51 94t-41 87t-112 32t-125 -40q-54 -39 -54 -95zM793 246q-1 -116 -105 -190t-254 -74t-232 58q-81 58 -81 153
q0 154 184 225q-94 46 -94 150t96 172q97 68 227 67q130 0 204 -52t75 -143q0 -131 -145 -194q125 -55 125 -172z" />
    <glyph glyph-name="nine.dnom" horiz-adv-x="802" 
d="M467 362q88 0 150 54q63 54 63 130q0 77 -46 117q-46 39 -134 39t-150 -54t-63 -129q0 -75 46 -116t134 -41zM147 492q1 139 109 227t254 88t226 -68q81 -68 81 -176q-1 -63 -27 -114t-83 -115l-301 -334h-160l227 254q-14 -2 -41 -2q-127 0 -206 66t-79 174z" />
    <glyph glyph-name="zero.numr" horiz-adv-x="825" 
d="M614 1333q-90 0 -152 -58t-77 -155l-25 -164q-14 -96 32 -154t134 -58t152 58q64 60 78 154l24 164q14 96 -30 155q-46 58 -136 58zM633 1452q153 0 231 -91t56 -241l-25 -164q-23 -150 -129 -240t-258 -89q-152 0 -230 90t-57 239l25 164q23 150 129 241t258 91z" />
    <glyph glyph-name="one.numr" horiz-adv-x="501" 
d="M369 647l102 672h-227l18 117h356l-118 -789h-131z" />
    <glyph glyph-name="two.numr" horiz-adv-x="772" 
d="M727 1231q0 49 -36 79q-37 30 -101 30t-115 -38q-51 -36 -67 -98h-134q29 112 121 180t213 68t191 -55t69 -148q0 -117 -136 -238q-28 -26 -81 -71l-223 -188h381l-16 -107h-598l10 66l342 288q119 95 149 139t31 93z" />
    <glyph glyph-name="three.numr" horiz-adv-x="802" 
d="M509 629q-140 0 -218 60t-80 165h137q4 -51 47 -83t124 -32t137 42q56 41 56 99t-41 92q-42 34 -114 34h-100l16 104l240 209h-394l19 117h573l-14 -101l-266 -235q100 -12 156 -66t57 -135q0 -119 -98 -195t-237 -75z" />
    <glyph glyph-name="four.numr" horiz-adv-x="868" 
d="M367 922h305l55 372zM932 922l-19 -113h-127l-24 -162h-131l24 162h-465l15 88l516 539h162l-78 -514h127z" />
    <glyph glyph-name="five.numr" horiz-adv-x="815" 
d="M607 1155q101 0 175 -60t74 -178t-101 -203t-251 -85q-150 1 -226 65q-77 64 -77 168h135q8 -57 55 -89t130 -32q83 -1 143 49t59 116q0 66 -43 102t-126 36t-161 -55l-102 39l106 408h496l-16 -117h-383l-52 -193q63 29 165 29z" />
    <glyph glyph-name="six.numr" horiz-adv-x="802" 
d="M340 891q0 -156 181 -156q89 0 152 53q62 54 62 130t-47 116t-134 41q-86 0 -150 -54t-64 -130zM588 1186q127 0 206 -66t78 -174q0 -139 -108 -228t-253 -89q-144 -1 -226 67t-82 176q0 66 27 115q28 49 85 115l299 334h162l-227 -252q14 2 39 2z" />
    <glyph glyph-name="seven.numr" horiz-adv-x="688" 
d="M215 645l459 668h-434l18 121h610l-12 -80l-487 -709h-154z" />
    <glyph glyph-name="eight.numr" horiz-adv-x="845" 
d="M542 735q81 0 140 43q59 44 59 104t-45 93t-128 33t-140 -42t-57 -104t45 -94q45 -33 126 -33zM596 1098q76 0 127 39t51 94t-41 86t-113 31t-124 -40q-54 -40 -54 -96t39 -84q39 -30 115 -30zM891 892q-1 -118 -105 -192t-256 -73q-152 0 -232 57q-81 57 -81 154
q0 154 184 223q-92 47 -92 151q1 104 97 172t226 68t204 -53t73 -142q0 -135 -145 -196q127 -51 127 -169z" />
    <glyph glyph-name="nine.numr" horiz-adv-x="802" 
d="M778 1190q0 156 -181 156q-89 0 -151 -54t-63 -129q0 -155 181 -155q89 0 152 53q62 53 62 129zM248 1152q0 124 107 212t253 88t227 -68t80 -176q1 -63 -27 -112t-85 -117l-299 -334h-162l227 252l-41 -2q-128 0 -204 66q-76 67 -76 191z" />
    <glyph glyph-name="exclamdown.case" horiz-adv-x="552" 
d="M186 0l56 371l116 669h154l-88 -669l-55 -371h-183zM350 1223l33 211h221l-31 -211h-223z" />
    <glyph glyph-name="questiondown.case" horiz-adv-x="1202" 
d="M639 129q123 0 213 60t127 159h180q-53 -172 -197 -269t-336 -97t-307 101t-114 269q0 115 52 203t130 142q78 55 157 103q194 119 212 242h141q-17 -110 -75 -188t-129 -123t-141 -87q-167 -101 -173 -255q-7 -117 65 -189t195 -71zM967 1233h-224l33 211h223z" />
    <glyph glyph-name="braceleft.case" horiz-adv-x="757" 
d="M649 -119q-182 9 -267 105t-60 260l26 186q16 106 -16 152q-33 45 -139 47l-25 2l22 143l25 2q106 2 153 47q46 45 64 152l27 186q27 164 141 260q115 96 299 105l-25 -162q-102 -6 -164 -60t-75 -143l-29 -190q-18 -117 -62 -178t-138 -90q86 -29 110 -91t6 -178
l-28 -190q-12 -90 33 -144q46 -53 147 -59z" />
    <glyph glyph-name="braceright.case" horiz-adv-x="757" 
d="M72 -119l24 162q104 6 167 59q62 53 75 144l29 190q18 117 62 178t138 91q-85 29 -111 90t-7 178l28 190q14 89 -32 143t-148 60l25 162q182 -8 268 -104t61 -261l-28 -186q-16 -106 17 -152q34 -45 140 -47l25 -2l-23 -143l-26 -2q-109 -2 -154 -47t-61 -152l-29 -186
q-26 -164 -140 -260t-300 -105z" />
    <glyph glyph-name="bracketleft.case" horiz-adv-x="751" 
d="M168 -96l242 1591h477l-25 -158h-301l-194 -1276h303l-25 -157h-477z" />
    <glyph glyph-name="bracketright.case" horiz-adv-x="751" 
d="M76 -96l24 157h303l193 1276h-303l22 158h478l-240 -1591h-477z" />
    <glyph glyph-name="parenleft.case" horiz-adv-x="729" 
d="M219 551q0 299 116 507t437 439l98 -106q-172 -131 -268 -240q-199 -226 -201 -588q-1 -162 61 -295t197 -268l-129 -109q-162 152 -236 310q-75 158 -75 350z" />
    <glyph glyph-name="parenright.case" horiz-adv-x="729" 
d="M723 840q-1 -300 -117 -508t-438 -441l-98 109q172 131 267 240q198 227 200 587q0 162 -61 295q-60 133 -195 269l129 106q162 -151 238 -309t75 -348z" />
    <glyph glyph-name="emdash.case" horiz-adv-x="2150" 
d="M311 604l27 166h1708l-27 -166h-1708z" />
    <glyph glyph-name="endash.case" horiz-adv-x="1521" 
d="M311 604l27 166h1079l-26 -166h-1080z" />
    <glyph glyph-name="hyphen.case" horiz-adv-x="1165" 
d="M311 602l27 166h723l-27 -166h-723z" />
    <glyph glyph-name="guillemotleft.case" horiz-adv-x="921" 
d="M987 995l-274 -307l182 -307h-170l-176 291l4 33l264 290h170zM625 995l-275 -307l180 -307h-170l-174 291l4 33l265 290h170z" />
    <glyph glyph-name="guillemotright.case" horiz-adv-x="921" 
d="M598 995h170l176 -290l-6 -33l-262 -291h-170l274 307zM236 995h170l174 -290l-5 -33l-264 -291h-170l275 307z" />
    <glyph glyph-name="guilsinglleft.case" horiz-adv-x="557" 
d="M625 995l-275 -307l180 -307h-170l-174 291l4 33l265 290h170z" />
    <glyph glyph-name="guilsinglright.case" horiz-adv-x="557" 
d="M236 995h170l174 -290l-5 -33l-264 -291h-170l275 307z" />
    <glyph glyph-name="cent.osf" horiz-adv-x="1234" 
d="M358 428q0 -139 82 -223t212 -84q128 0 216 56t125 147h176q-47 -142 -167 -234t-279 -113l-37 -245h-158l35 243q-178 19 -279 137t-102 296q0 238 151 400t386 185l37 252h159l-38 -254q153 -20 245 -112t95 -236h-177q-8 90 -78 148q-71 57 -190 57q-178 0 -296 -119
t-118 -301z" />
    <glyph glyph-name="dollar.osf" horiz-adv-x="1411" 
d="M918 1315q-170 0 -280 -80t-110 -203q0 -96 85 -147t207 -71t244 -49q122 -27 207 -103t85 -209q0 -197 -148 -326t-385 -152l-37 -237h-157l35 235q-238 17 -365 143t-117 333h180q2 -152 102 -238t290 -86q188 0 300 80t111 207q0 72 -46 118t-119 67q-73 22 -229 50
t-272 80q-73 33 -119 101t-46 167q0 197 152 326q153 129 401 141l37 238h157l-37 -244q195 -26 303 -134t103 -275h-182q-4 125 -92 197t-258 71z" />
    <glyph glyph-name="Euro.osf" horiz-adv-x="1896" 
d="M1084 137q192 1 344 99t229 270h188q-88 -244 -305 -388t-486 -144q-268 0 -444 144t-211 386h-237l18 121h211q0 92 23 186h-205l18 121h224q96 242 319 386q224 144 500 144t450 -144t189 -386h-189q-23 170 -145 268q-123 98 -322 98t-363 -99t-245 -267h688l-47 -121
h-686q-23 -86 -22 -178v-8h645l-45 -121h-586q37 -168 168 -268q132 -100 324 -99z" />
    <glyph glyph-name="florin.osf" horiz-adv-x="1120" 
d="M1066 1309q-83 1 -150 -59t-97 -160l-98 -334h369l-23 -142h-387l-129 -438q-53 -178 -165 -275t-271 -98q-100 0 -211 27l47 145q100 -18 155 -18q197 0 263 219l129 438h-283l23 142h303l98 334q51 178 163 275t271 97q102 0 211 -28l-49 -148q-86 23 -169 23z" />
    <glyph glyph-name="sterling.osf" horiz-adv-x="1349" 
d="M971 1462q223 0 346 -112t108 -295h-176q-8 127 -84 195q-77 68 -219 67q-142 0 -250 -90t-127 -240l-39 -250h498l-20 -145h-500l-68 -447h832l-23 -145h-1163l23 145h157l68 447h-158l23 145h155l39 250q33 213 194 344t384 131z" />
    <glyph glyph-name="yen.osf" horiz-adv-x="1441" 
d="M1636 1434l-694 -873h354l-20 -125h-395l-19 -129h395l-18 -125h-395l-29 -182h-184l28 182h-399l19 125h399l18 129h-399l20 125h359l-434 873h202l377 -768l613 768h202z" />
    <glyph glyph-name="cent.tf" 
d="M217 408q0 236 151 398t386 185l39 254h157l-39 -254q152 -20 245 -112t97 -236h-178q-8 89 -79 147t-189 58q-178 0 -296 -119t-118 -301q0 -139 82 -223t211 -84t217 56t125 147h176q-47 -142 -168 -234t-278 -113l-35 -245h-160l37 243q-178 19 -280 137t-103 296z
" />
    <glyph glyph-name="dollar.tf" 
d="M866 1315q-170 0 -280 -80t-109 -203q0 -96 85 -147t207 -71t244 -49q122 -27 207 -103t85 -209q1 -197 -147 -326t-386 -152l-37 -237h-157l34 235q-238 15 -364 141t-117 335h180q3 -152 103 -238t290 -86t300 80q111 80 110 207q0 72 -46 118t-119 67q-73 22 -228 50
t-274 80q-73 33 -119 101t-45 167q0 197 152 326q153 129 401 141l36 238h160l-37 -246q193 -24 301 -132t103 -275h-182q-5 125 -93 197t-258 71z" />
    <glyph glyph-name="Euro.tf" 
d="M801 125q197 0 301 121h215q-182 -274 -541 -275q-230 -1 -372 143t-164 390h-123l18 121h101q2 92 22 186h-96l20 121h109q86 244 275 387t435 143q358 0 459 -274h-215q-70 121 -252 121q-182 1 -314 -101t-200 -276h651l-47 -121h-641q-20 -94 -22 -186h600l-45 -121
h-549q23 -176 121 -278t254 -101z" />
    <glyph glyph-name="florin.tf" 
d="M1239 1309q-197 0 -262 -219l-98 -334h366l-20 -142h-389l-129 -438q-51 -178 -163 -275t-272 -98q-100 0 -211 27l48 145q100 -18 155 -18q98 0 165 59t97 160l129 438h-282l20 142h303l99 334q53 178 164 275q112 97 272 97q102 0 211 -28l-49 -148q-88 23 -154 23z
" />
    <glyph glyph-name="sterling.tf" 
d="M950 1462q223 0 345 -112t108 -295h-174q-10 127 -86 195q-77 68 -219 67q-142 0 -250 -90t-127 -240l-39 -250h500l-23 -145h-498l-69 -447h831l-22 -145h-1161l20 145h158l67 447h-155l20 145h158l39 250q33 213 193 344q161 131 384 131z" />
    <glyph glyph-name="yen.tf" 
d="M1497 1434l-631 -873h361l-19 -125h-397l-18 -129h397l-21 -125h-395l-29 -182h-184l29 182h-400l21 125h397l19 129h-398l19 125h362l-368 873h202l310 -768l542 768h201z" />
    <glyph glyph-name="cent.tosf" 
d="M215 408q0 236 152 398t387 185l37 254h159l-39 -254q152 -20 245 -112t95 -236h-176q-8 89 -79 147t-189 58q-178 0 -296 -119t-118 -301q0 -139 82 -223t211 -84t217 56t125 147h176q-47 -142 -168 -234t-278 -113l-37 -245h-158l35 243q-176 19 -280 137t-103 296z
" />
    <glyph glyph-name="dollar.tosf" 
d="M866 1315q-170 0 -280 -80t-109 -203q0 -96 85 -147t207 -71t244 -49q122 -27 207 -103t85 -209q1 -197 -147 -326t-386 -152l-37 -237h-157l34 235q-238 15 -364 141t-117 335h180q3 -152 103 -238t290 -86t300 80q111 80 110 207q0 72 -46 118t-119 67q-73 22 -228 50
t-274 80q-73 33 -119 101t-45 167q0 197 152 326q153 129 401 141l36 238h160l-37 -246q193 -24 301 -132t103 -275h-182q-5 125 -93 197t-258 71z" />
    <glyph glyph-name="Euro.tosf" 
d="M801 125q197 0 301 121h215q-182 -274 -541 -275q-230 -1 -372 143t-164 390h-123l18 121h101q2 92 22 186h-96l20 121h109q86 244 275 387t435 143q358 0 459 -274h-215q-70 121 -252 121q-182 1 -314 -101t-200 -276h651l-47 -121h-641q-20 -94 -22 -186h600l-45 -121
h-549q23 -176 121 -278t254 -101z" />
    <glyph glyph-name="florin.tosf" 
d="M1239 1309q-197 0 -262 -219l-98 -334h366l-20 -142h-389l-129 -438q-51 -178 -163 -275t-272 -98q-100 0 -211 27l48 145q100 -18 155 -18q98 0 165 59t97 160l129 438h-282l20 142h303l99 334q53 178 164 275q112 97 272 97q102 0 211 -28l-49 -148q-88 23 -154 23z
" />
    <glyph glyph-name="sterling.tosf" 
d="M950 1462q223 0 345 -112t108 -295h-174q-10 127 -86 195q-77 68 -219 67q-142 0 -250 -90t-127 -240l-39 -250h500l-23 -145h-498l-69 -447h831l-22 -145h-1161l20 145h158l67 447h-155l20 145h158l39 250q33 213 193 344q161 131 384 131z" />
    <glyph glyph-name="yen.tosf" 
d="M1497 1434l-631 -873h361l-19 -125h-397l-18 -129h397l-21 -125h-395l-29 -182h-184l29 182h-400l21 125h397l19 129h-398l19 125h362l-368 873h202l310 -768l542 768h201z" />
    <glyph glyph-name="at.case" horiz-adv-x="2138" 
d="M1181 963q-122 -1 -217 -93q-96 -92 -96 -212t66 -186t189 -66q124 0 214 91t90 213t-62 188q-62 65 -184 65zM1030 -150q-330 0 -556 214t-226 532q0 252 147 469t392 344t522 127q358 0 577 -198t219 -511q-1 -243 -121 -397t-309 -154q-96 0 -159 46t-86 127
q-60 -83 -158 -131t-205 -48q-164 0 -262 98t-98 259q0 201 140 335t345 134q90 0 164 -38t106 -100h4l17 105h155l-67 -447q-31 -215 125 -215q114 0 194 113t80 293q0 266 -188 437t-492 171q-229 0 -437 -105q-208 -104 -338 -292t-130 -410q0 -270 193 -453t475 -183
t532 161l57 -106q-282 -177 -612 -177z" />
    <glyph glyph-name="caron.alt" horiz-adv-x="403" 
d="M266 1077l76 387h180l-121 -387h-135z" />
    <glyph glyph-name="acute.cap" horiz-adv-x="571" 
d="M346 1581l-4 6l217 295h195l-250 -301h-158z" />
    <glyph glyph-name="breve.cap" horiz-adv-x="835" 
d="M660 1593q-146 0 -218 82t-55 211h131q-6 -80 34 -130t125 -50t139 49t73 131h129q-23 -129 -118 -211q-94 -82 -240 -82z" />
    <glyph glyph-name="caron.cap" horiz-adv-x="913" 
d="M608 1579l-221 301h168l156 -194l215 194h168l-312 -301h-174z" />
    <glyph glyph-name="circumflex.cap" horiz-adv-x="913" 
d="M342 1579l311 301h174l222 -301h-168l-156 195l-215 -195h-168z" />
    <glyph glyph-name="dieresis.cap" horiz-adv-x="837" 
d="M754 1606l34 219h224l-33 -219h-225zM344 1606l35 219h223l-33 -219h-225z" />
    <glyph glyph-name="dotaccent.cap" horiz-adv-x="428" 
d="M379 1825h223l-33 -219h-225z" />
    <glyph glyph-name="grave.cap" horiz-adv-x="571" 
d="M705 1581h-158l-160 301h195l127 -295z" />
    <glyph glyph-name="hungarumlaut.cap" horiz-adv-x="835" 
d="M645 1591l-2 6l193 293h184l-229 -299h-146zM346 1591l-2 6l193 293h184l-229 -299h-146z" />
    <glyph glyph-name="macron.cap" horiz-adv-x="811" 
d="M346 1608l21 135h604l-21 -135h-604z" />
    <glyph glyph-name="ring.cap" horiz-adv-x="647" 
d="M479 1801q0 -49 29 -75t79 -26t90 36t40 84t-29 74t-79 27q-50 0 -90 -36t-40 -84zM578 1610q-98 0 -151 48q-52 48 -52 135t72 153q73 66 171 66t151 -49q52 -48 52 -136t-72 -153q-73 -64 -171 -64z" />
    <glyph glyph-name="tilde.cap" horiz-adv-x="911" 
d="M861 1620q-81 0 -163 57t-114 58q-70 0 -90 -82h-142q18 96 83 155q65 60 149 60t162 -56t116 -55q70 0 84 82h141q-12 -94 -78 -157q-67 -62 -148 -62z" />
    <glyph glyph-name="IJacute" horiz-adv-x="1828" 
d="M1135.5 -29q-234.5 0 -362.5 117t-120 324h181q4 -129 84.5 -205t238.5 -76t266.5 105.5t135.5 275.5l116 764h-698l24 158h881l-139 -928q-39 -250 -206 -392.5t-401.5 -142.5zM184 0l217 1434h181l-217 -1434h-181zM1370 1581l-4 6l217 295h195l-250 -301h-158z
M430 1581l-4 6l217 295h195l-250 -301h-158z" />
    <glyph glyph-name="ijacute" horiz-adv-x="1085" 
d="M457 -496h-35l22 144l15 2q117 6 174 57t76 182l163 1080h177l-160 -1061q-33 -213 -136.5 -308.5t-295.5 -95.5zM184 0l146 969h176l-148 -969h-174zM899 1151v6l215 293h195l-252 -299h-158zM354 1151v6l215 293h195l-252 -299h-158z" />
    <glyph glyph-name="ijacute.ss07" horiz-adv-x="1085" 
d="M655 -467l217 1436h177l-220 -1436h-174zM184 0l146 969h176l-148 -969h-174zM897 1151v6l215 293h195l-252 -299h-158zM354 1151v6l215 293h195l-252 -299h-158z" />
    </font>
</defs>
</svg>
